<svg width="240" height="358" viewBox="0 0 240 358" fill="none" xmlns="http://www.w3.org/2000/svg">
<rect width="240" height="358" rx="5" fill="#2B3377"/>
<path opacity="0.2" d="M193.962 165.045H193.69H193.417H193.145H193.281C192.328 165.045 191.51 164.373 191.51 163.567C191.51 162.761 192.191 162.09 193.145 162.09H193.281H196.687C198.73 162.09 200.365 160.746 200.365 159.134C200.365 157.522 198.867 156.313 196.959 156.179C196.823 156.179 196.823 156.179 196.687 156.179H196.551H196.414H195.461H195.325C194.371 156.179 193.417 155.507 193.417 154.701C193.417 153.896 194.235 153.224 195.325 153.224H200.093C201.046 153.224 202 152.552 202 151.746C202 150.94 201.183 150 200.093 150H200.501H190.693H163.31C161.675 150 160.858 150.672 160.858 151.478C160.858 152.284 161.675 152.955 162.765 152.955H164.536H164.809C165.762 152.955 166.716 153.627 166.716 154.433C166.716 155.239 165.762 156.045 164.672 156.045H160.994H159.087H158.678C156.635 156.045 155 157.388 155 159.134C155 160.881 156.635 162.09 158.678 162.09H159.223H162.357H162.629C162.357 162.09 162.765 162.09 162.901 162.09C163.719 162.224 164.4 162.896 164.4 163.567C164.4 164.239 163.719 164.91 162.901 165.045C162.765 165.045 162.629 165.045 162.629 165.045H158.951C157.997 165.045 157.043 165.716 157.043 166.522C157.043 167.328 157.861 168 158.951 168H159.223H167.261H194.099C195.052 168 196.006 167.328 196.006 166.522C196.006 165.716 195.052 165.045 193.962 165.045Z" fill="white"/>
<path opacity="0.2" d="M201 237H200.6H194.2C192.7 237 191.5 236 191.5 234.8C191.5 233.6 192.7 232.6 194.2 232.6H197.8C199.3 232.6 200.5 231.6 200.5 230.4C200.5 229.2 199.3 228 197.9 228H197.5H190H179.6H157.7C156.2 228 155 229 155 230.2C155 231.4 156.2 232.4 157.7 232.4H175.3H175.7C177.2 232.4 178.4 233.4 178.4 234.6C178.4 235.8 177.2 237 175.7 237H171.2H166.7C165.2 237 164 238 164 239.2C164 240.4 165.2 241.4 166.7 241.4H167.1H179.7H190H201C202.5 241.4 203.7 240.4 203.7 239.2C203.7 238 202.5 237 201 237Z" fill="white"/>
<path opacity="0.2" d="M66.2 119.2C66.2 120.4 65 121.4 63.5 121.4H62.6H58.1H36.2H23.1H22.7C21.2 121.4 20 120.4 20 119.2C20 118 21.2 117 22.7 117H27.2H31.7C33.2 117 34.4 116 34.4 114.8C34.4 113.6 33.2 112.6 31.7 112.6H31.3H27.2C25.7 112.6 24.5 111.6 24.5 110.4C24.5 109.2 25.7 108 27.2 108H36.2H58.1H65.7H66C67.5 108 68.7 109 68.7 110.2C68.7 111.4 67.5 112.5 66 112.5H62.4C60.9 112.5 59.7 113.5 59.7 114.7C59.7 115.9 61 117 62.4 117H63.1H63.5C65 117 66.2 118 66.2 119.2Z" fill="white"/>
<path d="M64.4283 229.176C67.757 226.291 70.5865 232.504 74.7475 230.23C76.5784 229.231 78.853 224.737 82.3483 224.515C87.7853 224.127 91.7244 232.504 85.1778 236.166C80.462 238.774 80.7948 241.104 77.8544 247.817L70.3091 246.485C69.6434 238.33 60.933 232.227 64.4283 229.176Z" fill="#5C6AB0"/>
<path d="M62.32 236.11C62.9858 232.449 70.3646 235.001 68.3673 230.951C66.2591 226.679 64.1508 223.683 66.2036 220.631C69.0331 216.47 74.5811 219.355 74.7475 225.014C74.9139 231.117 80.1845 224.848 82.1818 228.343C84.9558 233.114 79.0195 234.279 78.1873 244.432L70.3091 245.431C69.6433 241.88 61.3768 241.381 62.32 236.11Z" fill="#415097"/>
<path d="M67.2578 244.266C67.1468 245.653 67.0913 247.095 67.0913 248.593C67.0913 255.14 68.1454 260.965 69.8653 264.793H79.2969C80.9613 260.965 82.0709 255.14 82.0709 248.593C82.0709 247.095 82.0154 245.653 81.9045 244.266H67.2578Z" fill="#EEA320"/>
<path d="M65.2508 297.116H77.8447V264.66H65.2508V297.116Z" fill="#FFCC42"/>
<path d="M77.6834 297.116H84.8958V264.66H77.6834V297.116Z" fill="#EEA320"/>
<path d="M49.5596 272.283C52.2227 269.231 55.607 274.946 59.2686 272.227C60.8776 271.007 61.2659 266.346 64.8166 265.348C70.3092 263.85 72.8058 268.288 70.9194 274.447C69.0331 280.549 68.4783 279.717 67.2578 285.764L55.8844 284.71C52.9994 278.275 46.7857 275.501 49.5596 272.283Z" fill="#5C6AB0"/>
<path d="M48.5055 277.276C49.2267 274.28 54.2199 276.111 53.2213 272.505C52.2226 268.899 50.8356 266.846 52.611 264.627C55.2185 261.409 59.4905 264.294 61.7097 268.233C64.3173 272.838 67.4796 268.122 69.6433 270.952C72.5838 274.891 66.2591 275.834 65.3714 284.1L56.9939 284.933C56.3281 281.992 47.5068 281.548 48.5055 277.276Z" fill="#415097"/>
<path d="M51.9452 282.88C51.8343 283.878 51.7788 284.877 51.7788 285.876C51.7788 290.425 53.0548 294.475 55.1076 297.138H66.4255C68.4228 294.475 69.7543 290.425 69.7543 285.876C69.7543 284.822 69.6988 283.823 69.5879 282.88H51.9452Z" fill="#EEA320"/>
<path d="M145.54 125.427C145.595 124.762 145.096 124.151 144.597 124.207C144.264 124.207 143.987 124.207 143.654 124.151L142.6 124.04C142.322 123.985 142.1 124.207 142.045 124.54C141.989 125.261 142.433 125.982 143.043 126.038L144.319 126.426C144.874 126.703 145.484 126.204 145.54 125.427Z" fill="#F3AA7D"/>
<path d="M144.097 124.595C143.598 124.983 143.432 125.649 143.654 126.148L144.652 128.146C144.874 128.645 145.484 128.701 145.928 128.368C146.428 127.979 146.594 127.314 146.372 126.814L145.373 124.817C145.152 124.318 144.597 124.207 144.097 124.595Z" fill="#F3AA7D"/>
<path d="M116.801 180.463C108.091 182.072 102.099 187.787 101.156 200.824C100.213 213.862 90.7257 220.686 101.156 224.292C111.586 227.899 117.245 231.505 120.962 219.799C124.679 208.037 116.801 180.463 116.801 180.463Z" fill="#5C6AB0"/>
<path d="M118.91 151.281C117.079 153.334 114.749 159.769 118.355 164.596C121.906 169.423 126.455 156.663 125.345 154.055C124.18 151.392 120.13 149.894 118.91 151.281Z" fill="#123C63"/>
<path d="M144.597 131.919C147.482 141.184 154.916 152.169 155.138 157.772C155.36 163.376 151.143 163.598 148.98 161.989C146.816 160.38 143.432 142.293 140.658 132.862C137.884 123.541 144.597 131.919 144.597 131.919Z" fill="#F3AA7D"/>
<path d="M139.049 127.48C138.993 125.205 146.206 127.536 146.206 127.536C146.206 127.536 146.095 137.3 142.433 135.469C138.327 133.416 137.828 131.586 137.828 131.586C137.828 131.586 139.104 129.755 139.049 127.48Z" fill="#F3AA7D"/>
<path d="M153.64 155.72C156.525 157.273 155.637 160.99 152.808 166.982C149.979 172.974 149.479 179.631 144.708 184.68C139.992 189.729 133.002 187.066 135.776 180.075C138.55 173.14 146.039 160.38 149.257 157.273C152.475 154.111 153.64 155.72 153.64 155.72Z" fill="#F3AA7D"/>
<path d="M144.208 189.84C145.318 187.121 156.192 166.926 156.192 159.936C156.192 152.945 149.812 141.295 149.812 141.295L142.267 151.004C142.267 151.004 144.985 156.773 145.263 160.047C145.54 163.32 136.386 176.913 134.278 178.965C128.23 184.735 141.102 197.44 144.208 189.84Z" fill="#F4F5FA"/>
<path d="M92.1682 172.696C90.7257 175.637 93.6661 178.133 99.547 181.296C105.372 184.458 109.755 189.451 116.524 190.727C123.348 192.003 127.342 185.678 121.018 181.739C114.638 177.8 101.045 171.975 96.6066 171.365C92.1682 170.754 92.1682 172.696 92.1682 172.696Z" fill="#F3AA7D"/>
<path d="M121.351 217.08C104.596 218.023 111.142 261.52 111.087 268.677C111.087 275.834 118.355 283.212 121.628 268.677C125.789 250.146 133.112 232.393 128.286 224.958C123.514 217.58 121.351 217.08 121.351 217.08Z" fill="#B3B9DD"/>
<path d="M111.364 306.015L111.642 314.614L115.081 314.892L116.136 304.018L111.364 306.015Z" fill="#F3AA7D"/>
<path d="M113.694 266.569C123.403 266.901 121.906 282.824 120.574 289.149C119.242 295.474 116.413 309.898 116.413 309.898L110.31 309.233C110.31 309.233 109.866 276 110.532 271.617C111.198 267.234 113.694 266.569 113.694 266.569Z" fill="#B3B9DD"/>
<path d="M146.705 304.017L147.648 313.948L144.32 314.836L141.379 304.35L146.705 304.017Z" fill="#F3AA7D"/>
<path d="M141.601 265.958C136.109 265.958 134.611 276.832 136.719 284.433C138.661 291.368 142.045 309.621 142.045 309.621L148.314 308.733C148.314 308.733 146.095 275.057 145.152 270.785C144.153 266.402 141.601 265.958 141.601 265.958Z" fill="#B3B9DD"/>
<path d="M132.613 218.301C149.368 218.412 145.041 262.185 145.374 269.287C145.762 276.444 138.272 284.322 134.832 269.786C129.839 248.704 121.573 234.113 126.011 226.456C130.505 218.856 132.613 218.301 132.613 218.301Z" fill="#B3B9DD"/>
<path d="M140.491 178.744C137.828 177.079 132.946 176.414 129.062 176.247C128.119 176.192 127.287 176.192 126.51 176.192C123.292 176.192 114.194 178.133 111.364 179.409C105.705 181.962 109.811 194.223 110.809 198.994L114.582 220.964C114.582 220.964 115.137 225.458 126.011 225.458C136.663 225.458 139.493 221.852 139.493 221.852L146.261 184.736C146.261 181.74 143.043 180.297 140.491 178.744Z" fill="#F4F5FA"/>
<path d="M122.849 157.106L130.893 158.715V178.744H122.849V157.106Z" fill="#F3AA7D"/>
<path d="M133.667 180.297C134.943 178.966 134.278 176.746 132.447 176.414C130.283 175.97 128.008 175.526 126.51 175.526C125.068 175.526 122.849 176.192 120.519 176.802C118.688 177.301 118.133 179.631 119.52 180.852C121.073 182.239 123.404 183.016 126.067 183.016C129.118 183.016 132.003 182.017 133.667 180.297Z" fill="#F3AA7D"/>
<path d="M116.246 312.783L110.864 312.839L106.592 318.442L116.856 318.498L116.246 312.783Z" fill="#415097"/>
<path d="M106.564 319.414H116.828V318.138H106.564V319.414Z" fill="#F6F8FA"/>
<path d="M114.915 313.726L111.309 313.671L111.642 313.338L115.026 313.449L114.915 313.726Z" fill="#F4F5FA"/>
<path d="M114.527 315.446L110.92 315.391L111.253 315.058L114.638 315.169L114.527 315.446Z" fill="#F4F5FA"/>
<path d="M111.42 314.558L115.026 314.503L114.749 314.17L111.309 314.281L111.42 314.558Z" fill="#F4F5FA"/>
<path d="M116.857 318.165C116.857 316.889 115.803 315.89 112.307 315.945C108.812 316.001 106.593 316.611 106.593 318.165C106.593 319.718 112.03 318.775 112.03 318.775L116.857 318.165Z" fill="#F6F8FA"/>
<path d="M143.265 312.783L148.647 312.839L152.919 318.442L142.655 318.498L143.265 312.783Z" fill="#415097"/>
<path d="M152.919 318.165H142.655V319.441H152.919V318.165Z" fill="#F6F8FA"/>
<path d="M144.597 313.726L148.148 313.671L147.87 313.338L144.486 313.449L144.597 313.726Z" fill="#F4F5FA"/>
<path d="M144.93 315.446L148.536 315.391L148.259 315.058L144.874 315.169L144.93 315.446Z" fill="#F4F5FA"/>
<path d="M148.092 314.558L144.486 314.503L144.763 314.17L148.148 314.281L148.092 314.558Z" fill="#F4F5FA"/>
<path d="M142.655 318.165C142.655 316.889 143.709 315.89 147.204 315.945C150.7 316.001 152.919 316.611 152.919 318.165C152.919 319.718 147.482 318.775 147.482 318.775L142.655 318.165Z" fill="#F6F8FA"/>
<path d="M108.923 303.074L109.201 309.787L116.912 310.176C116.912 310.176 118.244 304.628 117.967 304.572C117.689 304.406 108.923 303.074 108.923 303.074Z" fill="#415097"/>
<path d="M139.826 303.518L141.712 310.12L148.98 309.122L148.425 303.074L139.826 303.518Z" fill="#415097"/>
<path d="M131.781 160.38C132.613 158.882 133.223 158.438 132.613 155.387C131.504 149.894 124.957 151.115 121.739 151.448C116.025 151.947 115.803 169.978 119.132 171.92C122.46 173.861 129.229 169.978 129.506 167.703C129.673 166.427 129.95 166.15 130.172 165.262C130.949 165.373 131.726 164.097 132.225 163.265C132.891 162.155 132.669 160.879 131.781 160.38Z" fill="#F3AA7D"/>
<path d="M117.19 150.782C118.299 153.611 118.41 155.83 122.849 156.052C129.839 156.385 128.341 162.599 128.341 162.599H129.34C129.34 162.599 129.284 160.99 130.671 160.657C132.058 160.38 132.613 161.378 132.336 162.599C132.003 163.819 130.616 164.929 130.616 164.929L130.949 171.697C130.949 171.697 132.114 167.259 134.61 163.597C144.93 148.34 127.953 146.898 122.682 147.397C119.409 147.73 115.026 145.178 117.19 150.782Z" fill="#1B507B"/>
<path d="M114.416 195.831C109.312 188.397 95.1087 182.35 90.7812 176.913C86.0654 170.976 83.125 166.871 83.125 166.871L90.4484 160.934C90.4484 160.934 95.8299 166.26 98.8258 168.591C101.433 170.588 115.359 178.078 118.188 178.688C126.51 180.408 119.132 202.6 114.416 195.831Z" fill="#F4F5FA"/>
<path d="M109.312 219.965C109.312 219.965 123.736 185.235 114.693 176.968C114.638 176.913 114.86 176.802 114.86 176.802L120.851 176.413C130.172 184.403 111.697 220.52 111.697 220.52L109.312 219.965Z" fill="#FFCC42"/>
<path d="M162.184 136.302C161.629 134.36 159.854 134.582 159.854 134.582C159.854 134.582 160.741 133.417 161.796 133.75C162.905 134.138 163.959 134.693 164.791 136.413C165.18 137.189 162.184 136.302 162.184 136.302Z" fill="#446484"/>
<path d="M155.804 138.964C151.643 130.975 147.26 126.093 143.875 126.426C140.491 126.759 137.44 129.2 137.329 131.641C137.218 134.082 139.936 142.46 138.938 143.736C137.939 145.012 136.663 146.399 136.053 144.679C135.443 142.959 134.222 137.966 135.221 133.472C136.441 128.09 139.77 124.983 144.874 125.261C149.923 125.594 159.465 136.801 159.465 136.801L155.804 138.964Z" fill="#415097"/>
<path d="M165.18 136.135C162.295 131.53 158.799 133.916 157.412 136.523C156.025 139.131 160.575 136.191 160.575 136.191C160.575 136.191 161.074 133.694 162.683 134.471C164.292 135.247 164.292 136.08 164.292 136.08L165.18 136.135Z" fill="#415097"/>
<path d="M137.551 142.515L148.758 173.639L146.927 175.748L136.552 143.736L137.551 142.515Z" fill="#415097"/>
<path d="M155.193 137.688C152.364 140.019 144.375 172.918 145.484 175.859C146.594 178.799 157.302 179.187 158.356 179.409C159.41 179.576 168.453 178.411 169.951 176.081C171.449 173.75 174.611 153.889 174.611 153.889C174.611 153.889 176.498 143.292 175.721 141.628C175 139.963 168.509 137.522 167.898 137.356C167.288 137.134 166.789 137.356 166.789 137.356C166.789 137.356 166.511 136.634 165.901 136.357C164.958 135.802 157.357 135.913 155.193 137.688Z" fill="#415097"/>
<path d="M165.013 171.42C159.576 163.265 169.063 152.446 165.013 142.959C163.737 140.463 158.966 139.076 155.083 137.855C155.138 137.8 155.138 137.744 155.193 137.744C157.357 135.969 164.958 135.858 166.012 136.302C166.622 136.579 166.9 137.3 166.9 137.3C166.9 137.3 167.344 137.078 168.009 137.3C168.62 137.522 175.111 139.963 175.832 141.572C176.553 143.237 174.722 153.833 174.722 153.833C174.722 153.833 171.56 173.695 170.062 176.025C169.951 176.247 169.729 176.414 169.507 176.58C167.732 175.249 166.179 173.529 165.013 171.42Z" fill="#5C6AB0"/>
<path d="M152.086 178.688L152.863 178.744C152.031 177.911 152.919 172.419 154.195 166.982C154.694 164.874 155.193 162.654 155.693 160.38C156.358 157.106 156.802 153.833 157.135 150.948C157.856 145.123 158.467 140.573 160.63 139.02C163.737 136.745 166.9 137.245 166.9 137.245C165.679 136.69 162.572 136.69 160.187 138.354C157.745 140.074 157.135 144.845 156.358 150.837C155.97 153.722 155.582 156.94 154.916 160.213C154.417 162.488 153.917 164.707 153.473 166.815C151.754 174.083 150.977 177.578 152.086 178.688Z" fill="#2B3377"/>
<path d="M152.198 173.584L152.308 172.807C150.866 172.585 147.038 172.03 145.984 169.922L145.873 170.643C146.816 172.807 151.643 173.473 152.198 173.584Z" fill="#2B3377"/>
<path d="M157.856 179.354C157.856 179.354 158.911 176.968 159.743 174.194C160.575 171.365 164.403 153.223 164.902 149.395C165.402 145.567 164.902 142.293 164.902 142.293C163.848 148.285 159.854 171.143 159.022 173.917C158.189 176.691 157.413 179.243 157.413 179.243L157.856 179.354Z" fill="#2B3377"/>
<path d="M161.796 154.998C162.295 154.998 162.739 154.887 163.238 154.721L162.905 154.055C160.963 154.721 157.856 153.112 156.802 152.446L156.248 153.168C156.414 153.334 159.133 154.998 161.796 154.998Z" fill="#2B3377"/>
<path d="M84.9002 158.549C92.1681 163.598 100.546 168.48 102.709 172.53C105.594 177.856 100.934 182.072 97.7716 181.795C93.1667 181.351 86.0098 172.641 79.1858 164.43L84.9002 158.549Z" fill="#F4F5FA"/>
<path d="M84.8448 161.379C82.6256 161.545 80.351 161.656 80.351 161.656C78.6311 159.548 77.0777 157.661 75.8571 156.108C69.3105 147.952 78.853 153.389 78.853 153.389C80.6838 154.832 82.6256 156.385 84.6784 157.939L84.8448 161.379Z" fill="#F3AA7D"/>
<path d="M77.9653 145.567C77.9653 144.79 77.2996 144.235 76.5228 144.346C76.079 144.402 75.6906 144.402 75.2468 144.402H73.8043C73.416 144.402 73.1386 144.679 73.0831 145.068C73.0276 145.9 73.7488 146.566 74.581 146.621L76.4119 146.899C77.1886 147.065 77.9653 146.399 77.9653 145.567Z" fill="#F3AA7D"/>
<path d="M76.1344 144.679C75.6351 145.068 75.5796 145.789 75.9125 146.233L77.5214 148.23C77.9097 148.729 78.631 148.785 79.0748 148.452C79.5741 148.063 79.6296 147.342 79.2967 146.898L77.6878 144.846C77.3549 144.402 76.6337 144.291 76.1344 144.679Z" fill="#F3AA7D"/>
<path d="M78.7975 146.843C78.2427 146.732 77.7434 147.12 77.6324 147.675L77.2441 149.95C77.1331 150.504 77.5215 151.004 78.0763 151.115C78.6311 151.226 79.1304 150.837 79.2414 150.282L79.6297 148.008C79.6852 147.453 79.3523 146.898 78.7975 146.843Z" fill="#F3AA7D"/>
<path d="M79.1858 150.56L79.1303 151.115L73.9152 155.276C73.0275 154.666 72.6392 154.333 72.0844 153.667L71.9734 153.556L71.4186 151.17C71.1967 150.893 71.1967 148.563 71.8625 144.346C72.0844 143.015 76.3008 145.401 77.4659 147.176C78.1317 148.175 78.9639 149.506 78.9639 149.506C79.1858 149.839 79.2413 150.172 79.1858 150.56Z" fill="#F3AA7D"/>
<path d="M83.0139 160.103L78.9084 152.336C78.9084 152.225 79.1858 150.616 79.1858 150.505C79.2413 150.172 79.1303 149.839 78.9639 149.562C78.4091 148.729 77.4104 147.176 77.4104 147.176C75.6906 148.175 76.2454 150.616 75.4686 151.503C74.359 150.116 70.9193 151.892 71.9734 153.612L72.0844 153.723C72.6392 154.388 73.0275 154.721 73.9152 155.331L81.294 161.545L83.0139 160.103Z" fill="#F3AA7D"/>
<path d="M58.8801 157.939L76.2454 179.631L105.483 156.163L88.1181 134.471L58.8801 157.939Z" fill="#415097"/>
<path d="M60.1006 158.161L77.4103 179.853L106.704 156.33L89.3385 134.693L60.1006 158.161Z" fill="#B3B9DD"/>
<path d="M61.5986 158.161L78.9639 179.853L108.202 156.33L90.8921 134.693L61.5986 158.161Z" fill="white"/>
<path d="M92.2236 144.235L99.547 153.39L100.657 152.502L93.3332 143.348L92.2236 144.235Z" fill="#B3B9DD"/>
<path opacity="0.6" d="M80.7947 162.044L84.8447 167.148L85.2886 166.816L81.183 161.767L80.7947 162.044Z" fill="#B4B9DD"/>
<path opacity="0.6" d="M80.5173 163.431L84.0126 167.814L84.4009 167.481L80.9057 163.154L80.5173 163.431Z" fill="#B4B9DD"/>
<path opacity="0.6" d="M78.853 163.154L83.125 168.48L83.5133 168.203L79.2414 162.821L78.853 163.154Z" fill="#B4B9DD"/>
<path opacity="0.6" d="M80.0181 166.316L82.2927 169.201L82.6811 168.868L80.4064 166.039L80.0181 166.316Z" fill="#B4B9DD"/>
<path opacity="0.6" d="M75.6907 155.719L79.7962 160.768L80.1846 160.435L76.1345 155.387L75.6907 155.719Z" fill="#B4B9DD"/>
<path opacity="0.6" d="M75.4131 157.107L78.9083 161.434L79.2967 161.157L75.8014 156.774L75.4131 157.107Z" fill="#B4B9DD"/>
<path opacity="0.6" d="M73.7488 156.774L78.0207 162.155L78.4646 161.822L74.1371 156.496L73.7488 156.774Z" fill="#B4B9DD"/>
<path opacity="0.6" d="M74.9138 159.992L77.1885 162.821L77.5769 162.544L75.3022 159.659L74.9138 159.992Z" fill="#B4B9DD"/>
<path d="M68.8665 148.063C68.4227 148.396 68.3672 149.007 68.7001 149.45L69.9761 151.059C70.309 151.503 70.9193 151.559 71.3631 151.226C71.807 150.893 71.8624 150.283 71.5296 149.839L70.2535 148.23C69.9206 147.786 69.3104 147.731 68.8665 148.063Z" fill="#F3AA7D"/>
<path d="M72.4727 143.514C71.7515 143.68 71.2521 144.291 71.3631 144.901L72.1398 148.896C72.2508 149.506 72.972 149.839 73.6933 149.728C74.4145 149.561 74.9138 148.951 74.8029 148.341L74.0261 144.346C73.9152 143.736 73.1939 143.348 72.4727 143.514Z" fill="#F3AA7D"/>
<path d="M69.9207 145.733C69.4214 146.011 69.2549 146.621 69.5323 147.12L71.3077 150.338C71.5851 150.837 72.1954 151.004 72.6947 150.726C73.194 150.449 73.3604 149.839 73.083 149.339L71.3077 146.121C71.0303 145.678 70.42 145.456 69.9207 145.733Z" fill="#F3AA7D"/>
<path d="M74.8028 143.348C74.248 143.459 73.8597 144.013 73.9706 144.568L74.6364 147.897C74.7474 148.452 75.3022 148.84 75.857 148.729C76.4118 148.618 76.8001 148.063 76.6892 147.509L76.0234 144.18C75.9679 143.625 75.4131 143.237 74.8028 143.348Z" fill="#F3AA7D"/>
<path d="M102.21 147.73C102.876 146.732 102.709 145.234 101.766 144.013C100.823 142.848 99.3806 142.349 98.271 142.793L102.21 147.73Z" fill="#415097"/>
<path d="M144.319 124.651C143.875 124.651 143.432 124.651 142.988 124.595L144.319 124.651Z" fill="#F3AA7D"/>
<path d="M136.386 127.924C135.942 128.257 135.775 128.923 136.108 129.366L137.273 131.197C137.606 131.697 138.217 131.808 138.66 131.475C139.104 131.142 139.271 130.476 138.938 130.032L137.773 128.257C137.495 127.758 136.83 127.591 136.386 127.924Z" fill="#F3AA7D"/>
<path d="M138.993 124.151C138.494 124.54 138.328 125.261 138.66 125.76L140.935 129.366C141.268 129.921 141.989 130.032 142.489 129.699C142.988 129.311 143.154 128.59 142.821 128.035L140.547 124.429C140.214 123.929 139.493 123.818 138.993 124.151Z" fill="#F3AA7D"/>
<path d="M137.773 125.538C137.218 125.816 136.941 126.482 137.163 127.036L138.661 130.587C138.882 131.142 139.548 131.364 140.158 131.086C140.713 130.809 140.991 130.143 140.769 129.588L139.271 126.038C138.993 125.483 138.328 125.261 137.773 125.538Z" fill="#F3AA7D"/>
<path d="M140.991 123.208C140.491 123.541 140.38 124.262 140.713 124.762L142.655 127.758C142.988 128.257 143.654 128.423 144.153 128.09C144.652 127.758 144.763 127.036 144.43 126.537L142.489 123.541C142.1 123.042 141.434 122.875 140.991 123.208Z" fill="#F3AA7D"/>
<path d="M76.3564 151.614L89.0059 167.759" stroke="#2B3277" stroke-miterlimit="10"/>
<path d="M166.844 155.387C168.065 155.387 169.951 155.054 172.891 154.499C172.891 154.499 173.946 154.332 174.223 154.277C174.5 154.221 174.5 153.389 174.112 153.5C173.668 153.611 172.78 153.722 172.78 153.722C168.841 154.443 166.678 154.832 165.845 154.388C164.958 153.944 165.069 154.832 165.457 155.054C165.845 155.387 166.234 155.387 166.844 155.387Z" fill="#2B3377"/>
<path d="M77.7988 150.171L90.3928 166.316" stroke="#2B3277" stroke-miterlimit="10"/>
<path d="M79.075 148.84L91.7244 164.985" stroke="#2B3277" stroke-miterlimit="10"/>
<path d="M166.289 155.109L166.4 159.159C166.4 159.159 166.4 159.492 165.901 159.437C165.402 159.437 165.291 159.048 165.291 159.048L165.957 155.109H166.289Z" fill="#2B3377"/>
<path d="M89.4733 148.532L85.9023 144.071L81.9608 147.226L85.5318 151.687L89.4733 148.532Z" fill="#2B3377"/>
<path d="M93.8651 154.013L90.2942 149.551L86.3527 152.706L89.9236 157.168L93.8651 154.013Z" fill="#2B3377"/>
<path d="M98.2238 159.526L94.6528 155.065L90.7113 158.22L94.2823 162.681L98.2238 159.526Z" fill="#2B3377"/>
<path opacity="0.68" d="M97.6051 114.942H95.9962V113.333C95.9962 113.166 95.8853 113 95.6633 113C95.4414 113 95.3305 113.111 95.3305 113.333V114.942H93.7216C93.5551 114.942 93.3887 115.053 93.3887 115.275C93.3887 115.497 93.4996 115.608 93.7216 115.608H95.3305V117.216C95.3305 117.383 95.4414 117.549 95.6633 117.549C95.8853 117.549 95.9962 117.438 95.9962 117.216V115.552H97.6051C97.7716 115.552 97.938 115.441 97.938 115.219C97.938 114.997 97.7716 114.942 97.6051 114.942Z" fill="#81838E"/>
<path opacity="0.67" d="M159.854 207.316C160.712 207.316 161.407 206.62 161.407 205.762C161.407 204.905 160.712 204.209 159.854 204.209C158.996 204.209 158.3 204.905 158.3 205.762C158.3 206.62 158.996 207.316 159.854 207.316Z" stroke="#81838E" stroke-width="2" stroke-miterlimit="10"/>
<path d="M94.2633 141.598L102.48 151.864L104.429 150.304L96.2124 140.038L94.2633 141.598Z" fill="#415097"/>
<path d="M38.483 45C39.571 45 40.451 44.712 41.123 44.136C41.891 43.432 42.275 42.432 42.275 41.136V32.16C42.275 30.864 41.891 29.856 41.123 29.136C40.451 28.512 39.571 28.2 38.483 28.2H34.667V45H38.483ZM36.707 30.24H38.483C39.091 30.24 39.531 30.4 39.803 30.72C40.091 31.024 40.235 31.504 40.235 32.16V41.136C40.235 41.824 40.075 42.312 39.755 42.6C39.499 42.84 39.075 42.96 38.483 42.96H36.707V30.24ZM51.666 30.24H47.082V35.376H50.274V37.416H47.082V42.96H51.666V45H45.042V28.2H51.666V30.24ZM57.8423 45.216C58.9463 45.216 59.8343 44.904 60.5063 44.28C61.2743 43.576 61.6583 42.568 61.6583 41.256V40.152C61.6583 38.84 61.2743 37.768 60.5063 36.936C60.2183 36.616 59.8983 36.336 59.5463 36.096C59.2103 35.856 58.8023 35.608 58.3223 35.352C57.8903 35.096 57.5543 34.896 57.3143 34.752C57.0743 34.592 56.8663 34.408 56.6903 34.2C56.2903 33.752 56.0903 33.152 56.0903 32.4V31.944C56.0903 31.288 56.2263 30.808 56.4983 30.504C56.7863 30.184 57.2343 30.024 57.8423 30.024C58.4503 30.024 58.8983 30.184 59.1863 30.504C59.4743 30.808 59.6183 31.288 59.6183 31.944V33.48H61.6583V31.944C61.6583 30.648 61.2743 29.64 60.5063 28.92C59.8343 28.296 58.9463 27.984 57.8423 27.984C57.3143 27.984 56.8183 28.064 56.3543 28.224C55.9063 28.384 55.5223 28.616 55.2023 28.92C54.4343 29.64 54.0503 30.648 54.0503 31.944V32.4C54.0503 33.696 54.4263 34.752 55.1783 35.568C55.4503 35.872 55.7463 36.136 56.0663 36.36C56.4023 36.584 56.8263 36.84 57.3383 37.128C57.7543 37.368 58.0903 37.568 58.3463 37.728C58.6023 37.888 58.8183 38.072 58.9943 38.28C59.1703 38.488 59.3143 38.736 59.4263 39.024C59.5543 39.312 59.6183 39.688 59.6183 40.152V41.256C59.6183 41.912 59.4743 42.4 59.1863 42.72C58.8983 43.024 58.4503 43.176 57.8423 43.176C57.2343 43.176 56.7863 43.024 56.4983 42.72C56.2263 42.4 56.0903 41.912 56.0903 41.256V38.976H54.0503V41.256C54.0503 42.568 54.4343 43.576 55.2023 44.28C55.5223 44.584 55.9063 44.816 56.3543 44.976C56.8183 45.136 57.3143 45.216 57.8423 45.216ZM66.3086 45V28.2H64.2686V45H66.3086ZM72.9015 45.216C73.9735 45.216 74.8615 44.904 75.5655 44.28C76.3175 43.576 76.6935 42.568 76.6935 41.256V35.592H72.9015V37.632H74.6535V41.256C74.6535 41.912 74.5095 42.4 74.2215 42.72C73.9495 43.024 73.5095 43.176 72.9015 43.176C72.2935 43.176 71.8455 43.024 71.5575 42.72C71.2695 42.4 71.1255 41.912 71.1255 41.256V31.944C71.1255 31.288 71.2695 30.808 71.5575 30.504C71.8455 30.184 72.2935 30.024 72.9015 30.024C73.5095 30.024 73.9495 30.184 74.2215 30.504C74.5095 30.808 74.6535 31.288 74.6535 31.944V33.48H76.6935V31.944C76.6935 30.648 76.3175 29.64 75.5655 28.92C74.8615 28.296 73.9735 27.984 72.9015 27.984C71.8295 27.984 70.9415 28.296 70.2375 28.92C69.4695 29.64 69.0855 30.648 69.0855 31.944V41.256C69.0855 42.568 69.4695 43.576 70.2375 44.28C70.9415 44.904 71.8295 45.216 72.9015 45.216ZM81.4799 34.872V45H79.4399V28.2H80.5679L85.2479 38.352V28.2H87.2879V45H86.1599L81.4799 34.872ZM101.949 28.224V30.264H99.117V45H97.077V30.264H94.269V28.224H101.949ZM106.23 45V28.2H104.19V45H106.23ZM111.191 37.992H112.943C114.047 37.992 114.935 37.68 115.607 37.056C116.359 36.352 116.735 35.352 116.735 34.056V32.16C116.735 30.848 116.359 29.84 115.607 29.136C114.903 28.512 114.015 28.2 112.943 28.2H109.151V45H111.191V37.992ZM111.191 30.24H112.943C113.551 30.24 113.991 30.4 114.263 30.72C114.551 31.024 114.695 31.504 114.695 32.16V34.056C114.695 34.712 114.551 35.192 114.263 35.496C113.991 35.8 113.551 35.952 112.943 35.952H111.191V30.24ZM122.772 45.216C123.876 45.216 124.764 44.904 125.436 44.28C126.204 43.576 126.588 42.568 126.588 41.256V40.152C126.588 38.84 126.204 37.768 125.436 36.936C125.148 36.616 124.828 36.336 124.476 36.096C124.14 35.856 123.732 35.608 123.252 35.352C122.82 35.096 122.484 34.896 122.244 34.752C122.004 34.592 121.796 34.408 121.62 34.2C121.22 33.752 121.02 33.152 121.02 32.4V31.944C121.02 31.288 121.156 30.808 121.428 30.504C121.716 30.184 122.164 30.024 122.772 30.024C123.38 30.024 123.828 30.184 124.116 30.504C124.404 30.808 124.548 31.288 124.548 31.944V33.48H126.588V31.944C126.588 30.648 126.204 29.64 125.436 28.92C124.764 28.296 123.876 27.984 122.772 27.984C122.244 27.984 121.748 28.064 121.284 28.224C120.836 28.384 120.452 28.616 120.132 28.92C119.364 29.64 118.98 30.648 118.98 31.944V32.4C118.98 33.696 119.356 34.752 120.108 35.568C120.38 35.872 120.676 36.136 120.996 36.36C121.332 36.584 121.756 36.84 122.268 37.128C122.684 37.368 123.02 37.568 123.276 37.728C123.532 37.888 123.748 38.072 123.924 38.28C124.1 38.488 124.244 38.736 124.356 39.024C124.484 39.312 124.548 39.688 124.548 40.152V41.256C124.548 41.912 124.404 42.4 124.116 42.72C123.828 43.024 123.38 43.176 122.772 43.176C122.164 43.176 121.716 43.024 121.428 42.72C121.156 42.4 121.02 41.912 121.02 41.256V38.976H118.98V41.256C118.98 42.568 119.364 43.576 120.132 44.28C120.452 44.584 120.836 44.816 121.284 44.976C121.748 45.136 122.244 45.216 122.772 45.216ZM146.333 43.08C145.837 42.904 145.133 42.424 144.221 41.64C144.605 41.048 144.973 40.424 145.325 39.768C145.677 39.096 145.925 38.616 146.069 38.328L144.245 37.416C143.765 38.376 143.261 39.304 142.733 40.2C142.013 39.448 141.389 38.736 140.861 38.064C140.349 37.424 139.925 36.848 139.589 36.336H139.613C140.365 36.048 141.005 35.656 141.533 35.16C142.525 34.216 143.021 33.008 143.021 31.536V31.344C143.021 30.064 142.541 29.072 141.581 28.368C141.181 28.08 140.765 27.888 140.333 27.792C139.901 27.68 139.525 27.624 139.205 27.624C138.885 27.624 138.509 27.68 138.077 27.792C137.645 27.888 137.229 28.08 136.829 28.368C135.885 29.072 135.413 30.064 135.413 31.344V31.776C135.413 32.704 135.813 33.912 136.613 35.4C136.357 35.56 136.165 35.688 136.037 35.784C135.349 36.28 134.821 36.864 134.453 37.536C134.101 38.208 133.925 38.944 133.925 39.744C133.925 40.512 134.061 41.216 134.333 41.856C134.589 42.48 134.981 43.032 135.509 43.512C135.989 43.928 136.541 44.256 137.165 44.496C137.805 44.72 138.485 44.832 139.205 44.832C139.909 44.832 140.581 44.704 141.221 44.448C141.877 44.176 142.469 43.784 142.997 43.272C144.021 44.168 144.901 44.744 145.637 45L146.333 43.08ZM137.669 37.152C138.213 37.952 138.749 38.68 139.277 39.336C139.885 40.136 140.629 40.984 141.509 41.88C140.853 42.488 140.085 42.792 139.205 42.792C138.741 42.792 138.309 42.72 137.909 42.576C137.509 42.432 137.165 42.232 136.877 41.976C136.269 41.448 135.965 40.704 135.965 39.744C135.965 38.832 136.389 38.056 137.237 37.416C137.429 37.288 137.573 37.2 137.669 37.152ZM139.205 29.664C139.669 29.664 140.061 29.784 140.381 30.024C140.781 30.312 140.981 30.752 140.981 31.344V31.536C140.981 32.928 140.277 33.896 138.869 34.44H138.845C138.813 34.472 138.765 34.488 138.701 34.488L138.485 34.56C138.453 34.528 138.421 34.48 138.389 34.416C137.765 33.264 137.453 32.384 137.453 31.776V31.344C137.453 30.752 137.645 30.312 138.029 30.024C138.349 29.784 138.741 29.664 139.205 29.664ZM161.004 28.224V30.264H158.172V45H156.132V30.264H153.324V28.224H161.004ZM170.829 45H168.693L166.413 37.992H165.285V45H163.245V28.2H167.037C168.109 28.2 168.997 28.512 169.701 29.136C170.453 29.84 170.829 30.848 170.829 32.16V34.056C170.829 35.352 170.453 36.352 169.701 37.056C169.365 37.36 168.957 37.6 168.477 37.776L170.829 45ZM167.037 35.952C167.645 35.952 168.085 35.8 168.357 35.496C168.645 35.192 168.789 34.712 168.789 34.056V32.16C168.789 31.504 168.645 31.024 168.357 30.72C168.085 30.4 167.645 30.24 167.037 30.24H165.285V35.952H167.037ZM175.496 45V28.2H173.456V45H175.496ZM182.065 45.216C183.137 45.216 184.025 44.904 184.729 44.28C185.497 43.576 185.881 42.568 185.881 41.256V39H183.841V41.256C183.841 41.912 183.697 42.4 183.409 42.72C183.121 43.024 182.673 43.176 182.065 43.176C181.457 43.176 181.009 43.024 180.721 42.72C180.449 42.4 180.313 41.912 180.313 41.256V31.92C180.313 31.264 180.449 30.784 180.721 30.48C181.009 30.16 181.457 30 182.065 30C182.673 30 183.121 30.16 183.409 30.48C183.697 30.784 183.841 31.264 183.841 31.92V33.456H185.881V31.92C185.881 30.624 185.497 29.616 184.729 28.896C184.025 28.272 183.137 27.96 182.065 27.96C180.977 27.96 180.097 28.272 179.425 28.896C178.657 29.616 178.273 30.624 178.273 31.92V41.256C178.273 42.568 178.657 43.576 179.425 44.28C180.097 44.904 180.977 45.216 182.065 45.216ZM190.598 41.088V45H188.558V28.2H190.598V36.288L194.366 28.2H196.622L192.902 36.168L196.622 45H194.414L191.726 38.664L190.598 41.088ZM201.827 45.216C202.931 45.216 203.819 44.904 204.491 44.28C205.259 43.576 205.643 42.568 205.643 41.256V40.152C205.643 38.84 205.259 37.768 204.491 36.936C204.203 36.616 203.883 36.336 203.531 36.096C203.195 35.856 202.787 35.608 202.307 35.352C201.875 35.096 201.539 34.896 201.299 34.752C201.059 34.592 200.851 34.408 200.675 34.2C200.275 33.752 200.075 33.152 200.075 32.4V31.944C200.075 31.288 200.211 30.808 200.483 30.504C200.771 30.184 201.219 30.024 201.827 30.024C202.435 30.024 202.883 30.184 203.171 30.504C203.459 30.808 203.603 31.288 203.603 31.944V33.48H205.643V31.944C205.643 30.648 205.259 29.64 204.491 28.92C203.819 28.296 202.931 27.984 201.827 27.984C201.299 27.984 200.803 28.064 200.339 28.224C199.891 28.384 199.507 28.616 199.187 28.92C198.419 29.64 198.035 30.648 198.035 31.944V32.4C198.035 33.696 198.411 34.752 199.163 35.568C199.435 35.872 199.731 36.136 200.051 36.36C200.387 36.584 200.811 36.84 201.323 37.128C201.739 37.368 202.075 37.568 202.331 37.728C202.587 37.888 202.803 38.072 202.979 38.28C203.155 38.488 203.299 38.736 203.411 39.024C203.539 39.312 203.603 39.688 203.603 40.152V41.256C203.603 41.912 203.459 42.4 203.171 42.72C202.883 43.024 202.435 43.176 201.827 43.176C201.219 43.176 200.771 43.024 200.483 42.72C200.211 42.4 200.075 41.912 200.075 41.256V38.976H198.035V41.256C198.035 42.568 198.419 43.576 199.187 44.28C199.507 44.584 199.891 44.816 200.339 44.976C200.803 45.136 201.299 45.216 201.827 45.216Z" fill="white"/>
<rect x="81" y="62" width="78" height="36" rx="18" fill="#FFCC42"/>
<path d="M102.171 85C102.064 85 101.974 84.9627 101.899 84.888C101.824 84.8133 101.787 84.7227 101.787 84.616V74.2C101.787 74.0827 101.819 73.9867 101.883 73.912C101.958 73.8373 102.054 73.8 102.171 73.8H106.315C107.627 73.8 108.651 74.104 109.387 74.712C110.134 75.32 110.507 76.184 110.507 77.304C110.507 78.0827 110.32 78.7387 109.947 79.272C109.574 79.7947 109.051 80.1733 108.379 80.408L110.699 84.488C110.731 84.552 110.747 84.6107 110.747 84.664C110.747 84.76 110.71 84.84 110.635 84.904C110.571 84.968 110.496 85 110.411 85H108.939C108.768 85 108.635 84.9627 108.539 84.888C108.443 84.8027 108.358 84.696 108.283 84.568L106.235 80.776H104.043V84.616C104.043 84.7227 104.006 84.8133 103.931 84.888C103.856 84.9627 103.76 85 103.643 85H102.171ZM106.267 78.952C106.907 78.952 107.387 78.8133 107.707 78.536C108.027 78.248 108.187 77.832 108.187 77.288C108.187 76.744 108.027 76.328 107.707 76.04C107.387 75.7413 106.907 75.592 106.267 75.592H104.043V78.952H106.267ZM115.883 85.16C114.688 85.16 113.739 84.8187 113.035 84.136C112.341 83.4533 111.973 82.4827 111.931 81.224L111.915 80.824C111.915 79.4907 112.261 78.44 112.955 77.672C113.659 76.904 114.629 76.52 115.867 76.52C117.136 76.52 118.112 76.904 118.795 77.672C119.488 78.44 119.835 79.464 119.835 80.744V81.08C119.835 81.1867 119.797 81.2773 119.723 81.352C119.648 81.4267 119.552 81.464 119.435 81.464H114.123V81.592C114.144 82.1893 114.304 82.6853 114.603 83.08C114.912 83.464 115.333 83.656 115.867 83.656C116.475 83.656 116.971 83.4107 117.355 82.92C117.451 82.8027 117.525 82.7333 117.579 82.712C117.632 82.68 117.723 82.664 117.851 82.664H119.259C119.355 82.664 119.435 82.6907 119.499 82.744C119.573 82.7973 119.611 82.872 119.611 82.968C119.611 83.224 119.456 83.528 119.147 83.88C118.848 84.2213 118.416 84.52 117.851 84.776C117.285 85.032 116.629 85.16 115.883 85.16ZM117.627 80.104V80.072C117.627 79.4427 117.467 78.9413 117.147 78.568C116.837 78.184 116.411 77.992 115.867 77.992C115.323 77.992 114.896 78.184 114.587 78.568C114.277 78.9413 114.123 79.4427 114.123 80.072V80.104H117.627ZM123.949 85.16C123.405 85.16 122.903 85.0533 122.445 84.84C121.997 84.616 121.639 84.3173 121.373 83.944C121.117 83.5707 120.989 83.16 120.989 82.712C120.989 81.9867 121.282 81.4 121.869 80.952C122.455 80.504 123.261 80.2 124.285 80.04L126.477 79.72V79.384C126.477 78.9253 126.359 78.5787 126.125 78.344C125.89 78.1093 125.517 77.992 125.005 77.992C124.653 77.992 124.37 78.056 124.157 78.184C123.943 78.312 123.767 78.4453 123.629 78.584C123.501 78.712 123.415 78.7973 123.373 78.84C123.33 78.968 123.25 79.032 123.133 79.032H121.885C121.789 79.032 121.703 79 121.629 78.936C121.565 78.872 121.533 78.7867 121.533 78.68C121.543 78.4133 121.671 78.1147 121.917 77.784C122.173 77.4427 122.562 77.1493 123.085 76.904C123.607 76.648 124.253 76.52 125.021 76.52C126.279 76.52 127.197 76.8027 127.773 77.368C128.349 77.9333 128.637 78.6747 128.637 79.592V84.616C128.637 84.7227 128.599 84.8133 128.525 84.888C128.461 84.9627 128.37 85 128.253 85H126.925C126.818 85 126.727 84.9627 126.653 84.888C126.578 84.8133 126.541 84.7227 126.541 84.616V83.992C126.306 84.3333 125.975 84.616 125.549 84.84C125.122 85.0533 124.589 85.16 123.949 85.16ZM124.493 83.624C125.079 83.624 125.559 83.432 125.933 83.048C126.306 82.664 126.493 82.1093 126.493 81.384V81.064L124.893 81.32C123.666 81.512 123.053 81.9227 123.053 82.552C123.053 82.8933 123.191 83.16 123.469 83.352C123.757 83.5333 124.098 83.624 124.493 83.624ZM133.777 85.16C132.699 85.16 131.873 84.8187 131.297 84.136C130.721 83.4427 130.406 82.52 130.353 81.368L130.337 80.84L130.353 80.312C130.395 79.1813 130.705 78.2693 131.281 77.576C131.867 76.872 132.699 76.52 133.777 76.52C134.801 76.52 135.617 76.872 136.225 77.576V74.024C136.225 73.9067 136.262 73.816 136.337 73.752C136.411 73.6773 136.502 73.64 136.609 73.64H138.001C138.118 73.64 138.209 73.6773 138.273 73.752C138.347 73.816 138.385 73.9067 138.385 74.024V84.616C138.385 84.7227 138.347 84.8133 138.273 84.888C138.209 84.9627 138.118 85 138.001 85H136.705C136.598 85 136.507 84.9627 136.433 84.888C136.358 84.8133 136.321 84.7227 136.321 84.616V84.024C135.734 84.7813 134.886 85.16 133.777 85.16ZM134.385 83.432C134.993 83.432 135.441 83.24 135.729 82.856C136.027 82.4613 136.193 81.976 136.225 81.4C136.235 81.272 136.241 81.0693 136.241 80.792C136.241 80.504 136.235 80.296 136.225 80.168C136.203 79.6347 136.038 79.1813 135.729 78.808C135.419 78.4347 134.971 78.248 134.385 78.248C133.243 78.248 132.635 78.952 132.561 80.36L132.545 80.84L132.561 81.32C132.635 82.728 133.243 83.432 134.385 83.432Z" fill="#000639"/>
</svg>
