<svg width="69" height="53" viewBox="0 0 69 53" fill="none" xmlns="http://www.w3.org/2000/svg">
<path d="M11.7625 0.799988C8.88161 0.799988 6.11869 1.94443 4.08158 3.98154C2.04446 6.01865 0.900024 8.78157 0.900024 11.6625V33.3875C0.900024 36.2684 2.04446 39.0313 4.08158 41.0684C6.11869 43.1056 8.88161 44.25 11.7625 44.25H33.4678C33.0267 42.9713 32.7351 41.6458 32.5988 40.3H11.7625C9.92921 40.3 8.17099 39.5717 6.87465 38.2754C5.5783 36.979 4.85002 35.2208 4.85002 33.3875V16.6H41.0715C41.5929 15.1266 42.3987 13.7915 43.4178 12.65H4.85002V11.6625C4.85002 7.84679 7.94682 4.74999 11.7625 4.74999H53.2375C57.0532 4.74999 60.15 7.84679 60.15 11.6625V11.7178C62.5753 13.8903 64.1 17.0384 64.1 20.55V11.6625C64.1 8.78157 62.9556 6.01865 60.9185 3.98154C58.8814 1.94443 56.1184 0.799988 53.2375 0.799988H11.7625ZM44.35 20.55C44.35 18.4548 45.1823 16.4454 46.6639 14.9638C48.1454 13.4823 50.1548 12.65 52.25 12.65C54.3452 12.65 56.3546 13.4823 57.8362 14.9638C59.3177 16.4454 60.15 18.4548 60.15 20.55C60.15 22.6452 59.3177 24.6546 57.8362 26.1361C56.3546 27.6177 54.3452 28.45 52.25 28.45C50.1548 28.45 48.1454 27.6177 46.6639 26.1361C45.1823 24.6546 44.35 22.6452 44.35 20.55ZM42.375 32.4H62.125C63.6964 32.4 65.2035 33.0242 66.3146 34.1354C67.4258 35.2465 68.05 36.7536 68.05 38.325C68.05 42.7332 66.237 46.2645 63.2626 48.6542C60.3357 51.0045 56.4094 52.15 52.25 52.15C48.0907 52.15 44.1644 51.0045 41.2374 48.6542C38.267 46.2645 36.45 42.7332 36.45 38.325C36.45 36.7536 37.0743 35.2465 38.1854 34.1354C39.2966 33.0242 40.8036 32.4 42.375 32.4V32.4Z" fill="black"/>
</svg>
