<?xml version="1.0" encoding="UTF-8"?>
<svg width="670px" height="208px" viewBox="0 0 670 208" version="1.1" xmlns="http://www.w3.org/2000/svg" xmlns:xlink="http://www.w3.org/1999/xlink">
    <title>poduct_design_guide</title>
    <g id="Page-1" stroke="none" stroke-width="1" fill="none" fill-rule="evenodd">
        <g id="design-guide" transform="translate(0.000000, 1.000000)">
            <rect id="Rectangle" fill="#F4F5FA" fill-rule="nonzero" x="0" y="33.2458" width="670" height="173" rx="5"></rect>
            <path d="M30.632,74.2458 C30.5253,74.2458 30.4347,74.2085 30.36,74.1338 C30.2853,74.0592 30.248,73.9685 30.248,73.8618 L30.248,63.4458 C30.248,63.3285 30.28,63.2325 30.344,63.1578 C30.4187,63.0832 30.5147,63.0458 30.632,63.0458 L34.92,63.0458 C36.2107,63.0458 37.224,63.3498 37.96,63.9578 C38.696,64.5658 39.064,65.4512 39.064,66.6138 C39.064,67.7658 38.696,68.6405 37.96,69.2378 C37.224,69.8245 36.2107,70.1178 34.92,70.1178 L32.568,70.1178 L32.568,73.8618 C32.568,73.9792 32.5307,74.0752 32.456,74.1498 C32.3813,74.2138 32.2853,74.2458 32.168,74.2458 L30.632,74.2458 Z M34.84,68.3258 C35.4587,68.3258 35.928,68.1818 36.248,67.8938 C36.5787,67.5952 36.744,67.1632 36.744,66.5978 C36.744,66.0432 36.584,65.6112 36.264,65.3018 C35.9547,64.9925 35.48,64.8378 34.84,64.8378 L32.536,64.8378 L32.536,68.3258 L34.84,68.3258 Z M41.0025,74.2458 C40.8958,74.2458 40.8052,74.2085 40.7305,74.1338 C40.6558,74.0592 40.6185,73.9685 40.6185,73.8618 L40.6185,66.3258 C40.6185,66.2085 40.6558,66.1125 40.7305,66.0378 C40.8052,65.9632 40.8958,65.9258 41.0025,65.9258 L42.3145,65.9258 C42.4318,65.9258 42.5278,65.9632 42.6025,66.0378 C42.6772,66.1125 42.7145,66.2085 42.7145,66.3258 L42.7145,66.9818 C43.2478,66.2778 44.0158,65.9258 45.0185,65.9258 L45.6905,65.9258 C45.8078,65.9258 45.8985,65.9632 45.9625,66.0378 C46.0372,66.1018 46.0745,66.1925 46.0745,66.3098 L46.0745,67.4778 C46.0745,67.5845 46.0372,67.6752 45.9625,67.7498 C45.8985,67.8245 45.8078,67.8618 45.6905,67.8618 L44.4265,67.8618 C43.9252,67.8618 43.5305,68.0058 43.2425,68.2938 C42.9545,68.5818 42.8105,68.9765 42.8105,69.4778 L42.8105,73.8618 C42.8105,73.9685 42.7732,74.0592 42.6985,74.1338 C42.6238,74.2085 42.5332,74.2458 42.4265,74.2458 L41.0025,74.2458 Z M50.9083,74.4058 C49.6496,74.4058 48.6789,74.0858 47.9963,73.4458 C47.3136,72.8058 46.9456,71.9205 46.8923,70.7898 L46.8763,70.0858 L46.8923,69.3818 C46.9456,68.2618 47.3189,67.3818 48.0123,66.7418 C48.7056,66.0912 49.6709,65.7658 50.9083,65.7658 C52.1349,65.7658 53.0949,66.0912 53.7883,66.7418 C54.4816,67.3818 54.8549,68.2618 54.9083,69.3818 C54.9189,69.5098 54.9243,69.7445 54.9243,70.0858 C54.9243,70.4272 54.9189,70.6618 54.9083,70.7898 C54.8549,71.9205 54.4869,72.8058 53.8043,73.4458 C53.1216,74.0858 52.1563,74.4058 50.9083,74.4058 Z M50.9083,72.7898 C51.4736,72.7898 51.9056,72.6138 52.2043,72.2618 C52.5136,71.9098 52.6789,71.3925 52.7003,70.7098 C52.7109,70.6032 52.7163,70.3952 52.7163,70.0858 C52.7163,69.7765 52.7109,69.5685 52.7003,69.4618 C52.6789,68.7792 52.5136,68.2618 52.2043,67.9098 C51.8949,67.5472 51.4629,67.3658 50.9083,67.3658 C50.3429,67.3658 49.9056,67.5472 49.5963,67.9098 C49.2869,68.2618 49.1216,68.7792 49.1003,69.4618 L49.0843,70.0858 L49.1003,70.7098 C49.1216,71.3925 49.2869,71.9098 49.5963,72.2618 C49.9056,72.6138 50.3429,72.7898 50.9083,72.7898 Z M59.7846,74.4058 C58.7073,74.4058 57.8806,74.0645 57.3046,73.3818 C56.7286,72.6885 56.414,71.7658 56.3606,70.6138 L56.3446,70.0858 L56.3606,69.5578 C56.4033,68.4272 56.7126,67.5152 57.2886,66.8218 C57.8753,66.1178 58.7073,65.7658 59.7846,65.7658 C60.8086,65.7658 61.6246,66.1178 62.2326,66.8218 L62.2326,63.2698 C62.2326,63.1525 62.27,63.0618 62.3446,62.9978 C62.4193,62.9232 62.51,62.8858 62.6166,62.8858 L64.0086,62.8858 C64.126,62.8858 64.2166,62.9232 64.2806,62.9978 C64.3553,63.0618 64.3926,63.1525 64.3926,63.2698 L64.3926,73.8618 C64.3926,73.9685 64.3553,74.0592 64.2806,74.1338 C64.2166,74.2085 64.126,74.2458 64.0086,74.2458 L62.7126,74.2458 C62.606,74.2458 62.5153,74.2085 62.4406,74.1338 C62.366,74.0592 62.3286,73.9685 62.3286,73.8618 L62.3286,73.2698 C61.742,74.0272 60.894,74.4058 59.7846,74.4058 Z M60.3926,72.6778 C61.0006,72.6778 61.4486,72.4858 61.7366,72.1018 C62.0353,71.7072 62.2006,71.2218 62.2326,70.6458 C62.2433,70.5178 62.2486,70.3152 62.2486,70.0378 C62.2486,69.7498 62.2433,69.5418 62.2326,69.4138 C62.2113,68.8805 62.046,68.4272 61.7366,68.0538 C61.4273,67.6805 60.9793,67.4938 60.3926,67.4938 C59.2513,67.4938 58.6433,68.1978 58.5686,69.6058 L58.5526,70.0858 L58.5686,70.5658 C58.6433,71.9738 59.2513,72.6778 60.3926,72.6778 Z M69.6128,74.4058 C68.6314,74.4058 67.8581,74.0858 67.2928,73.4458 C66.7274,72.8058 66.4448,71.9258 66.4448,70.8058 L66.4448,66.3098 C66.4448,66.1925 66.4821,66.1018 66.5568,66.0378 C66.6314,65.9632 66.7221,65.9258 66.8288,65.9258 L68.2688,65.9258 C68.3754,65.9258 68.4661,65.9632 68.5408,66.0378 C68.6154,66.1125 68.6528,66.2032 68.6528,66.3098 L68.6528,70.7098 C68.6528,72.0218 69.2234,72.6778 70.3648,72.6778 C70.9194,72.6778 71.3568,72.5018 71.6768,72.1498 C72.0074,71.7978 72.1728,71.3178 72.1728,70.7098 L72.1728,66.3098 C72.1728,66.1925 72.2101,66.1018 72.2848,66.0378 C72.3594,65.9632 72.4501,65.9258 72.5568,65.9258 L73.9808,65.9258 C74.0981,65.9258 74.1888,65.9632 74.2528,66.0378 C74.3274,66.1018 74.3648,66.1925 74.3648,66.3098 L74.3648,73.8618 C74.3648,73.9685 74.3274,74.0592 74.2528,74.1338 C74.1888,74.2085 74.0981,74.2458 73.9808,74.2458 L72.6528,74.2458 C72.5461,74.2458 72.4554,74.2085 72.3808,74.1338 C72.3061,74.0592 72.2688,73.9685 72.2688,73.8618 L72.2688,73.2058 C71.6821,74.0058 70.7968,74.4058 69.6128,74.4058 Z M80.0779,74.4058 C78.9045,74.4058 77.9659,74.0805 77.2619,73.4298 C76.5685,72.7792 76.2005,71.8778 76.1579,70.7258 L76.1419,70.0858 L76.1579,69.4458 C76.2005,68.2938 76.5685,67.3925 77.2619,66.7418 C77.9659,66.0912 78.9045,65.7658 80.0779,65.7658 C80.9205,65.7658 81.6299,65.9152 82.2059,66.2138 C82.7925,66.5125 83.2245,66.8805 83.5019,67.3178 C83.7899,67.7445 83.9445,68.1552 83.9659,68.5498 C83.9765,68.6565 83.9392,68.7472 83.8539,68.8218 C83.7792,68.8965 83.6885,68.9338 83.5819,68.9338 L82.1579,68.9338 C82.0405,68.9338 81.9552,68.9125 81.9019,68.8698 C81.8485,68.8165 81.7952,68.7258 81.7419,68.5978 C81.5819,68.1925 81.3685,67.8992 81.1019,67.7178 C80.8459,67.5365 80.5152,67.4458 80.1099,67.4458 C79.5659,67.4458 79.1392,67.6165 78.8299,67.9578 C78.5312,68.2992 78.3712,68.8218 78.3499,69.5258 L78.3339,70.1178 L78.3499,70.6458 C78.4139,72.0325 79.0005,72.7258 80.1099,72.7258 C80.5259,72.7258 80.8619,72.6405 81.1179,72.4698 C81.3739,72.2885 81.5819,71.9898 81.7419,71.5738 C81.7845,71.4565 81.8325,71.3712 81.8859,71.3178 C81.9499,71.2645 82.0405,71.2378 82.1579,71.2378 L83.5819,71.2378 C83.6885,71.2378 83.7792,71.2752 83.8539,71.3498 C83.9392,71.4245 83.9765,71.5152 83.9659,71.6218 C83.9445,71.9952 83.7952,72.4005 83.5179,72.8378 C83.2405,73.2645 82.8139,73.6325 82.2379,73.9418 C81.6619,74.2512 80.9419,74.4058 80.0779,74.4058 Z M89.4101,74.2458 C88.4395,74.2458 87.7088,73.9952 87.2181,73.4938 C86.7275,72.9818 86.4821,72.2352 86.4821,71.2538 L86.4821,67.6378 L85.2181,67.6378 C85.1115,67.6378 85.0208,67.6005 84.9461,67.5258 C84.8715,67.4512 84.8341,67.3605 84.8341,67.2538 L84.8341,66.3098 C84.8341,66.2032 84.8715,66.1125 84.9461,66.0378 C85.0208,65.9632 85.1115,65.9258 85.2181,65.9258 L86.4821,65.9258 L86.4821,63.2698 C86.4821,63.1525 86.5195,63.0618 86.5941,62.9978 C86.6688,62.9232 86.7595,62.8858 86.8661,62.8858 L88.1941,62.8858 C88.3115,62.8858 88.4021,62.9232 88.4661,62.9978 C88.5408,63.0618 88.5781,63.1525 88.5781,63.2698 L88.5781,65.9258 L90.5781,65.9258 C90.6848,65.9258 90.7755,65.9632 90.8501,66.0378 C90.9248,66.1125 90.9621,66.2032 90.9621,66.3098 L90.9621,67.2538 C90.9621,67.3605 90.9248,67.4512 90.8501,67.5258 C90.7755,67.6005 90.6848,67.6378 90.5781,67.6378 L88.5781,67.6378 L88.5781,71.0778 C88.5781,71.5365 88.6581,71.8832 88.8181,72.1178 C88.9781,72.3525 89.2395,72.4698 89.6021,72.4698 L90.7221,72.4698 C90.8395,72.4698 90.9301,72.5072 90.9941,72.5818 C91.0688,72.6458 91.1061,72.7365 91.1061,72.8538 L91.1061,73.8618 C91.1061,73.9685 91.0688,74.0592 90.9941,74.1338 C90.9301,74.2085 90.8395,74.2458 90.7221,74.2458 L89.4101,74.2458 Z M96.7414,74.2458 C96.6347,74.2458 96.544,74.2085 96.4694,74.1338 C96.3947,74.0592 96.3574,73.9685 96.3574,73.8618 L96.3574,63.4458 C96.3574,63.3285 96.3894,63.2325 96.4534,63.1578 C96.528,63.0832 96.624,63.0458 96.7414,63.0458 L100.645,63.0458 C103.792,63.0458 105.397,64.4965 105.461,67.3978 C105.483,68.0165 105.493,68.4325 105.493,68.6458 C105.493,68.8485 105.483,69.2592 105.461,69.8778 C105.419,71.3712 105.013,72.4752 104.245,73.1898 C103.488,73.8938 102.315,74.2458 100.725,74.2458 L96.7414,74.2458 Z M100.645,72.3898 C101.531,72.3898 102.171,72.1925 102.565,71.7978 C102.96,71.4032 103.168,70.7472 103.189,69.8298 C103.211,69.1898 103.221,68.7898 103.221,68.6298 C103.221,68.4592 103.211,68.0645 103.189,67.4458 C103.168,66.5712 102.949,65.9312 102.533,65.5258 C102.117,65.1098 101.461,64.9018 100.565,64.9018 L98.6134,64.9018 L98.6134,72.3898 L100.645,72.3898 Z M111.015,74.4058 C109.821,74.4058 108.871,74.0645 108.167,73.3818 C107.474,72.6992 107.106,71.7285 107.063,70.4698 L107.047,70.0698 C107.047,68.7365 107.394,67.6858 108.087,66.9178 C108.791,66.1498 109.762,65.7658 110.999,65.7658 C112.269,65.7658 113.245,66.1498 113.927,66.9178 C114.621,67.6858 114.967,68.7098 114.967,69.9898 L114.967,70.3258 C114.967,70.4325 114.93,70.5232 114.855,70.5978 C114.781,70.6725 114.685,70.7098 114.567,70.7098 L109.255,70.7098 L109.255,70.8378 C109.277,71.4352 109.437,71.9312 109.735,72.3258 C110.045,72.7098 110.466,72.9018 110.999,72.9018 C111.607,72.9018 112.103,72.6565 112.487,72.1658 C112.583,72.0485 112.658,71.9792 112.711,71.9578 C112.765,71.9258 112.855,71.9098 112.983,71.9098 L114.391,71.9098 C114.487,71.9098 114.567,71.9365 114.631,71.9898 C114.706,72.0432 114.743,72.1178 114.743,72.2138 C114.743,72.4698 114.589,72.7738 114.279,73.1258 C113.981,73.4672 113.549,73.7658 112.983,74.0218 C112.418,74.2778 111.762,74.4058 111.015,74.4058 Z M112.759,69.3498 L112.759,69.3178 C112.759,68.6885 112.599,68.1872 112.279,67.8138 C111.97,67.4298 111.543,67.2378 110.999,67.2378 C110.455,67.2378 110.029,67.4298 109.719,67.8138 C109.41,68.1872 109.255,68.6885 109.255,69.3178 L109.255,69.3498 L112.759,69.3498 Z M119.833,74.4058 C119.023,74.4058 118.345,74.2832 117.801,74.0378 C117.257,73.7925 116.852,73.5098 116.585,73.1898 C116.329,72.8592 116.201,72.5765 116.201,72.3418 C116.201,72.2352 116.233,72.1498 116.297,72.0858 C116.372,72.0218 116.457,71.9898 116.553,71.9898 L117.865,71.9898 C117.951,71.9898 118.025,72.0325 118.089,72.1178 C118.143,72.1605 118.26,72.2618 118.441,72.4218 C118.633,72.5818 118.847,72.7098 119.081,72.8058 C119.327,72.8912 119.593,72.9338 119.881,72.9338 C120.308,72.9338 120.655,72.8538 120.921,72.6938 C121.188,72.5232 121.321,72.2832 121.321,71.9738 C121.321,71.7605 121.257,71.5898 121.129,71.4618 C121.012,71.3232 120.793,71.2005 120.473,71.0938 C120.164,70.9765 119.695,70.8485 119.065,70.7098 C118.159,70.5178 117.487,70.2245 117.049,69.8298 C116.623,69.4352 116.409,68.9125 116.409,68.2618 C116.409,67.8352 116.537,67.4352 116.793,67.0618 C117.049,66.6778 117.428,66.3685 117.929,66.1338 C118.441,65.8885 119.049,65.7658 119.753,65.7658 C120.479,65.7658 121.103,65.8832 121.625,66.1178 C122.148,66.3418 122.543,66.6138 122.809,66.9338 C123.087,67.2538 123.225,67.5365 123.225,67.7818 C123.225,67.8778 123.188,67.9632 123.113,68.0378 C123.049,68.1018 122.969,68.1338 122.873,68.1338 L121.673,68.1338 C121.556,68.1338 121.465,68.0912 121.401,68.0058 C121.327,67.9525 121.204,67.8565 121.033,67.7178 C120.873,67.5685 120.692,67.4512 120.489,67.3658 C120.287,67.2805 120.041,67.2378 119.753,67.2378 C119.359,67.2378 119.055,67.3232 118.841,67.4938 C118.628,67.6645 118.521,67.8885 118.521,68.1658 C118.521,68.3578 118.569,68.5178 118.665,68.6458 C118.772,68.7738 118.98,68.8965 119.289,69.0138 C119.599,69.1205 120.063,69.2325 120.681,69.3498 C122.601,69.7232 123.561,70.5605 123.561,71.8618 C123.561,72.6192 123.231,73.2325 122.569,73.7018 C121.919,74.1712 121.007,74.4058 119.833,74.4058 Z M125.517,64.5658 C125.41,64.5658 125.319,64.5285 125.245,64.4538 C125.17,64.3792 125.133,64.2885 125.133,64.1818 L125.133,63.0138 C125.133,62.8965 125.17,62.8005 125.245,62.7258 C125.319,62.6512 125.41,62.6138 125.517,62.6138 L126.989,62.6138 C127.106,62.6138 127.202,62.6512 127.277,62.7258 C127.351,62.8005 127.389,62.8965 127.389,63.0138 L127.389,64.1818 C127.389,64.2885 127.346,64.3792 127.261,64.4538 C127.186,64.5285 127.095,64.5658 126.989,64.5658 L125.517,64.5658 Z M125.581,74.2458 C125.474,74.2458 125.383,74.2085 125.309,74.1338 C125.234,74.0592 125.197,73.9685 125.197,73.8618 L125.197,66.3098 C125.197,66.1925 125.234,66.1018 125.309,66.0378 C125.383,65.9632 125.474,65.9258 125.581,65.9258 L126.941,65.9258 C127.047,65.9258 127.138,65.9632 127.213,66.0378 C127.287,66.1125 127.325,66.2032 127.325,66.3098 L127.325,73.8618 C127.325,73.9685 127.287,74.0592 127.213,74.1338 C127.138,74.2085 127.047,74.2458 126.941,74.2458 L125.581,74.2458 Z M133.191,77.7658 C132.242,77.7658 131.474,77.6058 130.887,77.2858 C130.3,76.9765 129.884,76.6192 129.639,76.2138 C129.394,75.8085 129.271,75.4618 129.271,75.1738 C129.271,75.0672 129.308,74.9765 129.383,74.9018 C129.458,74.8378 129.548,74.8058 129.655,74.8058 L131.079,74.8058 C131.175,74.8058 131.255,74.8272 131.319,74.8698 C131.394,74.9232 131.452,75.0138 131.495,75.1418 C131.612,75.4192 131.788,75.6538 132.023,75.8458 C132.258,76.0485 132.62,76.1498 133.111,76.1498 C133.751,76.1498 134.22,76.0058 134.519,75.7178 C134.818,75.4405 134.967,74.9498 134.967,74.2458 L134.967,73.1578 C134.391,73.8405 133.575,74.1818 132.519,74.1818 C131.41,74.1818 130.572,73.8458 130.007,73.1738 C129.452,72.5018 129.154,71.5845 129.111,70.4218 L129.095,69.9898 L129.111,69.5578 C129.154,68.4165 129.458,67.4992 130.023,66.8058 C130.588,66.1125 131.42,65.7658 132.519,65.7658 C133.084,65.7658 133.58,65.8725 134.007,66.0858 C134.434,66.2992 134.786,66.5872 135.063,66.9498 L135.063,66.3258 C135.063,66.2085 135.1,66.1125 135.175,66.0378 C135.26,65.9632 135.356,65.9258 135.463,65.9258 L136.775,65.9258 C136.882,65.9258 136.972,65.9632 137.047,66.0378 C137.122,66.1125 137.159,66.2085 137.159,66.3258 L137.175,74.0378 C137.175,75.2218 136.844,76.1392 136.183,76.7898 C135.522,77.4405 134.524,77.7658 133.191,77.7658 Z M133.127,72.4858 C133.724,72.4858 134.172,72.2938 134.471,71.9098 C134.77,71.5258 134.935,71.0565 134.967,70.5018 C134.978,70.4165 134.983,70.2458 134.983,69.9898 C134.983,69.7338 134.978,69.5632 134.967,69.4778 C134.935,68.9232 134.77,68.4538 134.471,68.0698 C134.172,67.6858 133.724,67.4938 133.127,67.4938 C131.975,67.4938 131.367,68.1978 131.303,69.6058 L131.287,69.9898 C131.287,71.6538 131.9,72.4858 133.127,72.4858 Z M139.674,74.2458 C139.568,74.2458 139.477,74.2085 139.402,74.1338 C139.328,74.0592 139.29,73.9685 139.29,73.8618 L139.29,66.3098 C139.29,66.1925 139.328,66.1018 139.402,66.0378 C139.477,65.9632 139.568,65.9258 139.674,65.9258 L141.002,65.9258 C141.12,65.9258 141.21,65.9632 141.274,66.0378 C141.349,66.1018 141.386,66.1925 141.386,66.3098 L141.386,66.9658 C142.037,66.1658 142.928,65.7658 144.058,65.7658 C145.04,65.7658 145.818,66.0858 146.394,66.7258 C146.97,67.3658 147.258,68.2458 147.258,69.3658 L147.258,73.8618 C147.258,73.9685 147.221,74.0592 147.146,74.1338 C147.082,74.2085 146.992,74.2458 146.874,74.2458 L145.434,74.2458 C145.328,74.2458 145.237,74.2085 145.162,74.1338 C145.088,74.0592 145.05,73.9685 145.05,73.8618 L145.05,69.4618 C145.05,68.8432 144.896,68.3632 144.586,68.0218 C144.288,67.6698 143.856,67.4938 143.29,67.4938 C142.746,67.4938 142.309,67.6698 141.978,68.0218 C141.648,68.3738 141.482,68.8538 141.482,69.4618 L141.482,73.8618 C141.482,73.9685 141.445,74.0592 141.37,74.1338 C141.306,74.2085 141.216,74.2458 141.098,74.2458 L139.674,74.2458 Z M157.491,74.4058 C156.019,74.4058 154.872,74.0272 154.051,73.2698 C153.24,72.5125 152.808,71.4565 152.755,70.1018 C152.744,69.7925 152.739,69.2965 152.739,68.6138 C152.739,67.9312 152.744,67.4352 152.755,67.1258 C152.798,65.8032 153.235,64.7685 154.067,64.0218 C154.899,63.2645 156.04,62.8858 157.491,62.8858 C158.472,62.8858 159.315,63.0565 160.019,63.3978 C160.734,63.7285 161.272,64.1445 161.635,64.6458 C161.998,65.1365 162.19,65.6218 162.211,66.1018 C162.211,66.1978 162.179,66.2778 162.115,66.3418 C162.051,66.4058 161.966,66.4378 161.859,66.4378 L160.179,66.4378 C160.072,66.4378 159.992,66.4165 159.939,66.3738 C159.886,66.3312 159.838,66.2618 159.795,66.1658 C159.646,65.7712 159.384,65.4352 159.011,65.1578 C158.638,64.8805 158.131,64.7418 157.491,64.7418 C156.744,64.7418 156.158,64.9445 155.731,65.3498 C155.315,65.7445 155.096,66.3632 155.075,67.2058 C155.064,67.5152 155.059,67.9845 155.059,68.6138 C155.059,69.2325 155.064,69.7018 155.075,70.0218 C155.096,70.8858 155.32,71.5258 155.747,71.9418 C156.174,72.3472 156.76,72.5498 157.507,72.5498 C158.264,72.5498 158.872,72.3472 159.331,71.9418 C159.79,71.5365 160.019,70.9285 160.019,70.1178 L160.019,69.6218 L158.067,69.6218 C157.96,69.6218 157.87,69.5845 157.795,69.5098 C157.72,69.4352 157.683,69.3445 157.683,69.2378 L157.683,68.3578 C157.683,68.2512 157.72,68.1605 157.795,68.0858 C157.87,68.0112 157.96,67.9738 158.067,67.9738 L161.907,67.9738 C162.024,67.9738 162.12,68.0112 162.195,68.0858 C162.27,68.1605 162.307,68.2512 162.307,68.3578 L162.307,70.0538 C162.307,70.9392 162.11,71.7125 161.715,72.3738 C161.32,73.0245 160.76,73.5258 160.035,73.8778 C159.31,74.2298 158.462,74.4058 157.491,74.4058 Z M167.238,74.4058 C166.256,74.4058 165.483,74.0858 164.918,73.4458 C164.352,72.8058 164.07,71.9258 164.07,70.8058 L164.07,66.3098 C164.07,66.1925 164.107,66.1018 164.182,66.0378 C164.256,65.9632 164.347,65.9258 164.454,65.9258 L165.894,65.9258 C166,65.9258 166.091,65.9632 166.166,66.0378 C166.24,66.1125 166.278,66.2032 166.278,66.3098 L166.278,70.7098 C166.278,72.0218 166.848,72.6778 167.99,72.6778 C168.544,72.6778 168.982,72.5018 169.302,72.1498 C169.632,71.7978 169.798,71.3178 169.798,70.7098 L169.798,66.3098 C169.798,66.1925 169.835,66.1018 169.91,66.0378 C169.984,65.9632 170.075,65.9258 170.182,65.9258 L171.606,65.9258 C171.723,65.9258 171.814,65.9632 171.878,66.0378 C171.952,66.1018 171.99,66.1925 171.99,66.3098 L171.99,73.8618 C171.99,73.9685 171.952,74.0592 171.878,74.1338 C171.814,74.2085 171.723,74.2458 171.606,74.2458 L170.278,74.2458 C170.171,74.2458 170.08,74.2085 170.006,74.1338 C169.931,74.0592 169.894,73.9685 169.894,73.8618 L169.894,73.2058 C169.307,74.0058 168.422,74.4058 167.238,74.4058 Z M174.423,64.5658 C174.316,64.5658 174.226,64.5285 174.151,64.4538 C174.076,64.3792 174.039,64.2885 174.039,64.1818 L174.039,63.0138 C174.039,62.8965 174.076,62.8005 174.151,62.7258 C174.226,62.6512 174.316,62.6138 174.423,62.6138 L175.895,62.6138 C176.012,62.6138 176.108,62.6512 176.183,62.7258 C176.258,62.8005 176.295,62.8965 176.295,63.0138 L176.295,64.1818 C176.295,64.2885 176.252,64.3792 176.167,64.4538 C176.092,64.5285 176.002,64.5658 175.895,64.5658 L174.423,64.5658 Z M174.487,74.2458 C174.38,74.2458 174.29,74.2085 174.215,74.1338 C174.14,74.0592 174.103,73.9685 174.103,73.8618 L174.103,66.3098 C174.103,66.1925 174.14,66.1018 174.215,66.0378 C174.29,65.9632 174.38,65.9258 174.487,65.9258 L175.847,65.9258 C175.954,65.9258 176.044,65.9632 176.119,66.0378 C176.194,66.1125 176.231,66.2032 176.231,66.3098 L176.231,73.8618 C176.231,73.9685 176.194,74.0592 176.119,74.1338 C176.044,74.2085 175.954,74.2458 175.847,74.2458 L174.487,74.2458 Z M181.425,74.4058 C180.348,74.4058 179.521,74.0645 178.945,73.3818 C178.369,72.6885 178.055,71.7658 178.001,70.6138 L177.985,70.0858 L178.001,69.5578 C178.044,68.4272 178.353,67.5152 178.929,66.8218 C179.516,66.1178 180.348,65.7658 181.425,65.7658 C182.449,65.7658 183.265,66.1178 183.873,66.8218 L183.873,63.2698 C183.873,63.1525 183.911,63.0618 183.985,62.9978 C184.06,62.9232 184.151,62.8858 184.257,62.8858 L185.649,62.8858 C185.767,62.8858 185.857,62.9232 185.921,62.9978 C185.996,63.0618 186.033,63.1525 186.033,63.2698 L186.033,73.8618 C186.033,73.9685 185.996,74.0592 185.921,74.1338 C185.857,74.2085 185.767,74.2458 185.649,74.2458 L184.353,74.2458 C184.247,74.2458 184.156,74.2085 184.081,74.1338 C184.007,74.0592 183.969,73.9685 183.969,73.8618 L183.969,73.2698 C183.383,74.0272 182.535,74.4058 181.425,74.4058 Z M182.033,72.6778 C182.641,72.6778 183.089,72.4858 183.377,72.1018 C183.676,71.7072 183.841,71.2218 183.873,70.6458 C183.884,70.5178 183.889,70.3152 183.889,70.0378 C183.889,69.7498 183.884,69.5418 183.873,69.4138 C183.852,68.8805 183.687,68.4272 183.377,68.0538 C183.068,67.6805 182.62,67.4938 182.033,67.4938 C180.892,67.4938 180.284,68.1978 180.209,69.6058 L180.193,70.0858 L180.209,70.5658 C180.284,71.9738 180.892,72.6778 182.033,72.6778 Z M191.765,74.4058 C190.571,74.4058 189.621,74.0645 188.917,73.3818 C188.224,72.6992 187.856,71.7285 187.813,70.4698 L187.797,70.0698 C187.797,68.7365 188.144,67.6858 188.837,66.9178 C189.541,66.1498 190.512,65.7658 191.749,65.7658 C193.019,65.7658 193.995,66.1498 194.677,66.9178 C195.371,67.6858 195.717,68.7098 195.717,69.9898 L195.717,70.3258 C195.717,70.4325 195.68,70.5232 195.605,70.5978 C195.531,70.6725 195.435,70.7098 195.317,70.7098 L190.005,70.7098 L190.005,70.8378 C190.027,71.4352 190.187,71.9312 190.485,72.3258 C190.795,72.7098 191.216,72.9018 191.749,72.9018 C192.357,72.9018 192.853,72.6565 193.237,72.1658 C193.333,72.0485 193.408,71.9792 193.461,71.9578 C193.515,71.9258 193.605,71.9098 193.733,71.9098 L195.141,71.9098 C195.237,71.9098 195.317,71.9365 195.381,71.9898 C195.456,72.0432 195.493,72.1178 195.493,72.2138 C195.493,72.4698 195.339,72.7738 195.029,73.1258 C194.731,73.4672 194.299,73.7658 193.733,74.0218 C193.168,74.2778 192.512,74.4058 191.765,74.4058 Z M193.509,69.3498 L193.509,69.3178 C193.509,68.6885 193.349,68.1872 193.029,67.8138 C192.72,67.4298 192.293,67.2378 191.749,67.2378 C191.205,67.2378 190.779,67.4298 190.469,67.8138 C190.16,68.1872 190.005,68.6885 190.005,69.3178 L190.005,69.3498 L193.509,69.3498 Z" id="Shape" fill="#2B3377" fill-rule="nonzero"></path>
            <rect id="Rectangle" fill="#FFCC42" fill-rule="nonzero" x="29" y="140.246" width="78" height="36" rx="18"></rect>
            <path d="M50.1711,162.246 C50.0644,162.246 49.9737,162.209 49.8991,162.134 C49.8244,162.059 49.7871,161.969 49.7871,161.862 L49.7871,151.446 C49.7871,151.329 49.8191,151.233 49.8831,151.158 C49.9577,151.083 50.0537,151.046 50.1711,151.046 L54.3151,151.046 C55.6271,151.046 56.6511,151.35 57.3871,151.958 C58.1337,152.566 58.5071,153.43 58.5071,154.55 C58.5071,155.329 58.3204,155.985 57.9471,156.518 C57.5737,157.041 57.0511,157.419 56.3791,157.654 L58.6991,161.734 C58.7311,161.798 58.7471,161.857 58.7471,161.91 C58.7471,162.006 58.7097,162.086 58.6351,162.15 C58.5711,162.214 58.4964,162.246 58.4111,162.246 L56.9391,162.246 C56.7684,162.246 56.6351,162.209 56.5391,162.134 C56.4431,162.049 56.3577,161.942 56.2831,161.814 L54.2351,158.022 L52.0431,158.022 L52.0431,161.862 C52.0431,161.969 52.0057,162.059 51.9311,162.134 C51.8564,162.209 51.7604,162.246 51.6431,162.246 L50.1711,162.246 Z M54.2671,156.198 C54.9071,156.198 55.3871,156.059 55.7071,155.782 C56.0271,155.494 56.1871,155.078 56.1871,154.534 C56.1871,153.99 56.0271,153.574 55.7071,153.286 C55.3871,152.987 54.9071,152.838 54.2671,152.838 L52.0431,152.838 L52.0431,156.198 L54.2671,156.198 Z M63.8826,162.406 C62.6879,162.406 61.7386,162.065 61.0346,161.382 C60.3412,160.699 59.9732,159.729 59.9306,158.47 L59.9146,158.07 C59.9146,156.737 60.2612,155.686 60.9546,154.918 C61.6586,154.15 62.6292,153.766 63.8666,153.766 C65.1359,153.766 66.1119,154.15 66.7946,154.918 C67.4879,155.686 67.8346,156.71 67.8346,157.99 L67.8346,158.326 C67.8346,158.433 67.7972,158.523 67.7226,158.598 C67.6479,158.673 67.5519,158.71 67.4346,158.71 L62.1226,158.71 L62.1226,158.838 C62.1439,159.435 62.3039,159.931 62.6026,160.326 C62.9119,160.71 63.3332,160.902 63.8666,160.902 C64.4746,160.902 64.9706,160.657 65.3546,160.166 C65.4506,160.049 65.5252,159.979 65.5786,159.958 C65.6319,159.926 65.7226,159.91 65.8506,159.91 L67.2586,159.91 C67.3546,159.91 67.4346,159.937 67.4986,159.99 C67.5732,160.043 67.6106,160.118 67.6106,160.214 C67.6106,160.47 67.4559,160.774 67.1466,161.126 C66.8479,161.467 66.4159,161.766 65.8506,162.022 C65.2852,162.278 64.6292,162.406 63.8826,162.406 Z M65.6266,157.35 L65.6266,157.318 C65.6266,156.689 65.4666,156.187 65.1466,155.814 C64.8372,155.43 64.4106,155.238 63.8666,155.238 C63.3226,155.238 62.8959,155.43 62.5866,155.814 C62.2772,156.187 62.1226,156.689 62.1226,157.318 L62.1226,157.35 L65.6266,157.35 Z M71.9486,162.406 C71.4046,162.406 70.9032,162.299 70.4446,162.086 C69.9966,161.862 69.6392,161.563 69.3726,161.19 C69.1166,160.817 68.9886,160.406 68.9886,159.958 C68.9886,159.233 69.2819,158.646 69.8686,158.198 C70.4552,157.75 71.2606,157.446 72.2846,157.286 L74.4766,156.966 L74.4766,156.63 C74.4766,156.171 74.3592,155.825 74.1246,155.59 C73.8899,155.355 73.5166,155.238 73.0046,155.238 C72.6526,155.238 72.3699,155.302 72.1566,155.43 C71.9432,155.558 71.7672,155.691 71.6286,155.83 C71.5006,155.958 71.4152,156.043 71.3726,156.086 C71.3299,156.214 71.2499,156.278 71.1326,156.278 L69.8846,156.278 C69.7886,156.278 69.7032,156.246 69.6286,156.182 C69.5646,156.118 69.5326,156.033 69.5326,155.926 C69.5432,155.659 69.6712,155.361 69.9166,155.03 C70.1726,154.689 70.5619,154.395 71.0846,154.15 C71.6072,153.894 72.2526,153.766 73.0206,153.766 C74.2792,153.766 75.1966,154.049 75.7726,154.614 C76.3486,155.179 76.6366,155.921 76.6366,156.838 L76.6366,161.862 C76.6366,161.969 76.5992,162.059 76.5246,162.134 C76.4606,162.209 76.3699,162.246 76.2526,162.246 L74.9246,162.246 C74.8179,162.246 74.7272,162.209 74.6526,162.134 C74.5779,162.059 74.5406,161.969 74.5406,161.862 L74.5406,161.238 C74.3059,161.579 73.9752,161.862 73.5486,162.086 C73.1219,162.299 72.5886,162.406 71.9486,162.406 Z M72.4926,160.87 C73.0792,160.87 73.5592,160.678 73.9326,160.294 C74.3059,159.91 74.4926,159.355 74.4926,158.63 L74.4926,158.31 L72.8926,158.566 C71.6659,158.758 71.0526,159.169 71.0526,159.798 C71.0526,160.139 71.1912,160.406 71.4686,160.598 C71.7566,160.779 72.0979,160.87 72.4926,160.87 Z M81.7768,162.406 C80.6995,162.406 79.8728,162.065 79.2968,161.382 C78.7208,160.689 78.4061,159.766 78.3528,158.614 L78.3368,158.086 L78.3528,157.558 C78.3955,156.427 78.7048,155.515 79.2808,154.822 C79.8675,154.118 80.6995,153.766 81.7768,153.766 C82.8008,153.766 83.6168,154.118 84.2248,154.822 L84.2248,151.27 C84.2248,151.153 84.2621,151.062 84.3368,150.998 C84.4115,150.923 84.5021,150.886 84.6088,150.886 L86.0008,150.886 C86.1181,150.886 86.2088,150.923 86.2728,150.998 C86.3475,151.062 86.3848,151.153 86.3848,151.27 L86.3848,161.862 C86.3848,161.969 86.3475,162.059 86.2728,162.134 C86.2088,162.209 86.1181,162.246 86.0008,162.246 L84.7048,162.246 C84.5981,162.246 84.5075,162.209 84.4328,162.134 C84.3581,162.059 84.3208,161.969 84.3208,161.862 L84.3208,161.27 C83.7341,162.027 82.8861,162.406 81.7768,162.406 Z M82.3848,160.678 C82.9928,160.678 83.4408,160.486 83.7288,160.102 C84.0275,159.707 84.1928,159.222 84.2248,158.646 C84.2355,158.518 84.2408,158.315 84.2408,158.038 C84.2408,157.75 84.2355,157.542 84.2248,157.414 C84.2035,156.881 84.0381,156.427 83.7288,156.054 C83.4195,155.681 82.9715,155.494 82.3848,155.494 C81.2435,155.494 80.6355,156.198 80.5608,157.606 L80.5448,158.086 L80.5608,158.566 C80.6355,159.974 81.2435,160.678 82.3848,160.678 Z" id="Shape" fill="#000639" fill-rule="nonzero"></path>
            <path d="M497.594,121.798 L497.275,121.798 L496.957,121.798 L496.638,121.798 L496.797,121.798 C495.681,121.798 494.725,121.015 494.725,120.074 C494.725,119.134 495.522,118.35 496.638,118.35 L496.797,118.35 L500.783,118.35 C503.174,118.35 505.087,116.783 505.087,114.903 C505.087,113.022 503.333,111.612 501.101,111.455 C500.942,111.455 500.942,111.455 500.783,111.455 L500.623,111.455 L500.464,111.455 L499.348,111.455 L499.188,111.455 C498.072,111.455 496.957,110.671 496.957,109.731 C496.957,108.791 497.913,108.007 499.188,108.007 L504.768,108.007 C505.884,108.007 507,107.223 507,106.283 C507,105.343 506.043,104.246 504.768,104.246 L505.246,104.246 L493.768,104.246 L461.725,104.246 C459.812,104.246 458.855,105.029 458.855,105.97 C458.855,106.91 459.812,107.694 461.087,107.694 L463.159,107.694 L463.478,107.694 C464.594,107.694 465.71,108.477 465.71,109.417 C465.71,110.358 464.594,111.298 463.319,111.298 L459.014,111.298 L456.783,111.298 L456.304,111.298 C453.913,111.298 452,112.865 452,114.903 C452,116.94 453.913,118.35 456.304,118.35 L456.942,118.35 L460.609,118.35 L460.928,118.35 C460.609,118.35 461.087,118.35 461.246,118.35 C462.203,118.507 463,119.291 463,120.074 C463,120.858 462.203,121.641 461.246,121.798 C461.087,121.798 460.928,121.798 460.928,121.798 L456.623,121.798 C455.507,121.798 454.391,122.582 454.391,123.522 C454.391,124.462 455.348,125.246 456.623,125.246 L456.942,125.246 L466.348,125.246 L497.754,125.246 C498.87,125.246 499.986,124.462 499.986,123.522 C499.986,122.582 498.87,121.798 497.594,121.798 Z" id="Path" fill="#5C6AB0" fill-rule="nonzero" opacity="0.2"></path>
            <path d="M662.784,105.32 L662.308,105.32 L654.686,105.32 C652.899,105.32 651.47,104.201 651.47,102.858 C651.47,101.515 652.899,100.395 654.686,100.395 L658.973,100.395 C660.76,100.395 662.189,99.2757 662.189,97.9324 C662.189,96.5891 660.76,95.2458 659.092,95.2458 L658.616,95.2458 L649.684,95.2458 L637.298,95.2458 L611.216,95.2458 C609.429,95.2458 608,96.3653 608,97.7085 C608,99.0518 609.429,100.171 611.216,100.171 L632.177,100.171 L632.653,100.171 C634.439,100.171 635.869,101.291 635.869,102.634 C635.869,103.977 634.439,105.32 632.653,105.32 L627.294,105.32 L621.934,105.32 C620.148,105.32 618.719,106.44 618.719,107.783 C618.719,109.126 620.148,110.246 621.934,110.246 L622.411,110.246 L637.417,110.246 L649.684,110.246 L662.784,110.246 C664.571,110.246 666,109.126 666,107.783 C666,106.44 664.571,105.32 662.784,105.32 Z" id="Path" fill="#5C6AB0" fill-rule="nonzero" opacity="0.2"></path>
            <path d="M563.074,83.619 C563.074,85.0518 561.669,86.2458 559.914,86.2458 L558.86,86.2458 L553.593,86.2458 L527.961,86.2458 L512.628,86.2458 L512.16,86.2458 C510.405,86.2458 509,85.0518 509,83.619 C509,82.1861 510.405,80.9921 512.16,80.9921 L517.427,80.9921 L522.694,80.9921 C524.45,80.9921 525.854,79.7981 525.854,78.3653 C525.854,76.9324 524.45,75.7384 522.694,75.7384 L522.226,75.7384 L517.427,75.7384 C515.671,75.7384 514.267,74.5444 514.267,73.1115 C514.267,71.6787 515.671,70.2458 517.427,70.2458 L527.961,70.2458 L553.593,70.2458 L562.489,70.2458 L562.84,70.2458 C564.595,70.2458 566,71.4399 566,72.8727 C566,74.3056 564.595,75.619 562.84,75.619 L558.626,75.619 C556.871,75.619 555.466,76.813 555.466,78.2458 C555.466,79.6787 556.988,80.9921 558.626,80.9921 L559.446,80.9921 L559.914,80.9921 C561.669,80.9921 563.074,82.1861 563.074,83.619 Z" id="Path" fill="#5C6AB0" fill-rule="nonzero" opacity="0.2"></path>
            <path d="M524.092,100.109 C527.232,97.3882 529.9,103.249 533.825,101.103 C535.552,100.162 537.697,95.923 540.994,95.7137 C546.122,95.3474 549.837,103.249 543.663,106.702 C539.215,109.162 539.529,111.36 536.755,117.691 L529.639,116.435 C529.011,108.743 520.795,102.987 524.092,100.109 Z" id="Path" fill="#5C6AB0" fill-rule="nonzero"></path>
            <path d="M522.104,106.65 C522.732,103.196 529.691,105.603 527.808,101.784 C525.819,97.7543 523.831,94.9286 525.767,92.0506 C528.435,88.126 533.668,90.8471 533.825,96.1845 C533.982,101.94 538.953,96.0275 540.837,99.3241 C543.453,103.824 537.854,104.923 537.069,114.499 L529.639,115.441 C529.011,112.092 521.214,111.621 522.104,106.65 Z" id="Path" fill="#415097" fill-rule="nonzero"></path>
            <path d="M526.761,114.342 C526.656,115.65 526.604,117.011 526.604,118.424 C526.604,124.598 527.598,130.093 529.22,133.703 L538.116,133.703 C539.686,130.093 540.732,124.598 540.732,118.424 C540.732,117.011 540.68,115.65 540.575,114.342 L526.761,114.342 Z" id="Path" fill="#EEA320" fill-rule="nonzero"></path>
            <polygon id="Path" fill="#FFCC42" fill-rule="nonzero" points="524.868 164.189 536.746 164.189 536.746 133.577 524.868 133.577"></polygon>
            <polygon id="Path" fill="#EEA320" fill-rule="nonzero" points="536.594 164.189 543.396 164.189 543.396 133.577 536.594 133.577"></polygon>
            <path d="M510.068,140.767 C512.58,137.889 515.772,143.279 519.226,140.715 C520.743,139.564 521.11,135.168 524.458,134.226 C529.639,132.813 531.994,136.999 530.214,142.808 C528.435,148.564 527.912,147.779 526.761,153.483 L516.034,152.488 C513.313,146.418 507.452,143.802 510.068,140.767 Z" id="Path" fill="#5C6AB0" fill-rule="nonzero"></path>
            <path d="M509.074,145.477 C509.754,142.651 514.464,144.378 513.522,140.977 C512.58,137.575 511.272,135.639 512.946,133.546 C515.406,130.511 519.435,133.232 521.528,136.948 C523.988,141.291 526.97,136.843 529.011,139.512 C531.784,143.227 525.819,144.116 524.982,151.913 L517.08,152.698 C516.452,149.925 508.132,149.506 509.074,145.477 Z" id="Path" fill="#415097" fill-rule="nonzero"></path>
            <path d="M512.318,150.762 C512.214,151.704 512.161,152.646 512.161,153.588 C512.161,157.878 513.365,161.698 515.301,164.21 L525.976,164.21 C527.86,161.698 529.115,157.878 529.115,153.588 C529.115,152.593 529.063,151.652 528.958,150.762 L512.318,150.762 Z" id="Path" fill="#EEA320" fill-rule="nonzero"></path>
            <path d="M627.595,2.25638 C627.647,1.62845 627.176,1.05285 626.705,1.10517 C626.391,1.10517 626.13,1.10517 625.816,1.05285 L624.822,0.948192 C624.56,0.895864 624.351,1.10517 624.298,1.41914 C624.246,2.0994 624.665,2.77965 625.24,2.83198 L626.444,3.19827 C626.967,3.45991 627.543,2.98896 627.595,2.25638 Z" id="Path" fill="#F3AA7D" fill-rule="nonzero"></path>
            <path d="M626.234,1.47122 C625.763,1.83752 625.607,2.46545 625.816,2.93639 L626.758,4.82018 C626.967,5.29113 627.543,5.34346 627.961,5.02949 C628.432,4.6632 628.589,4.03527 628.38,3.56432 L627.438,1.68053 C627.229,1.20959 626.705,1.10493 626.234,1.47122 Z" id="Path" fill="#F3AA7D" fill-rule="nonzero"></path>
            <path d="M573.49,54.1653 C565.274,55.6828 559.623,61.0726 558.733,73.3695 C557.844,85.6665 548.896,92.1028 558.733,95.504 C568.571,98.9053 573.908,102.307 577.414,91.2655 C580.92,80.1721 573.49,54.1653 573.49,54.1653 Z" id="Path" fill="#5C6AB0" fill-rule="nonzero"></path>
            <path d="M575.478,26.6413 C573.751,28.5774 571.553,34.6474 574.955,39.1998 C578.304,43.7523 582.594,31.717 581.548,29.2576 C580.449,26.7459 576.629,25.3331 575.478,26.6413 Z" id="Path" fill="#123C63" fill-rule="nonzero"></path>
            <path d="M599.705,8.37899 C602.426,17.1177 609.438,27.4785 609.648,32.7636 C609.857,38.0487 605.88,38.258 603.839,36.7405 C601.798,35.223 598.606,18.1642 595.99,9.26856 C593.374,0.477543 599.705,8.37899 599.705,8.37899 Z" id="Path" fill="#F3AA7D" fill-rule="nonzero"></path>
            <path d="M594.472,4.19256 C594.42,2.04713 601.223,4.24489 601.223,4.24489 C601.223,4.24489 601.118,13.4545 597.664,11.7277 C593.792,9.7916 593.321,8.0648 593.321,8.0648 C593.321,8.0648 594.525,6.33799 594.472,4.19256 Z" id="Path" fill="#F3AA7D" fill-rule="nonzero"></path>
            <path d="M608.235,30.8273 C610.956,32.2925 610.119,35.7984 607.45,41.4498 C604.782,47.1012 604.311,53.3805 599.81,58.1423 C595.363,62.9041 588.769,60.3924 591.386,53.7991 C594.002,47.2582 601.066,35.2228 604.101,32.2925 C607.136,29.3098 608.235,30.8273 608.235,30.8273 Z" id="Path" fill="#F3AA7D" fill-rule="nonzero"></path>
            <path d="M599.339,63.0086 C600.386,60.4445 610.642,41.3973 610.642,34.8041 C610.642,28.2108 604.624,17.222 604.624,17.222 L597.508,26.3793 C597.508,26.3793 600.072,31.8214 600.334,34.9087 C600.595,37.996 591.961,50.8163 589.973,52.7524 C584.269,58.1945 596.409,70.1774 599.339,63.0086 Z" id="Path" fill="#2B3377" fill-rule="nonzero"></path>
            <path d="M550.256,46.8396 C548.895,49.6129 551.669,51.9677 557.216,54.9504 C562.71,57.933 566.844,62.6425 573.228,63.846 C579.664,65.0496 583.432,59.0842 577.466,55.369 C571.449,51.6537 558.628,46.1593 554.442,45.5837 C550.256,45.0081 550.256,46.8396 550.256,46.8396 Z" id="Path" fill="#F3AA7D" fill-rule="nonzero"></path>
            <path d="M577.78,88.7018 C561.977,89.5913 568.152,130.616 568.099,137.366 C568.099,144.117 574.954,151.076 578.042,137.366 C581.966,119.889 588.873,103.144 584.321,96.1323 C579.821,89.1727 577.78,88.7018 577.78,88.7018 Z" id="Path" fill="#B3B9DD" fill-rule="nonzero"></path>
            <polygon id="Path" fill="#F3AA7D" fill-rule="nonzero" points="568.361 172.583 568.622 180.694 571.867 180.955 572.861 170.699"></polygon>
            <path d="M570.559,135.378 C579.716,135.692 578.303,150.71 577.048,156.675 C575.792,162.641 573.123,176.246 573.123,176.246 L567.367,175.618 C567.367,175.618 566.948,144.274 567.576,140.14 C568.204,136.006 570.559,135.378 570.559,135.378 Z" id="Path" fill="#B3B9DD" fill-rule="nonzero"></path>
            <polygon id="Path" fill="#F3AA7D" fill-rule="nonzero" points="601.694 170.699 602.583 180.066 599.444 180.903 596.67 171.013"></polygon>
            <path d="M596.88,134.802 C591.699,134.802 590.286,145.058 592.275,152.227 C594.106,158.768 597.298,175.984 597.298,175.984 L603.211,175.147 C603.211,175.147 601.118,143.384 600.229,139.355 C599.287,135.221 596.88,134.802 596.88,134.802 Z" id="Path" fill="#B3B9DD" fill-rule="nonzero"></path>
            <path d="M588.402,89.8528 C604.205,89.9575 600.124,131.244 600.438,137.942 C600.804,144.692 593.74,152.123 590.496,138.413 C585.786,118.528 577.989,104.766 582.176,97.545 C586.414,90.3761 588.402,89.8528 588.402,89.8528 Z" id="Path" fill="#B3B9DD" fill-rule="nonzero"></path>
            <path d="M595.833,52.5436 C593.321,50.9738 588.717,50.3459 585.054,50.1889 C584.164,50.1366 583.379,50.1366 582.647,50.1366 C579.612,50.1366 571.03,51.968 568.361,53.1716 C563.024,55.5786 566.896,67.143 567.838,71.6432 L571.396,92.3648 C571.396,92.3648 571.919,96.6034 582.176,96.6034 C592.222,96.6034 594.891,93.2021 594.891,93.2021 L601.275,58.195 C601.275,55.3693 598.24,54.0088 595.833,52.5436 Z" id="Path" fill="#2B3377" fill-rule="nonzero"></path>
            <polygon id="Path" fill="#F3AA7D" fill-rule="nonzero" points="579.193 32.1357 586.78 33.6532 586.78 52.5435 579.193 52.5435"></polygon>
            <path d="M589.397,54.0088 C590.601,52.7529 589.973,50.6598 588.246,50.3459 C586.205,49.9272 584.06,49.5086 582.647,49.5086 C581.286,49.5086 579.193,50.1366 576.995,50.7122 C575.269,51.1831 574.745,53.3809 576.053,54.5321 C577.519,55.8402 579.716,56.5728 582.228,56.5728 C585.106,56.5728 587.827,55.6309 589.397,54.0088 Z" id="Path" fill="#F3AA7D" fill-rule="nonzero"></path>
            <polygon id="Path" fill="#415097" fill-rule="nonzero" points="572.965 178.967 567.889 179.019 563.86 184.304 573.54 184.356"></polygon>
            <polygon id="Path" fill="#F6F8FA" fill-rule="nonzero" points="563.833 185.22 573.514 185.22 573.514 184.017 563.833 184.017"></polygon>
            <polygon id="Path" fill="#F4F5FA" fill-rule="nonzero" points="571.71 179.856 568.309 179.804 568.623 179.49 571.815 179.594"></polygon>
            <polygon id="Path" fill="#F4F5FA" fill-rule="nonzero" points="571.344 181.478 567.942 181.426 568.256 181.112 571.448 181.217"></polygon>
            <polygon id="Path" fill="#F4F5FA" fill-rule="nonzero" points="568.413 180.641 571.815 180.589 571.553 180.275 568.309 180.379"></polygon>
            <path d="M573.541,184.042 C573.541,182.839 572.547,181.897 569.25,181.949 C565.954,182.001 563.861,182.577 563.861,184.042 C563.861,185.507 568.989,184.618 568.989,184.618 L573.541,184.042 Z" id="Path" fill="#F6F8FA" fill-rule="nonzero"></path>
            <polygon id="Path" fill="#415097" fill-rule="nonzero" points="598.45 178.967 603.525 179.019 607.555 184.304 597.874 184.356"></polygon>
            <polygon id="Path" fill="#F6F8FA" fill-rule="nonzero" points="607.554 184.042 597.874 184.042 597.874 185.246 607.554 185.246"></polygon>
            <polygon id="Path" fill="#F4F5FA" fill-rule="nonzero" points="599.705 179.856 603.054 179.804 602.793 179.49 599.601 179.594"></polygon>
            <polygon id="Path" fill="#F4F5FA" fill-rule="nonzero" points="600.019 181.478 603.421 181.426 603.159 181.112 599.967 181.217"></polygon>
            <polygon id="Path" fill="#F4F5FA" fill-rule="nonzero" points="603.002 180.641 599.601 180.589 599.862 180.275 603.054 180.379"></polygon>
            <path d="M597.874,184.042 C597.874,182.839 598.868,181.897 602.165,181.949 C605.461,182.002 607.554,182.577 607.554,184.042 C607.554,185.507 602.426,184.618 602.426,184.618 L597.874,184.042 Z" id="Path" fill="#F6F8FA" fill-rule="nonzero"></path>
            <path d="M566.059,169.809 L566.32,176.141 L573.594,176.507 C573.594,176.507 574.85,171.274 574.588,171.222 C574.327,171.065 566.059,169.809 566.059,169.809 Z" id="Path" fill="#415097" fill-rule="nonzero"></path>
            <polygon id="Path" fill="#415097" fill-rule="nonzero" points="595.205 170.228 596.984 176.455 603.839 175.513 603.316 169.809"></polygon>
            <path d="M587.618,35.2231 C588.403,33.8102 588.979,33.3916 588.403,30.5136 C587.356,25.3332 581.182,26.4844 578.147,26.7984 C572.757,27.2693 572.548,44.2757 575.687,46.1072 C578.827,47.9387 585.211,44.2757 585.473,42.1303 C585.63,40.9268 585.891,40.6651 586.101,39.8279 C586.833,39.9325 587.566,38.729 588.037,37.9441 C588.665,36.8976 588.455,35.694 587.618,35.2231 Z" id="Path" fill="#F3AA7D" fill-rule="nonzero"></path>
            <path d="M573.856,26.1701 C574.902,28.8388 575.007,30.9319 579.193,31.1412 C585.787,31.4552 584.374,37.3158 584.374,37.3158 L585.316,37.3158 C585.316,37.3158 585.263,35.7983 586.571,35.4844 C587.88,35.2227 588.403,36.1646 588.141,37.3158 C587.827,38.467 586.519,39.5136 586.519,39.5136 L586.833,45.8975 C586.833,45.8975 587.932,41.7113 590.287,38.2577 C600.02,23.8677 584.007,22.5072 579.036,22.9781 C575.949,23.2921 571.815,20.885 573.856,26.1701 Z" id="Path" fill="#1B507B" fill-rule="nonzero"></path>
            <path d="M571.239,68.6601 C566.425,61.6483 553.029,55.9446 548.948,50.8165 C544.5,45.2174 541.727,41.3452 541.727,41.3452 L548.634,35.7462 C548.634,35.7462 553.71,40.7696 556.535,42.9674 C558.995,44.8511 572.129,51.9154 574.798,52.491 C582.647,54.1131 575.687,75.0441 571.239,68.6601 Z" id="Path" fill="#2B3377" fill-rule="nonzero"></path>
            <path d="M566.425,91.4227 C566.425,91.4227 580.03,58.6657 571.501,50.8689 C571.449,50.8166 571.658,50.7119 571.658,50.7119 L577.309,50.3456 C586.1,57.8808 568.675,91.946 568.675,91.946 L566.425,91.4227 Z" id="Path" fill="#FFCC42" fill-rule="nonzero"></path>
            <path d="M616.293,12.5129 C615.77,10.6815 614.095,10.8908 614.095,10.8908 C614.095,10.8908 614.933,9.79191 615.927,10.1059 C616.973,10.4722 617.968,10.9954 618.753,12.6176 C619.119,13.3502 616.293,12.5129 616.293,12.5129 Z" id="Path" fill="#446484" fill-rule="nonzero"></path>
            <path d="M610.276,15.0242 C606.351,7.48904 602.217,2.88422 599.025,3.19819 C595.833,3.51215 592.955,5.81456 592.851,8.11697 C592.746,10.4194 595.31,18.3208 594.368,19.5244 C593.426,20.7279 592.223,22.0361 591.647,20.4139 C591.071,18.7918 589.92,14.0823 590.862,9.84378 C592.013,4.76801 595.153,1.83767 599.967,2.09931 C604.729,2.41327 613.729,12.9834 613.729,12.9834 L610.276,15.0242 Z" id="Path" fill="#415097" fill-rule="nonzero"></path>
            <path d="M619.119,12.3557 C616.398,8.01252 613.101,10.2626 611.793,12.722 C610.485,15.1814 614.776,12.408 614.776,12.408 C614.776,12.408 615.247,10.0533 616.764,10.7859 C618.282,11.5185 618.282,12.3034 618.282,12.3034 L619.119,12.3557 Z" id="Path" fill="#415097" fill-rule="nonzero"></path>
            <polygon id="Path" fill="#415097" fill-rule="nonzero" points="593.06 18.3734 603.63 47.7291 601.903 49.7175 592.118 19.5246"></polygon>
            <path d="M609.7,13.8209 C607.031,16.0187 599.496,47.0489 600.543,49.8222 C601.589,52.5956 611.688,52.9619 612.683,53.1712 C613.677,53.3282 622.206,52.2293 623.619,50.0315 C625.032,47.8338 628.015,29.1005 628.015,29.1005 C628.015,29.1005 629.794,19.106 629.061,17.5362 C628.381,15.9663 622.259,13.6639 621.683,13.5069 C621.107,13.2976 620.636,13.5069 620.636,13.5069 C620.636,13.5069 620.375,12.8267 619.799,12.5651 C618.91,12.0418 611.741,12.1464 609.7,13.8209 Z" id="Path" fill="#415097" fill-rule="nonzero"></path>
            <path d="M618.962,45.6362 C613.834,37.944 622.782,27.7402 618.962,18.7922 C617.759,16.4374 613.258,15.1292 609.595,13.978 C609.648,13.9257 609.648,13.8734 609.7,13.8734 C611.741,12.1989 618.91,12.0942 619.904,12.5129 C620.48,12.7745 620.741,13.4548 620.741,13.4548 C620.741,13.4548 621.16,13.2454 621.788,13.4548 C622.363,13.6641 628.486,15.9665 629.166,17.484 C629.846,19.0538 628.119,29.0483 628.119,29.0483 C628.119,29.0483 625.137,47.7816 623.724,49.9793 C623.619,50.1886 623.41,50.3456 623.201,50.5026 C621.526,49.2467 620.061,47.6246 618.962,45.6362 Z" id="Path" fill="#5C6AB0" fill-rule="nonzero"></path>
            <path d="M606.77,52.4908 L607.502,52.5431 C606.717,51.7582 607.555,46.5778 608.758,41.4497 C609.229,39.4612 609.7,37.3681 610.171,35.2227 C610.799,32.1354 611.218,29.048 611.532,26.327 C612.212,20.8326 612.787,16.5418 614.828,15.0766 C617.759,12.9312 620.741,13.4021 620.741,13.4021 C619.59,12.8789 616.66,12.8789 614.41,14.4487 C612.107,16.0708 611.532,20.571 610.799,26.2224 C610.433,28.9434 610.066,31.9784 609.438,35.0657 C608.968,37.2111 608.497,39.3042 608.078,41.2927 C606.456,48.1476 605.723,51.4442 606.77,52.4908 Z" id="Path" fill="#2B3377" fill-rule="nonzero"></path>
            <path d="M606.874,47.6766 L606.979,46.944 C605.618,46.7347 602.008,46.2114 601.014,44.2229 L600.909,44.9032 C601.799,46.944 606.351,47.5719 606.874,47.6766 Z" id="Path" fill="#2B3377" fill-rule="nonzero"></path>
            <path d="M612.212,53.1188 C612.212,53.1188 613.206,50.8687 613.991,48.2524 C614.776,45.5837 618.386,28.4726 618.857,24.862 C619.328,21.2514 618.857,18.1641 618.857,18.1641 C617.863,23.8154 614.095,45.3743 613.31,47.9907 C612.526,50.6071 611.793,53.0142 611.793,53.0142 L612.212,53.1188 Z" id="Path" fill="#2B3377" fill-rule="nonzero"></path>
            <path d="M615.927,30.147 C616.398,30.147 616.817,30.0423 617.288,29.8854 L616.974,29.2574 C615.142,29.8854 612.212,28.3679 611.218,27.7399 L610.694,28.4202 C610.851,28.5772 613.415,30.147 615.927,30.147 Z" id="Path" fill="#2B3377" fill-rule="nonzero"></path>
            <path d="M543.401,33.4959 C550.256,38.2577 558.157,42.8626 560.198,46.6825 C562.919,51.7059 558.523,55.6828 555.541,55.4212 C551.198,55.0025 544.447,46.7871 538.011,39.0427 L543.401,33.4959 Z" id="Path" fill="#2B3377" fill-rule="nonzero"></path>
            <path d="M543.349,36.1649 C541.256,36.3219 539.11,36.4265 539.11,36.4265 C537.488,34.4381 536.023,32.659 534.872,31.1938 C528.697,23.5017 537.697,28.6298 537.697,28.6298 C539.424,29.9903 541.256,31.4554 543.192,32.9206 L543.349,36.1649 Z" id="Path" fill="#F3AA7D" fill-rule="nonzero"></path>
            <path d="M536.86,21.2513 C536.86,20.5188 536.232,19.9955 535.5,20.1001 C535.081,20.1525 534.715,20.1525 534.296,20.1525 L532.936,20.1525 C532.569,20.1525 532.308,20.4141 532.255,20.7804 C532.203,21.5653 532.883,22.1932 533.668,22.2456 L535.395,22.5072 C536.128,22.6642 536.86,22.0363 536.86,21.2513 Z" id="Path" fill="#F3AA7D" fill-rule="nonzero"></path>
            <path d="M535.133,20.4142 C534.662,20.7805 534.61,21.4608 534.924,21.8794 L536.441,23.7632 C536.808,24.2342 537.488,24.2865 537.907,23.9725 C538.378,23.6062 538.43,22.926 538.116,22.5073 L536.598,20.5712 C536.284,20.1526 535.604,20.048 535.133,20.4142 Z" id="Path" fill="#F3AA7D" fill-rule="nonzero"></path>
            <path d="M537.645,22.4547 C537.122,22.3501 536.651,22.7164 536.546,23.2396 L536.18,25.3851 C536.075,25.9083 536.442,26.3793 536.965,26.4839 C537.488,26.5886 537.959,26.2223 538.064,25.699 L538.43,23.5536 C538.482,23.0303 538.168,22.507 537.645,22.4547 Z" id="Path" fill="#F3AA7D" fill-rule="nonzero"></path>
            <path d="M538.011,25.9611 L537.959,26.4844 L533.04,30.4089 C532.203,29.8333 531.837,29.5194 531.313,28.8915 L531.209,28.7868 L530.685,26.5367 C530.476,26.2751 530.476,24.0773 531.104,20.1004 C531.313,18.8446 535.29,21.0947 536.389,22.7691 C537.017,23.711 537.802,24.9669 537.802,24.9669 C538.011,25.2809 538.064,25.5948 538.011,25.9611 Z" id="Path" fill="#F3AA7D" fill-rule="nonzero"></path>
            <path d="M541.622,34.9614 L537.749,27.6355 C537.749,27.5309 538.011,26.0134 538.011,25.9087 C538.063,25.5947 537.959,25.2808 537.802,25.0191 C537.278,24.2342 536.337,22.7691 536.337,22.7691 C534.714,23.711 535.238,26.0134 534.505,26.8506 C533.459,25.5424 530.214,27.2169 531.208,28.839 L531.313,28.9437 C531.836,29.5716 532.203,29.8856 533.04,30.4612 L539.999,36.3219 L541.622,34.9614 Z" id="Path" fill="#F3AA7D" fill-rule="nonzero"></path>
            <polygon id="Path" fill="#415097" fill-rule="nonzero" points="518.859 32.9205 535.238 53.3805 562.814 31.246 546.436 10.786"></polygon>
            <polygon id="Path" fill="#B3B9DD" fill-rule="nonzero" points="520.01 33.1299 536.337 53.59 563.966 31.4031 547.587 10.9954"></polygon>
            <polygon id="Path" fill="#FFFFFF" fill-rule="nonzero" points="521.424 33.1299 537.802 53.59 565.379 31.4031 549.052 10.9954"></polygon>
            <polygon id="Path" fill="#B3B9DD" fill-rule="nonzero" points="550.308 19.9958 557.215 28.6298 558.262 27.7926 551.355 19.1586"></polygon>
            <polygon id="Path" fill="#B4B9DD" fill-rule="nonzero" opacity="0.6" points="539.529 36.7929 543.349 41.607 543.767 41.2931 539.895 36.5313"></polygon>
            <polygon id="Path" fill="#B4B9DD" fill-rule="nonzero" opacity="0.6" points="539.267 38.101 542.564 42.2349 542.93 41.9209 539.634 37.8393"></polygon>
            <polygon id="Path" fill="#B4B9DD" fill-rule="nonzero" opacity="0.6" points="537.697 37.8393 541.726 42.8628 542.093 42.6011 538.064 37.5254"></polygon>
            <polygon id="Path" fill="#B4B9DD" fill-rule="nonzero" opacity="0.6" points="538.796 40.8221 540.942 43.5431 541.308 43.2291 539.163 40.5604"></polygon>
            <polygon id="Path" fill="#B4B9DD" fill-rule="nonzero" opacity="0.6" points="534.715 30.8274 538.587 35.5892 538.953 35.2753 535.133 30.5135"></polygon>
            <polygon id="Path" fill="#B4B9DD" fill-rule="nonzero" opacity="0.6" points="534.453 32.1358 537.75 36.2173 538.116 35.9557 534.819 31.8218"></polygon>
            <polygon id="Path" fill="#B4B9DD" fill-rule="nonzero" opacity="0.6" points="532.883 31.8217 536.912 36.8974 537.331 36.5835 533.249 31.56"></polygon>
            <polygon id="Path" fill="#B4B9DD" fill-rule="nonzero" opacity="0.6" points="533.982 34.8569 536.127 37.5256 536.494 37.2639 534.348 34.5429"></polygon>
            <path d="M528.278,23.6063 C527.86,23.9202 527.808,24.4958 528.122,24.9145 L529.325,26.432 C529.639,26.8506 530.215,26.9029 530.633,26.5889 C531.052,26.275 531.104,25.6994 530.79,25.2808 L529.587,23.7633 C529.273,23.3446 528.697,23.2923 528.278,23.6063 Z" id="Path" fill="#F3AA7D" fill-rule="nonzero"></path>
            <path d="M531.68,19.3155 C530.999,19.4725 530.528,20.0481 530.633,20.6237 L531.366,24.3912 C531.47,24.9668 532.15,25.2808 532.831,25.1762 C533.511,25.0192 533.982,24.4436 533.877,23.868 L533.145,20.1004 C533.04,19.5248 532.36,19.1585 531.68,19.3155 Z" id="Path" fill="#F3AA7D" fill-rule="nonzero"></path>
            <path d="M529.273,21.4086 C528.802,21.6702 528.645,22.2458 528.906,22.7167 L530.581,25.7517 C530.842,26.2227 531.418,26.3797 531.889,26.118 C532.36,25.8564 532.517,25.2808 532.255,24.8098 L530.581,21.7749 C530.319,21.3562 529.744,21.1469 529.273,21.4086 Z" id="Path" fill="#F3AA7D" fill-rule="nonzero"></path>
            <path d="M533.877,19.1586 C533.354,19.2633 532.988,19.7866 533.092,20.3098 L533.72,23.4495 C533.825,23.9728 534.348,24.3391 534.871,24.2344 C535.395,24.1297 535.761,23.6065 535.656,23.0832 L535.028,19.9435 C534.976,19.4203 534.453,19.054 533.877,19.1586 Z" id="Path" fill="#F3AA7D" fill-rule="nonzero"></path>
            <path d="M559.727,23.2921 C560.355,22.3502 560.198,20.9374 559.309,19.7862 C558.419,18.6873 557.059,18.2164 556.012,18.635 L559.727,23.2921 Z" id="Path" fill="#415097" fill-rule="nonzero"></path>
            <path d="M626.444,1.52392 C626.025,1.52392 625.606,1.52392 625.188,1.47159 L626.444,1.52392 Z" id="Path" fill="#F3AA7D" fill-rule="nonzero"></path>
            <path d="M618.961,4.6113 C618.542,4.92526 618.385,5.55319 618.699,5.97181 L619.798,7.69862 C620.112,8.16956 620.688,8.27422 621.106,7.96025 C621.525,7.64629 621.682,7.01836 621.368,6.59974 L620.269,4.92526 C620.007,4.45431 619.379,4.29733 618.961,4.6113 Z" id="Path" fill="#F3AA7D" fill-rule="nonzero"></path>
            <path d="M621.42,1.05296 C620.949,1.41926 620.792,2.09951 621.106,2.57046 L623.252,5.97175 C623.566,6.49502 624.246,6.59968 624.717,6.28571 C625.188,5.91942 625.345,5.23916 625.031,4.71589 L622.885,1.3146 C622.571,0.843654 621.891,0.738999 621.42,1.05296 Z" id="Path" fill="#F3AA7D" fill-rule="nonzero"></path>
            <path d="M620.269,2.36118 C619.746,2.62282 619.484,3.25075 619.693,3.77402 L621.106,7.12298 C621.316,7.64626 621.943,7.85557 622.519,7.59393 C623.042,7.33229 623.304,6.70436 623.095,6.18109 L621.682,2.83213 C621.42,2.30885 620.792,2.09954 620.269,2.36118 Z" id="Path" fill="#F3AA7D" fill-rule="nonzero"></path>
            <path d="M623.304,0.163343 C622.833,0.477308 622.729,1.15757 623.043,1.62851 L624.874,4.4542 C625.188,4.92514 625.816,5.08213 626.287,4.76816 C626.758,4.4542 626.863,3.77394 626.549,3.30299 L624.717,0.477308 C624.351,0.00636084 623.723,-0.150622 623.304,0.163343 Z" id="Path" fill="#F3AA7D" fill-rule="nonzero"></path>
            <line x1="535.343" y1="26.9552" x2="547.273" y2="42.1824" id="Path" stroke="#2B3277"></line>
            <path d="M620.689,30.5133 C621.84,30.5133 623.619,30.1994 626.392,29.6761 C626.392,29.6761 627.387,29.5191 627.648,29.4668 C627.91,29.4145 627.91,28.6296 627.544,28.7342 C627.125,28.8389 626.288,28.9435 626.288,28.9435 C622.573,29.6238 620.532,29.9901 619.747,29.5715 C618.91,29.1528 619.014,29.9901 619.381,30.1994 C619.747,30.5133 620.113,30.5133 620.689,30.5133 Z" id="Path" fill="#2B3377" fill-rule="nonzero"></path>
            <line x1="536.703" y1="25.5943" x2="548.582" y2="40.8216" id="Path" stroke="#2B3277"></line>
            <line x1="537.907" y1="24.3387" x2="549.837" y2="39.566" id="Path" stroke="#2B3277"></line>
            <path d="M620.166,30.2517 L620.27,34.0716 C620.27,34.0716 620.27,34.3856 619.799,34.3333 C619.328,34.3333 619.224,33.967 619.224,33.967 L619.852,30.2517 L620.166,30.2517 Z" id="Path" fill="#2B3377" fill-rule="nonzero"></path>
            <polygon id="Path" fill="#2B3377" fill-rule="nonzero" points="547.714 24.0481 544.346 19.8403 540.629 22.816 543.997 27.0237"></polygon>
            <polygon id="Path" fill="#2B3377" fill-rule="nonzero" points="551.857 29.2175 548.489 25.0097 544.771 27.9854 548.139 32.1931"></polygon>
            <polygon id="Path" fill="#2B3377" fill-rule="nonzero" points="555.967 34.4176 552.599 30.2098 548.882 33.1855 552.25 37.3932"></polygon>
            <polygon id="Path" fill="#415097" fill-rule="nonzero" points="552.232 17.5086 559.982 27.1906 561.82 25.7191 554.071 16.0371"></polygon>
        </g>
        <text id="Follow-these-tips-by" font-family="RubikRoman-Regular, Rubik" font-size="14" font-weight="normal" line-spacing="19" fill="#6A6A6A">
            <tspan x="29" y="104">Follow these tips by our design team and youll be </tspan>
            <tspan x="29" y="123">creating amazing products in no time.</tspan>
        </text>
    </g>
</svg>
