<?xml version="1.0" encoding="UTF-8"?>
<svg width="52px" height="52px" viewBox="0 0 52 52" version="1.1" xmlns="http://www.w3.org/2000/svg" xmlns:xlink="http://www.w3.org/1999/xlink">
    <!-- Generator: Sketch 46.2 (44496) - http://www.bohemiancoding.com/sketch -->
    <title>Slice</title>
    <desc>Created with Sketch.</desc>
    <defs></defs>
    <g id="Page-1" stroke="none" stroke-width="1" fill="none" fill-rule="evenodd">
        <g id="etsy-(4)" transform="translate(7.000000, 7.000000)" fill-rule="nonzero" fill="#F37122">
            <path d="M0,0 L0,38 L38,38 L38,0 L0,0 Z M27.8423077,31.4230769 C27.1846154,31.4230769 27.4769231,31.0576923 24.4807692,31.0576923 C21.4846154,31.0576923 11.2538462,31.1307692 9.5,31.1307692 C8.84230769,31.1307692 8.69615385,30.9846154 8.69615385,30.5461538 C8.69615385,30.1807692 8.98846154,29.8884615 9.5,29.8884615 C10.0115385,29.8884615 12.35,29.8884615 12.35,26.9653846 C12.35,24.0423077 12.35,13.3 12.35,11.6923077 C12.35,10.0846154 11.9846154,8.55 10.0846154,8.33076923 C9.35384615,8.25769231 9.35384615,7.96538462 9.35384615,7.52692308 C9.35384615,7.16153846 9.42692308,6.86923077 9.93846154,6.86923077 C10.3769231,6.86923077 15.0538462,7.01538462 18.1230769,7.01538462 C24.6269231,7.01538462 26.1615385,6.50384615 27.2576923,6.50384615 C27.8423077,6.50384615 27.9884615,7.01538462 27.9884615,7.30769231 C27.9884615,7.6 27.6961538,8.18461538 27.6961538,8.98846154 C27.6961538,9.79230769 27.8423077,10.5961538 27.8423077,11.2538462 C27.8423077,11.9115385 27.2576923,12.1307692 26.9653846,12.1307692 C26.6730769,12.1307692 26.4538462,11.9846154 26.4538462,11.4730769 C26.4538462,10.3769231 27.2576923,8.76923077 19.3653846,8.76923077 C15.3461538,8.76923077 15.2730769,9.20769231 15.2730769,10.5230769 C15.2730769,11.8384615 15.2730769,16.0038462 15.2730769,16.6615385 C15.2730769,17.3192308 15.4923077,17.4653846 16.0038462,17.4653846 C16.5153846,17.4653846 20.6076923,17.4653846 21.7038462,17.4653846 C22.8,17.4653846 23.9692308,16.8807692 24.0423077,15.2730769 C24.1153846,14.3961538 24.3346154,14.3961538 24.7,14.3961538 C25.1384615,14.3961538 25.5038462,14.7615385 25.4307692,15.4923077 C25.3576923,16.2961538 25.2115385,17.1 25.2115385,18.2692308 C25.2115385,19.4384615 25.4307692,20.5346154 25.4307692,21.3384615 C25.4307692,22.1423077 24.3346154,22.2153846 24.1153846,21.3384615 C24.1153846,20.6076923 23.8230769,19 21.2653846,19 C18.7807692,19 16.7346154,19 16.15,19 C15.5653846,19 15.3461538,19.5846154 15.3461538,20.4615385 C15.3461538,21.4115385 15.3461538,25.8692308 15.3461538,27.0384615 C15.3461538,28.2076923 15.7115385,29.3769231 17.9769231,29.3769231 C20.2423077,29.3769231 24.4076923,29.5961538 26.3076923,28.1346154 C27.1115385,27.4769231 27.4038462,26.5269231 27.6230769,24.9923077 C27.7692308,24.2615385 29.3038462,24.3346154 29.2307692,25.9423077 C29.1576923,26.6730769 28.4269231,28.3538462 28.4269231,29.3769231 C28.4269231,30.2538462 28.6461538,31.4230769 27.8423077,31.4230769 Z" id="Shape"></path>
        </g>
    </g>
</svg>