<svg width="934" height="222" viewBox="0 0 934 222" fill="none" xmlns="http://www.w3.org/2000/svg">
<path d="M218.957 111.045C218.957 131.114 213.648 149.929 204.366 166.137C185.513 199.069 150.274 221.225 109.909 221.225C69.5457 221.225 34.3057 199.069 15.4522 166.137C6.17026 149.929 0.861328 131.114 0.861328 111.045C0.861328 50.1911 49.6827 0.859375 109.909 0.859375C170.135 0.859375 218.957 50.1911 218.957 111.045Z" fill="black"/>
<path d="M179.01 190.55L178.84 190.173C178.844 190.299 178.85 190.424 178.853 190.55H179.01Z" fill="white"/>
<path d="M141.056 30.4187C140.443 30.4187 139.93 32.0315 139.782 34.214C137.622 34.3641 136.025 34.8824 136.025 35.5014C136.025 36.1205 137.622 36.6387 139.782 36.7888C139.93 38.9714 140.443 40.5841 141.056 40.5841C141.668 40.5841 142.181 38.9714 142.33 36.7888C144.49 36.6387 146.086 36.1205 146.086 35.5014C146.086 34.8824 144.49 34.3641 142.33 34.214C142.182 32.0315 141.668 30.4187 141.056 30.4187Z" fill="white"/>
<path d="M154.318 62.2058C153.316 62.2058 152.476 64.8452 152.233 68.4171C148.698 68.6614 146.086 69.5105 146.086 70.524C146.086 71.5375 148.698 72.3855 152.233 72.6309C152.475 76.2027 153.315 78.8422 154.318 78.8422C155.321 78.8422 156.161 76.2027 156.403 72.6309C159.938 72.3866 162.551 71.5375 162.551 70.524C162.551 69.5116 159.938 68.6625 156.403 68.4171C156.162 64.8452 155.321 62.2058 154.318 62.2058Z" fill="white"/>
<path d="M70.581 58.6357C69.9684 58.6357 69.4555 60.2485 69.3069 62.4311C67.1469 62.5812 65.5508 63.0994 65.5508 63.7185C65.5508 64.3375 67.1469 64.8558 69.3069 65.0059C69.4555 67.1884 69.9684 68.8012 70.581 68.8012C71.1937 68.8012 71.7066 67.1884 71.8551 65.0059C74.0152 64.8558 75.6113 64.3375 75.6113 63.7185C75.6113 63.0994 74.0152 62.5812 71.8551 62.4311C71.7066 60.2485 71.1937 58.6357 70.581 58.6357Z" fill="white"/>
<path d="M47.1981 92.8616C46.1962 92.8616 45.3558 95.501 45.1129 99.0728C41.578 99.3171 38.9658 100.166 38.9658 101.18C38.9658 102.192 41.578 103.041 45.1129 103.287C45.3548 106.859 46.1951 109.498 47.1981 109.498C48.2001 109.498 49.0404 106.859 49.2833 103.287C52.8183 103.042 55.4305 102.193 55.4305 101.18C55.4305 100.167 52.8183 99.3182 49.2833 99.0728C49.0404 95.501 48.2011 92.8616 47.1981 92.8616Z" fill="white"/>
<path d="M37.4867 193.424L26.8027 182.384C30.1089 186.312 33.6796 189.997 37.4867 193.424Z" fill="#05979D"/>
<path d="M109.913 111.044C69.5495 111.044 34.3052 133.205 15.4561 166.137C18.7568 171.897 22.5552 177.334 26.7983 182.373C29.5265 177.225 34.9015 173.726 41.0866 173.726C47.5135 173.726 53.0491 177.506 55.6775 182.981C57.1696 182.397 58.7841 182.067 60.4801 182.067C62.806 182.067 64.9888 182.67 66.8929 183.728C68.5692 182.101 70.8377 181.097 73.3436 181.097C75.3279 181.097 77.1605 181.729 78.671 182.795C79.1394 175.779 84.9038 170.233 91.9639 170.233C94.4167 170.233 96.7046 170.912 98.6792 172.076C99.1856 168.836 101.956 166.352 105.309 166.352C105.867 166.352 106.403 166.443 106.923 166.573L109.916 150.447L112.909 166.573C113.43 166.443 113.965 166.352 114.524 166.352C117.876 166.352 120.647 168.836 121.153 172.076C123.128 170.914 125.416 170.233 127.864 170.233C134.93 170.233 140.693 175.779 141.163 182.795C142.673 181.728 144.506 181.097 146.49 181.097C148.995 181.097 151.263 182.101 152.935 183.728C154.844 182.671 157.028 182.067 159.352 182.067C161.048 182.067 162.663 182.397 164.155 182.981C166.783 177.507 172.32 173.726 178.746 173.726C184.927 173.726 190.296 177.219 193.029 182.363C197.272 177.324 201.07 171.897 204.367 166.137C185.521 133.205 150.277 111.044 109.913 111.044Z" fill="url(#paint0_linear)"/>
<path d="M135.647 154.956C132.207 117.232 122.581 86.2255 109.9 70.5259C97.1958 86.2583 87.556 117.349 84.1349 155.173C83.9246 157.468 83.7424 159.786 83.583 162.128C84.3854 163.995 85.9274 165.456 87.8347 166.142C90.7407 161.994 93.8333 158.675 97.0635 156.297C99.0349 154.845 101.059 153.747 103.127 153.022C103.72 156.51 106.722 159.168 110.343 159.168C113.605 159.168 116.366 157.014 117.317 154.04C119.073 154.916 120.795 156.063 122.477 157.472C125.264 159.805 127.942 162.847 130.483 166.52C133.033 166.22 135.177 164.593 136.235 162.344C136.062 159.855 135.866 157.389 135.647 154.956Z" fill="white"/>
<path d="M109.904 70.5295V159.156C106.481 158.947 103.689 156.362 103.127 153.021C101.055 153.749 99.0316 154.844 97.0625 156.299C93.8311 158.677 90.7375 161.99 87.8358 166.142C85.9284 165.456 84.3854 163.993 83.583 162.128C83.7413 159.786 83.9257 157.463 84.1317 155.169C87.5549 117.343 97.1926 86.2554 109.898 70.5208L109.904 70.5295Z" fill="#E6E7E8"/>
<path d="M109.913 120.859C114.446 120.859 118.121 117.146 118.121 112.565C118.121 107.985 114.446 104.271 109.913 104.271C105.379 104.271 101.704 107.985 101.704 112.565C101.704 117.146 105.379 120.859 109.913 120.859Z" fill="black"/>
<path d="M268.179 49.312V52.5661V121.056L248.707 140.878V52.5661V49.312H268.179Z" fill="#231F20"/>
<path d="M326.739 147.832V167.654H248.707L268.179 147.832H326.739Z" fill="#B1B3B6"/>
<path d="M368.814 147.831L358.859 167.653H337.191L395.751 49.312L434.841 128.304H412.88L395.751 93.5413L378.476 128.304L368.814 147.831Z" fill="#231F20"/>
<path d="M454.312 167.654H432.5L422.836 147.979H444.503L454.312 167.654Z" fill="#B1B3B6"/>
<path d="M563.161 118.393C563.161 132.002 558.477 143.689 548.814 153.304C539.299 162.919 527.587 167.653 514.264 167.653C500.94 167.653 489.376 162.92 479.86 153.304C470.345 143.689 465.659 131.855 465.659 118.393V49.312H485.13V118.394C485.13 126.53 487.912 133.483 493.475 139.104C499.184 145.022 506.211 147.832 514.264 147.832C522.316 147.832 529.196 144.874 534.905 139.104C540.615 133.335 543.689 126.383 543.689 118.394H563.161V118.393Z" fill="#231F20"/>
<path d="M686.572 49.312V167.357V167.505V167.653L589.217 79.1926V49.312L667.102 120.169V49.312H686.572Z" fill="#231F20"/>
<path d="M564.021 49.312H544.551V98.6459H564.021V49.312Z" fill="#B1B3B6"/>
<path d="M933.138 49.3125H913.668V78.8984H933.138V49.3125Z" fill="#B1B3B6"/>
<path d="M855.103 138.066H835.633V167.652H855.103V138.066Z" fill="#231F20"/>
<path d="M855.097 167.658H835.633V167.8H855.097V167.658Z" fill="#231F20"/>
<path d="M855.104 89.0286H855.1V49.4548H835.636V89.0286H835.633V118.614H855.104V118.537H913.662V118.618H913.665V148.201V167.802H933.136V148.201V118.618V118.614V98.7175H855.104V89.0286Z" fill="#231F20"/>
<path d="M589.217 167.359V98.647L608.69 116.337V167.359H589.217Z" fill="#B1B3B6"/>
<path d="M724.673 108.192C724.673 97.2286 729.055 87.3195 736.165 80.1156C743.285 72.9018 753.142 68.4327 764.032 68.4327C777.209 68.4327 788.871 74.9781 796.01 85.0296C796.031 85.0504 796.05 85.0701 796.06 85.091L809.808 71.1992C799.079 57.6318 782.563 48.9487 764.032 48.9487C747.818 48.9487 733.147 55.596 722.537 66.3455C711.938 77.0653 705.4 91.8588 705.4 108.192C705.4 126.754 713.843 143.311 727.06 154.162L740.849 140.331C731.042 133.097 724.673 121.394 724.673 108.192Z" fill="#231F20"/>
<path d="M764.036 147.961C761.419 147.961 758.872 147.708 756.406 147.212L740.974 162.674C748.053 165.734 755.844 167.436 764.038 167.436C780.202 167.436 794.843 160.82 805.452 150.121L791.824 136.351C784.694 143.534 774.887 147.961 764.036 147.961Z" fill="#B1B3B6"/>
<path d="M809.81 71.1997L796.062 85.0915C796.052 85.0707 796.031 85.0509 796.012 85.0301L809.81 71.1997Z" fill="#21B6B2"/>
<defs>
<linearGradient id="paint0_linear" x1="109.913" y1="111.044" x2="109.913" y2="183.727" gradientUnits="userSpaceOnUse">
<stop stop-color="white"/>
<stop offset="0.291" stop-color="#D8D9DA"/>
<stop offset="0.5852" stop-color="#B8B9BC"/>
<stop offset="0.8322" stop-color="#A4A6A9"/>
<stop offset="1" stop-color="#9D9FA2"/>
</linearGradient>
</defs>
</svg>
