<?xml version="1.0" encoding="utf-8"?>
<!-- Generator: Adobe Illustrator 17.0.0, SVG Export Plug-In . SVG Version: 6.00 Build 0)  -->
<!DOCTYPE svg PUBLIC "-//W3C//DTD SVG 1.1//EN" "http://www.w3.org/Graphics/SVG/1.1/DTD/svg11.dtd">
<svg version="1.1" id="Layer_1" xmlns="http://www.w3.org/2000/svg" xmlns:xlink="http://www.w3.org/1999/xlink" x="0px" y="0px"
	 width="25px" height="25px" viewBox="454.5 98.5 25 25" enable-background="new 454.5 98.5 25 25" xml:space="preserve">
<g>
	<path d="M479.5,111c0,2.277-0.609,4.411-1.673,6.25c-2.161,3.736-6.201,6.25-10.827,6.25c-4.627,0-8.666-2.514-10.827-6.25
		c-1.064-1.839-1.673-3.973-1.673-6.25c0-6.904,5.596-12.5,12.5-12.5C473.904,98.5,479.5,104.097,479.5,111z"/>
	<path fill="#FFFFFF" d="M474.921,120.02l-0.019-0.043c0,0.014,0.001,0.028,0.001,0.043H474.921z"/>
	<path fill="#FFFFFF" d="M470.57,101.853c-0.07,0-0.129,0.183-0.146,0.431c-0.248,0.017-0.431,0.076-0.431,0.146
		c0,0.07,0.183,0.129,0.431,0.146c0.017,0.248,0.076,0.431,0.146,0.431c0.07,0,0.129-0.183,0.146-0.431
		c0.248-0.017,0.431-0.076,0.431-0.146c0-0.07-0.183-0.129-0.431-0.146C470.699,102.036,470.64,101.853,470.57,101.853z"/>
	<path fill="#FFFFFF" d="M472.091,105.46c-0.115,0-0.211,0.299-0.239,0.705c-0.405,0.028-0.705,0.124-0.705,0.239
		c0,0.115,0.299,0.211,0.705,0.239c0.028,0.405,0.124,0.705,0.239,0.705c0.115,0,0.211-0.299,0.239-0.705
		c0.405-0.028,0.705-0.124,0.705-0.239c0-0.115-0.3-0.211-0.705-0.239C472.302,105.759,472.206,105.46,472.091,105.46z"/>
	<path fill="#FFFFFF" d="M462.492,105.055c-0.07,0-0.129,0.183-0.146,0.431c-0.248,0.017-0.431,0.076-0.431,0.146
		c0,0.07,0.183,0.129,0.431,0.146c0.017,0.248,0.076,0.431,0.146,0.431s0.129-0.183,0.146-0.431
		c0.248-0.017,0.431-0.076,0.431-0.146c0-0.07-0.183-0.129-0.431-0.146C462.621,105.238,462.562,105.055,462.492,105.055z"/>
	<path fill="#FFFFFF" d="M459.812,108.937c-0.115,0-0.211,0.299-0.239,0.705c-0.405,0.028-0.705,0.124-0.705,0.239
		c0,0.115,0.299,0.211,0.705,0.239c0.028,0.405,0.124,0.705,0.239,0.705c0.115,0,0.211-0.299,0.239-0.705
		c0.405-0.028,0.705-0.124,0.705-0.239s-0.299-0.211-0.705-0.239C460.023,109.237,459.926,108.937,459.812,108.937z"/>
	<path fill="#05979D" d="M458.698,120.346l-1.225-1.252C457.853,119.539,458.262,119.957,458.698,120.346z"/>
	
		<linearGradient id="SVGID_1_" gradientUnits="userSpaceOnUse" x1="343.6553" y1="285.7348" x2="343.6553" y2="277.489" gradientTransform="matrix(1 0 0 -1 123.345 396.735)">
		<stop  offset="0" style="stop-color:#FFFFFF"/>
		<stop  offset="0.291" style="stop-color:#D8D9DA"/>
		<stop  offset="0.5852" style="stop-color:#B8B9BC"/>
		<stop  offset="0.8322" style="stop-color:#A4A6A9"/>
		<stop  offset="1" style="stop-color:#9D9FA2"/>
	</linearGradient>
	<path fill="url(#SVGID_1_)" d="M467,111c-4.627,0-8.667,2.514-10.827,6.25c0.378,0.653,0.814,1.27,1.3,1.842
		c0.313-0.584,0.929-0.981,1.638-0.981c0.737,0,1.371,0.429,1.673,1.05c0.171-0.066,0.356-0.104,0.551-0.104
		c0.267,0,0.517,0.068,0.735,0.188c0.192-0.185,0.452-0.298,0.739-0.298c0.227,0,0.438,0.072,0.611,0.193
		c0.054-0.796,0.714-1.425,1.524-1.425c0.281,0,0.543,0.077,0.77,0.209c0.058-0.368,0.376-0.649,0.76-0.649
		c0.064,0,0.125,0.01,0.185,0.025l0.343-1.829l0.343,1.829c0.06-0.015,0.121-0.025,0.185-0.025c0.384,0,0.702,0.282,0.76,0.649
		c0.226-0.132,0.489-0.209,0.769-0.209c0.81,0,1.471,0.629,1.524,1.425c0.173-0.121,0.383-0.193,0.611-0.193
		c0.287,0,0.547,0.114,0.739,0.298c0.219-0.12,0.469-0.188,0.736-0.188c0.194,0,0.38,0.037,0.551,0.104
		c0.301-0.621,0.936-1.05,1.673-1.05c0.709,0,1.324,0.396,1.637,0.98c0.486-0.572,0.922-1.187,1.3-1.841
		C475.667,113.514,471.627,111,467,111z"/>
	<path fill="#FFFFFF" d="M469.95,115.982c-0.394-4.28-1.498-7.797-2.951-9.578c-1.456,1.785-2.561,5.312-2.953,9.603
		c-0.024,0.26-0.045,0.523-0.063,0.789c0.092,0.212,0.269,0.378,0.487,0.455c0.333-0.471,0.688-0.847,1.058-1.117
		c0.226-0.165,0.458-0.289,0.695-0.372c0.068,0.396,0.412,0.697,0.827,0.697c0.374,0,0.69-0.244,0.799-0.582
		c0.201,0.099,0.399,0.23,0.591,0.389c0.319,0.265,0.626,0.61,0.918,1.026c0.292-0.034,0.538-0.219,0.659-0.474
		C469.998,116.538,469.975,116.258,469.95,115.982z"/>
	<path fill="#E6E7E8" d="M466.999,106.404v10.054c-0.392-0.024-0.712-0.317-0.777-0.696c-0.238,0.083-0.469,0.207-0.695,0.372
		c-0.37,0.27-0.725,0.646-1.058,1.117c-0.219-0.078-0.396-0.244-0.487-0.455c0.018-0.266,0.039-0.529,0.063-0.789
		C464.438,111.715,465.542,108.188,466.999,106.404L466.999,106.404z"/>
	<path d="M467,112.114c0.52,0,0.941-0.421,0.941-0.941c0-0.52-0.421-0.941-0.941-0.941c-0.52,0-0.941,0.421-0.941,0.941
		C466.059,111.692,466.481,112.114,467,112.114z"/>
</g>
</svg>
