<svg width="1198" height="400" viewBox="0 0 1198 400" fill="none" xmlns="http://www.w3.org/2000/svg">
<path d="M345.777 273.067L328.164 262.515C322.795 259.304 316.653 257.608 310.396 257.605H283.888C278.462 257.595 273.059 258.294 267.812 259.678L187.945 281.117C179.213 283.528 172.2 290.032 169.14 298.558L98.8906 260.553C93.1941 257.311 86.525 256.21 80.089 257.446C77.6611 257.875 75.3075 258.648 73.0957 259.742C68.1015 262.133 63.9583 265.996 61.2164 270.808C58.8189 274.999 57.5594 279.743 57.5594 284.568C57.4851 294.422 62.7055 303.552 71.2284 308.489L197.133 383.821C202.604 387.208 208.905 389.001 215.337 389.001H312.776C317.129 389.004 321.441 388.18 325.487 386.579L345.777 378.566V389.001H414.933V250.689H345.777V273.067ZM320.405 373.717C317.983 374.673 315.4 375.166 312.797 375.169H215.337C211.441 375.166 207.622 374.069 204.319 372.002L78.2419 296.583C73.9568 294.108 71.3331 289.522 71.3668 284.575C71.377 282.151 72.0152 279.767 73.2207 277.659C74.5984 275.272 76.6717 273.357 79.1604 272.176C80.2578 271.642 81.4194 271.264 82.6181 271.055C83.4927 270.892 84.3808 270.808 85.2689 270.808C87.6461 270.801 89.9828 271.423 92.046 272.604L168.222 313.767C168.31 314.189 168.31 314.604 168.421 315.026C171.696 327.098 182.647 335.483 195.158 335.496C199.007 335.145 202.82 334.463 206.554 333.463L278.405 314.236L274.839 300.875L203.222 320.017C200.068 320.743 195.999 321.574 195.158 321.645C188.911 321.655 183.434 317.481 181.789 311.457C181.567 310.62 181.435 309.762 181.388 308.898C181.388 308.898 181.334 307.223 181.388 306.635C181.914 300.851 185.967 295.995 191.562 294.438L271.395 273.081C275.47 271.99 279.671 271.436 283.888 271.436H310.396C314.151 271.436 317.835 272.456 321.053 274.384L345.777 289.188V363.689L320.405 373.717ZM359.608 264.521H401.102V375.169H359.608V264.521Z" fill="black"/>
<path d="M285.226 55.3247L248.129 18.2313C236.483 6.51735 220.636 -0.0470207 204.12 0.000253581H117.176C111.81 0.00700705 106.519 1.25978 101.714 3.6505L86.2148 11.4035C83.1082 12.9669 79.6572 13.7132 76.1825 13.5747L69.1556 13.3282V0.000253581H0V152.142H69.1556V131.396H80.9133L85.0971 134.161C96.8043 141.935 110.436 146.324 124.48 146.838V235.129H414.933V55.3247H285.226ZM55.3244 138.311H13.8311V13.8314H55.3244V138.311ZM92.7522 122.653L85.06 117.565H69.1556V27.1661L75.676 27.3991C81.4671 27.6051 87.2143 26.3591 92.3976 23.7759L107.883 16.0229C110.767 14.581 113.951 13.8314 117.176 13.8314H204.12C216.965 13.7942 229.294 18.8998 238.35 28.0069L265.668 55.3247H208.601L191.815 38.5423L182.04 48.318L230.891 97.1726C236.317 102.575 236.334 111.355 230.932 116.785C225.525 122.211 216.746 122.228 211.32 116.825L170.518 76.0241L165.676 80.1741C152.308 91.5267 132.767 91.8171 119.064 80.8629L115.056 77.6145L106.34 88.3593L110.392 91.6449C114.63 95.0317 119.388 97.7129 124.48 99.5836V133C113.161 132.497 102.19 128.921 92.7522 122.653V122.653ZM191.127 116.18L201.561 126.618C212.393 137.288 229.784 137.305 240.633 126.651C230.482 142.37 234.487 163.289 249.727 174.145C264.966 185.001 286.047 181.952 297.585 167.226C309.123 152.497 307.04 131.298 292.851 119.101C278.665 106.904 257.392 108.022 244.563 121.637C249.288 114.218 250.132 104.973 246.829 96.818H339.436C342.411 114.218 356.04 127.847 373.44 130.822V159.632C356.04 162.607 342.411 176.235 339.436 193.636H199.977C197.002 176.235 183.374 162.607 165.973 159.632V130.822C175.857 129.157 184.795 123.953 191.127 116.18V116.18ZM248.96 145.227C248.96 133.77 258.249 124.48 269.707 124.48C281.164 124.48 290.453 133.77 290.453 145.227C290.453 156.684 281.164 165.974 269.707 165.974C258.249 165.974 248.96 156.684 248.96 145.227ZM401.102 221.298H138.311V102.481C149.275 103.305 160.206 100.509 169.431 94.5286L181.229 106.327C176.039 113.378 167.814 117.548 159.058 117.565H152.142V172.889H159.058C174.334 172.889 186.72 185.275 186.72 200.551V207.467H352.693V200.551C352.693 185.275 365.079 172.889 380.356 172.889H387.271V117.565H380.356C365.079 117.565 352.693 105.179 352.693 89.9025V82.9869H236.263L222.432 69.1558H401.102V221.298Z" fill="black"/>
<path d="M499.179 172.757C497.953 172.757 496.95 172.366 496.17 171.586C495.39 170.805 495 169.858 495 168.742V59.8542C495 58.6276 495.39 57.624 496.17 56.8435C496.95 56.0629 497.953 55.6726 499.179 55.6726H512.383C513.943 55.6726 515.113 56.1187 515.893 57.0107C516.673 57.7913 517.175 58.4046 517.397 58.8506L549.656 119.065L582.25 58.8506C582.473 58.4046 582.974 57.7913 583.754 57.0107C584.534 56.1187 585.704 55.6726 587.264 55.6726H600.301C601.527 55.6726 602.53 56.0629 603.31 56.8435C604.09 57.624 604.48 58.6276 604.48 59.8542V168.742C604.48 169.858 604.09 170.805 603.31 171.586C602.53 172.366 601.527 172.757 600.301 172.757H586.261C585.035 172.757 584.033 172.366 583.253 171.586C582.584 170.805 582.25 169.858 582.25 168.742V96.3175L558.849 140.977C558.292 141.98 557.568 142.872 556.676 143.653C555.785 144.322 554.615 144.657 553.166 144.657H546.314C544.753 144.657 543.528 144.322 542.636 143.653C541.856 142.872 541.188 141.98 540.631 140.977L517.23 96.3175V168.742C517.23 169.858 516.84 170.805 516.06 171.586C515.28 172.366 514.333 172.757 513.219 172.757H499.179Z" fill="black"/>
<path d="M653.712 174.429C647.918 174.429 642.68 173.314 638 171.084C633.32 168.742 629.587 165.676 626.802 161.885C624.127 157.982 622.79 153.633 622.79 148.838C622.79 141.033 625.966 134.844 632.317 130.272C638.669 125.589 646.97 122.466 657.222 120.905L680.121 117.56V114.047C680.121 109.364 678.951 105.74 676.611 103.175C674.271 100.611 670.259 99.3283 664.576 99.3283C660.565 99.3283 657.278 100.165 654.715 101.837C652.263 103.398 650.425 105.517 649.199 108.193C648.308 109.643 647.026 110.368 645.355 110.368H632.15C630.925 110.368 629.977 110.033 629.309 109.364C628.752 108.695 628.473 107.803 628.473 106.688C628.585 104.904 629.309 102.729 630.646 100.165C632.095 97.5999 634.212 95.1467 636.997 92.805C639.895 90.3518 643.628 88.2889 648.196 86.6163C652.765 84.9437 658.281 84.1073 664.744 84.1073C671.764 84.1073 677.669 84.9994 682.461 86.7836C687.364 88.4562 691.264 90.7421 694.161 93.6413C697.058 96.5406 699.175 99.9416 700.513 103.844C701.85 107.747 702.518 111.873 702.518 116.222V168.742C702.518 169.858 702.128 170.805 701.348 171.586C700.568 172.366 699.621 172.757 698.507 172.757H684.968C683.742 172.757 682.739 172.366 681.959 171.586C681.291 170.805 680.957 169.858 680.957 168.742V162.219C679.508 164.226 677.558 166.178 675.107 168.073C672.655 169.969 669.646 171.53 666.081 172.757C662.626 173.872 658.503 174.429 653.712 174.429ZM659.395 158.539C663.295 158.539 666.805 157.703 669.925 156.03C673.157 154.358 675.664 151.793 677.447 148.336C679.341 144.768 680.288 140.308 680.288 134.955V131.443L663.574 134.119C656.999 135.123 652.096 136.739 648.865 138.97C645.633 141.2 644.018 143.932 644.018 147.165C644.018 149.619 644.742 151.737 646.19 153.521C647.75 155.194 649.701 156.476 652.041 157.369C654.381 158.149 656.832 158.539 659.395 158.539Z" fill="black"/>
<path d="M727.973 172.757C726.858 172.757 725.911 172.366 725.131 171.586C724.351 170.805 723.961 169.858 723.961 168.742V89.7943C723.961 88.6792 724.351 87.7314 725.131 86.9508C725.911 86.1703 726.858 85.78 727.973 85.78H741.679C742.793 85.78 743.74 86.1703 744.52 86.9508C745.3 87.7314 745.69 88.6792 745.69 89.7943V96.6521C748.587 93.0838 752.264 90.1288 756.722 87.7871C761.29 85.3339 766.917 84.1073 773.603 84.1073C780.4 84.1073 786.306 85.6685 791.321 88.7907C796.335 91.8014 800.179 96.0945 802.854 101.67C805.639 107.245 807.032 113.936 807.032 121.742V168.742C807.032 169.858 806.642 170.805 805.862 171.586C805.082 172.366 804.135 172.757 803.021 172.757H788.312C787.198 172.757 786.251 172.366 785.471 171.586C784.691 170.805 784.301 169.858 784.301 168.742V122.745C784.301 116.278 782.685 111.204 779.453 107.524C776.333 103.844 771.765 102.004 765.747 102.004C759.953 102.004 755.329 103.844 751.874 107.524C748.42 111.204 746.693 116.278 746.693 122.745V168.742C746.693 169.858 746.303 170.805 745.523 171.586C744.743 172.366 743.796 172.757 742.681 172.757H727.973Z" fill="black"/>
<path d="M860.523 174.429C853.725 174.429 847.82 172.924 842.805 169.913C837.902 166.791 834.114 162.442 831.439 156.867C828.765 151.18 827.428 144.489 827.428 136.795V89.7943C827.428 88.6792 827.818 87.7314 828.598 86.9508C829.378 86.1703 830.325 85.78 831.439 85.78H846.148C847.374 85.78 848.321 86.1703 848.99 86.9508C849.77 87.7314 850.16 88.6792 850.16 89.7943V135.792C850.16 149.619 856.232 156.532 868.378 156.532C874.173 156.532 878.741 154.692 882.084 151.013C885.539 147.333 887.266 142.259 887.266 135.792V89.7943C887.266 88.6792 887.656 87.7314 888.436 86.9508C889.216 86.1703 890.163 85.78 891.277 85.78H905.986C907.1 85.78 908.047 86.1703 908.827 86.9508C909.607 87.7314 909.997 88.6792 909.997 89.7943V168.742C909.997 169.858 909.607 170.805 908.827 171.586C908.047 172.366 907.1 172.757 905.986 172.757H892.447C891.221 172.757 890.219 172.366 889.439 171.586C888.77 170.805 888.436 169.858 888.436 168.742V161.885C885.427 165.787 881.694 168.854 877.237 171.084C872.78 173.314 867.208 174.429 860.523 174.429Z" fill="black"/>
<path d="M957.315 174.429C951.521 174.429 946.284 173.314 941.604 171.084C936.923 168.742 933.191 165.676 930.405 161.885C927.73 157.982 926.393 153.633 926.393 148.838C926.393 141.033 929.569 134.844 935.921 130.272C942.272 125.589 950.574 122.466 960.825 120.905L983.724 117.56V114.047C983.724 109.364 982.554 105.74 980.214 103.175C977.874 100.611 973.862 99.3283 968.18 99.3283C964.168 99.3283 960.881 100.165 958.318 101.837C955.867 103.398 954.028 105.517 952.802 108.193C951.911 109.643 950.629 110.368 948.958 110.368H935.753C934.528 110.368 933.581 110.033 932.912 109.364C932.355 108.695 932.076 107.803 932.076 106.688C932.188 104.904 932.912 102.729 934.249 100.165C935.698 97.5999 937.815 95.1467 940.601 92.805C943.498 90.3518 947.231 88.2889 951.799 86.6163C956.368 84.9437 961.884 84.1073 968.347 84.1073C975.367 84.1073 981.273 84.9994 986.064 86.7836C990.967 88.4562 994.867 90.7421 997.764 93.6413C1000.66 96.5406 1002.78 99.9416 1004.12 103.844C1005.45 107.747 1006.12 111.873 1006.12 116.222V168.742C1006.12 169.858 1005.73 170.805 1004.95 171.586C1004.17 172.366 1003.22 172.757 1002.11 172.757H988.571C987.346 172.757 986.343 172.366 985.563 171.586C984.894 170.805 984.56 169.858 984.56 168.742V162.219C983.111 164.226 981.161 166.178 978.71 168.073C976.258 169.969 973.25 171.53 969.684 172.757C966.23 173.872 962.107 174.429 957.315 174.429ZM962.998 158.539C966.898 158.539 970.408 157.703 973.528 156.03C976.76 154.358 979.267 151.793 981.05 148.336C982.944 144.768 983.891 140.308 983.891 134.955V131.443L967.177 134.119C960.602 135.123 955.699 136.739 952.468 138.97C949.236 141.2 947.621 143.932 947.621 147.165C947.621 149.619 948.345 151.737 949.794 153.521C951.354 155.194 953.304 156.476 955.644 157.369C957.984 158.149 960.435 158.539 962.998 158.539Z" fill="black"/>
<path d="M1031.74 172.757C1030.63 172.757 1029.68 172.366 1028.9 171.586C1028.12 170.805 1027.73 169.858 1027.73 168.742V58.0143C1027.73 56.8992 1028.12 55.9514 1028.9 55.1708C1029.68 54.3903 1030.63 54 1031.74 54H1045.62C1046.73 54 1047.68 54.3903 1048.46 55.1708C1049.24 55.9514 1049.63 56.8992 1049.63 58.0143V168.742C1049.63 169.858 1049.24 170.805 1048.46 171.586C1047.68 172.366 1046.73 172.757 1045.62 172.757H1031.74Z" fill="black"/>
<path d="M499.011 367.757C497.897 367.757 496.95 367.366 496.17 366.586C495.39 365.805 495 364.858 495 363.742V254.854C495 253.628 495.39 252.624 496.17 251.843C496.95 251.063 497.897 250.673 499.011 250.673H543.806C552.498 250.673 560.075 252.066 566.538 254.854C573.001 257.53 578.015 261.656 581.581 267.232C585.147 272.696 586.93 279.553 586.93 287.805C586.93 296.168 585.147 303.082 581.581 308.546C578.015 313.898 573.001 317.912 566.538 320.589C560.075 323.265 552.498 324.603 543.806 324.603H518.902V363.742C518.902 364.858 518.512 365.805 517.732 366.586C517.063 367.366 516.116 367.757 514.89 367.757H499.011ZM518.567 306.037H542.971C549.434 306.037 554.392 304.531 557.847 301.521C561.301 298.398 563.028 293.826 563.028 287.805C563.028 282.23 561.412 277.769 558.181 274.424C554.949 270.967 549.879 269.239 542.971 269.239H518.567V306.037Z" fill="black"/>
<path d="M626.616 369.429C620.822 369.429 615.585 368.314 610.905 366.084C606.225 363.742 602.492 360.676 599.706 356.885C597.032 352.982 595.694 348.633 595.694 343.838C595.694 336.033 598.87 329.844 605.222 325.272C611.573 320.589 619.875 317.466 630.126 315.905L653.025 312.56V309.047C653.025 304.364 651.855 300.74 649.515 298.175C647.175 295.611 643.164 294.328 637.481 294.328C633.469 294.328 630.182 295.165 627.619 296.837C625.168 298.398 623.329 300.517 622.103 303.193C621.212 304.643 619.93 305.368 618.259 305.368H605.055C603.829 305.368 602.882 305.033 602.213 304.364C601.656 303.695 601.377 302.803 601.377 301.688C601.489 299.904 602.213 297.729 603.55 295.165C604.999 292.6 607.116 290.147 609.902 287.805C612.799 285.352 616.532 283.289 621.1 281.616C625.669 279.944 631.185 279.107 637.648 279.107C644.668 279.107 650.574 279.999 655.365 281.784C660.268 283.456 664.168 285.742 667.065 288.641C669.962 291.541 672.08 294.942 673.417 298.844C674.754 302.747 675.423 306.873 675.423 311.222V363.742C675.423 364.858 675.033 365.805 674.253 366.586C673.473 367.366 672.525 367.757 671.411 367.757H657.872C656.647 367.757 655.644 367.366 654.864 366.586C654.195 365.805 653.861 364.858 653.861 363.742V357.219C652.412 359.226 650.462 361.178 648.011 363.073C645.559 364.969 642.551 366.53 638.985 367.757C635.531 368.872 631.408 369.429 626.616 369.429ZM632.299 353.539C636.199 353.539 639.709 352.703 642.829 351.03C646.061 349.358 648.568 346.793 650.351 343.336C652.245 339.768 653.192 335.308 653.192 329.955V326.443L636.478 329.119C629.903 330.123 625 331.739 621.769 333.97C618.538 336.2 616.922 338.932 616.922 342.165C616.922 344.619 617.646 346.737 619.095 348.522C620.655 350.194 622.605 351.476 624.945 352.369C627.285 353.149 629.736 353.539 632.299 353.539Z" fill="black"/>
<path d="M710.292 399.537C709.4 399.537 708.62 399.202 707.952 398.533C707.283 397.864 706.949 397.084 706.949 396.191C706.949 395.745 706.949 395.299 706.949 394.853C707.06 394.519 707.283 394.073 707.618 393.515L720.655 362.572L688.563 286.801C688.117 285.686 687.894 284.906 687.894 284.46C688.006 283.456 688.396 282.62 689.064 281.951C689.733 281.17 690.569 280.78 691.572 280.78H705.11C706.448 280.78 707.45 281.114 708.119 281.784C708.788 282.453 709.289 283.177 709.623 283.958L731.854 338.653L754.752 283.958C755.087 283.066 755.588 282.341 756.257 281.784C756.925 281.114 757.928 280.78 759.265 280.78H772.637C773.528 280.78 774.308 281.114 774.977 281.784C775.757 282.453 776.147 283.233 776.147 284.125C776.147 284.794 775.924 285.686 775.478 286.801L728.176 396.359C727.731 397.251 727.173 397.976 726.505 398.533C725.836 399.202 724.833 399.537 723.496 399.537H710.292Z" fill="black"/>
<path d="M794.569 367.757C793.455 367.757 792.508 367.366 791.728 366.586C790.948 365.805 790.558 364.858 790.558 363.742V284.794C790.558 283.679 790.948 282.731 791.728 281.951C792.508 281.17 793.455 280.78 794.569 280.78H807.607C808.721 280.78 809.668 281.17 810.448 281.951C811.228 282.731 811.618 283.679 811.618 284.794V290.481C813.958 287.359 817.078 284.739 820.978 282.62C824.99 280.39 829.726 279.219 835.186 279.107C847.889 278.884 856.747 283.846 861.762 293.994C864.325 289.533 868.002 285.965 872.793 283.289C877.696 280.501 883.101 279.107 889.006 279.107C894.801 279.107 900.038 280.445 904.718 283.122C909.51 285.798 913.242 289.868 915.917 295.332C918.702 300.684 920.095 307.486 920.095 315.738V363.742C920.095 364.858 919.705 365.805 918.925 366.586C918.145 367.366 917.198 367.757 916.084 367.757H902.378C901.264 367.757 900.317 367.366 899.537 366.586C898.757 365.805 898.367 364.858 898.367 363.742V317.076C898.367 312.058 897.642 308.1 896.194 305.2C894.745 302.19 892.795 300.071 890.344 298.844C887.892 297.618 885.162 297.004 882.153 297.004C879.702 297.004 877.251 297.618 874.799 298.844C872.348 300.071 870.342 302.19 868.782 305.2C867.222 308.1 866.442 312.058 866.442 317.076V363.742C866.442 364.858 866.052 365.805 865.272 366.586C864.492 367.366 863.545 367.757 862.43 367.757H848.724C847.61 367.757 846.663 367.366 845.883 366.586C845.103 365.805 844.713 364.858 844.713 363.742V317.076C844.713 312.058 843.933 308.1 842.373 305.2C840.813 302.19 838.807 300.071 836.356 298.844C833.904 297.618 831.286 297.004 828.5 297.004C825.937 297.004 823.43 297.674 820.978 299.012C818.527 300.238 816.521 302.301 814.961 305.2C813.401 308.1 812.621 312.058 812.621 317.076V363.742C812.621 364.858 812.231 365.805 811.451 366.586C810.671 367.366 809.724 367.757 808.61 367.757H794.569Z" fill="black"/>
<path d="M978.821 369.429C966.452 369.429 956.646 365.861 949.403 358.725C942.16 351.588 938.26 341.441 937.703 328.283C937.592 327.168 937.536 325.774 937.536 324.101C937.536 322.317 937.592 320.923 937.703 319.92C938.149 311.445 940.043 304.197 943.386 298.175C946.84 292.042 951.576 287.359 957.593 284.125C963.611 280.78 970.686 279.107 978.821 279.107C987.847 279.107 995.424 281.003 1001.55 284.794C1007.68 288.474 1012.31 293.659 1015.43 300.35C1018.55 306.929 1020.11 314.567 1020.11 323.265V326.777C1020.11 327.892 1019.72 328.84 1018.94 329.621C1018.16 330.401 1017.15 330.792 1015.93 330.792H960.435C960.435 330.792 960.435 330.959 960.435 331.293C960.435 331.628 960.435 331.907 960.435 332.13C960.546 336.033 961.27 339.657 962.608 343.002C964.056 346.236 966.118 348.856 968.792 350.863C971.578 352.87 974.865 353.874 978.654 353.874C981.774 353.874 984.392 353.428 986.509 352.536C988.627 351.532 990.354 350.417 991.691 349.191C993.028 347.964 993.975 346.96 994.532 346.18C995.535 344.842 996.315 344.061 996.872 343.838C997.541 343.504 998.488 343.336 999.714 343.336H1014.09C1015.2 343.336 1016.09 343.671 1016.76 344.34C1017.54 345.009 1017.88 345.845 1017.77 346.849C1017.65 348.633 1016.71 350.807 1014.92 353.372C1013.25 355.937 1010.8 358.446 1007.57 360.899C1004.34 363.352 1000.27 365.415 995.368 367.088C990.577 368.649 985.061 369.429 978.821 369.429ZM960.435 316.742H997.374V316.24C997.374 311.891 996.65 308.1 995.201 304.866C993.752 301.521 991.635 298.956 988.849 297.172C986.064 295.276 982.721 294.328 978.821 294.328C974.921 294.328 971.578 295.276 968.792 297.172C966.006 298.956 963.889 301.521 962.44 304.866C961.103 308.1 960.435 311.891 960.435 316.24V316.742Z" fill="black"/>
<path d="M1041.86 367.757C1040.74 367.757 1039.8 367.366 1039.02 366.586C1038.24 365.805 1037.85 364.858 1037.85 363.742V284.794C1037.85 283.679 1038.24 282.731 1039.02 281.951C1039.8 281.17 1040.74 280.78 1041.86 280.78H1055.57C1056.68 280.78 1057.63 281.17 1058.41 281.951C1059.19 282.731 1059.58 283.679 1059.58 284.794V291.652C1062.47 288.084 1066.15 285.129 1070.61 282.787C1075.18 280.334 1080.8 279.107 1087.49 279.107C1094.29 279.107 1100.19 280.668 1105.21 283.791C1110.22 286.801 1114.07 291.095 1116.74 296.67C1119.53 302.245 1120.92 308.936 1120.92 316.742V363.742C1120.92 364.858 1120.53 365.805 1119.75 366.586C1118.97 367.366 1118.02 367.757 1116.91 367.757H1102.2C1101.08 367.757 1100.14 367.366 1099.36 366.586C1098.58 365.805 1098.19 364.858 1098.19 363.742V317.745C1098.19 311.278 1096.57 306.204 1093.34 302.524C1090.22 298.844 1085.65 297.004 1079.63 297.004C1073.84 297.004 1069.22 298.844 1065.76 302.524C1062.31 306.204 1060.58 311.278 1060.58 317.745V363.742C1060.58 364.858 1060.19 365.805 1059.41 366.586C1058.63 367.366 1057.68 367.757 1056.57 367.757H1041.86Z" fill="black"/>
<path d="M1180.45 367.757C1173.76 367.757 1168.14 366.586 1163.57 364.244C1159 361.903 1155.6 358.446 1153.37 353.874C1151.14 349.191 1150.03 343.392 1150.03 336.479V298.51H1136.82C1135.71 298.51 1134.76 298.12 1133.98 297.339C1133.2 296.558 1132.81 295.555 1132.81 294.328V284.794C1132.81 283.679 1133.2 282.731 1133.98 281.951C1134.76 281.17 1135.71 280.78 1136.82 280.78H1150.03V253.014C1150.03 251.899 1150.36 250.951 1151.03 250.171C1151.81 249.39 1152.82 249 1154.04 249H1167.58C1168.69 249 1169.64 249.39 1170.42 250.171C1171.2 250.951 1171.59 251.899 1171.59 253.014V280.78H1192.48C1193.6 280.78 1194.55 281.17 1195.33 281.951C1196.11 282.731 1196.5 283.679 1196.5 284.794V294.328C1196.5 295.555 1196.11 296.558 1195.33 297.339C1194.55 298.12 1193.6 298.51 1192.48 298.51H1171.59V334.806C1171.59 339.378 1172.37 342.946 1173.93 345.511C1175.6 348.075 1178.44 349.358 1182.46 349.358H1193.99C1195.1 349.358 1196.05 349.748 1196.83 350.529C1197.61 351.309 1198 352.257 1198 353.372V363.742C1198 364.858 1197.61 365.805 1196.83 366.586C1196.05 367.366 1195.1 367.757 1193.99 367.757H1180.45Z" fill="black"/>
</svg>
