<svg width="302" height="302" viewBox="0 0 302 302" fill="none" xmlns="http://www.w3.org/2000/svg">
<mask id="mask0" mask-type="alpha" maskUnits="userSpaceOnUse" x="0" y="0" width="302" height="302">
<circle cx="151" cy="151" r="151" fill="#C4C4C4"/>
</mask>
<g mask="url(#mask0)">
<circle cx="151" cy="151" r="151" fill="#2B3377"/>
<path opacity="0.1" d="M274.676 165.433H274.035H263.784C261.382 165.433 259.46 163.94 259.46 162.149C259.46 160.358 261.382 158.866 263.784 158.866H269.55C271.953 158.866 273.875 157.373 273.875 155.582C273.875 153.791 271.953 152 269.71 152H269.07H257.057H240.4H205.324C202.922 152 201 153.493 201 155.284C201 157.075 202.922 158.567 205.324 158.567H233.513H234.154C236.556 158.567 238.478 160.06 238.478 161.851C238.478 163.642 236.556 165.433 234.154 165.433H226.947H219.739C217.337 165.433 215.415 166.925 215.415 168.716C215.415 170.507 217.337 172 219.739 172H220.38H240.561H257.057H274.676C277.078 172 279 170.507 279 168.716C279 166.925 277.078 165.433 274.676 165.433Z" fill="white"/>
<path opacity="0.1" d="M141.047 106.388C141.047 108.358 139.15 110 136.778 110H135.355H128.24H93.614H72.9014H72.269C69.8973 110 68 108.358 68 106.388C68 104.418 69.8973 102.776 72.269 102.776H79.384H86.499C88.8706 102.776 90.768 101.134 90.768 99.1642C90.768 97.194 88.8706 95.5522 86.499 95.5522H85.8665H79.384C77.0123 95.5522 75.115 93.9104 75.115 91.9403C75.115 89.9701 77.0123 88 79.384 88H93.614H128.24H140.257H140.731C143.103 88 145 89.6418 145 91.6119C145 93.5821 143.103 95.3881 140.731 95.3881H135.039C132.667 95.3881 130.77 97.0299 130.77 99C130.77 100.97 132.825 102.776 135.039 102.776H136.146H136.778C139.15 102.776 141.047 104.418 141.047 106.388Z" fill="white"/>
<path d="M91.3418 241H168.712V144.394H91.3418L91.3418 241Z" fill="#FFCC42"/>
<path d="M167.589 241H211.944V144.394H167.589V241Z" fill="#5C6AB0"/>
<g clip-path="url(#clip0)">
<path fill-rule="evenodd" clip-rule="evenodd" d="M154.015 89C172.238 89 187.031 103.792 187.031 122.015C187.031 140.238 172.238 155.031 154.015 155.031C135.792 155.031 121 140.238 121 122.015C121 103.792 135.792 89 154.015 89ZM147.886 126.509L169.132 105.263L175.261 111.473L147.886 138.768L132.85 123.732L138.979 117.522L147.885 126.512L147.886 126.509Z" fill="white"/>
</g>
<path d="M168 144L144.439 186H58L91.1012 144" fill="#EEA320"/>
<path d="M168 144L191.81 186H240L211.628 144" fill="#B3B9DD"/>
</g>
<defs>
<clipPath id="clip0">
<rect width="73" height="56" fill="white" transform="translate(116 88)"/>
</clipPath>
</defs>
</svg>
