<?xml version="1.0" encoding="utf-8"?>
<!-- Generator: Adobe Illustrator 17.0.0, SVG Export Plug-In . SVG Version: 6.00 Build 0)  -->
<!DOCTYPE svg PUBLIC "-//W3C//DTD SVG 1.1//EN" "http://www.w3.org/Graphics/SVG/1.1/DTD/svg11.dtd">
<svg version="1.1" id="Layer_1" xmlns="http://www.w3.org/2000/svg" xmlns:xlink="http://www.w3.org/1999/xlink" x="0px" y="0px"
	 width="52px" height="52px" viewBox="0 0 52 52" enable-background="new 0 0 52 52" xml:space="preserve">
<path fill="#635BFF" d="M22.61,16.093c0-2.178,1.711-3.017,4.453-3.017c3.994,0,9.062,1.298,13.056,3.584V3.548
	C35.767,1.703,31.424,1,27.071,1C16.427,1,9.333,6.898,9.333,16.758c0,15.418,19.946,12.918,19.946,19.567
	c0,2.578-2.107,3.407-5.033,3.407c-4.343,0-9.956-1.904-14.361-4.443v12.546c4.533,2.077,9.416,3.153,14.353,3.165
	c10.912,0,18.429-4.98,18.429-14.998C42.666,19.385,22.61,22.362,22.61,16.093L22.61,16.093z"/>
</svg>
