<?xml version="1.0" encoding="utf-8"?>
<!-- Generator: Adobe Illustrator 17.0.0, SVG Export Plug-In . SVG Version: 6.00 Build 0)  -->
<!DOCTYPE svg PUBLIC "-//W3C//DTD SVG 1.1//EN" "http://www.w3.org/Graphics/SVG/1.1/DTD/svg11.dtd">
<svg version="1.1" id="Layer_1" xmlns="http://www.w3.org/2000/svg" xmlns:xlink="http://www.w3.org/1999/xlink" x="0px" y="0px"
	 width="52px" height="52px" viewBox="0 0 52 52" enable-background="new 0 0 52 52" xml:space="preserve">
<g>
	<path fill="#3E4348" d="M9.354,1h33.29c2.216-0.001,4.342,0.879,5.909,2.446s2.448,3.692,2.448,5.909v33.288
		c0,4.616-3.742,8.357-8.357,8.357H9.354c-4.615-0.001-8.355-3.743-8.355-8.357V9.355C0.999,4.741,4.739,1,9.354,1z M39.279,41.91
		c1.456,0,2.637-1.181,2.637-2.637l-0.007-26.544c0-1.456-1.181-2.637-2.637-2.637H12.73c-0.7,0-1.371,0.278-1.865,0.773
		c-0.495,0.495-0.772,1.167-0.772,1.867v26.542c0,1.456,1.181,2.637,2.637,2.637L39.279,41.91L39.279,41.91z"/>
	<path fill="#3E4348" d="M20.682,32.813c-0.831-0.007-1.502-0.682-1.502-1.514V20.703c-0.001-0.403,0.157-0.789,0.442-1.075
		c0.284-0.285,0.67-0.446,1.073-0.446h10.611c0.402,0.001,0.788,0.161,1.072,0.447c0.284,0.285,0.443,0.672,0.441,1.074v10.594
		c0.001,0.403-0.158,0.789-0.441,1.074c-0.284,0.285-0.67,0.446-1.072,0.447L20.682,32.813z"/>
</g>
</svg>
