<?xml version="1.0" encoding="utf-8"?>
<!-- Generator: Adobe Illustrator 17.0.0, SVG Export Plug-In . SVG Version: 6.00 Build 0)  -->
<!DOCTYPE svg PUBLIC "-//W3C//DTD SVG 1.1//EN" "http://www.w3.org/Graphics/SVG/1.1/DTD/svg11.dtd">
<svg version="1.1" id="Layer_1" xmlns="http://www.w3.org/2000/svg" xmlns:xlink="http://www.w3.org/1999/xlink" x="0px" y="0px"
	 width="52px" height="52px" viewBox="0 0 52 52" enable-background="new 0 0 52 52" xml:space="preserve">
<g>
	<path fill="#CBCBCA" d="M38.331,15.306c2.213,0.008,4.427,0.018,6.64,0.021c2.576,0.004,2.575,0.001,2.576,2.627
		c0,1.703,0.003,3.405,0.004,5.108c-3.575,0.003-7.15,0.006-10.725,0.009c-3.607,0.005-7.214,0.009-10.822,0.013
		c-3.59-0.002-7.181-0.005-10.771-0.008c-3.592-0.007-7.185-0.014-10.777-0.021c0.001-2.145,0.054-4.291-0.018-6.433
		c-0.033-0.997,0.186-1.359,1.274-1.325c2.652,0.082,5.309,0.015,7.965,0.007c1.313,0,2.626,0,3.939,0c5.592,0,11.183,0,16.775,0
		C35.705,15.306,37.018,15.306,38.331,15.306z"/>
	<path fill="#CCCCCC" d="M47.523,43.38c0.008,0.82-0.02,1.643,0.032,2.46c0.18,2.829-2.024,5.119-5.042,5.13
		c-11.006,0.04-22.012,0.041-33.017,0c-3.017-0.011-5.221-2.301-5.041-5.131c0.052-0.817,0.023-1.64,0.032-2.46
		c3.581-0.016,7.162-0.031,10.743-0.047c3.592,0.003,7.184,0.007,10.775,0.01c3.613-0.004,7.225-0.008,10.838-0.013
		C40.402,43.347,43.962,43.363,47.523,43.38z"/>
	<path fill="#E12D3A" d="M15.228,43.332c-3.581,0.016-7.162,0.031-10.743,0.047c-0.016-3.744-0.04-7.488-0.047-11.232
		c-0.005-3.03,0.011-6.06,0.018-9.09c3.592,0.007,7.185,0.014,10.777,0.021C15.232,29.829,15.23,36.581,15.228,43.332z"/>
	<path fill="#8BB613" d="M47.523,43.38c-3.56-0.017-7.121-0.034-10.681-0.05c-0.005-6.753-0.01-13.505-0.015-20.258
		c3.575-0.003,7.15-0.006,10.725-0.009C47.542,29.835,47.532,36.608,47.523,43.38z"/>
	<path fill="#B3B3B3" d="M17.617,15.306c-1.313,0-2.626,0-3.939,0c0.001-2.148,0.002-4.296,0.005-6.444
		C13.688,4.326,16.48,1.351,21.06,1c0.001,1.336,0.003,2.671,0.004,4.007c-2.176,0.302-3.416,1.658-3.445,3.849
		C17.59,11.006,17.615,13.156,17.617,15.306z"/>
	<path fill="#B3B3B3" d="M38.331,15.306c-1.313,0-2.626,0-3.939,0c0.001-2.15,0.027-4.301-0.002-6.45
		c-0.03-2.191-1.269-3.547-3.445-3.849C30.946,3.671,30.948,2.336,30.949,1c4.582,0.35,7.368,3.318,7.377,7.862
		C38.33,11.01,38.329,13.158,38.331,15.306z"/>
	<path fill="#CCCCCC" d="M30.948,1c-0.001,1.336-0.003,2.671-0.004,4.007c-3.294,0-6.587,0-9.881,0
		C21.062,3.671,21.061,2.336,21.06,1C24.356,1,27.652,1,30.948,1z"/>
	<path fill="#1777CF" d="M15.228,43.332c0.002-6.751,0.004-13.503,0.006-20.254c3.591,0.003,7.181,0.005,10.771,0.007
		c-0.001,6.752-0.001,13.505-0.002,20.257C22.412,43.339,18.82,43.335,15.228,43.332z"/>
	<path fill="#F2AF19" d="M26.004,43.342c0.001-6.752,0.001-13.505,0.002-20.257c3.608-0.005,7.215-0.009,10.822-0.014
		c0.005,6.753,0.01,13.505,0.015,20.258C33.229,43.334,29.616,43.338,26.004,43.342z"/>
</g>
</svg>
