<svg width="214" height="66" viewBox="0 0 214 66" fill="none" xmlns="http://www.w3.org/2000/svg">
<path fill-rule="evenodd" clip-rule="evenodd" d="M132.761 50.934C120.326 60.1913 102.3 65.1304 86.7812 65.1304C65.0207 65.1304 45.4307 57.002 30.61 43.483C29.4456 42.4199 30.4889 40.9711 31.8862 41.799C47.8806 51.1974 67.6569 56.8515 88.0854 56.8515C101.863 56.8515 117.019 53.9727 130.954 47.9987C133.06 47.0956 134.82 49.3911 132.761 50.934" fill="#FF9900"/>
<path fill-rule="evenodd" clip-rule="evenodd" d="M137.931 44.96C136.348 42.9091 127.424 43.991 123.418 44.4708C122.198 44.6213 122.012 43.5488 123.111 42.7774C130.218 37.7254 141.881 39.1836 143.241 40.877C144.601 42.5798 142.887 54.3867 136.208 60.0219C135.183 60.8875 134.205 60.4265 134.662 59.2787C136.162 55.4968 139.524 47.0203 137.931 44.96" fill="#FF9900"/>
<path fill-rule="evenodd" clip-rule="evenodd" d="M123.698 7.11231V2.20143C123.698 1.45821 124.256 0.959595 124.927 0.959595H146.697C147.396 0.959595 147.955 1.46762 147.955 2.20143V6.40673C147.945 7.11231 147.358 8.03428 146.315 9.49249L135.034 25.7586C139.226 25.6551 143.651 26.2855 147.452 28.4493C148.309 28.9385 148.541 29.6535 148.607 30.3591V35.5992C148.607 36.3142 147.824 37.1515 147.004 36.7187C140.307 33.172 131.411 32.7863 124.005 36.7564C123.25 37.1703 122.459 36.3424 122.459 35.6274V30.6507C122.459 29.851 122.468 28.4869 123.26 27.2733L136.329 8.34474H124.955C124.256 8.34474 123.698 7.84613 123.698 7.11231" fill="black"/>
<path fill-rule="evenodd" clip-rule="evenodd" d="M44.2848 37.7536H37.6617C37.0282 37.7066 36.5252 37.2268 36.4786 36.6152V2.2861C36.4786 1.59933 37.0469 1.05367 37.7548 1.05367H43.9309C44.5736 1.08188 45.086 1.58051 45.1325 2.20143V6.68896H45.2536C46.8652 2.35195 49.8926 0.329269 53.9727 0.329269C58.118 0.329269 60.7077 2.35195 62.5707 6.68896C64.173 2.35195 67.8153 0.329269 71.7184 0.329269C74.4943 0.329269 77.5311 1.48643 79.3848 4.08299C81.4808 6.97119 81.0523 11.1671 81.0523 14.8455L81.043 36.5118C81.043 37.1985 80.4747 37.7536 79.7668 37.7536H73.1529C72.4915 37.7066 71.9606 37.1703 71.9606 36.5118V18.317C71.9606 16.8682 72.091 13.2556 71.7743 11.8821C71.2805 9.57717 69.7994 8.92802 67.8805 8.92802C66.2782 8.92802 64.6015 10.0099 63.9215 11.741C63.2414 13.472 63.3067 16.3696 63.3067 18.317V36.5118C63.3067 37.1985 62.7384 37.7536 62.0305 37.7536H55.4166C54.7459 37.7066 54.2243 37.1703 54.2243 36.5118L54.215 18.317C54.215 14.488 54.8391 8.85276 50.1349 8.85276C45.3747 8.85276 45.561 14.3469 45.561 18.317V36.5118C45.561 37.1985 44.9928 37.7536 44.2849 37.7536" fill="black"/>
<path fill-rule="evenodd" clip-rule="evenodd" d="M166.697 0.329269C176.525 0.329269 181.844 8.85276 181.844 19.6906C181.844 30.1615 175.966 38.4686 166.697 38.4686C157.046 38.4686 151.792 29.9451 151.792 19.3237C151.792 8.63638 157.112 0.329269 166.697 0.329269V0.329269ZM166.753 7.3381C161.872 7.3381 161.564 14.0553 161.564 18.2418C161.564 22.4377 161.499 31.3939 166.697 31.3939C171.83 31.3939 172.072 24.1687 172.072 19.7658C172.072 16.8682 171.951 13.4062 171.084 10.6591C170.339 8.26948 168.858 7.3381 166.753 7.3381" fill="black"/>
<path fill-rule="evenodd" clip-rule="evenodd" d="M194.587 37.7536H187.992C187.33 37.7066 186.799 37.1703 186.799 36.5118L186.79 2.1732C186.846 1.54288 187.396 1.05367 188.066 1.05367H194.205C194.783 1.08188 195.258 1.47703 195.388 2.01327V7.26283H195.509C197.363 2.56833 199.962 0.329269 204.536 0.329269C207.507 0.329269 210.404 1.41117 212.267 4.37463C214 7.12172 214 11.741 214 15.0619V36.6717C213.925 37.2738 213.376 37.7536 212.724 37.7536H206.082C205.477 37.7066 204.973 37.255 204.908 36.6717V18.0254C204.908 14.2717 205.337 8.77749 200.763 8.77749C199.151 8.77749 197.67 9.86881 196.934 11.5246C196.003 13.6225 195.882 15.7111 195.882 18.0254V36.5118C195.872 37.1985 195.295 37.7536 194.587 37.7536" fill="black"/>
<path fill-rule="evenodd" clip-rule="evenodd" d="M106.343 21.3558C106.343 23.9617 106.408 26.1349 105.104 28.4493C104.052 30.3308 102.375 31.488 100.521 31.488C97.9782 31.488 96.4877 29.5312 96.4877 26.643C96.4877 20.9418 101.546 19.907 106.343 19.907V21.3558V21.3558ZM113.022 37.6595C112.585 38.0547 111.951 38.0829 111.457 37.8195C109.259 35.9755 108.858 35.1194 107.657 33.3602C104.024 37.1045 101.443 38.224 96.7392 38.224C91.1594 38.224 86.8278 34.7525 86.8278 27.8001C86.8278 22.3718 89.7341 18.6745 93.8887 16.8682C97.4844 15.2689 102.505 14.9867 106.343 14.5445V13.679C106.343 12.0891 106.464 10.2075 105.533 8.83395C104.732 7.60152 103.185 7.0935 101.816 7.0935C99.2916 7.0935 97.0466 8.40119 96.497 11.1106C96.3852 11.7127 95.9474 12.3054 95.3419 12.3337L88.9237 11.6375C88.3834 11.5152 87.7779 11.073 87.9363 10.2357C89.4081 2.37078 96.4504 0 102.748 0C105.971 0 110.181 0.865522 112.724 3.33037C115.947 6.3691 115.64 10.4239 115.64 14.8361V25.26C115.64 28.3928 116.925 29.7664 118.136 31.4598C118.556 32.0619 118.649 32.7863 118.108 33.2378C116.758 34.3762 114.354 36.493 113.032 37.6783L113.022 37.6595" fill="black"/>
<path fill-rule="evenodd" clip-rule="evenodd" d="M19.5155 21.356C19.5155 23.9619 19.5807 26.1352 18.2766 28.4495C17.224 30.3311 15.5565 31.4882 13.6935 31.4882C11.1504 31.4882 9.66926 29.5314 9.66926 26.6432C9.66926 20.942 14.7275 19.9072 19.5155 19.9072V21.356V21.356ZM26.1946 37.6597C25.7568 38.0549 25.1233 38.0831 24.6296 37.8197C22.4312 35.9757 22.04 35.1196 20.829 33.3604C17.196 37.1047 14.625 38.2242 9.91146 38.2242C4.34092 38.2242 0 34.7527 0 27.8003C0 22.372 2.91568 18.6747 7.06098 16.8684C10.6567 15.2691 15.6776 14.9869 19.5155 14.5447V13.6792C19.5155 12.0893 19.6366 10.2077 18.7144 8.83417C17.904 7.60174 16.3576 7.09371 14.9976 7.09371C12.4732 7.09371 10.2189 8.4014 9.66926 11.1109C9.55748 11.713 9.11966 12.3057 8.52348 12.3339L2.09594 11.6377C1.55565 11.5154 0.959472 11.0732 1.10852 10.2359C2.58965 2.37099 9.62268 0.000213623 15.9198 0.000213623C19.1429 0.000213623 23.3534 0.865735 25.8965 3.33058C29.1196 6.36931 28.8122 10.4241 28.8122 14.8364V25.2602C28.8122 28.393 30.0977 29.7666 31.3087 31.46C31.7372 32.0621 31.8303 32.7865 31.29 33.2381C29.9393 34.3764 27.536 36.4932 26.2132 37.6786L26.1946 37.6597" fill="black"/>
</svg>
