<?xml version="1.0" encoding="utf-8"?>
<!-- Generator: Adobe Illustrator 17.0.0, SVG Export Plug-In . SVG Version: 6.00 Build 0)  -->
<!DOCTYPE svg PUBLIC "-//W3C//DTD SVG 1.1//EN" "http://www.w3.org/Graphics/SVG/1.1/DTD/svg11.dtd">
<svg version="1.1" id="Layer_1" xmlns="http://www.w3.org/2000/svg" xmlns:xlink="http://www.w3.org/1999/xlink" x="0px" y="0px"
	 width="52px" height="52px" viewBox="0 0 52 52" enable-background="new 0 0 52 52" xml:space="preserve">
<g>
	<path fill="#FF9900" d="M1.091,38.544c0.151-0.242,0.394-0.258,0.727-0.045c7.576,4.393,15.818,6.59,24.727,6.59
		c5.939,0,11.803-1.106,17.591-3.318c0.151-0.061,0.371-0.152,0.659-0.273c0.288-0.121,0.492-0.212,0.614-0.273
		c0.455-0.182,0.811-0.091,1.068,0.273s0.174,0.697-0.25,1c-0.545,0.394-1.243,0.848-2.091,1.363
		c-2.606,1.545-5.515,2.742-8.727,3.59C32.197,48.3,29.061,48.725,26,48.725c-4.727,0-9.197-0.826-13.409-2.477
		s-7.985-3.977-11.318-6.976C1.091,39.12,1,38.968,1,38.817C1,38.726,1.03,38.635,1.091,38.544z"/>
	<path d="M40.182,28.5c-0.485-0.636-0.833-1.098-1.045-1.386c-0.212-0.288-0.432-0.758-0.659-1.409
		c-0.227-0.651-0.341-1.371-0.341-2.159V12.547c0-0.121-0.015-0.508-0.045-1.159s-0.076-1.076-0.136-1.273
		c-0.061-0.197-0.152-0.553-0.273-1.068s-0.258-0.909-0.409-1.182c-0.152-0.273-0.356-0.583-0.614-0.932
		c-0.256-0.346-0.537-0.673-0.841-0.977c-1.94-1.788-4.636-2.681-8.091-2.681h-1.136c-2.697,0.151-5.053,0.879-7.068,2.182
		c-2.017,1.303-3.282,3.303-3.797,5.999c-0.03,0.121-0.045,0.227-0.045,0.318c0,0.424,0.258,0.697,0.773,0.818l5.227,0.636
		c0.485-0.091,0.788-0.439,0.909-1.045c0.212-0.97,0.682-1.727,1.409-2.272c0.727-0.545,1.591-0.864,2.591-0.954h0.364
		c1.364,0,2.364,0.454,3,1.363c0.424,0.667,0.636,1.969,0.636,3.909v0.773c-1.849,0.151-3.182,0.273-4,0.364
		c-2.394,0.303-4.409,0.803-6.045,1.5c-1.789,0.756-3.198,1.877-4.228,3.362c-1.03,1.485-1.545,3.272-1.545,5.363
		c0,2.636,0.75,4.674,2.25,6.113c1.5,1.439,3.417,2.159,5.75,2.159c1.515,0,2.788-0.151,3.818-0.454
		c1.636-0.455,3.303-1.606,5-3.454c0.121,0.152,0.333,0.447,0.636,0.886s0.523,0.735,0.659,0.886
		c0.136,0.152,0.364,0.394,0.682,0.727s0.689,0.682,1.114,1.045c0.515,0.212,0.955,0.182,1.318-0.091
		c0.212-0.182,1.576-1.364,4.091-3.545c0.242-0.182,0.364-0.394,0.364-0.636C40.455,29.015,40.364,28.772,40.182,28.5z
		 M30.591,20.41c0,0.97-0.008,1.666-0.023,2.091c-0.015,0.424-0.106,0.977-0.273,1.659c-0.167,0.682-0.417,1.31-0.75,1.886
		c-0.697,1.303-1.682,2.121-2.955,2.454c-0.061,0-0.174,0.015-0.341,0.045s-0.295,0.045-0.386,0.045c-1,0-1.795-0.356-2.386-1.068
		s-0.886-1.659-0.886-2.84c0-2.606,1.333-4.287,4-5.045c0.909-0.242,2.243-0.364,4-0.364V20.41L30.591,20.41z"/>
	<path fill="#FF9900" d="M41.682,39.317c0.06-0.121,0.151-0.242,0.273-0.364c0.758-0.515,1.485-0.863,2.182-1.045
		c1.151-0.303,2.273-0.47,3.364-0.5c0.303-0.03,0.591-0.015,0.864,0.045c1.364,0.121,2.182,0.348,2.455,0.682
		c0.119,0.182,0.18,0.454,0.18,0.818v0.318c0,1.06-0.288,2.31-0.864,3.75c-0.576,1.439-1.379,2.598-2.409,3.477
		c-0.151,0.121-0.288,0.182-0.409,0.182c-0.061,0-0.121-0.015-0.182-0.045c-0.182-0.091-0.227-0.257-0.136-0.5
		c1.121-2.636,1.682-4.469,1.682-5.499c0-0.333-0.061-0.576-0.182-0.727c-0.303-0.364-1.152-0.545-2.545-0.545
		c-0.515,0-1.121,0.03-1.818,0.091c-0.758,0.091-1.455,0.182-2.091,0.273c-0.182,0-0.303-0.03-0.364-0.091
		c-0.061-0.06-0.076-0.121-0.045-0.182C41.636,39.423,41.652,39.377,41.682,39.317z"/>
</g>
</svg>
