<?xml version="1.0" encoding="utf-8"?>
<!-- Generator: Adobe Illustrator 17.0.0, SVG Export Plug-In . SVG Version: 6.00 Build 0)  -->
<!DOCTYPE svg PUBLIC "-//W3C//DTD SVG 1.1//EN" "http://www.w3.org/Graphics/SVG/1.1/DTD/svg11.dtd">
<svg version="1.1" id="Layer_1" xmlns="http://www.w3.org/2000/svg" xmlns:xlink="http://www.w3.org/1999/xlink" x="0px" y="0px"
	 width="52px" height="52px" viewBox="0 0 52 52" enable-background="new 0 0 52 52" xml:space="preserve">
<path fill="#F45800" d="M18.696,6.095c0-0.675,0.075-1.083,1.25-1.083h15.831c2.758,0,4.291,2.311,5.394,6.648l0.886,3.475h2.693
	C45.238,5.281,45.661,1,45.661,1s-6.776,0.748-10.794,0.748H14.621L3.777,1.406v2.856L7.43,4.937
	c2.569,0.505,3.181,1.033,3.396,3.345c0,0,0.232,6.82,0.232,18.002c0,11.222-0.191,17.936-0.191,17.936
	c0,2.034-0.829,2.783-3.372,3.28l-3.653,0.692V51l10.878-0.342h18.134c4.108,0,13.553,0.342,13.553,0.342
	c0.224-2.442,1.59-13.502,1.815-14.714h-2.543l-2.726,6.063c-2.13,4.744-5.252,5.086-8.715,5.086H23.832
	c-3.455,0-5.12-1.327-5.12-4.264V27.667c0,0,7.671,0,10.156,0.195c1.931,0.139,3.098,0.684,3.728,3.328l0.829,3.531h2.99
	l-0.191-8.911l0.406-8.969h-2.949l-0.953,3.939c-0.596,2.587-1.02,3.059-3.72,3.336c-3.53,0.35-10.214,0.284-10.214,0.284V6.098
	h-0.1L18.696,6.095z"/>
</svg>
