<svg width="214" height="54" viewBox="0 0 214 54" fill="none" xmlns="http://www.w3.org/2000/svg">
<path fill-rule="evenodd" clip-rule="evenodd" d="M8.99239 3.78789e-07H44.8235C47.2088 -0.000691483 49.4969 0.946411 51.1838 2.63289C52.8707 4.31936 53.8186 6.607 53.8186 8.99239V44.8208C53.8186 49.7888 49.7912 53.8159 44.8235 53.8159H8.99239C4.0256 53.8144 0 49.7878 0 44.8208V8.99239C0 4.02602 4.02602 3.78789e-07 8.99239 3.78789e-07ZM41.2019 44.0324C42.7695 44.0324 44.0403 42.7616 44.0403 41.1941L44.0324 12.6243C44.0324 11.0568 42.7616 9.78613 41.1941 9.78613H12.6269C11.8737 9.78613 11.1514 10.0855 10.6191 10.6183C10.0868 11.1512 9.78806 11.8737 9.78875 12.6269V41.1941C9.78875 42.7616 11.0594 44.0324 12.6269 44.0324H41.2019Z" fill="#3E4348"/>
<path d="M21.1989 34.2044C20.3042 34.1973 19.5827 33.4701 19.5827 32.5753V21.1702C19.5806 20.7368 19.7514 20.3203 20.0572 20.0131C20.3629 19.7059 20.7785 19.5331 21.212 19.5331H32.6327C33.066 19.5338 33.4811 19.7068 33.7868 20.0139C34.0924 20.321 34.2634 20.737 34.2619 21.1702V32.5726C34.2634 33.0058 34.0924 33.4219 33.7868 33.7289C33.4811 34.0361 33.066 34.2091 32.6327 34.2098L21.1989 34.2044Z" fill="#3E4348"/>
<path d="M81.2031 24.5097C79.5372 24.0554 77.9602 23.6272 76.7356 23.0815C74.4692 22.0684 73.4144 20.6637 73.4144 18.6637C73.4144 14.8829 77.0698 13.1805 80.7097 13.1805C84.1691 13.1805 87.1901 14.6113 89.2189 17.2067L89.3572 17.3843L92.2816 15.097L92.1407 14.9194C89.4435 11.4885 85.4487 9.60861 80.887 9.60861C77.8506 9.60861 75.0671 10.4285 73.0541 11.9194C70.7877 13.5774 69.5918 15.9821 69.5918 18.8516C69.5918 25.5229 75.8738 27.1494 80.9237 28.4576C86.0335 29.805 89.1642 30.8284 89.1642 34.724C89.1642 38.5596 86.0622 41.0376 81.263 41.0376C78.8897 41.0376 74.4954 40.4084 71.7329 36.189L71.605 35.9904L68.5292 38.2176L68.6493 38.3979C71.2603 42.3509 75.7669 44.62 81.0282 44.62C88.1744 44.62 92.9787 40.5858 92.9787 34.5858C92.9787 27.7186 86.446 25.9405 81.2031 24.5097Z" fill="#3E4348"/>
<path fill-rule="evenodd" clip-rule="evenodd" d="M116.29 23.1233V19.5122H119.729V53.8108H116.29V40.4109C114.327 43.1029 111.381 44.5755 107.919 44.5755C101.381 44.5755 96.8116 39.3404 96.8116 31.7815C96.8116 24.2225 101.391 18.9456 107.919 18.9456C111.358 18.9456 114.303 20.4261 116.29 23.1233ZM100.436 31.7396C100.436 38.7372 104.444 41.2308 108.196 41.2308L108.203 41.2333C113.115 41.2333 116.29 37.4735 116.29 31.7396C116.29 26.0058 113.11 22.2982 108.196 22.2982C102.475 22.2982 100.436 27.1756 100.436 31.7396Z" fill="#3E4348"/>
<path d="M142.463 19.5122V33.0503C142.463 37.7895 139.217 41.2308 134.747 41.2308C131.034 41.2308 129.228 39.027 129.228 34.497V19.5122H125.789V35.1993C125.789 41.074 128.982 44.5806 134.329 44.5806C137.661 44.5806 140.523 43.1682 142.465 40.5857V44.0219H145.904V19.5122H142.463Z" fill="#3E4348"/>
<path fill-rule="evenodd" clip-rule="evenodd" d="M152.38 22.0867C154.915 20.0945 158.356 18.9535 161.816 18.9535C167.281 18.9535 170.542 21.6715 170.532 26.2304V44.0273H167.09V41.3091C165.354 43.484 162.842 44.586 159.61 44.586C154.343 44.586 151.069 41.7059 151.069 37.074C151.069 31.0503 156.745 30.1051 159.163 29.703C159.557 29.6379 159.965 29.5753 160.372 29.5124H160.372L160.387 29.5102C163.69 29.0016 167.101 28.4769 167.101 25.6743C167.101 22.5019 162.983 22.2564 161.722 22.2564C159.495 22.2564 156.348 22.917 154.21 24.7707L154.014 24.9405L152.218 22.2146L152.38 22.0867ZM154.659 36.8808C154.659 40.8079 158.356 41.2333 159.946 41.2333H159.949C163.406 41.2333 167.106 39.3901 167.098 34.2098V30.6638C165.421 31.7233 163.034 32.1371 160.904 32.5063L160.868 32.5126L159.8 32.7032C156.39 33.335 154.659 34.1496 154.659 36.8808Z" fill="#3E4348"/>
<path d="M190.454 19.9744C189.636 19.3921 188.349 19.0448 187.007 19.0448C184.249 19.0811 181.669 20.4106 180.038 22.635V19.5018H176.6V44.0089H180.038V30.9016C180.038 25.0895 183.305 22.4862 186.54 22.4862C187.487 22.4735 188.424 22.6724 189.284 23.0684L189.516 23.1911L190.605 20.0736L190.454 19.9744Z" fill="#3E4348"/>
<path fill-rule="evenodd" clip-rule="evenodd" d="M191.462 31.8336C191.462 24.2513 196.19 18.9535 202.95 18.9535C209.462 18.9535 214.013 23.6559 214 30.4001C213.998 30.9865 213.966 31.5721 213.903 32.1548L213.882 32.3558H195.083C195.169 37.7528 198.417 41.2333 203.402 41.2333C206.258 41.2333 208.733 40.0716 210.371 37.9591L210.519 37.766L213.01 39.9852L212.872 40.1523C211.216 42.1706 208.198 44.5782 203.211 44.5782C196.187 44.5782 191.462 39.4578 191.462 31.8336ZM202.856 22.2538C198.655 22.2538 195.676 25.0188 195.211 29.3245H210.365C210.068 25.8622 207.953 22.2538 202.856 22.2538Z" fill="#3E4348"/>
</svg>
