<?xml version="1.0" encoding="utf-8"?>
<!-- Generator: Adobe Illustrator 19.2.1, SVG Export Plug-In . SVG Version: 6.00 Build 0)  -->
<svg version="1.1" id="Layer_1" xmlns="http://www.w3.org/2000/svg" xmlns:xlink="http://www.w3.org/1999/xlink" x="0px" y="0px"
	 viewBox="0 0 52 52" style="enable-background:new 0 0 52 52;" xml:space="preserve">
<style type="text/css">
	.st0{fill:#95BF47;}
	.st1{fill:#5E8E3E;}
	.st2{fill:#FFFFFF;}
</style>
<g>
	<path class="st0" d="M39.5,13.5c0-0.2-0.2-0.3-0.4-0.3c-0.1,0-3.3-0.2-3.3-0.2s-2.2-2.2-2.4-2.4c-0.2-0.2-0.7-0.2-0.9-0.1
		c0,0-0.5,0.1-1.2,0.4c-0.7-2.1-2-4-4.3-4c-0.1,0-0.1,0-0.2,0c-0.6-0.9-1.4-1.2-2.1-1.2c-5.3,0-7.8,6.6-8.6,10
		c-2.1,0.6-3.5,1.1-3.7,1.1c-1.1,0.4-1.2,0.4-1.3,1.5C11,18.9,8,42.1,8,42.1l23.3,4.4L44,43.8C44,43.8,39.6,13.7,39.5,13.5z
		 M30,11.2c-0.6,0.2-1.3,0.4-2,0.6c0-0.1,0-0.3,0-0.4c0-1.3-0.2-2.4-0.5-3.2C28.8,8.3,29.5,9.6,30,11.2z M26.2,8.4
		c0.3,0.8,0.5,2,0.5,3.6c0,0.1,0,0.2,0,0.2c-1.3,0.4-2.7,0.8-4.1,1.3C23.4,10.4,24.9,9,26.2,8.4z M24.6,6.9c0.2,0,0.5,0.1,0.7,0.2
		C23.6,7.9,21.8,10,21,14c-1.1,0.3-2.2,0.7-3.2,1C18.7,11.9,20.8,6.9,24.6,6.9z"/>
	<path class="st1" d="M39.2,13.2c-0.1,0-3.3-0.2-3.3-0.2s-2.2-2.2-2.4-2.4c-0.1-0.1-0.2-0.1-0.3-0.2l-1.8,36.2L44,43.8
		c0,0-4.4-30.1-4.5-30.3C39.5,13.3,39.3,13.2,39.2,13.2z"/>
	<path class="st2" d="M27.1,20.2l-1.6,4.6c0,0-1.4-0.7-3-0.7c-2.5,0-2.6,1.5-2.6,1.9c0,2.1,5.5,2.9,5.5,7.9c0,3.9-2.5,6.4-5.8,6.4
		c-4,0-6.1-2.5-6.1-2.5l1.1-3.6c0,0,2.1,1.8,3.9,1.8c1.2,0,1.6-0.9,1.6-1.6c0-2.8-4.5-2.9-4.5-7.4c0-3.8,2.7-7.5,8.3-7.5
		C26,19.5,27.1,20.2,27.1,20.2z"/>
</g>
</svg>
