<?xml version="1.0" standalone="no"?>
<!DOCTYPE svg PUBLIC "-//W3C//DTD SVG 20010904//EN"
 "http://www.w3.org/TR/2001/REC-SVG-20010904/DTD/svg10.dtd">
<svg version="1.0" xmlns="http://www.w3.org/2000/svg"
 width="1200.000000pt" height="1200.000000pt" viewBox="0 0 1200.000000 1200.000000"
 preserveAspectRatio="xMidYMid meet">
<metadata>
Created by potrace 1.11, written by Peter Selinger 2001-2013
</metadata>
<g transform="translate(0.000000,1200.000000) scale(0.100000,-0.100000)"
fill="#000000" stroke="none">
<path d="M0 6000 l0 -6000 6000 0 6000 0 0 6000 0 6000 -6000 0 -6000 0 0
-6000z m2060 4500 l0 -350 -355 0 -355 0 0 350 0 350 355 0 355 0 0 -350z
m8570 0 l0 -350 -355 0 -355 0 0 350 0 350 355 0 355 0 0 -350z m-6008 195
c184 -130 316 -213 433 -270 300 -147 595 -215 935 -215 484 0 893 139 1310
445 l115 85 1013 0 1012 0 0 -240 0 -240 -921 0 -920 0 -142 -94 c-221 -145
-395 -231 -638 -310 -256 -84 -474 -122 -749 -132 -443 -16 -878 79 -1273 278
-94 47 -293 169 -362 222 l-48 36 -923 0 -924 0 0 240 0 240 1009 0 1010 0 63
-45z m-2672 -1965 l0 -940 -245 0 -245 0 0 940 0 940 245 0 245 0 0 -940z
m8550 0 l0 -940 -250 0 -250 0 0 940 0 940 250 0 250 0 0 -940z m-8442 -1778
l-3 -347 -352 -3 -353 -2 0 352 0 353 355 -3 355 -2 -2 -348z m8555 348 c16 0
17 -23 17 -350 l0 -350 -352 2 -353 3 -3 347 -2 347 32 3 c27 2 216 2 661 -2z
m-7121 -2527 c2 -1319 2 -2408 0 -2420 l-3 -23 -245 0 -244 0 0 2175 0 2175
-227 2 -228 3 -3 243 -2 242 475 0 475 0 2 -2397z m5918 2152 l0 -245 -215 0
-215 0 0 -2175 0 -2175 -260 0 -260 0 0 2420 0 2420 475 0 475 0 0 -245z
m-5830 -5425 l0 -350 -355 0 -355 0 0 350 0 350 355 0 355 0 0 -350z m5480 0
l0 -350 -355 0 -355 0 0 350 0 350 355 0 355 0 0 -350z m-1220 0 l0 -240
-1890 0 -1890 0 0 240 0 240 1890 0 1890 0 0 -240z"/>
</g>
</svg>
