<svg width="227" height="225" viewBox="0 0 227 225" fill="none" xmlns="http://www.w3.org/2000/svg">
<rect x="0.400391" y="0.828125" width="226" height="224" rx="4" fill="#f4f5fa"/>
<path d="M154.26 78.2549H72.5415C70.803 78.2549 69.3984 79.6594 69.3984 81.3979V144.258C69.3984 145.997 70.803 147.401 72.5415 147.401H154.26C155.999 147.401 157.403 145.997 157.403 144.258V81.3979C157.403 79.6594 155.999 78.2549 154.26 78.2549ZM96.3106 92.3985C99.7777 92.3985 102.597 95.2174 102.597 98.6845C102.597 102.152 99.7777 104.971 96.3106 104.971C92.8434 104.971 90.0245 102.152 90.0245 98.6845C90.0245 95.2174 92.8434 92.3985 96.3106 92.3985ZM146.786 135.33C146.642 135.45 146.462 135.516 146.275 135.517H80.5169C80.0847 135.517 79.7311 135.163 79.7311 134.731C79.7311 134.544 79.7999 134.368 79.9177 134.22L96.6445 114.38C96.9195 114.046 97.4205 114.007 97.7544 114.282C97.7839 114.311 97.8232 114.341 97.8526 114.38L107.616 125.97L123.144 107.554C123.419 107.22 123.92 107.181 124.254 107.456C124.283 107.485 124.323 107.514 124.352 107.554L146.903 134.23C147.159 134.554 147.12 135.055 146.786 135.33Z" fill="#e4e6f4"/>
</svg>
