<svg width="214" height="87" viewBox="0 0 214 87" fill="none" xmlns="http://www.w3.org/2000/svg">
<path fill-rule="evenodd" clip-rule="evenodd" d="M214 44.9318C214 30.0706 206.629 18.3442 192.541 18.3442C178.393 18.3442 169.833 30.0706 169.833 44.8157C169.833 62.2891 179.938 71.1129 194.443 71.1129C201.517 71.1129 206.867 69.5455 210.909 67.3396V55.7293C206.867 57.7031 202.23 58.9221 196.345 58.9221C190.579 58.9221 185.467 56.9484 184.813 50.0983H213.881C213.881 49.3437 214 46.325 214 44.9318ZM184.634 39.4169C184.634 32.8571 188.736 30.1287 192.481 30.1287C196.107 30.1287 199.971 32.8571 199.971 39.4169H184.634Z" fill="#635BFF"/>
<path fill-rule="evenodd" clip-rule="evenodd" d="M146.887 18.3442C141.062 18.3442 137.317 21.0146 135.236 22.8722L134.463 19.2731H121.386V86.961L136.247 83.8842L136.306 67.4557C138.446 68.965 141.597 71.1129 146.828 71.1129C157.468 71.1129 167.158 62.7535 167.158 44.3513C167.098 27.5164 157.29 18.3442 146.887 18.3442ZM143.321 58.3416C139.813 58.3416 137.733 57.1226 136.306 55.6132L136.247 34.0762C137.792 32.3927 139.932 31.2316 143.321 31.2316C148.73 31.2316 152.475 37.1529 152.475 44.7576C152.475 52.5365 148.789 58.3416 143.321 58.3416Z" fill="#635BFF"/>
<path fill-rule="evenodd" clip-rule="evenodd" d="M100.937 14.9192L115.857 11.7844V0L100.937 3.07672V14.9192Z" fill="#635BFF"/>
<path d="M115.857 19.3311H100.937V70.126H115.857V19.3311Z" fill="#635BFF"/>
<path fill-rule="evenodd" clip-rule="evenodd" d="M84.9461 23.6269L83.995 19.3311H71.155V70.1261H86.0161V35.7016C89.5233 31.2316 95.4678 32.0444 97.3106 32.6829V19.3311C95.4083 18.6345 88.4533 17.3574 84.9461 23.6269Z" fill="#635BFF"/>
<path fill-rule="evenodd" clip-rule="evenodd" d="M55.2239 6.73396L40.7194 9.75264L40.66 56.2518C40.66 64.8434 47.2583 71.171 56.0561 71.171C60.9305 71.171 64.4972 70.3002 66.4589 69.2553V57.4709C64.5566 58.2255 55.1644 60.8959 55.1644 52.3043V31.6961H66.4589V19.3311H55.1644L55.2239 6.73396Z" fill="#635BFF"/>
<path fill-rule="evenodd" clip-rule="evenodd" d="M15.0394 34.0762C15.0394 31.8122 16.9417 30.9414 20.0922 30.9414C24.61 30.9414 30.3167 32.2766 34.8345 34.6567V21.0146C29.9006 19.0989 25.0261 18.3442 20.0922 18.3442C8.025 18.3442 0 24.4977 0 34.7728C0 50.795 22.5889 48.2407 22.5889 55.1488C22.5889 57.8192 20.2111 58.6899 16.8822 58.6899C11.9483 58.6899 5.64722 56.7162 0.653888 54.0458V67.8621C6.18222 70.1841 11.77 71.171 16.8822 71.171C29.2467 71.171 37.7472 65.1917 37.7472 54.8005C37.6878 37.5012 15.0394 40.5779 15.0394 34.0762Z" fill="#635BFF"/>
</svg>
