<?xml version="1.0" encoding="utf-8"?>
<!-- Generator: Adobe Illustrator 17.0.0, SVG Export Plug-In . SVG Version: 6.00 Build 0)  -->
<!DOCTYPE svg PUBLIC "-//W3C//DTD SVG 1.1//EN" "http://www.w3.org/Graphics/SVG/1.1/DTD/svg11.dtd">
<svg version="1.1" id="Layer_1" xmlns="http://www.w3.org/2000/svg" xmlns:xlink="http://www.w3.org/1999/xlink" x="0px" y="0px"
	 width="52px" height="52px" viewBox="0 0 52 52" enable-background="new 0 0 52 52" xml:space="preserve">
<g>
	<path fill="#A5DBE8" d="M17.207,38.362c0.399-0.178,0.804-0.341,1.212-0.495c0.461-0.173,0.926-0.336,1.396-0.478
		c0.586-0.177,1.177-0.336,1.776-0.463c0.808-0.172,1.626-0.298,2.448-0.378c-0.465,1.458-0.973,2.902-1.525,4.33
		c0.023,0.279,0.037,0.558,0.044,0.838c1.134-0.224,2.286-0.337,3.442-0.337c1.178,0,2.328,0.118,3.442,0.337
		c0.007-0.28,0.021-0.559,0.044-0.838c-0.552-1.428-1.06-2.872-1.525-4.33c0.823,0.08,1.64,0.207,2.448,0.378
		c0.599,0.127,1.19,0.287,1.776,0.463c0.471,0.142,0.936,0.305,1.397,0.478c0.408,0.153,0.813,0.317,1.212,0.495
		c2.886,1.283,5.457,3.181,7.533,5.561C47.635,39.339,51,32.565,51,25C51,11.193,39.807,0,26,0S1,11.193,1,25
		c0,7.565,3.365,14.339,8.673,18.923C11.75,41.543,14.321,39.646,17.207,38.362"/>
	<path fill="#525353" d="M34.794,38.363l1.552,5.337l0.44,0.021c0.286,0,0.487,0.075,0.487,0.361c0,0.475,0.025,1.009,0.07,1.475
		c0.387,0.328,0.858,0.699,1.215,1.058c1.337-0.779,2.599-1.679,3.77-2.691C40.25,41.544,37.68,39.646,34.794,38.363"/>
	<path fill="#525353" d="M31.759,38.309l1.822-0.441c-0.461-0.173-0.925-0.336-1.397-0.478c-0.586-0.177-1.177-0.336-1.776-0.463
		c-0.808-0.172-1.625-0.298-2.448-0.378c0.465,1.458,0.973,2.902,1.525,4.33c-0.023,0.279-0.037,0.558-0.044,0.838
		c1.291,0.255,2.561,0.697,3.735,1.216L31.759,38.309"/>
	<path d="M13.443,46.614c0.29,0.169,0.583,0.334,0.881,0.492c0.104-0.501,0.271-1.195,0.321-1.71
		C14.259,45.724,13.8,46.254,13.443,46.614z"/>
	<path d="M33.146,42.886c-1.188-0.526-2.43-0.919-3.704-1.17c-1.134-0.224-2.286-0.337-3.442-0.337
		c-1.178,0-2.328,0.118-3.442,0.337c-1.291,0.255-2.638,0.641-3.812,1.16l-0.125,0.778h14.757L33.146,42.886"/>
	<path fill="#525353" d="M14.6,45.543c0.046-0.466,0.079-0.881,0.079-1.357c0-0.286,0.196-0.469,0.482-0.469l0.469-0.016
		l1.578-5.339c-2.886,1.283-5.457,3.181-7.534,5.561c1.171,1.011,2.433,1.912,3.77,2.691c0.357-0.36,0.729-0.705,1.116-1.033"/>
	<path d="M37.533,46.493c0.101,0.508,0.124,0.609,0.142,0.613c0.297-0.158,0.591-0.322,0.881-0.492
		c-0.361-0.364-0.737-0.712-1.127-1.045L37.533,46.493"/>
	<path fill="#AA9678" d="M33.146,42.886l0.233,0.767h3.018l-1.603-5.29c-0.399-0.177-0.803-0.342-1.212-0.495l-1.822,0.441
		L33.146,42.886z"/>
	<path fill="#C4B6A1" d="M15.656,44.724c0.017-0.012,0.035-0.024,0.051-0.036h-0.049C15.658,44.699,15.657,44.712,15.656,44.724z"/>
	<path fill="#AA9678" d="M36.346,44.687h-0.049l0.051,0.036C36.347,44.712,36.346,44.699,36.346,44.687z"/>
	<path fill="#AA9678" d="M36.29,44.61l-10.311,0.012L26,50c3.837,0,7.472-0.867,10.721-2.412c-0.212-0.932-0.233-1.936-0.268-2.913
		C36.438,44.663,36.29,44.61,36.29,44.61"/>
	<path fill="#C4B6A1" d="M25.983,44.644c0,0-10.368-0.013-10.384-0.002c-0.034,0.977-0.236,2.137-0.321,2.945
		C18.528,49.133,22.162,50,26,50l0.006-5.338L25.983,44.644z"/>
	<path fill="#786453" d="M26,44.17L26,44.17v0.518l0,0V44.17z"/>
	<path fill="#AA9678" d="M33.733,40.656l0.005,0.016L33.733,40.656c0,0-0.253-0.201-0.575-0.571
		C33.48,40.455,33.733,40.656,33.733,40.656z"/>
	<path fill="#FFFFFF" d="M42.378,25.243v-0.016V25.243z"/>
	<path fill="#BBBCBD" d="M42.379,25.228V25.22V25.228z"/>
	<path fill="#676A6A" d="M42.35,24.838c0.001,0.007,0.003,0.013,0.003,0.019c0.001,0.004,0.002,0.008,0.002,0.012v0.002
		c0.012,0.095,0.016,0.195,0.019,0.296c0,0.018,0.004,0.036,0.004,0.054v0.007v0.007c0,0.02-0.004,0.039-0.004,0.058
		c-0.001,0.097-0.007,0.194-0.018,0.29v0.001l-0.003,0.014c-0.001,0.008-0.003,0.015-0.004,0.022
		c-0.013,0.1-0.032,0.198-0.056,0.296v0.001l0,0l0.003-0.004l0.001-0.005l0,0l0.654-0.685l-0.66-0.69v0.001
		C42.317,24.632,42.336,24.733,42.35,24.838z"/>
	<path d="M42.35,25.62c0.002-0.013,0.005-0.024,0.007-0.038c0.012-0.094,0.016-0.192,0.018-0.29c0-0.022,0.004-0.043,0.004-0.066
		c0-0.021-0.003-0.04-0.003-0.061c-0.001-0.099-0.007-0.197-0.019-0.296c-0.002-0.011-0.005-0.021-0.006-0.032
		c-0.013-0.102-0.032-0.202-0.057-0.302c-0.009-0.034-0.02-0.064-0.03-0.096c-0.059-0.196-0.14-0.369-0.235-0.512
		c-0.037-0.055-0.077-0.107-0.12-0.156c-0.04-0.044-0.083-0.084-0.129-0.12c-0.017-0.013-0.035-0.022-0.053-0.034
		c-0.054-0.035-0.112-0.064-0.173-0.084c-0.058-0.019-0.118-0.03-0.179-0.031c-0.061,0-0.121,0.013-0.179,0.031
		c-0.061,0.02-0.12,0.048-0.174,0.084c-0.017,0.011-0.035,0.02-0.052,0.033c-0.08,0.063-0.151,0.137-0.21,0.221
		c-0.014,0.018-0.027,0.037-0.04,0.056c-0.096,0.143-0.177,0.316-0.236,0.512l-0.007,0.023c-0.026,0.09-0.047,0.184-0.064,0.281
		c-0.005,0.03-0.012,0.058-0.016,0.089c-0.016,0.109-0.024,0.222-0.026,0.338c0,0.016-0.003,0.031-0.003,0.047h0.004
		c0,0.952,0.45,1.724,1.006,1.724c0.096,0,0.188-0.025,0.275-0.068c0.053-0.026,0.102-0.057,0.148-0.094
		c0.019-0.015,0.037-0.034,0.055-0.051c0.044-0.041,0.087-0.088,0.127-0.14c0.028-0.037,0.055-0.073,0.08-0.114
		c0.016-0.026,0.031-0.054,0.046-0.082c0.028-0.052,0.055-0.106,0.079-0.163c0.009-0.021,0.018-0.041,0.026-0.062
		c0.031-0.08,0.058-0.164,0.08-0.253C42.318,25.822,42.336,25.723,42.35,25.62L42.35,25.62z M41.408,24.998
		c-0.208,0-0.377-0.29-0.377-0.647s0.169-0.646,0.377-0.646s0.377,0.29,0.377,0.646C41.786,24.708,41.617,24.998,41.408,24.998z"/>
	<path fill="#FFFFFF" d="M41.408,23.705c-0.208,0-0.377,0.29-0.377,0.646c0,0.357,0.169,0.647,0.377,0.647s0.377-0.29,0.377-0.647
		S41.617,23.705,41.408,23.705"/>
	<path fill="#909393" d="M40.482,24.44c0.059-0.196,0.14-0.369,0.235-0.512c0.013-0.02,0.026-0.038,0.04-0.056
		c0.058-0.084,0.129-0.158,0.21-0.221c0.017-0.013,0.035-0.022,0.052-0.033c0.054-0.036,0.112-0.064,0.174-0.084
		c0.058-0.018,0.118-0.031,0.179-0.031s0.121,0.013,0.179,0.031c0.061,0.02,0.12,0.048,0.173,0.084
		c0.017,0.011,0.036,0.02,0.053,0.034c0.045,0.034,0.088,0.075,0.129,0.12c0.043,0.05,0.083,0.102,0.12,0.156
		c0.096,0.144,0.176,0.316,0.236,0.512l0,0l-0.89-4.078L40.482,24.44L40.482,24.44"/>
	<path d="M29.574,25.189c-0.001-0.082-0.006-0.163-0.016-0.243c0-0.001,0-0.002,0-0.003c-0.009-0.078-0.023-0.155-0.039-0.232
		l-0.002-0.006c-0.017-0.075-0.037-0.149-0.061-0.222l-0.002-0.005c-0.024-0.072-0.051-0.143-0.082-0.212
		c0-0.001-0.001-0.003-0.002-0.004c-0.248-0.552-0.698-0.988-1.258-1.219l-0.007-0.002c-0.136-0.056-0.277-0.098-0.422-0.127
		c-0.004,0-0.007-0.001-0.011-0.002c-0.149-0.029-0.3-0.044-0.452-0.044s-0.3,0.016-0.444,0.043l-0.015,0.002
		c-0.143,0.028-0.281,0.07-0.414,0.123l-0.01,0.004c-0.134,0.054-0.263,0.121-0.385,0.199c-0.122,0.079-0.236,0.168-0.341,0.266
		l-0.003,0.008L25.6,23.516c-0.168,0.16-0.312,0.344-0.428,0.546l-0.004,0.007c-0.035,0.062-0.067,0.126-0.096,0.192
		c-0.003,0.007-0.007,0.014-0.01,0.021c-0.027,0.061-0.05,0.124-0.071,0.187c-0.004,0.013-0.01,0.024-0.014,0.037
		c-0.019,0.059-0.034,0.12-0.048,0.181c-0.004,0.018-0.009,0.034-0.013,0.052c-0.012,0.06-0.021,0.122-0.029,0.183
		c-0.002,0.019-0.006,0.037-0.008,0.056c-0.025,0.234-0.014,0.47,0.032,0.701c0,0.003,0,0.006,0.001,0.009
		c0.03,0.147,0.073,0.289,0.129,0.425c0.001,0.002,0.001,0.004,0.002,0.006c0.113,0.272,0.275,0.522,0.48,0.734
		c0.16,0.167,0.345,0.31,0.547,0.425l0.003,0.002c0.063,0.035,0.129,0.067,0.195,0.097c0.005,0.002,0.011,0.005,0.016,0.008
		c0.062,0.027,0.126,0.05,0.19,0.072c0.011,0.004,0.021,0.008,0.032,0.012c0.059,0.019,0.121,0.034,0.182,0.048
		c0.017,0.004,0.033,0.009,0.05,0.013c0.06,0.012,0.121,0.021,0.183,0.029c0.019,0.002,0.037,0.007,0.056,0.008
		c0.55,0.058,1.103-0.08,1.561-0.389c0.251-0.17,0.467-0.385,0.636-0.636c0.263-0.389,0.403-0.848,0.402-1.317
		c0-0.006-0.001-0.011-0.001-0.016C29.575,25.201,29.574,25.195,29.574,25.189L29.574,25.189z M27.221,24.913
		c-0.116,0-0.231-0.023-0.339-0.067c-0.107-0.044-0.205-0.11-0.287-0.192s-0.147-0.18-0.192-0.287
		c-0.044-0.107-0.067-0.222-0.067-0.339c0-0.116,0.023-0.231,0.068-0.339c0.044-0.107,0.11-0.205,0.192-0.287
		c0.082-0.082,0.18-0.147,0.287-0.192c0.107-0.044,0.222-0.067,0.339-0.067c0.235,0,0.46,0.093,0.626,0.259s0.259,0.391,0.259,0.626
		s-0.093,0.46-0.259,0.626C27.68,24.82,27.455,24.913,27.221,24.913L27.221,24.913z"/>
	<path fill="#FFFFFF" d="M27.221,23.143c-0.235,0-0.46,0.093-0.626,0.259s-0.259,0.391-0.259,0.626s0.093,0.46,0.259,0.626
		s0.391,0.259,0.626,0.259c0.235,0,0.46-0.093,0.626-0.259s0.259-0.391,0.259-0.626s-0.093-0.46-0.259-0.626
		C27.68,23.237,27.455,23.143,27.221,23.143"/>
	<path fill="#BBBCBD" d="M25.6,23.516l0.009-0.002l0.002-0.008l1.622-4.961v-1.161v-0.013c-0.916-0.19-1.848-0.286-2.783-0.287
		c-0.317,0-0.632,0.013-0.945,0.035c-0.045,0.003-0.091,0.006-0.137,0.009c-1.628,0.124-3.232,0.548-4.717,1.226
		c-1.273,0.581-2.456,1.347-3.52,2.255l0,0l-0.001,0.002c-0.285,0.244-0.56,0.498-0.826,0.761c-0.05,0.049-0.101,0.097-0.15,0.147
		c-0.252,0.254-0.495,0.516-0.73,0.785c-0.051,0.059-0.101,0.119-0.152,0.178c-0.237,0.278-0.465,0.564-0.684,0.856
		c-0.018,0.025-0.035,0.05-0.053,0.075c-0.208,0.283-0.407,0.573-0.597,0.869c-0.037,0.058-0.076,0.114-0.112,0.173
		c-0.154,0.245-0.298,0.496-0.44,0.748h7.39L25.6,23.516z"/>
	<path fill="#E3DDDB" d="M31.839,22.958c0.015-0.193,0.027-0.387,0.037-0.581c0.014-0.262,0.023-0.525,0.028-0.787
		c0.004-0.204,0.003-0.408,0.002-0.611c0-0.059,0.001-0.118,0.001-0.177c-0.006-0.526-0.025-1.052-0.058-1.577l-0.005-0.003
		l-0.002-0.004c-0.195-0.112-0.391-0.224-0.586-0.335l-0.014-0.008l-0.153-0.085l-0.003-0.002l-0.106-0.059l-0.02-0.012
		c-0.025-0.014-0.051-0.028-0.077-0.042c-0.34-0.176-0.686-0.339-1.039-0.488c-0.84-0.355-1.972-0.666-2.61-0.816v1.174l1.608,4.969
		l0.002,0.004c0.166,0.158,0.309,0.34,0.423,0.54l0,0c0.038,0.066,0.072,0.133,0.103,0.203c0.001,0.002,0.002,0.003,0.002,0.004
		c0.031,0.069,0.058,0.14,0.083,0.212l0.002,0.005c0.024,0.073,0.044,0.146,0.061,0.222l0.002,0.006
		c0.017,0.076,0.03,0.154,0.039,0.232c0,0.001,0,0.002,0.001,0.003c0.009,0.08,0.014,0.161,0.016,0.243l0.006,0.013h1.969
		c0.132-0.723,0.227-1.451,0.285-2.184C31.835,22.998,31.837,22.978,31.839,22.958"/>
	<path fill="#FCB03F" d="M34.415,21.201c-0.002,0.003-0.003,0.005-0.004,0.008L34.415,21.201"/>
	<path fill="#909393" d="M25.611,23.506c0.106-0.099,0.22-0.188,0.342-0.267c0.121-0.078,0.25-0.145,0.383-0.199
		c0.003-0.002,0.007-0.003,0.01-0.004c0.134-0.054,0.273-0.095,0.414-0.123l0.015-0.002c0.146-0.028,0.295-0.043,0.444-0.043
		c0.155,0,0.305,0.016,0.452,0.044c0.004,0.001,0.007,0.001,0.011,0.002c0.147,0.03,0.29,0.073,0.428,0.13
		c0.271,0.112,0.52,0.273,0.732,0.475l-0.002-0.004l-1.608-4.969L25.611,23.506"/>
	<path fill="#676A6A" d="M25.04,26.112c-0.056-0.137-0.099-0.279-0.128-0.425c-0.001-0.003-0.001-0.006-0.001-0.009
		c-0.046-0.231-0.057-0.467-0.032-0.701c0.002-0.019,0.006-0.037,0.008-0.056c0.008-0.062,0.017-0.123,0.029-0.183
		c0.004-0.017,0.009-0.034,0.013-0.052c0.014-0.061,0.03-0.121,0.048-0.181c0.004-0.012,0.009-0.024,0.013-0.037
		c0.021-0.063,0.045-0.126,0.071-0.187c0.003-0.007,0.007-0.014,0.01-0.021c0.029-0.066,0.061-0.13,0.096-0.192l0.004-0.007
		c0.115-0.202,0.259-0.386,0.428-0.546l-6.824,1.686h-0.013l6.759,1.65c-0.204-0.213-0.367-0.462-0.48-0.734
		C25.041,26.116,25.041,26.114,25.04,26.112"/>
	<path fill="#E3DDDB" d="M40.395,24.834c0.004-0.03,0.011-0.059,0.016-0.089c0.017-0.097,0.037-0.192,0.064-0.281
		c0.003-0.01,0.004-0.022,0.007-0.032l0.89-4.077V18.03c-0.727-0.601-1.507-0.93-2.318-0.93c-1.025,0-1.981,0.566-2.695,1.265
		c-0.782,0.765-1.386,1.728-1.875,2.699c-0.023,0.045-0.046,0.088-0.068,0.133c0.151,0.13,0.3,0.263,0.447,0.397
		c0.332,0.305,0.659,0.616,0.98,0.934c0.15,0.148,0.296,0.298,0.444,0.449c0.156,0.159,0.313,0.318,0.467,0.48
		c0.281,0.296,0.559,0.595,0.832,0.898c0.235,0.259,0.467,0.52,0.696,0.783l0,0c0.038,0.04,0.065,0.069,0.076,0.081h2.008
		c0-0.016,0.003-0.031,0.003-0.047C40.371,25.055,40.379,24.942,40.395,24.834"/>
	<path fill="#E3DDDB" d="M34.417,21.208l-0.002-0.007l-0.004,0.007l0.01,0.01C34.419,21.215,34.418,21.212,34.417,21.208"/>
	<path fill="#525353" d="M10.175,27.768l0.018-0.045c0.27-0.7,0.581-1.383,0.931-2.045c0.054-0.103,0.107-0.207,0.164-0.309
		c0.031-0.056,0.066-0.11,0.098-0.167c0.143-0.252,0.286-0.503,0.44-0.748c0.037-0.058,0.075-0.115,0.112-0.173
		c0.19-0.296,0.389-0.585,0.597-0.869c0.018-0.025,0.035-0.05,0.053-0.075c0.219-0.293,0.447-0.578,0.684-0.856
		c0.05-0.059,0.1-0.119,0.152-0.178c0.235-0.269,0.478-0.531,0.73-0.785c0.05-0.05,0.1-0.098,0.15-0.147
		c0.266-0.264,0.542-0.518,0.826-0.761l0.002-0.002c1.123-3.763,4.75-6.075,8.817-6.075c1.637,0,3.265,0.472,4.659,1.325
		c1.431,0.875,2.407,1.73,3.164,3.225l0.011,0.023c0.019,0.038,0.041,0.074,0.059,0.112l0.002,0.004l0.005,0.003
		c0.636,0.394,1.242,0.834,1.813,1.318c0.192,0.162,0.38,0.328,0.565,0.499c0.061,0.056,0.124,0.109,0.184,0.166
		c0.001-0.002,0.002-0.005,0.004-0.007c0.001-0.002,0.001-0.003,0.002-0.005c0.021-0.042,0.041-0.086,0.062-0.127
		c0.573-3.617,2.394-5.589,4.275-5.589c1.418,0,2.45,0.846,3.228,3.122l0.008,0.024l0.002,0.003c0.23,0.25,0.444,0.515,0.642,0.791
		l0,0c0.004,0.005,0.008,0.011,0.012,0.016l0,0l0,0c0.011,0.033,0.021,0.067,0.032,0.1l0,0l-0.029-0.119
		c-2.341-6.93-8.895-11.92-16.616-11.92c-9.684,0-17.534,7.85-17.534,17.534c0,1.909,0.305,3.747,0.871,5.457l0.002-0.01
		C9.571,29.556,9.84,28.65,10.175,27.768"/>
	<path fill="#FFFFFF" d="M42.91,25.226l-0.612,0.684l0,0l-0.001,0.005c-0.023,0.09-0.052,0.174-0.083,0.255
		c-0.008,0.021-0.017,0.041-0.026,0.062c-0.023,0.056-0.05,0.11-0.079,0.163c-0.015,0.028-0.03,0.056-0.046,0.082
		c-0.025,0.041-0.053,0.078-0.08,0.114c-0.038,0.05-0.08,0.097-0.127,0.14c-0.018,0.017-0.036,0.036-0.055,0.051
		c-0.046,0.036-0.095,0.068-0.148,0.094c-0.088,0.043-0.18,0.068-0.275,0.068c-0.556,0-1.006-0.772-1.006-1.724h-2.019l0.001,0.002
		c0.379,0.438,0.753,0.882,1.12,1.33c0.353,0.431,0.702,0.866,1.046,1.305l0.051,0.064c0.326,0.416,0.649,0.835,0.97,1.256
		l0.093,0.122c0.34,0.448,0.678,0.897,1.014,1.348c0.591-1.749,0.901-3.581,0.92-5.427L43,25.198L42.91,25.226"/>
	<path d="M23.368,17.128c0.046-0.004,0.091-0.006,0.137-0.009c0.315-0.022,0.63-0.034,0.945-0.035c0.951,0,1.88,0.102,2.783,0.287
		l0,0c0.638,0.15,1.77,0.461,2.61,0.816c0.353,0.149,0.699,0.312,1.039,0.488l0.077,0.042l0.021,0.012
		c0.031,0.017,0.066,0.037,0.106,0.059l0.003,0.002l0.153,0.087l0.014,0.008c0.216,0.122,0.455,0.26,0.546,0.312l0.023,0.013
		l0.017,0.01c-0.019-0.038-0.04-0.075-0.059-0.112l-0.011-0.023c-0.757-1.495-1.923-2.777-3.354-3.652
		c-1.395-0.853-3.023-1.325-4.66-1.325c-4.066,0-7.503,2.739-8.626,6.502c1.063-0.908,2.246-1.674,3.52-2.255
		C20.136,17.676,21.74,17.252,23.368,17.128"/>
	<path fill="#BBBCBD" d="M42.646,19.437L42.646,19.437L42.646,19.437c-0.004-0.006-0.008-0.011-0.013-0.016l0,0
		c-0.198-0.276-0.412-0.54-0.642-0.791l-0.006-0.007c-0.098-0.106-0.199-0.21-0.303-0.31c-0.039-0.037-0.078-0.069-0.117-0.105
		c-0.064-0.058-0.128-0.119-0.193-0.172v2.326l0.89,4.078l0,0c0.01,0.032,0.021,0.061,0.03,0.094l0.617,0.691l0.006-0.007h0.645
		c0.001-0.06,0.005-0.119,0.005-0.179v-0.001c0-1.87-0.3-3.728-0.889-5.503l0,0C42.666,19.504,42.657,19.47,42.646,19.437"/>
	<path d="M36.359,18.365c0.715-0.699,1.67-1.265,2.695-1.265c0.811,0,1.59,0.329,2.318,0.93v0.007v0.001v-0.001
		c0.065,0.054,0.129,0.114,0.193,0.172c0.039,0.035,0.079,0.067,0.117,0.104c0.104,0.1,0.205,0.203,0.303,0.31l0.006,0.007
		c0-0.001-0.001-0.002-0.002-0.002l0,0l-0.008-0.025c-0.779-2.277-2.035-3.756-3.453-3.756c-1.882,0-3.477,2.605-4.05,6.222
		l0.006-0.005C34.973,20.093,35.577,19.13,36.359,18.365"/>
	<path d="M33.816,40.593c0,0-0.253-0.201-0.575-0.571c-0.15-0.171-0.289-0.351-0.418-0.538c-0.041-0.06-0.082-0.122-0.122-0.186
		c-0.122-0.192-0.219-0.427-0.326-0.658c-0.124-0.268-0.124-0.446-0.195-0.696c-0.052-0.184-0.094-0.371-0.125-0.559
		c-0.049-0.305-0.069-0.614-0.059-0.923c0.005-0.178,0.024-0.363,0.05-0.551c0.027-0.187,0.063-0.372,0.109-0.555
		c0.142-0.567,0.387-1.171,0.769-1.808l0.097-0.218c0.125-0.208,0.153-0.199,0.271-0.4c1.673-2.823,2.575-4.958,2.134-8.244
		c-0.048-0.337-0.103-0.673-0.165-1.007c-0.038,0.243-0.079,0.485-0.122,0.726c-0.017,0.075-0.062,0.156-0.079,0.207
		c-0.727,2.15-1.87,3.732-3.516,5.518c-0.229,0.248-0.461,0.493-0.696,0.735c-0.419,0.433-0.843,0.862-1.271,1.287
		c-0.178,0.177-0.36,0.357-0.545,0.54c-0.17,0.168-0.381,0.527-0.633,0.792c-0.155,0.435-0.332,0.926-0.482,1.443
		c-0.067-0.026-0.132-0.048-0.2-0.075c-3.197-1.237-5.337-2.889-5.337-2.889s1.647,2.144,4.421,4.157
		c0.255,0.185,0.52,0.356,0.793,0.513c-0.114,1.812,0.685,3.551,4.292,4.07c0.61,0.088,1.235,0.084,1.864,0.013
		c-0.006-0.019,0.035-0.018,0.032-0.029c-0.004-0.011,0.034-0.038,0.034-0.038"/>
	<path fill="#9F2254" d="M31.886,35.93c3.203,0.517,7.943,0.432,12.864-1.872c0.118-0.055,0.249,0.091,0.368,0.032
		c0,0-3.363,3.435-7.379,5.377c-0.118,0.057-0.233,0.117-0.352,0.171c-0.388,0.177-0.783,0.332-1.179,0.474
		c-0.777,0.279-1.565,0.491-2.346,0.589c-0.036,0.005-0.072,0.012-0.108,0.015c-0.005-0.015-0.01-0.03-0.015-0.044l-0.005-0.016
		c0,0-0.253-0.201-0.575-0.571c-0.15-0.171-0.289-0.351-0.418-0.538c-0.179-0.26-0.336-0.535-0.469-0.822
		c-0.112-0.242-0.205-0.493-0.279-0.749c-0.138-0.482-0.2-0.982-0.184-1.483c0.007-0.184,0.024-0.368,0.051-0.551L31.886,35.93"/>
	<path fill="#FCB03F" d="M29.591,32.283c0.428-0.425,0.852-0.854,1.271-1.287c0.235-0.242,0.467-0.488,0.696-0.735
		c1.645-1.786,2.853-3.458,3.58-5.608c0.017-0.051,0.034-0.118,0.051-0.194l0.008-0.035c0.017-0.08,0.034-0.17,0.05-0.27
		c0.007-0.069,0.224-0.209,0.23-0.274c-0.182-0.936-0.602-1.921-1.06-2.672c0.001,0.003,0.002,0.006,0.003,0.009l-0.009-0.009
		c-0.06-0.057-0.123-0.11-0.184-0.166c-0.185-0.17-0.373-0.337-0.565-0.499c-0.571-0.483-1.177-0.924-1.813-1.317
		c0.032,0.526,0.052,1.052,0.058,1.577c0.001,0.059-0.001,0.118-0.001,0.177c0.001,0.204,0.002,0.408-0.002,0.611
		c-0.005,0.262-0.014,0.525-0.028,0.787c-0.01,0.194-0.022,0.387-0.037,0.581c-0.002,0.02-0.004,0.04-0.005,0.06
		c-0.058,0.732-0.152,1.461-0.285,2.184l-0.231,1.094c-0.483,1.958-1.464,3.734-2.271,5.568c-0.214,0.486-0.417,0.978-0.595,1.479
		l-0.05,0.141c0.212-0.223,0.427-0.444,0.645-0.661C29.232,32.64,29.413,32.46,29.591,32.283"/>
	<path fill="#525353" d="M19.007,42.815c1.174-0.519,2.26-0.845,3.551-1.1c-0.007-0.28-0.021-0.559-0.044-0.838
		c0.551-1.428,1.06-2.872,1.525-4.33c-0.823,0.08-1.64,0.206-2.448,0.378c-0.599,0.127-1.19,0.287-1.776,0.463
		c-0.471,0.142-0.936,0.305-1.397,0.478l1.822,0.441l-1.466,4.603L19.007,42.815"/>
	<path fill="#DF0067" d="M41.539,29.175c-0.32-0.421-0.643-0.84-0.97-1.256l-0.051-0.064c-0.348-0.444-0.701-0.884-1.059-1.32
		c-0.363-0.443-0.732-0.881-1.107-1.315c-0.024-0.028-0.047-0.055-0.071-0.083c-0.309-0.355-0.623-0.705-0.941-1.052
		c-0.194-0.212-0.39-0.422-0.588-0.63c-0.154-0.161-0.31-0.321-0.467-0.48c-0.147-0.15-0.294-0.301-0.444-0.449
		c-0.321-0.317-0.648-0.629-0.98-0.934c-0.147-0.135-0.296-0.267-0.447-0.398c-0.001,0.001-0.002,0.003-0.002,0.005
		c0.317,0.91,0.678,1.832,0.859,2.782c0.047,0.247,0.086,0.487,0.118,0.722c0.441,3.287-0.612,5.433-2.284,8.255
		c-0.122,0.206-0.245,0.412-0.369,0.618c-0.382,0.638-0.627,1.242-0.769,1.809c-0.046,0.183-0.082,0.368-0.109,0.555
		c3.28,0.529,8.212,0.628,13.258-1.852c0,0-0.99-1.455-2.479-3.454c-0.333-0.448-0.669-0.894-1.007-1.339
		C41.601,29.257,41.57,29.216,41.539,29.175"/>
	<path fill="#AA9678" d="M18.6,43.735l1.641-5.425l-1.822-0.441c-0.408,0.153-0.813,0.317-1.212,0.495l-1.625,5.372l1.814,0.028
		L18.6,43.735"/>
	<path fill="#FFFFFF" d="M19.754,41.388c0.16,0.062,0.323,0.117,0.486,0.174c1.861,0.653,3.82,0.986,5.793,0.986
		c2.244,0.001,4.467-0.43,6.548-1.269c0.107-0.043,0.212-0.09,0.318-0.135c0.172-0.073,0.342-0.149,0.512-0.227
		c0.151-0.07,0.302-0.14,0.451-0.214c-0.036,0.005-0.072,0.012-0.108,0.015c-0.629,0.071-1.254,0.075-1.864-0.013
		c-3.608-0.519-4.407-2.258-4.292-4.07c-0.273-0.157-0.538-0.328-0.793-0.513c-2.775-2.013-4.422-4.157-4.422-4.157
		s2.14,1.652,5.337,2.889c0.069,0.027,0.133,0.05,0.2,0.075c0.15-0.516,0.326-1.007,0.482-1.443l0.05-0.141
		c0.178-0.501,0.381-0.993,0.595-1.479c0.807-1.834,1.788-3.61,2.271-5.568l0.231-1.094h-1.973l0,0v0.004h-0.001
		c0,0.005,0.001,0.01,0.001,0.016c0,0.469-0.14,0.928-0.402,1.317c-0.256,0.378-0.616,0.675-1.036,0.853
		c-0.366,0.155-0.766,0.214-1.161,0.172c-0.019-0.002-0.037-0.006-0.056-0.008c-0.062-0.008-0.123-0.016-0.183-0.029
		c-0.017-0.004-0.033-0.009-0.049-0.013c-0.061-0.014-0.123-0.029-0.182-0.048c-0.011-0.004-0.021-0.008-0.032-0.012
		c-0.064-0.022-0.128-0.045-0.19-0.072c-0.006-0.002-0.011-0.005-0.016-0.008c-0.067-0.029-0.132-0.062-0.195-0.097l-0.003-0.002
		c-0.202-0.114-0.387-0.257-0.547-0.425l-6.759-1.65h-7.379c-0.032,0.056-0.067,0.11-0.098,0.167
		c-0.056,0.102-0.109,0.206-0.164,0.309c-0.181,0.342-0.352,0.69-0.512,1.043c-0.149,0.33-0.289,0.664-0.42,1.002l-0.018,0.045
		c-0.335,0.882-0.604,1.788-0.803,2.711c1.161,3.542,3.421,6.586,6.375,8.731c0.086,0.062,0.177,0.118,0.264,0.179
		c0.5,0.351,1.018,0.675,1.551,0.973C18.268,40.754,19,41.097,19.754,41.388"/>
	<path fill="#8B7460" d="M37.441,45.581c-0.047-0.469-0.072-0.94-0.073-1.411c0-0.137-0.054-0.269-0.151-0.366
		s-0.229-0.152-0.366-0.152H15.149c-0.137,0-0.269,0.055-0.366,0.152s-0.152,0.229-0.152,0.366c0,0.475-0.028,0.945-0.073,1.411
		c-0.051,0.512-0.129,1.021-0.234,1.525c0.315,0.166,0.632,0.328,0.954,0.482c0.216-0.942,0.342-1.901,0.377-2.867
		c0.001-0.011,0.002-0.023,0.002-0.034h20.684c0,0.011,0.002,0.022,0.002,0.034c0.035,0.965,0.162,1.925,0.377,2.867
		c0.322-0.154,0.64-0.315,0.955-0.482C37.57,46.602,37.492,46.093,37.441,45.581"/>
</g>
</svg>
