<svg width="214" height="44" viewBox="0 0 214 44" fill="none" xmlns="http://www.w3.org/2000/svg">
<path d="M0 6.18709C0.0553484 5.9374 0.118517 5.68893 0.16424 5.43744C0.66779 2.70121 2.97197 0.471593 5.71954 0.0792351C6.09314 0.026034 6.47336 0.00306112 6.85118 0.00306112C26.4572 -0.000566228 46.0631 3.76841e-05 65.6685 3.76841e-05C69.0123 3.76841e-05 71.799 2.34875 72.3633 5.65266C72.421 5.99061 72.4469 6.33762 72.4469 6.68101C72.4517 14.2688 72.4505 21.8566 72.4505 29.4438C72.4505 32.7103 70.035 35.5462 66.8212 36.0402C66.4488 36.0976 66.068 36.1176 65.6908 36.1182C58.851 36.1224 52.0119 36.1212 45.1722 36.1224C44.9869 36.1224 44.8016 36.1375 44.5224 36.1502C45.4802 38.5128 46.4121 40.8126 47.3867 43.2169C47.1725 43.1056 47.051 43.0464 46.9337 42.9811C42.9811 40.7702 39.0309 38.5545 35.0723 36.3557C34.8178 36.2143 34.4941 36.1321 34.2029 36.1315C25.0759 36.12 15.9482 36.097 6.82109 36.1357C3.68609 36.149 0.873542 33.946 0.205751 30.8772C0.135964 30.558 0.0691852 30.2376 0.000601283 29.9178C-3.30505e-07 22.0072 0 14.0971 0 6.18709ZM11.0727 22.9986C10.888 22.2073 10.7027 21.4969 10.5583 20.7775C10.0331 18.161 9.49467 15.5469 9.01398 12.9219C8.67647 11.0786 8.4256 9.21955 8.13201 7.36839C8.00567 6.57219 7.7921 5.78385 6.99977 5.41869C5.97823 4.94714 4.92541 4.99006 4.00374 5.67079C3.07665 6.35515 2.94249 7.35932 3.12117 8.43181C3.41897 10.2219 3.6897 12.0174 4.0278 13.8003C4.66852 17.1792 5.32187 20.5562 6.02275 23.9236C6.49743 26.2028 7.10746 28.4505 7.93167 30.6324C8.18495 31.3022 8.49238 31.9473 9.03624 32.4412C9.40924 32.7798 9.83458 32.9321 10.3423 32.8112C11.0474 32.6432 11.5552 32.1813 12.0214 31.6692C13.0303 30.5623 13.7908 29.283 14.464 27.956C15.8778 25.1684 17.2597 22.3645 18.6548 19.5672C18.703 19.471 18.7583 19.3792 18.8227 19.2619C19.1692 20.3011 19.4748 21.2877 19.825 22.2581C20.9175 25.2845 22.3078 28.1531 24.3653 30.6523C24.9309 31.3397 25.4916 32.0428 26.2731 32.5047C27.7308 33.3656 29.2186 32.7641 29.6024 31.1136C29.7335 30.5496 29.6764 29.9402 29.6902 29.3507C29.7179 28.1616 29.6974 26.9694 29.7654 25.7826C29.8479 24.3492 29.9435 22.9116 30.1378 21.4903C30.4386 19.2927 30.7846 17.0994 31.1919 14.9199C31.6635 12.3941 32.2994 9.91298 33.475 7.59933C34.1259 6.31827 33.6115 4.88668 32.3229 4.20111C31.0553 3.52643 29.6409 3.92483 28.916 5.16296C28.8197 5.3268 28.7301 5.49487 28.6458 5.66535C27.1893 8.61257 26.4331 11.7744 25.873 14.987C25.509 17.0746 25.2437 19.1796 24.9375 21.2575C24.8972 21.159 24.837 21.0242 24.7859 20.8863C23.7595 18.1066 23.0231 15.2476 22.4227 12.3481C22.2603 11.5628 22.0961 10.7539 21.7658 10.0333C21.2333 8.87193 19.8599 8.5497 18.7691 9.22076C18.182 9.58228 17.8023 10.1252 17.4889 10.7201C16.8512 11.9286 16.2219 13.1419 15.589 14.3535C14.0994 17.207 12.608 20.0611 11.0727 22.9986ZM50.2678 16.6877C50.2377 16.285 50.2022 15.883 50.1794 15.4798C50.0928 13.9659 49.7035 12.5392 49.0363 11.1759C47.2495 7.52739 43.0509 6.34185 39.7642 7.59933C38.0719 8.24682 36.8302 9.45714 35.8339 10.9311C33.8119 13.9218 32.9245 17.2299 33.1074 20.8434C33.1928 22.5301 33.561 24.1243 34.319 25.6363C35.9187 28.8272 39.082 29.919 41.9421 29.566C43.904 29.3235 45.4856 28.3345 46.7225 26.8152C49.1157 23.8746 50.201 20.4619 50.2678 16.6877ZM51.6684 20.3295C51.6034 22.3246 52.2507 24.313 52.8758 25.6049C54.8046 29.5913 59.8227 30.6517 63.1899 28.6434C64.7132 27.7348 65.7804 26.3975 66.651 24.8837C67.8584 22.7834 68.5665 20.5302 68.7518 18.1029C68.9239 15.8522 68.738 13.6697 67.8151 11.5785C66.21 7.94272 62.6581 6.61088 59.3817 7.29282C57.4102 7.70332 55.9338 8.87798 54.7607 10.4571C52.6665 13.278 51.6636 16.4658 51.6684 20.3295Z" fill="#7F54B3"/>
<path d="M133.998 28.427C132.194 28.427 130.422 28.427 128.586 28.427C128.112 23.8898 127.638 19.3399 127.151 14.6781C127.089 14.8577 127.054 14.9369 127.034 15.0197C125.97 19.3979 124.905 23.7755 123.851 28.1567C123.793 28.3931 123.701 28.4602 123.472 28.4578C122.453 28.4475 121.433 28.4433 120.414 28.4602C120.146 28.4645 120.053 28.3689 119.991 28.1193C118.907 23.7949 117.813 19.4729 116.722 15.1509C116.693 15.0366 116.66 14.9236 116.557 14.8015C116.522 15.0789 116.48 15.3558 116.452 15.6339C116.04 19.7915 115.63 23.9484 115.22 28.106C115.2 28.3049 115.192 28.4627 114.907 28.4596C113.342 28.4457 111.777 28.4524 110.213 28.4512C110.166 28.4512 110.12 28.4403 110.014 28.427C110.079 27.8841 110.14 27.3478 110.208 26.8122C110.552 24.0971 110.899 21.3821 111.245 18.6676C111.567 16.1418 111.889 13.6159 112.211 11.0895C112.32 10.228 112.428 9.36587 112.533 8.50317C112.557 8.30789 112.562 8.14527 112.849 8.14708C114.994 8.15917 117.14 8.15373 119.286 8.15554C119.344 8.15554 119.402 8.17005 119.517 8.18517C120.27 11.8331 121.025 15.4913 121.768 19.0926C122.555 15.4852 123.352 11.8319 124.15 8.17308C126.556 8.17308 128.897 8.17308 131.275 8.17308C132.182 14.9206 133.088 21.659 133.998 28.427Z" fill="black"/>
<path d="M134.696 28.4004C135.554 21.6523 136.41 14.9175 137.268 8.16944C139.576 8.16944 141.848 8.16944 144.201 8.16944C144.956 11.8258 145.714 15.4961 146.456 19.0908C147.241 15.4931 148.041 11.8252 148.839 8.164C151.241 8.164 153.562 8.164 155.932 8.164C156.838 14.9085 157.744 21.6475 158.655 28.4215C156.842 28.4215 155.062 28.4215 153.242 28.4215C152.77 23.8867 152.296 19.3526 151.823 14.8178C151.796 14.8166 151.768 14.8153 151.74 14.8147C151.519 15.7313 151.297 16.6484 151.077 17.5649C150.226 21.1015 149.377 24.6382 148.519 28.1724C148.493 28.2789 148.362 28.4379 148.279 28.4391C147.119 28.4566 145.957 28.4512 144.77 28.4512C143.615 23.8789 142.464 19.3247 141.314 14.77C141.288 14.7712 141.262 14.773 141.237 14.7742C141.177 15.3377 141.114 15.8999 141.058 16.464C140.672 20.3604 140.287 24.2567 139.902 28.1531C139.886 28.3115 139.883 28.456 139.653 28.4548C138.041 28.4463 136.429 28.4469 134.817 28.4433C134.795 28.4433 134.773 28.4288 134.696 28.4004Z" fill="black"/>
<path d="M109.041 13.8203C108.414 11.607 107.264 9.77758 105.199 8.64766C103.58 7.76138 101.826 7.52258 100.009 7.60359C96.3412 7.76682 93.673 9.7939 92.5287 13.2979C91.9211 15.1575 91.811 17.0734 91.8916 19.011C91.9554 20.5411 92.1738 22.0447 92.6984 23.4877C93.4829 25.6472 94.8064 27.3345 96.9638 28.251C98.4576 28.8852 100.03 29.0333 101.632 28.9221C104.713 28.7087 106.981 27.2511 108.349 24.4435C109.31 22.4727 109.564 20.3585 109.577 18.5165C109.575 16.7167 109.446 15.2506 109.041 13.8203ZM103.339 21.9703C103.127 22.8729 102.68 23.6292 101.81 24.0518C100.338 24.767 98.744 24.1274 98.1779 22.5869C97.8205 21.6148 97.7513 20.5907 97.7008 19.5684C97.6798 19.1416 97.6972 18.7123 97.6972 18.2843C97.6641 16.9966 97.705 15.7113 98.0931 14.4702C98.2056 14.1104 98.353 13.7507 98.5467 13.4291C99.4708 11.8899 101.56 11.7847 102.647 13.2151C103.234 13.9865 103.47 14.8964 103.592 15.8352C103.859 17.8932 103.815 19.9438 103.339 21.9703Z" fill="black"/>
<path d="M178.31 19.2788C178.31 22.3209 178.31 25.3631 178.31 28.4288C176.482 28.4288 174.686 28.4288 172.867 28.4288C172.867 21.6862 172.867 14.9514 172.867 8.17307C172.982 8.16642 173.106 8.15372 173.229 8.15372C175.327 8.15252 177.425 8.13559 179.523 8.15796C181.294 8.1767 183.005 8.48865 184.582 9.36405C187.951 11.2339 188.309 15.3951 186.137 17.8847C185.874 18.1864 185.563 18.4536 185.243 18.6954C184.934 18.93 184.584 19.1113 184.226 19.332C185.659 22.3403 187.098 25.3613 188.561 28.4324C188.411 28.4403 188.3 28.4512 188.188 28.4512C186.506 28.4524 184.822 28.4451 183.14 28.4584C182.872 28.4608 182.75 28.3671 182.638 28.1313C181.278 25.2663 179.905 22.4074 178.536 19.5466C178.49 19.4517 178.441 19.358 178.393 19.2643C178.365 19.2697 178.337 19.274 178.31 19.2788ZM178.319 11.9842C178.319 13.683 178.319 15.2651 178.319 16.8442C179.017 16.9089 180.137 16.7197 180.705 16.4519C181.133 16.2506 181.498 15.9809 181.707 15.5378C182.253 14.3831 181.646 12.8124 180.44 12.4207C179.774 12.2049 179.062 12.1323 178.319 11.9842Z" fill="black"/>
<path d="M202.96 8.17609C206.63 8.17609 210.286 8.17609 213.967 8.17609C213.967 9.60828 213.967 11.0296 213.967 12.4751C212.116 12.4751 210.283 12.4751 208.422 12.4751C208.422 13.7169 208.422 14.935 208.422 16.1822C210.011 16.1822 211.594 16.1822 213.205 16.1822C213.205 17.5963 213.205 18.9813 213.205 20.3978C211.618 20.3978 210.036 20.3978 208.425 20.3978C208.425 21.645 208.425 22.8608 208.425 24.1044C210.283 24.1044 212.128 24.1044 214 24.1044C214 25.5541 214 26.9766 214 28.4257C210.33 28.4257 206.653 28.4257 202.959 28.4257C202.96 21.6704 202.96 14.9356 202.96 8.17609Z" fill="black"/>
<path d="M160.24 8.19C163.917 8.19 167.566 8.19 171.241 8.19C171.241 9.6222 171.241 11.0441 171.241 12.5144C169.394 12.5144 167.552 12.5144 165.692 12.5144C165.692 13.7604 165.692 14.958 165.692 16.1925C167.286 16.1925 168.868 16.1925 170.479 16.1925C170.479 17.6133 170.479 18.9971 170.479 20.4166C168.891 20.4166 167.309 20.4166 165.699 20.4166C165.699 21.6596 165.699 22.8675 165.699 24.128C167.543 24.128 169.393 24.128 171.261 24.128C171.261 25.5934 171.261 27.0069 171.261 28.4481C167.595 28.4481 163.929 28.4481 160.241 28.4481C160.24 21.7043 160.24 14.9671 160.24 8.19Z" fill="black"/>
<path d="M90.7095 8.01529C90.7095 9.61011 90.7095 11.2019 90.7095 12.7961C90.0333 12.6794 89.3751 12.5507 88.7127 12.4546C85.079 11.9286 83.2711 14.6255 82.9408 16.9652C82.7363 18.4131 82.8031 19.8477 83.4318 21.1959C84.2969 23.0506 85.7708 24.0427 87.8109 24.05C88.6526 24.053 89.4954 23.8511 90.3371 23.7386C90.4502 23.7235 90.5609 23.6878 90.7023 23.6552C90.7023 25.2772 90.7023 26.8666 90.7023 28.4778C89.6236 28.8109 88.5184 28.9729 87.3856 28.9529C85.4592 28.9197 83.6195 28.5322 81.9554 27.5207C79.2175 25.857 77.6647 23.3856 77.1834 20.2328C76.8555 18.0848 76.9073 15.941 77.7567 13.9121C79.2048 10.4553 81.8014 8.38951 85.4887 7.76198C87.1034 7.4869 88.7218 7.56307 90.3257 7.90163C90.4069 7.91855 90.4869 7.93911 90.5663 7.96148C90.6108 7.97417 90.6535 7.99413 90.7095 8.01529Z" fill="black"/>
<path d="M201.409 23.6558C201.409 25.2676 201.409 26.8479 201.409 28.4989C200.949 28.5999 200.474 28.7347 199.99 28.8054C197.329 29.1929 194.782 28.8538 192.472 27.4077C189.781 25.7234 188.301 23.2235 187.857 20.0956C187.552 17.9542 187.621 15.8237 188.492 13.8166C190.069 10.1826 192.866 8.14707 196.782 7.6864C198.202 7.51954 199.619 7.59813 201.021 7.90222C201.146 7.92943 201.27 7.9657 201.409 8.00077C201.409 9.60768 201.409 11.1995 201.409 12.7967C200.745 12.6825 200.088 12.5543 199.426 12.4576C195.959 11.9491 194.148 14.3571 193.705 16.597C193.365 18.3188 193.457 20.0206 194.327 21.5906C195.227 23.2133 196.646 24.0536 198.485 24.05C199.339 24.0482 200.193 23.8474 201.047 23.7338C201.16 23.7175 201.272 23.6854 201.409 23.6558Z" fill="black"/>
<path d="M45.1668 16.8799C45.1223 19.0067 44.6747 20.8428 43.5605 22.4721C43.0575 23.2072 42.4174 23.8099 41.5962 24.1811C40.6541 24.6067 39.8636 24.3921 39.2547 23.5566C38.741 22.8517 38.4534 22.0392 38.3054 21.1952C37.779 18.2002 38.617 15.5789 40.5476 13.2822C40.9104 12.8505 41.3544 12.5126 41.903 12.3379C42.7291 12.0743 43.4612 12.2883 43.987 12.9787C44.6067 13.7924 44.8967 14.7458 45.0633 15.7379C45.1349 16.1701 45.1433 16.6121 45.1668 16.8799Z" fill="#7F54B3"/>
<path d="M56.717 19.9263C56.7351 17.2215 57.5635 15.0838 59.162 13.252C59.4147 12.9624 59.7407 12.7175 60.074 12.5235C61.0625 11.9485 62.072 12.2024 62.7025 13.1595C63.2626 14.0095 63.5826 14.9647 63.6837 15.9616C63.9027 18.1326 63.5008 20.1959 62.3957 22.093C61.9336 22.8862 61.3031 23.5295 60.5192 24.0095C59.381 24.7059 58.3564 24.4653 57.6754 23.313C57.0136 22.1934 56.7471 20.9589 56.717 19.9263Z" fill="#7F54B3"/>
</svg>
