<?xml version="1.0" encoding="utf-8"?>
<!-- Generator: Adobe Illustrator 17.0.0, SVG Export Plug-In . SVG Version: 6.00 Build 0)  -->
<!DOCTYPE svg PUBLIC "-//W3C//DTD SVG 1.1//EN" "http://www.w3.org/Graphics/SVG/1.1/DTD/svg11.dtd">
<svg version="1.1" id="Layer_1" xmlns="http://www.w3.org/2000/svg" xmlns:xlink="http://www.w3.org/1999/xlink" x="0px" y="0px"
	 width="52px" height="52px" viewBox="0 0 52 52" enable-background="new 0 0 52 52" xml:space="preserve">
<g>
	<path fill="#FBBD71" d="M29.617,16.683c-0.965,0.481-1.383,1.378-1.383,3.813c0,0,0.482-0.481,1.254-0.769
		c0.563-0.208,0.965-0.481,1.254-0.689c0.836-0.625,0.965-1.378,0.965-2.692C31.691,16.346,30.373,16.266,29.617,16.683z"/>
	<path d="M23.717,17.244c-0.836,0.689-1.045,1.875-1.045,1.875l-2.701,10.318l-2.219-8.444c-0.209-0.897-0.627-2.003-1.254-2.772
		c-0.771-0.977-2.379-1.041-2.572-1.041c-0.145,0-1.736,0.064-2.572,1.041c-0.627,0.769-1.045,1.875-1.254,2.772l-2.09,8.444
		L5.309,19.119c0,0-0.209-1.106-1.045-1.875C2.945,16.058,1,16.347,1,16.347l5.145,19.308c0,0,1.672,0.144,2.508-0.273
		c1.109-0.561,1.672-0.961,2.299-3.605c0.627-2.355,2.299-9.213,2.428-9.694c0.064-0.208,0.209-0.833,0.627-0.833
		s0.563,0.561,0.627,0.833c0.145,0.481,1.801,7.339,2.428,9.694c0.691,2.628,1.174,3.044,2.299,3.605
		c0.836,0.417,2.508,0.273,2.508,0.273l5.113-19.308C26.981,16.347,25.035,16.074,23.717,17.244z"/>
	<path d="M31.691,19.455c0,0-0.354,0.481-1.045,0.897c-0.482,0.272-0.9,0.417-1.383,0.689c-0.836,0.417-1.045,0.833-1.045,1.458
		v0.208v1.041v0.208v11.633c0,0,1.318,0.144,2.154-0.272c1.109-0.561,1.318-1.106,1.318-3.461V20.224L31.691,19.455L31.691,19.455z"
		/>
	<path d="M44.473,26.04L51,16.41c0,0-2.701-0.481-4.1,0.769c-0.9,0.769-1.8,2.211-1.8,2.211l-2.363,3.461
		c-0.145,0.208-0.273,0.353-0.482,0.353s-0.418-0.208-0.482-0.353L39.41,19.39c0,0-0.965-1.378-1.801-2.211
		c-1.383-1.25-4.1-0.769-4.1-0.769l6.318,9.614l-6.463,9.614c0,0,2.846,0.352,4.244-0.897c0.9-0.769,1.736-2.083,1.736-2.083
		l2.363-3.461c0.145-0.208,0.273-0.353,0.482-0.353s0.418,0.208,0.482,0.353l2.363,3.461c0,0,0.9,1.314,1.736,2.083
		c1.383,1.25,4.164,0.897,4.164,0.897L44.473,26.04z"/>
</g>
</svg>
