<svg width="214" height="53" viewBox="0 0 214 53" fill="none" xmlns="http://www.w3.org/2000/svg">
<path d="M80.0183 11.6865H68.176C67.3656 11.6865 66.6764 12.2752 66.55 13.0752L61.7604 43.442C61.6652 44.0411 62.1293 44.5814 62.7371 44.5814H68.3907C69.2011 44.5814 69.8902 43.9926 70.0166 43.1909L71.3084 35.0005C71.4331 34.1988 72.124 33.6101 72.9326 33.6101H76.6815C84.4823 33.6101 88.9844 29.8352 90.1602 22.3548C90.69 19.0821 90.1827 16.5107 88.6502 14.7098C86.9671 12.7323 83.9819 11.6865 80.0183 11.6865ZM81.3845 22.7773C80.7369 27.0266 77.4902 27.0266 74.3508 27.0266H72.5638L73.8175 19.0907C73.8919 18.6111 74.3075 18.2578 74.7924 18.2578H75.6114C77.7499 18.2578 79.7672 18.2578 80.8096 19.4769C81.4313 20.2041 81.6217 21.2846 81.3845 22.7773Z" fill="#253B80"/>
<path d="M115.417 22.6405H109.746C109.263 22.6405 108.846 22.9937 108.771 23.4734L108.52 25.0595L108.124 24.4846C106.896 22.7028 104.158 22.1071 101.426 22.1071C95.1593 22.1071 89.8069 26.8534 88.7645 33.5114C88.2225 36.8325 88.9931 40.0083 90.8771 42.223C92.6052 44.2593 95.0779 45.1078 98.0198 45.1078C103.069 45.1078 105.869 41.8611 105.869 41.8611L105.616 43.4368C105.521 44.0394 105.985 44.5797 106.589 44.5797H111.698C112.51 44.5797 113.195 43.9909 113.324 43.1892L116.388 23.7799C116.485 23.1825 116.023 22.6405 115.417 22.6405ZM107.512 33.6776C106.965 36.9174 104.394 39.0923 101.114 39.0923C99.4675 39.0923 98.1514 38.5641 97.3064 37.5633C96.4683 36.5693 96.1497 35.1546 96.4164 33.5789C96.9272 30.3668 99.5419 28.1209 102.771 28.1209C104.382 28.1209 105.691 28.656 106.553 29.6655C107.417 30.6854 107.76 32.1088 107.512 33.6776Z" fill="#253B80"/>
<path d="M145.619 22.6405H139.921C139.377 22.6405 138.866 22.9106 138.558 23.3625L130.698 34.9399L127.367 23.8145C127.157 23.1184 126.515 22.6405 125.788 22.6405H120.188C119.507 22.6405 119.034 23.3054 119.251 23.9461L125.528 42.3667L119.627 50.6973C119.162 51.3536 119.63 52.2558 120.432 52.2558H126.123C126.664 52.2558 127.169 51.9926 127.476 51.5493L146.43 24.1902C146.883 23.5357 146.418 22.6405 145.619 22.6405Z" fill="#253B80"/>
<path d="M164.487 11.6865H152.643C151.834 11.6865 151.145 12.2752 151.018 13.0752L146.229 43.442C146.134 44.0411 146.598 44.5814 147.202 44.5814H153.28C153.844 44.5814 154.328 44.1693 154.416 43.6082L155.775 35.0005C155.9 34.1988 156.591 33.6101 157.399 33.6101H161.147C168.949 33.6101 173.449 29.8352 174.627 22.3548C175.158 19.0821 174.648 16.5107 173.115 14.7098C171.434 12.7323 168.45 11.6865 164.487 11.6865ZM165.853 22.7773C165.207 27.0266 161.96 27.0266 158.819 27.0266H157.034L158.289 19.0907C158.364 18.6111 158.776 18.2578 159.263 18.2578H160.082C162.218 18.2578 164.237 18.2578 165.28 19.4769C165.901 20.2041 166.09 21.2846 165.853 22.7773Z" fill="#179BD7"/>
<path d="M199.884 22.6405H194.216C193.73 22.6405 193.316 22.9937 193.243 23.4734L192.992 25.0595L192.594 24.4846C191.366 22.7028 188.63 22.1071 185.898 22.1071C179.631 22.1071 174.281 26.8534 173.238 33.5114C172.698 36.8325 173.465 40.0083 175.349 42.223C177.081 44.2593 179.55 45.1078 182.492 45.1078C187.541 45.1078 190.341 41.8611 190.341 41.8611L190.088 43.4368C189.993 44.0394 190.457 44.5797 191.065 44.5797H196.171C196.98 44.5797 197.669 43.9909 197.795 43.1892L200.862 23.7799C200.956 23.1825 200.492 22.6405 199.884 22.6405ZM191.979 33.6776C191.435 36.9174 188.861 39.0923 185.581 39.0923C183.938 39.0923 182.618 38.5641 181.773 37.5633C180.935 36.5693 180.62 35.1546 180.883 33.5789C181.397 30.3668 184.009 28.1209 187.238 28.1209C188.848 28.1209 190.157 28.656 191.02 29.6655C191.887 30.6854 192.23 32.1088 191.979 33.6776Z" fill="#179BD7"/>
<path d="M206.569 12.5194L201.709 43.442C201.614 44.0411 202.078 44.5814 202.682 44.5814H207.569C208.381 44.5814 209.07 43.9926 209.195 43.1909L213.988 12.8259C214.083 12.2267 213.619 11.6847 213.014 11.6847H207.543C207.06 11.6865 206.644 12.0397 206.569 12.5194Z" fill="#179BD7"/>
<path d="M12.5817 50.4826L13.4873 44.7303L11.47 44.6836H1.83722L8.53153 2.23721C8.55231 2.10908 8.61984 1.9896 8.71854 1.90475C8.81724 1.8199 8.94364 1.77315 9.07524 1.77315H25.3175C30.7097 1.77315 34.4308 2.89521 36.3737 5.10991C37.2845 6.14886 37.8646 7.23457 38.1451 8.42936C38.4395 9.68303 38.4447 11.1808 38.1572 13.0077L38.1364 13.141V14.3116L39.0472 14.8276C39.8143 15.2345 40.4239 15.7003 40.8914 16.2336C41.6706 17.1219 42.1745 18.2509 42.3875 19.5894C42.6074 20.966 42.5347 22.6041 42.1745 24.4586C41.7589 26.592 41.0871 28.4499 40.1797 29.9703C39.3451 31.3711 38.2819 32.533 37.0196 33.4334C35.8144 34.2889 34.3824 34.9382 32.7633 35.3538C31.1945 35.7624 29.4058 35.9685 27.4439 35.9685H26.1798C25.276 35.9685 24.398 36.294 23.7089 36.8776C23.018 37.4732 22.5608 38.2871 22.4206 39.1771L22.3253 39.6949L20.7253 49.8333L20.6526 50.2056C20.6336 50.3233 20.6007 50.3822 20.5522 50.422C20.5089 50.4584 20.4466 50.4826 20.386 50.4826H12.5817Z" fill="#253B80"/>
<path d="M39.9096 13.276C39.8611 13.586 39.8057 13.9029 39.7433 14.2284C37.6013 25.2257 30.2733 29.0248 20.9141 29.0248H16.1487C15.0042 29.0248 14.0397 29.856 13.8613 30.985L11.4215 46.4584L10.7306 50.8445C10.6146 51.5856 11.186 52.254 11.9341 52.254H20.3859C21.3868 52.254 22.237 51.5268 22.3946 50.5398L22.4777 50.1103L24.069 40.0117L24.1712 39.4576C24.327 38.4671 25.179 37.7399 26.1798 37.7399H27.4439C35.6325 37.7399 42.0429 34.4152 43.9164 24.7946C44.6991 20.7755 44.2939 17.4197 42.2229 15.0596C41.5961 14.3479 40.8186 13.7574 39.9096 13.276Z" fill="#179BD7"/>
<path d="M37.6689 12.3826C37.3417 12.2873 37.004 12.2007 36.6577 12.1228C36.3096 12.0466 35.9529 11.9791 35.5858 11.9202C34.301 11.7124 32.8932 11.6137 31.385 11.6137H18.6544C18.341 11.6137 18.0431 11.6847 17.7765 11.8129C17.1895 12.0951 16.7531 12.651 16.6475 13.3315L13.9393 30.4846L13.8614 30.985C14.0397 29.856 15.0042 29.0248 16.1488 29.0248H20.9141C30.2733 29.0248 37.6014 25.224 39.7434 14.2284C39.8074 13.9029 39.8611 13.586 39.9096 13.2761C39.3676 12.9886 38.7806 12.7427 38.1486 12.5332C37.9927 12.4813 37.8317 12.431 37.6689 12.3826Z" fill="#222D65"/>
<path d="M16.6474 13.3315C16.7531 12.651 17.1894 12.0951 17.7764 11.8146C18.0448 11.6865 18.3409 11.6155 18.6543 11.6155H31.385C32.8932 11.6155 34.3009 11.7142 35.5858 11.922C35.9529 11.9808 36.3096 12.0484 36.6576 12.1246C37.0039 12.2025 37.3416 12.2891 37.6689 12.3843C37.8316 12.4328 37.9927 12.483 38.1503 12.5332C38.7823 12.7427 39.3693 12.9903 39.9113 13.2761C40.5485 9.21203 39.9061 6.44496 37.7087 3.93936C35.2862 1.18094 30.914 0 25.3192 0H9.07695C7.9341 0 6.95922 0.831161 6.7826 1.96189L0.0172965 44.8446C-0.116036 45.6931 0.538504 46.4584 1.39391 46.4584H11.4215L13.9392 30.4846L16.6474 13.3315Z" fill="#253B80"/>
</svg>
