<svg width="214" height="61" viewBox="0 0 214 61" fill="none" xmlns="http://www.w3.org/2000/svg">
<path d="M46.3472 11.5463C46.3056 11.2435 46.0411 11.0755 45.8215 11.0572C45.6037 11.0389 41.3349 10.974 41.3349 10.974C41.3349 10.974 37.7648 7.50712 37.4121 7.15444C37.0595 6.80176 36.3708 6.90823 36.1029 6.98808C36.0996 6.98975 35.4325 7.19603 34.3096 7.54372C34.1217 6.93485 33.8454 6.18623 33.4512 5.4343C32.1803 3.0088 30.3187 1.72619 28.0695 1.72287C28.0662 1.72287 28.0645 1.72287 28.0612 1.72287C27.9048 1.72287 27.7501 1.73784 27.5938 1.75114C27.5272 1.67129 27.4607 1.59311 27.3908 1.51657C26.4109 0.468526 25.155 -0.0421921 23.6494 0.00272444C20.7448 0.0859033 17.8519 2.18367 15.5062 5.91008C13.856 8.53188 12.5999 11.8258 12.2439 14.376C8.90845 15.4091 6.57611 16.131 6.52455 16.1477C4.841 16.6767 4.78778 16.7283 4.56818 18.3154C4.40515 19.5148 0 53.5783 0 53.5783L36.9164 59.963L52.9167 55.9854C52.9167 55.9854 46.3888 11.8491 46.3472 11.5463ZM32.4614 8.11598C31.6113 8.37883 30.6447 8.67828 29.5966 9.00268C29.5751 7.53207 29.4004 5.48588 28.715 3.71749C30.9192 4.13505 32.0039 6.62875 32.4614 8.11598ZM27.6652 9.60156C25.7305 10.2004 23.6194 10.8542 21.5017 11.5097C22.0973 9.22892 23.2269 6.95814 24.6143 5.46924C25.13 4.91527 25.852 4.29808 26.707 3.9454C27.5105 5.62228 27.6852 7.99621 27.6652 9.60156ZM23.7076 1.9358C24.3897 1.92083 24.9636 2.07055 25.4544 2.39328C24.6692 2.80086 23.9106 3.38644 23.1986 4.15002C21.3536 6.12968 19.9396 9.2023 19.3756 12.1668C17.6172 12.7108 15.8971 13.2448 14.3134 13.7339C15.3133 9.06756 19.2242 2.06556 23.7076 1.9358Z" fill="#95BF47"/>
<path d="M45.8231 11.0589C45.6053 11.0406 41.3365 10.9757 41.3365 10.9757C41.3365 10.9757 37.7665 7.5088 37.4138 7.15613C37.2824 7.0247 37.1044 6.9565 36.918 6.92822L36.9197 59.9614L52.9184 55.9855C52.9184 55.9855 46.3905 11.8508 46.3489 11.548C46.3072 11.2452 46.0411 11.0772 45.8231 11.0589Z" fill="#5E8E3E"/>
<path d="M28.0495 19.2853L26.1913 26.2373C26.1913 26.2373 24.1185 25.2941 21.6614 25.4488C18.0581 25.6768 18.0198 27.9492 18.0565 28.5198C18.2527 31.629 26.4325 32.3078 26.8917 39.5909C27.2527 45.3203 23.8523 49.2396 18.9531 49.549C13.0723 49.92 9.83502 46.4515 9.83502 46.4515L11.0811 41.1513C11.0811 41.1513 14.34 43.6101 16.9484 43.4454C18.652 43.3373 19.2608 41.9515 19.1993 40.9716C18.9431 36.9158 12.2821 37.1554 11.8613 30.4911C11.5069 24.8833 15.1901 19.2005 23.3166 18.6881C26.4475 18.4868 28.0495 19.2853 28.0495 19.2853Z" fill="white"/>
<path d="M73.9866 33.8428C72.1468 32.8446 71.2013 32.0031 71.2013 30.8464C71.2013 29.3746 72.5147 28.4291 74.5657 28.4291C76.9532 28.4291 79.085 29.4274 79.085 29.4274L80.7664 24.276C80.7664 24.276 79.2203 23.0666 74.6696 23.0666C68.3368 23.0666 63.9479 26.6933 63.9479 31.7918C63.9479 34.6826 65.9972 36.8904 68.7312 38.4661C70.9389 39.7267 71.7277 40.6211 71.7277 41.9345C71.7277 43.3007 70.6238 44.4045 68.5745 44.4045C65.5203 44.4045 62.6361 42.8271 62.6361 42.8271L60.8492 47.9784C60.8492 47.9784 63.5139 49.7654 67.997 49.7654C74.5145 49.7654 79.1924 46.5594 79.1924 40.7778C79.1907 37.6791 76.8262 35.4713 73.9866 33.8428Z" fill="black"/>
<path d="M99.9513 23.0154C96.7451 23.0154 94.2223 24.5401 92.2786 26.8518L92.1729 26.7989L94.9581 12.2409H87.7047L80.6624 49.2935H87.9159L90.3332 36.628C91.2786 31.8447 93.7487 28.9027 96.062 28.9027C97.6905 28.9027 98.3225 30.0065 98.3225 31.5839C98.3225 32.5822 98.2169 33.7917 98.0073 34.79L95.2749 49.2952H102.529L105.366 34.3164C105.682 32.7389 105.893 30.8481 105.893 29.5858C105.89 25.4855 103.735 23.0154 99.9513 23.0154Z" fill="black"/>
<path d="M122.288 23.0154C113.562 23.0154 107.783 30.8992 107.783 39.6756C107.783 45.2989 111.25 49.8183 117.768 49.8183C126.335 49.8183 132.117 42.1457 132.117 33.1581C132.117 27.9556 129.067 23.0154 122.288 23.0154ZM118.714 44.2494C116.243 44.2494 115.192 42.1473 115.192 39.5188C115.192 35.3674 117.348 28.5876 121.289 28.5876C123.865 28.5876 124.704 30.7952 124.704 32.9502C124.704 37.4167 122.551 44.2494 118.714 44.2494Z" fill="black"/>
<path d="M150.669 23.0154C145.773 23.0154 142.995 27.3253 142.995 27.3253H142.891L143.312 23.4362H136.9C136.585 26.0646 136.005 30.0577 135.428 33.0541L130.383 59.5945H137.636L139.632 48.8728H139.791C139.791 48.8728 141.279 49.8183 144.048 49.8183C152.562 49.8183 158.132 41.0947 158.132 32.2638C158.132 27.3781 155.977 23.0154 150.669 23.0154ZM143.731 44.3533C141.849 44.3533 140.734 43.3023 140.734 43.3023L141.943 36.5225C142.785 32.0031 145.149 29.0066 147.673 29.0066C149.881 29.0066 150.563 31.056 150.563 33.0014C150.563 37.6791 147.778 44.3533 143.731 44.3533Z" fill="black"/>
<path d="M168.486 12.6088C166.175 12.6088 164.335 14.4486 164.335 16.813C164.335 18.968 165.701 20.4398 167.751 20.4398H167.855C170.116 20.4398 172.06 18.9151 172.113 16.2356C172.113 14.1334 170.694 12.6088 168.486 12.6088Z" fill="black"/>
<path d="M158.343 49.2935H165.595L170.537 23.5945H163.23L158.343 49.2935Z" fill="black"/>
<path d="M188.984 23.5418H183.939L184.2 22.3323C184.621 19.8622 186.093 17.6545 188.511 17.6545C189.801 17.6545 190.822 18.0225 190.822 18.0225L192.241 12.3465C192.241 12.3465 190.98 11.7162 188.299 11.7162C185.723 11.7162 183.15 12.452 181.204 14.1334C178.734 16.2356 177.577 19.2831 177 22.3323L176.791 23.5418H173.426L172.375 29.0083H175.74L171.903 49.2952H179.156L182.993 29.0083H187.986L188.984 23.5418Z" fill="black"/>
<path d="M206.433 23.5947C206.433 23.5947 201.898 35.0176 199.863 41.2531H199.757C199.619 39.245 197.97 23.5947 197.97 23.5947H190.349L194.713 47.1914C194.819 47.7162 194.766 48.033 194.555 48.4009C193.713 50.0294 192.294 51.6069 190.612 52.7636C189.246 53.7617 187.722 54.3921 186.514 54.8128L188.511 60.9624C189.983 60.6473 193.03 59.4378 195.605 57.0205C198.917 53.9201 201.964 49.1368 205.117 42.6192L214 23.593H206.433V23.5947Z" fill="black"/>
</svg>
