<svg width="214" height="49" viewBox="0 0 214 49" fill="none" xmlns="http://www.w3.org/2000/svg">
<path d="M0.0134663 48.177C0.120378 48.2844 0.227289 48.3919 0.334702 48.4993C0.0666707 48.5533 -0.0402403 48.4458 0.0134663 48.177Z" fill="#D7D6D9"/>
<path d="M109.025 28.1104C109.025 31.281 109.025 34.4516 109.025 37.6222C109.025 38.7152 109.012 39.8082 109.032 40.9007C109.039 41.285 108.899 41.4021 108.533 41.3915C107.821 41.3713 107.107 41.3733 106.394 41.391C106.049 41.3995 105.932 41.2815 105.933 40.9254C105.942 35.3529 105.944 29.7809 105.931 24.2084C105.93 23.8054 106.083 23.7398 106.43 23.7454C107.5 23.763 108.571 23.7772 109.639 23.7403C110.127 23.7237 110.366 23.8846 110.543 24.3471C111.95 28.0327 113.381 31.7087 114.806 35.3877C114.876 35.5683 114.951 35.7468 115.064 36.0253C115.646 34.5187 116.195 33.1043 116.74 31.6885C117.682 29.2397 118.63 26.7934 119.554 24.338C119.716 23.9073 119.932 23.7242 120.41 23.7398C121.514 23.7762 122.621 23.762 123.726 23.7449C124.05 23.7398 124.154 23.8332 124.153 24.1676C124.144 29.7577 124.143 35.3479 124.153 40.9385C124.154 41.3057 124.012 41.399 123.679 41.3905C123.002 41.3733 122.322 41.3607 121.646 41.394C121.176 41.4172 121.033 41.2512 121.035 40.7796C121.05 36.7662 121.044 32.7528 121.044 28.7394C121.044 28.5482 121.044 28.357 121.044 28.1659C121.013 28.1588 120.982 28.1512 120.952 28.1442C120.587 29.0612 120.22 29.9771 119.857 30.8946C118.54 34.2317 117.215 37.5657 115.919 40.9113C115.763 41.3138 115.548 41.4157 115.166 41.3905C114.768 41.3642 114.399 41.459 114.186 40.9108C112.568 36.7516 110.913 32.6075 109.269 28.4589C109.219 28.3318 109.167 28.2047 109.117 28.0776C109.087 28.0887 109.056 28.0993 109.025 28.1104Z" fill="#34313F"/>
<path d="M131.726 28.0766C131.726 32.2862 131.715 36.4959 131.738 40.705C131.741 41.2462 131.616 41.4399 131.059 41.3975C130.403 41.3476 129.741 41.3723 129.081 41.391C128.732 41.401 128.617 41.2699 128.618 40.9209C128.625 35.3494 128.626 29.7779 128.617 24.2059C128.616 23.8538 128.723 23.7393 129.074 23.7449C130.197 23.763 131.321 23.7716 132.443 23.7414C132.879 23.7298 133.069 23.9002 133.218 24.2906C134.636 27.9903 136.071 31.683 137.502 35.3776C137.579 35.5753 137.663 35.77 137.767 36.0268C139.05 32.6978 140.308 29.4349 141.565 26.172C141.821 25.5057 142.08 24.8404 142.325 24.1701C142.429 23.8846 142.59 23.7424 142.914 23.7464C144.091 23.761 145.268 23.762 146.444 23.7454C146.781 23.7409 146.868 23.871 146.868 24.1862C146.862 29.7577 146.861 35.3292 146.869 40.9012C146.87 41.279 146.738 41.4046 146.37 41.392C145.711 41.3693 145.048 41.3536 144.391 41.396C143.893 41.4283 143.753 41.2613 143.755 40.7645C143.773 36.5544 143.765 32.3442 143.765 28.0953C143.551 28.1992 143.548 28.4085 143.484 28.5689C141.878 32.6358 140.271 36.7027 138.678 40.7746C138.52 41.1776 138.367 41.4379 137.853 41.4041C137.38 41.3728 137.058 41.3577 136.842 40.8013C135.232 36.6401 133.575 32.4966 131.933 28.3479C131.895 28.2521 131.852 28.1583 131.812 28.064C131.783 28.068 131.754 28.072 131.726 28.0766Z" fill="#34313F"/>
<path d="M151.323 32.5677C151.323 29.8631 151.323 27.1581 151.324 24.4535C151.324 23.7645 151.336 23.7529 152.002 23.7524C155.585 23.7519 159.168 23.761 162.751 23.7418C163.248 23.7393 163.423 23.8886 163.387 24.3854C163.351 24.8843 163.359 25.3892 163.385 25.889C163.408 26.3319 163.242 26.4857 162.798 26.4832C160.249 26.4681 157.7 26.4756 155.151 26.4761C154.46 26.4761 154.428 26.5094 154.427 27.205C154.426 28.2617 154.442 29.3189 154.419 30.3751C154.409 30.8411 154.575 31.0025 155.042 30.999C157.537 30.9824 160.033 31.0035 162.528 30.9814C163.049 30.9768 163.234 31.1402 163.191 31.6623C163.151 32.1606 163.16 32.666 163.189 33.1659C163.216 33.6173 163.036 33.761 162.601 33.7585C160.123 33.7454 157.646 33.752 155.168 33.7525C154.428 33.7525 154.428 33.7535 154.427 34.5065C154.427 35.6349 154.427 36.7637 154.427 37.892C154.428 38.6087 154.443 38.6254 155.139 38.6254C157.653 38.6264 160.166 38.6254 162.679 38.6259C163.367 38.6259 163.379 38.6385 163.38 39.3114C163.381 39.8309 163.371 40.3504 163.383 40.8694C163.392 41.2306 163.248 41.3899 162.879 41.3894C159.208 41.3839 155.535 41.3819 151.864 41.391C151.38 41.392 151.319 41.1272 151.321 40.7358C151.327 38.0131 151.324 35.2904 151.323 32.5677Z" fill="#34313F"/>
<path d="M201.933 32.5293C201.933 29.8238 201.944 27.1177 201.922 24.4122C201.918 23.8957 202.068 23.7383 202.588 23.7414C206.154 23.7625 209.721 23.7519 213.287 23.7524C213.98 23.7524 213.986 23.7585 213.988 24.4303C213.989 24.8964 213.964 25.3635 213.994 25.8275C214.025 26.3132 213.854 26.4888 213.354 26.4847C210.839 26.464 208.325 26.4751 205.811 26.4756C205.036 26.4756 205.036 26.4762 205.036 27.2474C205.036 28.2869 205.058 29.3265 205.026 30.365C205.01 30.8719 205.195 31.0051 205.68 31.001C208.158 30.9803 210.637 31.002 213.115 30.9824C213.614 30.9783 213.849 31.1034 213.8 31.6466C213.76 32.091 213.792 32.5419 213.792 32.9898C213.791 33.752 213.791 33.752 213.005 33.752C210.562 33.752 208.119 33.7631 205.676 33.7429C205.195 33.7389 205.011 33.8665 205.026 34.3779C205.059 35.5597 205.036 36.743 205.037 37.9258C205.037 38.6173 205.044 38.6249 205.714 38.6254C208.246 38.6264 210.779 38.6375 213.31 38.6158C213.821 38.6113 214.032 38.7636 213.996 39.2892C213.963 39.7708 213.966 40.2576 213.996 40.7398C214.025 41.2361 213.824 41.397 213.34 41.394C210.7 41.3778 208.061 41.3864 205.423 41.3864C204.531 41.3864 203.639 41.3864 202.748 41.3864C201.934 41.3864 201.934 41.3859 201.934 40.593C201.933 37.9046 201.933 35.2167 201.933 32.5293Z" fill="#34313F"/>
<path d="M192.256 41.6209C187.57 41.6144 183.948 38.3222 183.496 33.636C183.179 30.3534 184.04 27.492 186.624 25.3206C189.625 22.7981 194.312 22.7023 197.211 25.0613C197.839 25.5718 198.353 26.1861 198.811 26.8534C199.031 27.1757 199.001 27.3972 198.641 27.5833C198.072 27.8773 197.509 28.185 196.953 28.5043C196.708 28.6455 196.537 28.6324 196.364 28.3923C195.044 26.5508 193.262 25.7937 191.054 26.284C188.821 26.7798 187.393 28.2339 186.791 30.4225C186.137 32.8017 186.462 35.0397 188.102 36.975C190.299 39.5676 194.241 39.4465 196.261 36.7213C196.52 36.3723 196.735 36.3289 197.096 36.5438C197.585 36.8338 198.098 37.086 198.612 37.3311C199.019 37.5253 199.065 37.7477 198.805 38.1215C197.212 40.4109 195.057 41.6225 192.256 41.6209Z" fill="#34313F"/>
<path d="M68.3812 32.5551C68.3843 28.1416 70.9125 24.7506 74.9751 23.7131C78.4822 22.8178 81.7643 23.988 83.6902 26.8217C84.0426 27.3397 84.0235 27.4229 83.4789 27.7205C82.9634 28.0024 82.4434 28.2758 81.9324 28.5658C81.6765 28.7116 81.4963 28.7136 81.304 28.4438C80.0984 26.7485 78.4556 25.9768 76.3996 26.286C74.1349 26.627 72.6346 27.9737 71.8546 30.1118C70.8723 32.8052 71.6237 35.9259 73.6561 37.6257C75.8114 39.4284 79.2376 39.5424 81.2353 36.7733C81.4571 36.4656 81.6529 36.3909 81.9856 36.5801C82.5117 36.8787 83.0487 37.1586 83.5913 37.4255C83.9397 37.5964 84.031 37.7921 83.7951 38.1356C82.0911 40.6182 79.7641 41.8515 76.7465 41.6709C73.7419 41.4913 71.3537 40.2006 69.7315 37.6126C68.7667 36.0727 68.3777 34.3628 68.3812 32.5551Z" fill="#34313F"/>
<path d="M65.6914 27.6151C65.6914 28.8715 65.6778 30.0351 65.6994 31.1982C65.7059 31.5559 65.598 31.6471 65.2497 31.6446C63.0562 31.629 60.8633 31.636 58.6698 31.6371C58.0459 31.6376 57.9576 31.7208 57.9511 32.3412C57.9445 32.9681 57.9676 33.5961 57.944 34.2226C57.9245 34.7385 58.1458 34.9176 58.6457 34.9075C59.7686 34.8853 60.8929 34.9156 62.0157 34.8929C62.4569 34.8838 62.6486 35.0255 62.5929 35.481C62.5668 35.6929 62.5568 35.9163 62.5939 36.1246C62.736 36.9145 62.352 37.3407 61.6804 37.667C59.6707 38.645 57.678 38.7116 55.7857 37.4617C53.8518 36.1841 53.2058 34.2397 53.3729 32.0068C53.6063 28.8866 55.9172 26.7364 58.9349 26.7838C60.4477 26.808 61.6925 27.4451 62.6582 28.5986C62.9649 28.9653 63.2118 28.9986 63.6063 28.7605C64.2588 28.3676 64.941 28.0241 65.6914 27.6151Z" fill="#34313F"/>
<path d="M30.7032 38.0877C29.9367 38.0877 29.1698 38.0776 28.4038 38.0922C28.0419 38.0993 27.8818 37.9601 27.8853 37.5904C27.8943 36.5695 27.8938 35.5481 27.8858 34.5272C27.8833 34.1832 28.0419 34.0385 28.3702 34.041C29.9382 34.0526 31.5088 34.0107 33.0738 34.0894C34.4692 34.1595 35.2261 35.2873 34.9033 36.6456C34.7081 37.4658 34.0531 38.0131 33.1094 38.06C32.3093 38.0998 31.5058 38.068 30.7037 38.068C30.7032 38.0751 30.7032 38.0816 30.7032 38.0877Z" fill="#34313F"/>
<path d="M30.6164 30.7766C29.9051 30.7766 29.1929 30.7609 28.4821 30.7821C28.0535 30.7947 27.8663 30.6474 27.8778 30.196C27.8999 29.3209 27.8984 28.4443 27.8778 27.5687C27.8683 27.1692 28.0169 27.036 28.4089 27.0406C29.7962 27.0567 31.1836 27.036 32.5709 27.0506C33.644 27.0617 34.3683 27.5666 34.5701 28.4024C34.8723 29.6523 34.1404 30.6797 32.857 30.7508C32.1126 30.7922 31.3637 30.7584 30.6169 30.7584C30.6164 30.765 30.6164 30.7705 30.6164 30.7766Z" fill="#34313F"/>
<path d="M65.6914 39.5701C65.6914 39.4198 65.6914 39.27 65.6914 39.039C65.5292 39.1651 65.4454 39.2256 65.3671 39.2922C62.9558 41.342 60.1686 42.0446 57.0897 41.515C49.8418 40.2682 48.0128 32.8587 50.6545 28.0554C52.3048 25.0543 55.0228 23.6985 58.3471 23.5083C61.2061 23.3444 63.6254 24.2957 65.469 26.5629C65.5222 26.628 65.5654 26.7208 65.6788 26.6668C65.6828 26.631 65.6909 26.5967 65.6909 26.5619C65.6914 17.9979 65.6914 9.43435 65.6929 0.870322C65.6929 0.55407 65.6658 0.249419 65.3531 0.0809532C64.9957 -0.111724 64.7136 0.0733859 64.4285 0.283212C53.9517 7.99028 43.4723 15.6948 32.9944 23.4004C32.8614 23.4982 32.737 23.6072 32.5462 23.7615C33.2816 23.7756 33.9195 23.7731 34.5555 23.8715C36.4267 24.162 37.932 25.5002 38.3074 27.2287C38.725 29.1534 37.932 31.1377 36.3062 31.9629C35.9212 32.1586 35.9533 32.377 36.3554 32.5959C38.1508 33.5729 39.0568 35.4618 38.6899 37.4618C38.2422 39.901 36.4733 41.3385 33.8668 41.3486C30.8718 41.3607 27.8762 41.3521 24.8812 41.3511C24.187 41.3511 24.1775 41.3395 24.1775 40.6152C24.177 37.2469 24.1775 33.8791 24.1775 30.5108C24.1775 30.3393 24.1775 30.1678 24.1775 29.9907C23.93 29.9887 23.8186 30.1471 23.6811 30.248C21.3782 31.9347 19.0773 33.6244 16.777 35.3151C11.189 39.4228 5.60145 43.5311 0.0134277 47.6393C0.0134277 47.8184 0.0134277 47.9979 0.0134277 48.177C0.0631191 48.3419 0.170031 48.4494 0.334665 48.4993C22.0192 48.4993 43.7037 48.4993 65.3887 48.4993C65.6271 48.238 65.7004 47.9354 65.6989 47.5778C65.6858 44.9091 65.6914 42.2393 65.6914 39.5701ZM45.4228 41.3572C44.5685 41.3203 43.7112 41.3365 42.8554 41.3521C42.485 41.3592 42.36 41.2179 42.3605 40.8457C42.369 35.3267 42.369 29.8076 42.3605 24.2886C42.36 23.8821 42.5216 23.757 42.9036 23.7646C43.7594 23.7812 44.6157 23.7893 45.471 23.762C45.9257 23.7474 46.0487 23.926 46.0462 24.3618C46.0312 27.1031 46.0387 29.845 46.0387 32.5863C46.0387 35.2919 46.0276 37.9979 46.0487 40.7035C46.0527 41.1892 45.9313 41.3793 45.4228 41.3572Z" fill="#34313F"/>
<path d="M177.487 35.1759C177.08 34.5212 177.085 34.505 177.798 34.267C178.698 33.9663 179.491 33.4867 180.061 32.721C181.452 30.8548 181.569 28.8029 180.645 26.742C179.721 24.6836 177.939 23.8115 175.771 23.7646C173.311 23.7116 170.85 23.7661 168.389 23.7414C167.873 23.7363 167.717 23.8886 167.722 24.4077C167.744 27.1132 167.732 29.8187 167.732 32.5243C167.732 35.2656 167.742 38.007 167.723 40.7484C167.72 41.2462 167.881 41.4222 168.372 41.3935C168.94 41.3602 169.513 41.3864 170.083 41.3854C170.791 41.3844 170.83 41.3481 170.83 40.6238C170.832 38.868 170.841 37.1117 170.824 35.3559C170.82 34.9393 170.958 34.7708 171.377 34.7835C172.036 34.8031 172.696 34.8041 173.355 34.7824C173.719 34.7703 173.935 34.8969 174.123 35.2213C175.231 37.1384 176.371 39.037 177.478 40.9552C177.666 41.2805 177.874 41.4051 178.24 41.393C178.97 41.3688 179.701 41.3874 180.433 41.3849C180.642 41.3839 180.887 41.4444 181.018 41.2215C181.162 40.9758 180.977 40.7847 180.855 40.5895C179.732 38.7853 178.609 36.9806 177.487 35.1759ZM171.268 32.0532C170.888 32.0567 170.83 31.8474 170.833 31.5397C170.84 30.77 170.835 30.0003 170.835 29.2306C170.835 28.4786 170.837 27.727 170.834 26.9755C170.833 26.7238 170.86 26.4782 171.179 26.4827C172.655 26.5019 174.14 26.3536 175.607 26.5473C177.148 26.7505 178.104 27.9111 178.031 29.3219C177.952 30.8598 176.887 31.9715 175.329 32.0345C173.977 32.0885 172.622 32.0406 171.268 32.0532Z" fill="#34313F"/>
<path d="M100.002 25.9092C96.1853 22.1999 90.0472 22.7674 87.139 27.1213C85.7115 29.2589 85.3476 31.6472 85.7035 34.1575C86.5974 40.4614 92.5383 42.9773 97.4939 41.0929C100.82 39.8284 102.887 36.5957 102.888 32.782C102.889 30.1395 101.878 27.7326 100.002 25.9092ZM99.0534 35.9622C98.0701 38.006 96.0328 39.0879 93.7901 38.9099C91.545 38.7318 89.7511 37.2716 89.0318 35.0367C88.7889 34.2821 88.6669 33.5083 88.6599 32.7154C88.6338 31.118 88.968 29.618 89.9403 28.3232C92.2291 25.2737 96.997 25.5445 98.8787 28.8634C100.188 31.172 100.194 33.5911 99.0534 35.9622Z" fill="#34313F"/>
</svg>
