<?xml version="1.0" encoding="utf-8"?>
<!-- Generator: Adobe Illustrator 17.0.0, SVG Export Plug-In . SVG Version: 6.00 Build 0)  -->
<!DOCTYPE svg PUBLIC "-//W3C//DTD SVG 1.1//EN" "http://www.w3.org/Graphics/SVG/1.1/DTD/svg11.dtd">
<svg version="1.1" id="Layer_1" xmlns="http://www.w3.org/2000/svg" xmlns:xlink="http://www.w3.org/1999/xlink" x="0px" y="0px"
	 width="52px" height="52px" viewBox="0 0 52 52" enable-background="new 0 0 52 52" xml:space="preserve">
<g>
	<path fill="#27346A" d="M40.637,4.77C38.362,2.131,34.247,1,28.984,1H13.709c-0.521,0-1.024,0.189-1.42,0.533
		s-0.658,0.82-0.74,1.344l-6.36,41.034c-0.126,0.809,0.49,1.542,1.296,1.542h9.431l2.368-15.281l-0.075,0.478
		c0.169-1.08,1.077-1.877,2.152-1.877h4.481c8.804,0,15.697-3.637,17.711-14.16c0.06-0.311,0.112-0.614,0.156-0.91
		c-0.254-0.137-0.254-0.137,0,0C43.309,9.814,42.706,7.167,40.637,4.77"/>
	<path fill="#253B80" d="M21.891,12.302c0.258-0.125,0.54-0.19,0.825-0.189h11.976c1.418,0,2.741,0.094,3.95,0.292
		c0.338,0.055,0.675,0.12,1.009,0.196c0.474,0.106,0.942,0.236,1.403,0.39c0.594,0.202,1.148,0.437,1.656,0.712
		c0.599-3.891-0.004-6.536-2.072-8.933C38.36,2.131,34.247,1,28.984,1H13.707c-1.076,0-1.991,0.797-2.159,1.877L5.188,43.91
		c-0.126,0.81,0.49,1.542,1.294,1.542h9.432l4.914-31.698c0.048-0.312,0.17-0.606,0.356-0.859
		C21.368,12.642,21.611,12.439,21.891,12.302L21.891,12.302z"/>
	<path fill="#179BD7" d="M42.553,14.613c-2.014,10.521-8.907,14.16-17.711,14.16H20.36c-1.075,0-1.984,0.797-2.151,1.877l-2.946,19
		C15.152,50.358,15.691,51,16.395,51h7.95c0.455,0,0.896-0.165,1.242-0.466c0.346-0.301,0.576-0.718,0.647-1.175l0.078-0.412
		l1.498-9.66l0.097-0.534c0.071-0.458,0.3-0.874,0.647-1.175c0.346-0.301,0.787-0.466,1.242-0.466h1.19
		c7.701,0,13.731-3.183,15.493-12.387c0.736-3.846,0.355-7.058-1.591-9.313c-0.59-0.683-1.323-1.247-2.177-1.708
		C42.663,14.001,42.613,14.302,42.553,14.613L42.553,14.613z"/>
	<path fill="#222D65" d="M40.602,12.849c-0.314-0.093-0.631-0.176-0.95-0.248c-0.335-0.075-0.671-0.14-1.009-0.195
		c-1.21-0.199-2.532-0.293-3.951-0.293H22.717c-0.285-0.001-0.567,0.064-0.825,0.191c-0.28,0.136-0.523,0.339-0.708,0.592
		c-0.185,0.253-0.307,0.548-0.355,0.86l-2.545,16.415L18.21,30.65c0.167-1.08,1.076-1.877,2.151-1.877h4.483
		c8.804,0,15.697-3.637,17.711-14.16c0.06-0.311,0.11-0.613,0.156-0.91c-0.51-0.274-1.062-0.51-1.656-0.711
		C40.905,12.942,40.754,12.894,40.602,12.849"/>
</g>
</svg>
