<svg width="214" height="102" viewBox="0 0 214 102" fill="none" xmlns="http://www.w3.org/2000/svg">
<path d="M22.9421 7.78469V36.5665C22.9421 36.5665 33.0837 36.5665 38.5115 36.1545C42.7799 35.4072 43.5655 34.9952 44.3512 30.7268L45.9225 24.4751H50.5646L49.7789 38.1378L50.1909 52.1359H45.5105L44.3512 46.6698C43.1919 42.7799 41.6206 41.9894 38.5115 41.6158C34.6215 41.2038 22.9421 41.2038 22.9421 41.2038V65.3435C22.9421 69.9856 25.2991 71.9689 30.7268 71.9689H47.0818C52.1359 71.9689 57.1852 71.5569 60.3326 64.1842L64.5626 54.8282H68.4909C68.0789 56.7732 66.134 73.9139 65.7603 77.7703C65.7603 77.7703 50.9766 77.3966 44.7632 77.3966H16.7287L0 77.7703V73.5402L5.42773 72.3425C9.356 71.5569 10.5153 70.3976 10.5153 67.2885C10.5153 67.2885 10.9273 56.7732 10.9273 39.254C10.9273 21.778 10.5153 11.2579 10.5153 11.2579C10.5153 7.77511 9.356 6.98946 5.42773 6.2038L0 5.05406V0.785655L16.355 1.121H47.4938C53.7072 1.121 64.1842 0 64.1842 0C64.1842 0 63.8105 6.58705 63.3985 22.1564H59.1301L57.5588 16.6904C56.0258 9.69134 53.7024 6.20859 49.4005 6.20859H24.9254C22.9421 6.21338 22.9421 6.58705 22.9421 7.78469ZM85.967 10.8555H90.6474V27.2105L106.629 26.4248L105.843 33.8359L90.2737 32.6382V61.4584C90.2737 69.6167 93.0043 72.7593 97.6847 72.7593C101.915 72.7593 105.057 70.4024 106.217 68.4574L108.535 71.188C106.217 76.6157 99.6297 79.3464 93.378 79.3464C85.6316 79.3464 79.3416 74.7043 79.3416 65.7603V33.0454H70.0574V29.1555C77.8469 28.3698 83.6483 23.6894 85.967 10.8555ZM119.463 61.0416L122.567 68.4526C123.726 71.5569 126.457 74.7043 132.67 74.7043C139.296 74.7043 142.026 71.188 142.026 66.9196C142.026 53.6689 115.942 57.5636 115.942 39.6708C115.942 29.5675 124.1 24.8487 134.615 24.8487C139.296 24.8487 146.295 25.6344 149.811 27.2057C149.025 31.0957 148.613 36.1497 148.613 40.0445L144.757 40.4181L142.026 32.6334C141.241 30.7268 138.098 29.1507 134.242 29.1507C129.561 29.1507 124.886 31.0957 124.886 36.1497C124.886 48.2028 151.756 45.5057 151.756 63.3985C151.756 73.5402 142.812 78.9679 131.885 78.9679C123.726 78.9679 115.53 75.8253 115.53 75.8253C116.315 71.1832 115.942 66.134 115.53 61.0416H119.463V61.0416ZM149.816 98.3937C150.975 94.1253 151.761 88.7024 152.546 83.61L156.815 83.2363L158.386 91.3947C158.76 93.3397 159.919 94.911 163.028 94.911C168.082 94.911 174.708 91.8067 180.955 80.9129C178.186 74.2875 170.027 52.9167 162.616 36.5617C160.671 32.2598 160.298 31.8813 157.6 31.0957L155.617 30.3483V26.42L167.33 26.832L181.702 26.0464V29.9411L178.186 30.7268C175.455 31.1004 174.329 32.6334 174.329 34.2095C174.329 34.6215 174.329 34.9952 174.703 35.7808C175.45 38.1378 181.702 55.6186 186.382 67.2933C190.239 59.1349 197.65 40.8349 198.809 37.7258C199.221 36.1545 199.595 35.7808 199.595 34.6215C199.595 32.6382 198.435 31.4789 195.738 30.7316L192.969 29.9411V26.0512L203.897 26.4248L214 26.0512V29.9411L212.055 31.4741C208.165 33.0454 207.753 33.4191 206.215 36.5617L189.113 76.6062C178.971 99.5866 168.456 101.532 161.078 101.532C156.403 101.536 152.887 100.339 149.816 98.3937Z" fill="#F45800"/>
</svg>
