<svg width="214" height="83" viewBox="0 0 214 83" fill="none" xmlns="http://www.w3.org/2000/svg">
<path d="M122.482 1.5703C118.354 3.62764 116.565 7.46802 116.565 17.8919C116.565 17.8919 118.629 15.8346 121.932 14.6002C124.34 13.7086 126.06 12.5428 127.299 11.6513C130.877 8.97674 131.428 5.75357 131.428 0.130156C131.359 0.130156 125.716 -0.212735 122.482 1.5703Z" fill="#FBBD71"/>
<path d="M97.2289 3.97259C93.6508 6.92145 92.7563 11.9962 92.7563 11.9962L81.1961 56.1606L71.7003 20.0199C70.8058 16.1795 69.0167 11.4476 66.3331 8.15586C63.0302 3.97259 56.1492 3.69828 55.3235 3.69828C54.7042 3.69828 47.892 3.97259 44.3138 8.15586C41.6302 11.4476 39.8412 16.1795 38.9466 20.0199L30.0013 56.1606L18.4412 11.9962C18.4412 11.9962 17.5466 7.26434 13.9685 3.97259C8.32604 -1.10219 0 0.132214 0 0.132214L22.0193 82.7689C22.0193 82.7689 29.1756 83.3861 32.7537 81.6031C37.5016 79.2028 39.91 77.4884 42.5936 66.173C45.2772 56.092 52.4334 26.7405 52.9839 24.6832C53.2592 23.7917 53.8785 21.1171 55.6675 21.1171C57.4566 21.1171 58.0759 23.5174 58.3511 24.6832C58.9704 26.7405 66.0579 56.092 68.7415 66.173C71.7003 77.4198 73.7646 79.2028 78.5813 81.6031C82.1595 83.3861 89.3158 82.7689 89.3158 82.7689L111.197 0.132214C111.197 0.132214 102.871 -1.03361 97.2289 3.97259Z" fill="black"/>
<path d="M131.359 13.4342C131.359 13.4342 129.845 15.4915 126.886 17.2746C124.822 18.4404 123.033 19.0576 120.968 20.2234C117.39 22.0064 116.496 23.7895 116.496 26.464V27.3555V31.8131V32.7046V82.4924C116.496 82.4924 122.138 83.1096 125.716 81.3266C130.464 78.9263 131.359 76.5947 131.359 66.5137V16.7259V13.4342Z" fill="black"/>
<path d="M186.063 41.6199L214 0.404385C214 0.404385 202.44 -1.65296 196.453 3.69614C192.6 6.98789 188.747 13.1599 188.747 13.1599L178.632 27.9728C178.012 28.8643 177.462 29.4815 176.567 29.4815C175.673 29.4815 174.778 28.59 174.503 27.9728L164.388 13.1599C164.388 13.1599 160.259 7.2622 156.681 3.69614C150.763 -1.65296 139.134 0.404385 139.134 0.404385L166.177 41.5513L138.515 82.6982C138.515 82.6982 150.695 84.2069 156.681 78.8578C160.534 75.5661 164.113 69.9427 164.113 69.9427L174.228 55.1298C174.847 54.2383 175.397 53.621 176.292 53.621C177.186 53.621 178.081 54.5126 178.356 55.1298L188.471 69.9427C188.471 69.9427 192.325 75.5661 195.903 78.8578C201.821 84.2069 213.725 82.6982 213.725 82.6982L186.063 41.6199Z" fill="black"/>
</svg>
