<svg width="214" height="35" viewBox="0 0 214 35" fill="none" xmlns="http://www.w3.org/2000/svg">
<path d="M77.7106 20.8905C77.6749 20.6765 77.6749 20.4982 77.6749 20.2842C77.6749 18.5364 78.2456 17.1453 79.4227 16.1466C80.4927 15.1836 81.8838 14.6842 83.3105 14.6842C85.1653 14.6842 86.485 15.3619 87.1984 16.7886L77.7106 20.8905ZM91.3003 18.358C91.3359 16.3963 90.4799 14.5415 88.9462 13.2931C87.4124 12.0091 85.4506 11.3314 83.1322 11.3314C81.6698 11.3314 80.2074 11.6524 78.9233 12.3301C77.5679 13.0434 76.3908 14.0778 75.5705 15.3976C74.6431 16.8243 74.1794 18.5007 74.215 20.2128C74.215 22.8523 75.0711 24.9567 76.8189 26.5618C78.4953 28.1312 80.7424 29.023 83.0608 28.9873C85.843 28.9873 88.2328 27.9172 90.2659 25.8128L88.1614 23.4587C87.0201 24.9211 85.2723 25.7414 83.4175 25.7058C81.4914 25.7058 79.9934 25.0281 78.852 23.6727L91.3003 18.4294V18.358Z" fill="#281143"/>
<path d="M70.0774 12.4371C69.0787 13.1148 68.2583 14.0422 67.6876 15.0765V11.6167H64.1208V28.7019H67.7233V21.3899C67.7233 19.4281 68.187 17.8944 69.0787 16.7173C69.9704 15.5402 71.2902 14.9695 73.0736 14.9695H73.2519V11.367C72.1105 11.4027 71.0048 11.7594 70.0774 12.4371Z" fill="#281143"/>
<path d="M104.212 20.0345C103.713 19.6778 103.142 19.3924 102.572 19.1428C102.072 18.9288 101.537 18.7147 101.002 18.5721C100.467 18.3937 99.8607 18.2511 99.183 18.0727C98.6123 17.93 98.0773 17.7517 97.5423 17.5377C97.0072 17.3593 96.6862 16.86 96.6862 16.2893C96.6506 15.7186 96.9716 15.1479 97.5066 14.8982C98.1486 14.5772 98.862 14.4345 99.5754 14.4345C101.216 14.4345 102.786 14.8982 104.141 15.8256L105.496 13.1505C103.856 12.0091 101.894 11.4027 99.8964 11.4027C97.899 11.4027 96.3295 11.8664 95.0811 12.8651C93.8684 13.7568 93.1907 15.1836 93.262 16.6816C93.262 18.9288 95.0455 20.5338 98.5767 21.4969C98.648 21.5326 98.7907 21.5682 98.969 21.6039C101.216 22.2816 102.358 23.0663 102.358 23.9223C102.358 24.493 102.108 25.0281 101.68 25.3491C101.109 25.7414 100.431 25.9555 99.7537 25.9198C97.899 25.9198 95.9729 25.1708 93.9754 23.6727L92.2277 26.4905C93.2977 27.3109 94.5104 27.9529 95.7945 28.3809C97.0429 28.8089 98.3626 29.0229 99.6824 29.0586C101.537 29.0586 103.035 28.5593 104.248 27.5962C105.425 26.6332 106.067 25.2064 106.031 23.6727C105.924 21.9606 105.354 20.7835 104.212 20.0345Z" fill="#281143"/>
<path d="M56.5591 17.502C55.81 18.3224 54.3476 18.7147 52.2432 18.7147H47.856V9.72627H51.7082C53.7413 9.72627 55.275 10.0473 56.2737 10.6893C57.2368 11.3313 57.7361 12.4371 57.7361 13.9708C57.7005 15.4689 57.3081 16.6816 56.5591 17.502ZM59.2342 8.22819C57.6648 6.94412 55.168 6.26642 51.7795 6.26642H44.0394V28.7376H47.856V22.1032H51.8508C55.168 22.1032 57.5935 21.4612 59.1986 20.2128C60.8036 18.9288 61.624 16.967 61.624 14.2205C61.5884 11.5097 60.8036 9.51226 59.2342 8.22819Z" fill="#281143"/>
<path d="M114.342 25.8484C113.664 25.8841 112.987 25.6344 112.523 25.1351C112.095 24.6 111.845 23.8867 111.881 23.1733V14.5059H116.411V11.6167H111.881V6.26642H108.278V23.1376C108.278 24.9567 108.813 26.3478 109.919 27.4535C110.954 28.4879 112.38 29.0586 113.843 29.0586C115.376 29.0586 116.768 28.4879 118.016 27.3465L116.554 24.8141C115.876 25.4918 115.127 25.8484 114.342 25.8484Z" fill="#281143"/>
<path d="M130.857 24.2077C129.929 25.2421 128.61 25.8128 127.254 25.7771C125.863 25.7771 124.543 25.2421 123.545 24.2434C122.475 23.209 121.975 21.8536 121.975 20.2485C121.94 18.7504 122.475 17.2523 123.509 16.1466C124.436 15.1122 125.792 14.5059 127.218 14.5059C128.61 14.4702 129.929 15.0766 130.857 16.1466C131.855 17.2167 132.319 18.6078 132.319 20.2485C132.355 21.7109 131.82 23.1377 130.857 24.2077ZM132.283 14.5772C130.821 12.4371 128.966 11.367 126.719 11.367C124.543 11.3314 122.403 12.1874 120.869 13.7568C119.229 15.3619 118.408 17.4664 118.408 20.1058C118.408 22.7453 119.229 24.9211 120.834 26.5618C122.296 28.1312 124.365 29.023 126.505 28.9873C127.611 28.9873 128.717 28.7019 129.715 28.2026C130.75 27.6676 131.677 26.9185 132.319 25.9555V28.7733H135.922V11.6881H132.283V14.5772Z" fill="#281143"/>
<path d="M189.21 24.2077C187.035 26.3121 183.61 26.3121 181.435 24.2077C180.4 23.1376 179.901 21.8179 179.901 20.1771C179.901 18.5364 180.4 17.181 181.435 16.1466C183.61 14.0422 187.035 14.0422 189.21 16.1466C190.245 17.2167 190.744 18.5364 190.744 20.1771C190.744 21.8179 190.245 23.1733 189.21 24.2077ZM185.358 11.367C182.79 11.367 180.614 12.2231 178.902 13.9351C175.478 17.395 175.478 22.995 178.902 26.4548C180.614 28.1669 182.754 29.0229 185.358 29.0229C187.962 29.0229 190.066 28.1669 191.814 26.4548C195.238 22.995 195.238 17.395 191.814 13.9351C190.066 12.2231 187.926 11.367 185.358 11.367Z" fill="#DF1668"/>
<path d="M208.792 24.2077C207.829 25.2064 206.474 25.7415 205.083 25.7415C203.692 25.7771 202.408 25.2064 201.48 24.172C200.482 23.102 200.018 21.7822 200.018 20.1772C200.018 18.5721 200.482 17.181 201.48 16.1109C202.408 15.0766 203.727 14.4702 205.118 14.4702C206.545 14.4702 207.865 15.0409 208.828 16.1109C209.862 17.2167 210.433 18.7148 210.362 20.2128C210.362 21.8536 209.827 23.209 208.792 24.2077ZM211.539 13.7568C209.969 12.1874 207.865 11.3314 205.654 11.367C203.371 11.367 201.516 12.4371 200.089 14.6129V11.6524H196.487V34.9796H200.089V26.1695C201.801 28.0599 203.727 28.9873 205.903 28.9873C208.079 28.9873 209.934 28.1669 211.574 26.5262C213.215 24.8854 214 22.7453 214 20.0702C214 17.395 213.144 15.3262 211.539 13.7568Z" fill="#DF1668"/>
<path d="M167.952 11.367C166.775 11.367 165.598 11.688 164.599 12.2587C163.6 12.8294 162.78 13.6855 162.281 14.7199V4.87534H158.678V28.7019H162.281V19.4638C162.281 17.8587 162.744 16.646 163.672 15.8612C164.563 15.0409 165.74 14.6129 166.918 14.6129C169.521 14.6129 170.841 16.1823 170.841 19.3568V28.7376H174.444V18.2154C174.444 16.0039 173.837 14.2562 172.66 13.0791C171.483 11.9377 169.878 11.367 167.952 11.367Z" fill="#DF1668"/>
<path d="M154.362 17.8944C153.185 16.8956 151.473 16.1109 149.155 15.5402C146.836 14.9695 145.338 14.4702 144.625 13.9708C143.947 13.5071 143.555 12.7224 143.555 11.902C143.519 11.0817 143.911 10.297 144.625 9.86893C145.445 9.40524 146.372 9.15556 147.335 9.19123C148.477 9.19123 149.618 9.36958 150.688 9.76193C151.687 10.0829 152.614 10.5823 153.399 11.2243L155.432 8.37085C154.362 7.47914 153.114 6.80144 151.758 6.37341C150.367 5.90972 148.941 5.66005 147.478 5.69571C145.267 5.69571 143.376 6.26641 141.878 7.37213C140.38 8.47786 139.631 10.1186 139.631 12.1874C139.631 14.2562 140.309 15.7899 141.629 16.8243C142.306 17.3593 143.091 17.823 143.911 18.1084C145.124 18.5364 146.408 18.9287 147.692 19.1784C149.333 19.5708 150.474 20.0345 151.188 20.4982C151.865 20.9618 152.222 21.7109 152.222 22.5313C152.258 23.3516 151.83 24.1363 151.152 24.6C150.439 25.0994 149.476 25.3847 148.227 25.3847C145.802 25.3847 143.448 24.386 141.165 22.4243L138.775 25.2777C141.486 27.7032 144.625 28.9159 148.12 28.9159C150.546 28.9159 152.472 28.3096 153.934 27.0968C155.361 25.9554 156.181 24.172 156.146 22.3173C156.11 20.3555 155.504 18.9644 154.362 17.8944Z" fill="#DF1668"/>
<path d="M11.2957 26.8115C11.581 26.7045 11.8664 26.5618 12.1517 26.4905C12.4727 26.3835 12.7938 26.2408 13.1148 26.1695C13.5428 26.0625 13.9351 25.9198 14.3632 25.8484C14.9339 25.7414 15.5046 25.6344 16.0753 25.5631C15.7542 26.5975 15.3976 27.5962 15.0052 28.5949C15.0409 28.7733 15.0409 28.9873 15.0409 29.1656C16.646 28.8446 18.251 28.8446 19.8561 29.1656C19.8561 28.9873 19.8561 28.7733 19.8918 28.5949C19.4994 27.5962 19.1428 26.5618 18.8217 25.5631C19.3924 25.6344 19.9631 25.7414 20.5338 25.8484C20.9619 25.9198 21.3899 26.0625 21.7822 26.1695C22.1032 26.2765 22.4243 26.3835 22.7453 26.4905C23.0306 26.5975 23.316 26.7045 23.6013 26.8115C25.6344 27.7032 27.4179 29.0229 28.8803 30.6994C36.1923 24.386 36.977 13.3645 30.6994 6.0524C24.4217 -1.25965 13.3645 -2.04436 6.0524 4.23331C-1.25965 10.511 -2.04436 21.5682 4.23331 28.8803C4.80401 29.5223 5.41037 30.1287 6.0524 30.6994C7.51481 29.0586 9.29824 27.7389 11.2957 26.8115Z" fill="#B2DEEB"/>
<path d="M12.4728 29.986C13.2932 29.6293 14.1849 29.344 15.0766 29.1656C15.0766 28.9873 15.0766 28.7733 15.0409 28.5949C15.4333 27.5962 15.79 26.5618 16.111 25.5631C15.5403 25.6344 14.9696 25.7414 14.3989 25.8484C13.9709 25.9198 13.5428 26.0625 13.1505 26.1695C12.8295 26.2765 12.5085 26.3835 12.1874 26.4905L13.4715 26.7758L12.4728 29.986Z" fill="#5C5A58"/>
<path d="M9.47655 31.8764C9.51222 31.5554 9.54788 31.1987 9.54788 30.8777C9.54788 30.6994 9.69056 30.521 9.8689 30.521C9.8689 30.521 9.8689 30.521 9.90457 30.521H10.2256L11.3313 26.8115C9.2982 27.7032 7.51478 29.0229 6.05237 30.6994C6.87274 31.4127 7.76446 32.0191 8.69184 32.5541C8.94152 32.3045 9.1912 32.0904 9.47655 31.8764Z" fill="#5C5A58"/>
<path d="M23.6013 26.8115L24.707 30.521H25.0281C25.2064 30.521 25.3847 30.6637 25.3847 30.842C25.3847 30.842 25.3847 30.842 25.3847 30.8777C25.3847 31.1987 25.4204 31.5554 25.4561 31.8764C25.7414 32.1261 25.9911 32.3758 26.2408 32.5898C27.1682 32.0548 28.0599 31.4127 28.8803 30.735C27.4535 29.0586 25.6344 27.7389 23.6013 26.8115Z" fill="#5C5A58"/>
<path d="M21.4969 26.7758L22.7453 26.4905C22.4243 26.3835 22.1033 26.2408 21.7823 26.1695C21.3542 26.0625 20.9619 25.9198 20.5339 25.8484C19.9632 25.7414 19.3925 25.6344 18.8218 25.5631C19.1428 26.5975 19.4995 27.5962 19.8918 28.5949C19.8562 28.7733 19.8562 28.9873 19.8562 29.1656C20.7479 29.344 21.6039 29.5936 22.46 29.986L21.4969 26.7758Z" fill="#5C5A58"/>
<path d="M17.4307 30.521H19.8918C19.8562 30.0573 19.8205 29.6293 19.8205 29.1656C18.2154 28.8446 16.6103 28.8446 15.0052 29.1656C15.0052 29.6293 15.0052 30.0573 14.9339 30.521H17.4307Z" fill="#010101"/>
<path d="M8.69189 32.5898C8.90591 32.6968 9.11992 32.8395 9.29826 32.9108C9.3696 32.5541 9.40526 32.2331 9.44093 31.8408C9.15559 32.0905 8.90591 32.3401 8.69189 32.5898Z" fill="#010101"/>
<path d="M12.2944 30.521H15.0052C15.0408 30.0573 15.0765 29.6293 15.0765 29.1656C14.1848 29.344 13.3288 29.5936 12.4727 29.986L12.2944 30.521Z" fill="#010101"/>
<path d="M25.4561 31.8764C25.4917 32.2331 25.5274 32.5898 25.5987 32.9465C25.8127 32.8395 26.0268 32.7325 26.2051 32.6254C25.9911 32.3401 25.7414 32.0904 25.4561 31.8764Z" fill="#010101"/>
<path d="M22.6383 30.521L22.4956 29.986C21.6752 29.6293 20.7835 29.344 19.8918 29.1656C19.8918 29.6293 19.8918 30.0573 19.9631 30.521H22.6383Z" fill="#010101"/>
<path d="M12.2944 30.521L12.4371 29.986L13.4002 26.7758L12.1518 26.4905C11.8664 26.5975 11.5811 26.7045 11.2957 26.8115L10.19 30.521H12.2944Z" fill="#B29975"/>
<path d="M22.4242 29.986L22.5669 30.521H24.6714L23.5656 26.8115C23.2803 26.7045 22.9949 26.5618 22.7096 26.4905L21.4612 26.7758L22.4242 29.986Z" fill="#B29975"/>
<path d="M17.4307 31.2344H10.2613L10.2257 31.27C10.19 31.9477 10.083 32.6255 9.94031 33.3032C12.2944 34.4089 14.8269 34.9796 17.4307 34.9796V31.2344Z" fill="#C9B79E"/>
<path d="M24.7074 31.2344C24.6713 31.2344 24.6713 31.2705 24.7074 31.2344V31.2344Z" fill="#B29975"/>
<path d="M24.6713 31.2344H17.502V34.9439C20.1058 34.9439 22.6739 34.3732 24.9923 33.2675C24.8497 32.5898 24.7427 31.9121 24.707 31.2344C24.6713 31.27 24.6713 31.2344 24.6713 31.2344Z" fill="#B29975"/>
<path d="M25.4561 31.8764C25.4204 31.5554 25.3848 31.1987 25.3848 30.8777C25.3848 30.6994 25.2421 30.521 25.0638 30.521H25.0281H9.79762C9.61928 30.521 9.44094 30.6637 9.44094 30.842C9.44094 30.842 9.44094 30.842 9.44094 30.8777C9.44094 31.1987 9.40527 31.5554 9.3696 31.8764C9.33393 32.1974 9.2626 32.5898 9.22693 32.9465C9.44094 33.0535 9.65495 33.1605 9.90463 33.2675C10.0473 32.5898 10.1543 31.9121 10.19 31.2344V31.1987H24.5644V31.2344C24.6001 31.9121 24.6714 32.5898 24.8498 33.2675C25.0638 33.1605 25.3134 33.0535 25.5275 32.9465C25.5275 32.5898 25.4918 32.2331 25.4561 31.8764Z" fill="#967C64"/>
<path d="M22.4599 28.0242C22.3886 27.9529 22.3529 27.8815 22.3173 27.8102C22.3529 27.8815 22.3886 27.9886 22.4599 28.0242Z" fill="#5C5A58"/>
<path d="M22.8523 28.4166C22.7096 28.3096 22.5669 28.1669 22.4599 28.0242C22.5669 28.1669 22.7096 28.3096 22.8523 28.4166Z" fill="#B29975"/>
<path d="M29.0943 13.6141C28.9516 13.4001 28.8089 13.2218 28.6306 13.0434C28.5593 12.9721 28.4879 12.9008 28.4166 12.8294C28.3809 12.7938 28.3452 12.7581 28.3096 12.7581L28.2026 12.6511V14.2562L28.8446 17.1096C28.8446 17.1453 28.8446 17.1453 28.8803 17.181L29.3083 17.6447H29.7363V17.5377C29.7363 16.2179 29.5223 14.9339 29.13 13.6855C29.0943 13.6498 29.0943 13.6498 29.0943 13.6141Z" fill="#C8C6C7"/>
<path d="M28.8802 17.3593C28.8802 17.4307 28.9159 17.502 28.9159 17.609V17.6447V17.8944V17.93C28.9159 18.0014 28.8802 18.0727 28.8802 18.144L29.3083 17.6803L28.8802 17.2167C28.8446 17.2167 28.8802 17.3237 28.8802 17.3593Z" fill="#727170"/>
<path d="M28.8803 17.8944C28.8803 17.7874 28.9159 17.7517 28.9159 17.6447V17.3237C28.9159 17.2523 28.8803 17.181 28.8803 17.1096C28.8803 17.0383 28.8803 17.074 28.8446 17.0383C28.8089 16.8956 28.7733 16.7886 28.7019 16.6816L28.6662 16.646C28.6306 16.6103 28.6306 16.5746 28.5949 16.5746L28.4879 16.4676L28.4522 16.4319C28.4166 16.3963 28.3809 16.3963 28.3452 16.3963H28.3809C28.3452 16.3963 28.3096 16.3606 28.2739 16.3606C28.2382 16.3606 28.2026 16.3606 28.1669 16.3963H28.1312C28.0956 16.3963 28.0599 16.4319 28.0599 16.4319C28.0599 16.4319 28.0242 16.432 28.0242 16.4676L27.9172 16.5746C27.8815 16.6103 27.8815 16.646 27.8459 16.646L27.8102 16.6816C27.7389 16.7886 27.6675 16.8956 27.6675 17.0383V17.074C27.6319 17.1453 27.6319 17.2167 27.6319 17.288V17.3593C27.6319 17.4307 27.5962 17.502 27.5962 17.609V17.6447C27.5962 18.3224 27.8815 18.8574 28.2739 18.8574C28.3452 18.8574 28.3809 18.8217 28.4522 18.7861C28.4522 18.7861 28.4879 18.7861 28.4879 18.7504C28.5236 18.7504 28.5592 18.7147 28.5592 18.6791L28.5949 18.6434L28.6662 18.5721C28.7019 18.5364 28.7019 18.5007 28.7376 18.4651C28.7733 18.4294 28.7733 18.4294 28.7733 18.3937C28.7733 18.3581 28.8089 18.3224 28.8446 18.2867C28.8446 18.2867 28.8446 18.251 28.8803 18.251C28.9159 18.1797 28.9159 18.144 28.9516 18.0727C28.8446 18.0727 28.8803 18.0014 28.8803 17.8944ZM28.2382 17.502C28.0956 17.502 27.9529 17.288 27.9529 17.0383C27.9529 16.7886 28.0599 16.5746 28.2382 16.5746C28.4166 16.5746 28.5236 16.7886 28.5236 17.0383C28.5236 17.288 28.3809 17.502 28.2382 17.502Z" fill="#010101"/>
<path d="M28.2026 17.502C28.3602 17.502 28.4879 17.2944 28.4879 17.0383C28.4879 16.7822 28.3602 16.5746 28.2026 16.5746C28.045 16.5746 27.9172 16.7822 27.9172 17.0383C27.9172 17.2944 28.045 17.502 28.2026 17.502Z" fill="white"/>
<path d="M27.5962 17.1097C27.6319 16.967 27.6675 16.86 27.7389 16.753L27.7745 16.7173C27.8102 16.6816 27.8102 16.646 27.8459 16.646L27.9529 16.539L27.9885 16.5033C28.0242 16.4676 28.0599 16.4676 28.0956 16.4676H28.1312C28.1669 16.4676 28.2026 16.432 28.2382 16.432C28.2739 16.432 28.3096 16.432 28.3452 16.4676H28.3809C28.4166 16.4676 28.4522 16.5033 28.4879 16.5033C28.4879 16.5033 28.5236 16.5033 28.5236 16.539L28.6306 16.646C28.6662 16.6816 28.6662 16.7173 28.7019 16.7173L28.7376 16.753C28.8089 16.86 28.8446 16.967 28.8803 17.1097L28.2382 14.2562L27.5962 17.1097Z" fill="#9C9B9B"/>
<path d="M19.9274 17.609V17.4307C19.9274 17.395 19.9274 17.3237 19.8918 17.288C19.8918 17.2167 19.8561 17.181 19.8561 17.1453C19.8204 17.074 19.8204 17.0383 19.7848 17.0027C19.7491 16.967 19.7134 16.8956 19.7134 16.86C19.6421 16.7173 19.5351 16.5746 19.4281 16.4676C19.2854 16.3249 19.1071 16.2179 18.9287 16.1466C18.8217 16.1109 18.7504 16.0753 18.6434 16.0753C18.5364 16.0396 18.4294 16.0396 18.358 16.0396C18.251 16.0396 18.144 16.0396 18.0727 16.0753L17.7873 16.1466C17.6803 16.1823 17.5733 16.2179 17.502 16.2893C17.395 16.3606 17.3593 16.3963 17.2523 16.4676C17.1453 16.5746 17.0383 16.7173 16.9669 16.86C16.9313 16.8956 16.9313 16.9313 16.8956 16.967C16.8599 17.0026 16.8599 17.0383 16.8243 17.074V17.1097C16.8243 17.1453 16.7886 17.2167 16.7886 17.2167V17.2523C16.7886 17.288 16.7886 17.3237 16.7529 17.3593V17.5734C16.7529 17.6804 16.7529 17.7874 16.7886 17.8944C16.8243 18.0014 16.8599 18.1084 16.8599 18.1797C16.9313 18.3581 17.0383 18.5364 17.181 18.6791C17.288 18.7861 17.4306 18.8931 17.5733 18.9644C17.609 19.0001 17.6803 19.0358 17.716 19.0358C17.7516 19.0714 17.823 19.0714 17.823 19.1071H17.8587C17.8943 19.1071 17.9657 19.1428 17.9657 19.1428H18.0013C18.037 19.1428 18.0727 19.1428 18.1083 19.1784H18.3223C18.5364 19.1784 18.7504 19.1428 18.9644 19.0714C19.0714 19.0358 19.1784 19.0001 19.2497 18.9288C19.4281 18.8217 19.5707 18.6434 19.7134 18.4651C19.7848 18.3937 19.8204 18.2867 19.8561 18.1797C19.9274 18.0014 19.9631 17.7874 19.9274 17.609ZM18.3223 17.4307C17.9657 17.4307 17.6803 17.1453 17.6803 16.7886C17.6803 16.432 17.9657 16.1466 18.3223 16.1466C18.679 16.1466 18.9644 16.432 18.9644 16.7886C18.9287 17.1453 18.6434 17.4307 18.3223 17.4307Z" fill="#010101"/>
<path d="M18.3223 17.4307C18.6769 17.4307 18.9644 17.1432 18.9644 16.7886C18.9644 16.434 18.6769 16.1466 18.3223 16.1466C17.9677 16.1466 17.6803 16.434 17.6803 16.7886C17.6803 17.1432 17.9677 17.4307 18.3223 17.4307Z" fill="white"/>
<path d="M17.1809 16.4676L18.3223 13.0078V12.1874C17.6803 12.0447 17.0382 11.9734 16.3605 11.9734C16.1465 11.9734 15.9325 11.9734 15.6828 12.009H15.5758C14.4344 12.116 13.3287 12.4014 12.2587 12.8651C11.3669 13.2574 10.5466 13.7925 9.79753 14.4345C9.58352 14.6128 9.40518 14.7912 9.22683 14.9695L9.1555 15.0409C8.97715 15.2192 8.83448 15.3976 8.65614 15.5759C8.62047 15.6116 8.5848 15.6472 8.54913 15.6829C8.40646 15.8612 8.22811 16.0753 8.04977 16.2893C8.04977 16.3249 8.0141 16.3249 8.0141 16.3606C7.87143 16.5746 7.72875 16.753 7.58608 16.967C7.55041 17.0026 7.51474 17.074 7.47908 17.074C7.37207 17.2523 7.26506 17.4307 7.19373 17.5733H12.33L17.1809 16.4676Z" fill="#C8C6C7"/>
<path d="M21.5325 16.0752C21.5325 15.9682 21.5682 15.7899 21.5682 15.6829C21.5682 15.5045 21.6039 15.3262 21.6039 15.1479V14.6128C21.6039 14.2562 21.5682 13.8995 21.5682 13.5071H21.5325C21.4612 13.4715 21.2829 13.4001 21.1402 13.2931C21.1045 13.2574 21.0688 13.2574 21.0332 13.2218C21.0332 13.2218 20.9975 13.1861 20.9618 13.1861C20.9262 13.1861 20.9262 13.1504 20.8905 13.1504C20.6408 13.0434 20.4268 12.9007 20.1771 12.8294C19.5708 12.6154 18.9644 12.4014 18.358 12.2587V13.0791L19.4638 16.5389C19.5708 16.646 19.6778 16.7886 19.7491 16.9313C19.7848 17.0026 19.8204 17.0383 19.8204 17.074C19.8561 17.1453 19.8561 17.181 19.8918 17.2166C19.9274 17.2523 19.9274 17.3236 19.9274 17.3593C19.9274 17.395 19.9274 17.4663 19.9631 17.502V17.6803H21.3542C21.4255 17.181 21.4969 16.6459 21.5682 16.1466V16.0752H21.5325Z" fill="#E9E4E3"/>
<path d="M19.9631 22.5669L20.8548 21.6752C21.0332 21.4969 21.1758 21.3542 21.3185 21.1759C22.4599 19.9275 23.3159 18.7504 23.8153 17.2523C23.8153 17.2167 23.851 17.1453 23.851 17.1097V17.074C23.851 17.0027 23.8866 16.967 23.8866 16.8957V16.753C23.744 16.1109 23.53 15.4332 23.2803 14.8269L23.1733 14.7199C23.0663 14.6129 22.8879 14.4702 22.7809 14.3632C22.3886 14.0065 21.9605 13.7211 21.5325 13.4358C21.5682 13.7925 21.5682 14.1492 21.5682 14.5415V15.0766C21.5682 15.2549 21.5682 15.4332 21.5325 15.6116C21.5325 15.7186 21.4968 15.8969 21.4968 16.0039V16.0396C21.4612 16.539 21.3898 17.074 21.2828 17.5734L21.1758 18.4294C20.8548 19.7848 20.1414 21.0332 19.5707 22.3173C19.4281 22.6383 19.2854 22.995 19.1427 23.3516C19.1427 23.3873 19.1071 23.423 19.1071 23.4587L19.5707 22.995C19.6778 22.8166 19.8561 22.7096 19.9631 22.5669Z" fill="#F8B232"/>
<path d="M17.1809 16.4319C17.2522 16.3606 17.3236 16.2893 17.4306 16.2536C17.5019 16.1823 17.6089 16.1823 17.7159 16.1109C17.8229 16.0753 17.8943 16.0396 18.0013 16.0396C18.1083 16.0039 18.1796 16.0039 18.2866 16.0039C18.3936 16.0039 18.5006 16.0039 18.572 16.0396L18.8573 16.1109C19.0357 16.1823 19.214 16.2893 19.3567 16.4319L18.251 12.9721L17.1809 16.4319Z" fill="#9C9B9B"/>
<path d="M16.7885 18.2867C16.7529 18.1797 16.7172 18.0727 16.6815 18.0014C16.6459 17.8944 16.6459 17.7873 16.6459 17.6803V17.4663C16.6459 17.4307 16.6459 17.395 16.6815 17.3593V17.3237C16.6815 17.288 16.7172 17.2167 16.7172 17.2167V17.181C16.7172 17.1453 16.7529 17.1097 16.7885 17.074C16.8242 17.0026 16.8242 16.967 16.8599 16.967C16.9312 16.8243 17.0382 16.6816 17.1452 16.5746L12.4013 17.7517L17.1452 18.8931C16.9669 18.6434 16.8599 18.4651 16.7885 18.2867Z" fill="#727170"/>
<path d="M27.5248 17.3593V17.288C27.5248 17.2166 27.5605 17.181 27.5605 17.074V17.0383L28.2025 14.1848V12.5441C27.7388 12.1517 27.1681 11.902 26.5618 11.8664C25.8484 11.902 25.1707 12.2231 24.6713 12.7224C24.1363 13.2931 23.6726 13.9351 23.3516 14.6128C23.3159 14.6485 23.3159 14.6842 23.2803 14.7199C23.3873 14.8269 23.4943 14.8982 23.5656 15.0052C23.8153 15.2192 24.0293 15.4332 24.2433 15.6829L24.5287 15.9683L24.8497 16.2893C24.9924 16.4319 25.135 16.5746 25.2777 16.753L25.4561 16.9313C25.5987 17.1096 25.7771 17.288 25.9197 17.4663L25.9911 17.5377H27.4535V17.502C27.4892 17.502 27.4892 17.4307 27.5248 17.3593Z" fill="#E9E4E3"/>
<path d="M6.40908 19.4281C6.48042 19.1428 6.58742 18.9287 6.69443 18.7147L6.80143 18.5364L7.08678 18.0014C7.12245 17.93 7.15812 17.8587 7.19379 17.7874C7.22946 17.7517 7.22946 17.716 7.26513 17.6803C7.37213 17.502 7.47914 17.3237 7.55047 17.181C7.58614 17.1453 7.62181 17.074 7.62181 17.074C7.76449 16.86 7.87149 16.646 8.04983 16.4676C8.04983 16.4319 8.0855 16.4319 8.0855 16.3963C8.22818 16.1823 8.37085 16.0039 8.54919 15.7899C8.58486 15.7542 8.62053 15.7186 8.6562 15.6829C8.79887 15.5046 8.97722 15.3262 9.15556 15.1479L9.26256 15.0409C9.44091 14.8625 9.65492 14.6842 9.83326 14.5058C10.618 11.8307 13.0791 9.97594 15.8612 9.94028C17.0026 9.94028 18.144 10.2613 19.1071 10.9033C20.1058 11.5097 20.9262 12.4014 21.4612 13.4715V13.5071C21.4612 13.5428 21.4969 13.5785 21.4969 13.6141C21.9606 13.8638 22.3886 14.1848 22.7453 14.5415C22.8523 14.6485 23.0306 14.7912 23.1376 14.8982L23.2446 15.0052C23.2446 14.9695 23.2803 14.9339 23.2803 14.8982C23.6727 12.3657 24.7784 10.5466 26.0981 10.5466C27.0968 10.5466 27.9529 11.581 28.5236 13.1504V13.1861L28.9873 13.7211C28.9873 13.7568 28.9873 13.7925 29.0229 13.7925L28.9873 13.7211C27.3108 8.72754 22.6383 5.3747 17.3593 5.3747C10.6893 5.30336 5.19635 10.7963 5.19635 17.5733C5.19635 18.8574 5.41036 20.1415 5.80271 21.3899L6.08806 20.3198C6.19507 19.9631 6.30208 19.6778 6.40908 19.4281Z" fill="#5C5A58"/>
<path d="M29.2726 17.6447L28.8445 18.1084C28.8089 18.1797 28.8089 18.2154 28.7732 18.2867C28.7732 18.2867 28.7732 18.3224 28.7375 18.3224C28.7019 18.358 28.7019 18.4294 28.6662 18.4294C28.6305 18.4294 28.6305 18.4651 28.6305 18.5007C28.6305 18.5364 28.5949 18.5721 28.5592 18.5721L28.4522 18.6791L28.4165 18.7147C28.3809 18.7504 28.3452 18.7504 28.3452 18.7861C28.3452 18.8217 28.3095 18.7861 28.3095 18.8217C28.2382 18.8574 28.2025 18.8931 28.1312 18.8931C27.7388 18.8931 27.4535 18.358 27.4535 17.6803H26.0267C26.3121 17.9657 26.5261 18.2867 26.8114 18.6077L27.5248 19.4994L27.5605 19.5351C27.8102 19.8205 28.0242 20.1058 28.2382 20.3912C28.2739 20.4268 28.2739 20.4625 28.3095 20.4982C28.5592 20.7835 28.7732 21.1402 28.9872 21.4255C29.3796 20.2128 29.5936 18.9287 29.6293 17.6447H29.2726Z" fill="white"/>
<path d="M15.6115 11.9734H15.7185C15.9325 11.9734 16.1822 11.9377 16.3962 11.9377C17.0383 11.9377 17.716 12.009 18.358 12.1517V12.116C19 12.2587 19.6064 12.4371 20.1771 12.6867C20.4268 12.7937 20.6764 12.9007 20.8905 13.0078C20.8905 13.0078 20.9261 13.0434 20.9618 13.0434C20.9975 13.0434 20.9975 13.0434 21.0331 13.0791C21.0688 13.1148 21.1045 13.1148 21.1401 13.1504C21.2828 13.2574 21.4612 13.3288 21.5325 13.3644H21.5682C21.5682 13.3288 21.5325 13.2931 21.5325 13.2574V13.2218C20.9618 12.223 20.1414 11.4027 19.1784 10.7963C18.2153 10.1899 17.0739 9.86893 15.9325 9.86893C13.1504 9.9046 10.6892 11.7594 9.90454 14.4345C10.6536 13.7925 11.474 13.2574 12.3657 12.8651C13.3644 12.3657 14.4701 12.0804 15.6115 11.9734Z" fill="#010101"/>
<path d="M24.707 12.8651C25.2064 12.3301 25.8841 12.0447 26.5975 12.009C27.2038 12.0447 27.7745 12.2587 28.2382 12.6867C28.3096 12.7224 28.3096 12.7938 28.3452 12.7938C28.3809 12.8294 28.4166 12.8651 28.4522 12.8651L28.6662 13.0791V13.0434C28.1312 11.4383 27.2395 10.4396 26.2408 10.4396C24.9211 10.4396 23.8153 12.2587 23.423 14.7912C23.744 14.0421 24.172 13.4001 24.707 12.8651Z" fill="#010101"/>
<path d="M13.0791 28.9159C13.1861 28.9516 13.2931 29.0229 13.4001 29.0229C14.6842 29.4866 16.0752 29.7363 17.4307 29.7006C19.0001 29.7006 20.5338 29.3796 21.9962 28.8446C22.0676 28.8089 22.1389 28.7733 22.2102 28.7376C22.3172 28.6662 22.4599 28.6306 22.5669 28.5949C22.6739 28.5592 22.7809 28.4879 22.8523 28.4522H22.7453C22.3172 28.5236 21.8892 28.5236 21.4612 28.4522C18.9287 28.0956 18.3937 26.8828 18.465 25.6344C18.2867 25.5274 18.1084 25.4204 17.93 25.2777C16.7886 24.4217 15.7542 23.4586 14.8268 22.3529C15.9682 23.1733 17.2523 23.851 18.572 24.386C18.6434 24.4217 18.6791 24.4217 18.7147 24.4574C18.8217 24.1007 18.9644 23.7797 19.0357 23.4586C19.0357 23.423 19.0714 23.3873 19.0714 23.3516C19.1784 22.9949 19.3211 22.6739 19.4994 22.3172C20.0701 21.0332 20.7478 19.7848 21.1045 18.4294L21.2472 17.6803H19.9631C19.9631 17.8943 19.9275 18.1084 19.8561 18.3224C19.8204 18.4294 19.7848 18.5007 19.7134 18.6077C19.6064 18.7861 19.4281 18.9287 19.2497 19.0714C19.1784 19.1427 19.0714 19.1784 18.9644 19.2141C18.7504 19.2854 18.5364 19.3211 18.3224 19.3211H18.1084C18.0727 19.3211 18.037 19.3211 18.0014 19.2854H17.9657C17.93 19.2854 17.8587 19.2497 17.8587 19.2497H17.823C17.7873 19.2141 17.716 19.2141 17.716 19.1784C17.6447 19.1428 17.6447 19.1427 17.5733 19.1071C17.4307 19.0357 17.288 18.9287 17.181 18.8217L12.4727 17.6803H7.26512C7.22945 17.716 7.22945 17.7517 7.19378 17.7873C7.15811 17.8587 7.08678 17.93 7.08678 18.0014L6.80143 18.5364L6.69442 18.7147C6.62308 18.9644 6.48041 19.1784 6.40908 19.3924V19.4281C6.30207 19.6778 6.19506 19.9631 6.12373 20.2485C6.01672 20.6052 5.90972 20.9618 5.83838 21.3185C6.65876 23.7797 8.1925 25.9198 10.2969 27.4179C10.3683 27.4535 10.404 27.5249 10.4753 27.5249C10.832 27.7745 11.1887 27.9885 11.5453 28.2026C12.0447 28.5236 12.5797 28.7376 13.0791 28.9159Z" fill="white"/>
<path d="M21.5682 25.1351C21.5325 25.2777 21.5325 25.3847 21.5325 25.5274C21.5325 25.7414 21.5325 25.9555 21.5682 26.1695C21.6039 26.3121 21.6395 26.4548 21.6752 26.5618C21.7465 26.7402 21.7822 26.9185 21.8535 27.0612C21.9249 27.2039 21.9962 27.3822 22.1032 27.5249C22.1389 27.5605 22.1746 27.6319 22.2102 27.6319C22.2459 27.6319 22.2816 27.7389 22.3172 27.8102C22.3886 27.8815 22.4242 27.9529 22.4599 28.0242C22.5669 28.1669 22.7096 28.3096 22.8523 28.4166V28.4522H22.9236C23.4943 28.3809 24.0293 28.2382 24.5644 28.0242C24.8497 27.9172 25.0994 27.8102 25.3847 27.7032C25.4917 27.6675 25.5274 27.6319 25.6344 27.5962C28.4522 26.2408 30.7707 23.8153 30.7707 23.8153C27.2752 25.5988 23.851 25.4918 21.5682 25.1351Z" fill="#A32553"/>
<path d="M28.3096 20.4268C28.0955 20.1415 27.8459 19.8561 27.6319 19.5708L27.5962 19.5351L26.8828 18.6434C26.6331 18.3581 26.3835 18.037 26.0981 17.716L26.0268 17.6447C25.8841 17.4663 25.7058 17.288 25.5274 17.1097L25.3491 16.9313C25.2064 16.7886 25.0637 16.646 24.921 16.4676L24.6 16.1466L24.3147 15.8613C24.1007 15.6472 23.851 15.3976 23.637 15.1836C23.5656 15.0765 23.423 15.0052 23.3516 14.8982C23.6013 15.5402 23.8153 16.1823 23.958 16.86C23.9937 17.0383 24.0293 17.181 24.065 17.3593C24.3503 19.6421 23.637 21.1402 22.4599 23.1376C22.3886 23.2803 22.2816 23.423 22.1746 23.5657C21.9249 23.958 21.7465 24.386 21.6395 24.8141C21.6039 24.9211 21.5682 25.0994 21.5325 25.2064C23.8153 25.5631 27.2752 25.6701 30.8064 23.9223C30.8064 23.9223 30.1287 22.888 29.0586 21.4969C28.8089 21.2115 28.5949 20.8549 28.3809 20.5695C28.3809 20.4625 28.3452 20.4268 28.3096 20.4268Z" fill="#DF1668"/>
<path d="M22.8522 28.4166C22.7096 28.3096 22.5669 28.1669 22.4599 28.0242C22.3885 27.9529 22.3529 27.8815 22.3172 27.8102C22.2815 27.7389 22.2102 27.7032 22.2102 27.6319C22.2102 27.5605 22.1389 27.5249 22.1389 27.5249C22.0319 27.3822 21.9605 27.2395 21.8892 27.0612C21.8178 26.8828 21.7465 26.7402 21.7108 26.5618C21.6752 26.4548 21.6395 26.3121 21.6038 26.1695C21.5682 25.9555 21.5682 25.7414 21.5682 25.5274C21.5682 25.4204 21.6038 25.2777 21.6038 25.1351C21.6038 24.9924 21.6395 24.8854 21.7108 24.7427C21.8178 24.279 21.9962 23.851 22.2459 23.4943C22.3529 23.3517 22.4242 23.209 22.4955 23.0663C23.6726 21.0689 24.386 19.6064 24.1006 17.288C24.065 17.1453 24.0293 16.967 23.9936 16.7886C23.958 16.8956 23.958 17.0027 23.9223 17.074V17.1096C23.9223 17.181 23.8866 17.2167 23.8866 17.2523C23.3873 18.7504 22.5312 19.9275 21.3898 21.1759C21.2471 21.3542 21.0688 21.4969 20.9261 21.6752C20.6408 21.9962 20.3554 22.2816 20.0344 22.5669L19.6421 22.9593L19.1784 23.423C19.0357 23.744 18.9287 24.065 18.8574 24.4217C18.786 24.386 18.7503 24.386 18.7147 24.3504C17.3949 23.851 16.1465 23.1733 14.9695 22.3173C15.8612 23.423 16.8956 24.4217 18.0726 25.2421C18.251 25.3848 18.4293 25.4918 18.6077 25.5988C18.5007 26.8472 19.0714 28.0599 21.6038 28.4166C22.0319 28.5236 22.4599 28.5236 22.8522 28.4166C22.8522 28.4523 22.8522 28.4523 22.8522 28.4166Z" fill="#010101"/>
</svg>
