<svg width="214" height="70" viewBox="0 0 214 70" fill="none" xmlns="http://www.w3.org/2000/svg">
<path d="M16.6922 18.1402C16.8504 15.1703 17.2804 12.3716 18.2167 9.66611C19.1436 6.98702 20.4217 4.50779 22.603 2.59459C27.1801 -1.41998 34.0958 -0.688162 37.8944 4.18282C40.3232 7.29724 41.5435 10.8892 42.1694 14.7105C42.3504 15.8151 42.4323 16.9355 42.57 18.1407C42.8628 18.1407 43.1541 18.1407 43.4449 18.1407C47.5755 18.1407 51.7061 18.1407 55.8363 18.1407C56.0353 18.1407 56.2348 18.1341 56.4333 18.1438C58.8224 18.2598 59.4297 19.7646 59.3132 21.5974C59.1606 23.9927 58.9389 26.384 58.7553 28.7778C58.5192 31.8556 58.2903 34.9339 58.0614 38.0122C57.8908 40.3094 57.7289 42.607 57.5587 44.9042C57.3288 48.0074 57.1045 51.1107 56.8571 54.2124C56.7148 55.9933 56.6591 57.7936 56.3343 59.5441C55.8827 61.9796 54.7263 64.0764 52.2727 65.0762C51.2942 65.4749 50.1548 65.6524 49.0882 65.6555C36.0992 65.6936 23.1108 65.6824 10.1219 65.6789C6.03148 65.6778 3.40524 63.489 2.86545 59.4668C2.54323 57.0669 2.43754 54.6375 2.24936 52.2209C1.99983 49.021 1.76113 45.8201 1.52501 42.6192C1.36106 40.3958 1.21412 38.1709 1.04915 35.948C0.8156 32.7959 0.569165 29.6449 0.335103 26.4933C0.215494 24.8807 0.0742311 23.2686 0.00772432 21.6534C-0.0974491 19.0907 0.861485 18.1448 3.4934 18.1428C7.57403 18.1392 11.6552 18.1418 15.7358 18.1418C16.0291 18.1402 16.3225 18.1402 16.6922 18.1402ZM20.0041 18.0823C26.464 18.0823 32.7935 18.0823 39.2977 18.0823C39.0333 16.464 38.8482 14.9129 38.5162 13.3939C37.9037 10.5922 36.969 7.90802 34.997 5.71053C33.425 3.95956 31.453 3.01008 29.0531 3.22876C26.6001 3.45202 24.7034 4.69647 23.3274 6.67832C20.9558 10.0943 20.2681 13.9929 20.0041 18.0823ZM31.0019 56.7699C31.6799 56.6585 32.8997 56.5548 34.0659 56.2507C39.487 54.8359 41.0156 50.4663 40.0169 46.5662C39.4338 44.2894 37.8562 42.7479 35.8064 41.7659C33.8947 40.85 31.8712 40.1527 29.8734 39.4214C28.1406 38.7873 26.4259 38.1322 25.0328 36.8919C23.8326 35.8234 23.0464 34.5398 23.3882 32.8656C23.9538 30.098 26.3923 28.2046 29.4367 28.1563C31.9583 28.1161 34.2747 28.8536 36.4777 30.0207C36.8004 30.1916 37.2644 30.333 37.5763 30.2307C37.8867 30.129 38.3135 29.6795 38.2857 29.4252C38.2403 29.0041 37.9728 28.4579 37.6227 28.2397C34.1004 26.0478 30.2853 25.3252 26.3006 26.6423C23.2062 27.6651 21.2626 29.8961 20.945 33.1692C20.6604 36.1026 22.2926 38.1277 24.6467 39.6747C26.365 40.8037 28.3092 41.4018 30.2575 41.9978C32.3578 42.6411 34.3835 43.4502 36.0368 44.9444C38.943 47.5706 38.4033 51.5877 34.9165 53.3895C32.6069 54.5831 30.1683 54.7204 27.6663 54.2185C25.5458 53.7928 23.6011 52.9593 21.8518 51.6853C21.0677 51.1147 20.2361 51.3604 20.0278 52.1883C19.8855 52.7538 20.2062 53.119 20.6191 53.4312C23.5222 55.6282 26.8388 56.6245 31.0019 56.7699Z" fill="#F1582D"/>
<path d="M151.859 41.0678C154.646 38.7406 157.609 37.6794 161.009 38.3248C163.605 38.8176 165.733 40.1665 167.364 42.2879C170.459 46.3164 170.159 51.7523 166.719 55.6996C163.901 58.9339 156.974 60.6284 151.907 56.2342C151.889 56.5709 151.863 56.831 151.863 57.0907C151.86 60.706 151.866 64.3213 151.858 67.9367C151.855 69.4306 150.76 70.2565 149.421 69.7911C148.802 69.5758 148.417 69.1462 148.361 68.4591C148.333 68.1045 148.319 67.7478 148.319 67.3916C148.316 58.5313 148.316 49.6716 148.318 40.8113C148.318 40.5316 148.318 40.2509 148.339 39.9717C148.421 38.8868 149.017 38.3438 150.105 38.3517C151.138 38.3596 151.792 38.976 151.857 40.0166C151.873 40.2931 151.859 40.5712 151.859 41.0678ZM159.029 55.3682C162.807 55.3545 166 52.2389 166.003 48.5639C166.005 44.9301 162.833 41.7601 159.194 41.7591C155.405 41.758 152.167 44.8763 152.182 48.5127C152.198 52.203 155.373 55.3814 159.029 55.3682Z" fill="#F1582D"/>
<path d="M88.5292 59.3112C84.2223 59.354 80.537 57.707 77.1601 55.2759C76.1893 54.5773 76.0147 53.471 76.6581 52.6583C77.3526 51.7807 78.3757 51.6931 79.4237 52.427C81.7253 54.0381 84.1809 55.3134 87.0471 55.6576C89.1459 55.91 91.1849 55.7104 93.0732 54.7066C96.2483 53.0185 96.8199 49.1938 94.2724 46.7041C92.7985 45.2636 90.9913 44.3548 89.0366 43.7048C86.4581 42.8477 83.8551 42.0478 81.5959 40.4985C79.8958 39.3325 78.535 37.9005 78.2114 35.8221C77.5158 31.3522 79.6135 27.0095 84.7786 25.8378C88.8968 24.9036 92.8437 25.5679 96.4832 27.7282C97.1598 28.13 97.5547 28.6776 97.5106 29.4839C97.4285 30.9873 96.0389 31.7387 94.7342 30.9387C92.5396 29.5932 90.1488 28.9168 87.5709 29.0705C86.5228 29.1328 85.4269 29.3778 84.4719 29.796C81.3735 31.1515 80.8682 35.2217 83.4772 37.3165C85.0212 38.5563 86.8187 39.2956 88.7309 39.8162C91.5629 40.5872 94.2115 41.7241 96.4109 43.6736C100.304 47.1239 100.666 52.463 97.2137 56.0817C95.2704 58.1183 92.7441 59.0377 89.9443 59.3054C89.4766 59.3497 89.0007 59.3112 88.5292 59.3112Z" fill="#F1582D"/>
<path d="M105.305 40.6675C105.7 40.4103 105.929 40.2662 106.152 40.1131C109.685 37.6906 114.404 37.7192 117.595 40.2086C119.697 41.8491 120.766 44.035 120.772 46.6882C120.779 50.3038 120.725 53.919 120.683 57.5347C120.67 58.616 119.952 59.3225 118.92 59.3267C117.895 59.3309 117.155 58.6166 117.15 57.5416C117.134 54.0769 117.091 50.6117 117.156 47.148C117.227 43.403 114.362 41.6918 111.162 41.9721C107.892 42.2588 105.305 45.3275 105.305 48.6317C105.305 51.5357 105.308 54.4401 105.304 57.3441C105.302 58.5622 104.572 59.3426 103.469 59.3246C102.377 59.3066 101.706 58.5754 101.706 57.3652C101.702 47.3534 101.702 37.3422 101.706 27.3304C101.706 26.0115 102.291 25.4143 103.534 25.4259C104.695 25.437 105.303 26.0848 105.304 27.332C105.307 31.4081 105.305 35.4842 105.306 39.5597C105.305 39.8628 105.305 40.1653 105.305 40.6675Z" fill="#F1582D"/>
<path d="M175.379 49.8923C175.503 52.978 177.586 55.2567 180.436 55.5685C182.828 55.83 185.124 55.5866 187.268 54.3502C188.146 53.8433 189.13 54.1909 189.616 55.0695C190.11 55.9615 189.863 57.0263 188.986 57.5557C187.214 58.6252 185.268 59.2413 183.229 59.3114C181.703 59.3643 180.122 59.29 178.642 58.9392C175.025 58.0824 173.006 55.508 172.031 51.9812C170.849 47.7035 172.315 42.6295 175.453 40.1048C179.332 36.9828 185.89 37.6641 188.747 41.5423C190.143 43.436 190.733 45.6392 190.691 48.0003C190.671 49.1693 189.859 49.8897 188.642 49.8907C184.536 49.8945 180.429 49.8923 176.322 49.8923C176.024 49.8923 175.726 49.8923 175.379 49.8923ZM186.803 46.2098C186.442 43.3488 184.305 41.499 180.342 41.8509C178.109 42.0493 175.674 44.4018 175.86 46.2098C179.49 46.2098 183.12 46.2098 186.803 46.2098Z" fill="#F1582D"/>
<path d="M198.71 49.814C198.731 52.7744 200.855 55.142 203.703 55.457C206.096 55.722 208.406 55.506 210.555 54.2703C211.45 53.7557 212.412 54.0612 212.923 54.9264C213.476 55.8646 213.312 56.8821 212.376 57.3909C208.353 59.5801 204.162 60.0644 199.968 58.0555C196.887 56.5798 195.533 53.7264 195.052 50.4531C194.723 48.208 195.077 46.008 195.932 43.9055C197.433 40.215 200.796 38.03 204.739 38.1428C207.286 38.2157 209.631 38.866 211.441 40.769C213.394 42.8242 214.113 45.379 213.986 48.183C213.941 49.1701 213.115 49.8098 212.024 49.8108C207.883 49.8161 203.743 49.813 199.602 49.813C199.305 49.814 199.007 49.814 198.71 49.814ZM199.108 46.0969C202.818 46.0969 206.482 46.0969 210.16 46.0969C209.823 43.8337 208.199 41.5715 204.065 41.7854C201.646 41.9104 199.313 43.8406 199.108 46.0969Z" fill="#F1582D"/>
<path d="M144.078 48.8024C144.075 54.7275 139.341 59.4309 133.354 59.325C126.92 59.2109 122.97 54.4134 122.892 48.5991C122.81 42.4648 128.11 38.0927 133.579 38.139C139.75 38.1917 144.145 43.347 144.078 48.8024ZM140.495 48.7465C140.489 45.0145 137.268 41.7924 133.576 41.8236C129.719 41.8565 126.471 44.9699 126.455 48.6486C126.439 52.4451 129.683 55.7205 133.436 55.6973C137.31 55.6742 140.5 52.5323 140.495 48.7465Z" fill="#F1582D"/>
</svg>
