<?xml version="1.0" encoding="utf-8"?>
<!-- Generator: Adobe Illustrator 17.0.0, SVG Export Plug-In . SVG Version: 6.00 Build 0)  -->
<!DOCTYPE svg PUBLIC "-//W3C//DTD SVG 1.1//EN" "http://www.w3.org/Graphics/SVG/1.1/DTD/svg11.dtd">
<svg version="1.1" id="Layer_1" xmlns="http://www.w3.org/2000/svg" xmlns:xlink="http://www.w3.org/1999/xlink" x="0px" y="0px"
	 width="52px" height="52px" viewBox="0 0 52 52" enable-background="new 0 0 52 52" xml:space="preserve">
<path fill="#F1582D" d="M16.126,14.809c0.12-2.261,0.448-4.391,1.161-6.451c0.706-2.039,1.679-3.927,3.339-5.383
	c3.484-3.056,8.749-2.499,11.64,1.209c1.849,2.371,2.778,5.105,3.254,8.014c0.138,0.841,0.2,1.694,0.305,2.611
	c0.223,0,0.445,0,0.666,0c3.144,0,6.289,0,9.433,0c0.152,0,0.303-0.005,0.455,0.002c1.819,0.088,2.281,1.234,2.192,2.629
	c-0.116,1.823-0.285,3.644-0.425,5.466c-0.18,2.343-0.354,4.686-0.528,7.03c-0.13,1.749-0.253,3.498-0.383,5.246
	c-0.175,2.362-0.346,4.725-0.534,7.086c-0.108,1.356-0.151,2.726-0.398,4.059c-0.344,1.854-1.224,3.45-3.092,4.211
	c-0.745,0.304-1.612,0.439-2.424,0.441c-9.888,0.029-19.775,0.02-29.662,0.018c-3.114-0.001-5.113-1.667-5.524-4.729
	c-0.245-1.827-0.326-3.676-0.469-5.516c-0.19-2.436-0.372-4.872-0.551-7.309c-0.125-1.693-0.237-3.386-0.362-5.078
	c-0.178-2.4-0.365-4.798-0.544-7.197c-0.092-1.228-0.2-2.455-0.25-3.685c-0.08-1.951,0.65-2.671,2.653-2.672
	c3.107-0.003,6.213-0.001,9.32-0.001C15.621,14.809,15.844,14.809,16.126,14.809z M18.647,14.765c4.917,0,9.736,0,14.687,0
	c-0.201-1.232-0.342-2.413-0.595-3.569c-0.466-2.133-1.178-4.176-2.679-5.849c-1.197-1.333-2.698-2.056-4.525-1.889
	c-1.867,0.17-3.311,1.117-4.359,2.626C19.371,8.684,18.848,11.652,18.647,14.765z M27.018,44.215
	c0.516-0.085,1.445-0.164,2.333-0.395c4.127-1.077,5.29-4.403,4.53-7.372c-0.444-1.733-1.645-2.907-3.205-3.654
	c-1.455-0.697-2.996-1.228-4.516-1.785c-1.319-0.483-2.624-0.981-3.685-1.926c-0.914-0.813-1.512-1.79-1.252-3.065
	c0.431-2.107,2.287-3.548,4.604-3.585c1.92-0.031,3.683,0.531,5.36,1.419c0.246,0.13,0.599,0.238,0.836,0.16
	c0.236-0.077,0.561-0.42,0.54-0.613c-0.035-0.321-0.238-0.736-0.505-0.903c-2.681-1.668-5.585-2.219-8.619-1.216
	c-2.355,0.779-3.835,2.477-4.077,4.968c-0.217,2.233,1.026,3.775,2.818,4.952c1.308,0.859,2.788,1.315,4.271,1.768
	c1.599,0.49,3.141,1.106,4.399,2.243c2.212,1.999,1.801,5.057-0.853,6.429c-1.758,0.909-3.615,1.013-5.519,0.631
	c-1.614-0.324-3.095-0.958-4.426-1.928c-0.597-0.434-1.23-0.247-1.388,0.383c-0.108,0.43,0.136,0.708,0.45,0.946
	C21.325,43.346,23.849,44.104,27.018,44.215z"/>
</svg>
