<svg width="214" height="86" viewBox="0 0 214 86" fill="none" xmlns="http://www.w3.org/2000/svg">
<path d="M27.6708 18.5519C12.5773 18.5519 0 24.9048 0 44.0634C0 59.2426 8.45864 68.8005 28.0598 68.8005C51.1373 68.8005 52.6149 53.7248 52.6149 53.7248H41.4366C41.4366 53.7248 39.0418 61.8444 27.3817 61.8444C17.8881 61.8444 11.0605 55.4808 11.0605 46.5689H53.7855V40.9726C53.7855 32.15 48.1393 18.5519 27.6708 18.5519ZM27.2818 25.7043C36.3222 25.7043 42.4824 31.1935 42.4824 39.4237H11.3032C11.3032 30.6867 19.3442 25.7043 27.2818 25.7043Z" fill="#E53238"/>
<path d="M53.7784 0V59.1748C53.7784 62.5333 53.5357 67.2515 53.5357 67.2515H64.2C64.2 67.2515 64.5819 63.8609 64.5819 60.7666C64.5819 60.7666 69.8498 68.9397 84.1759 68.9397C99.2623 68.9397 109.509 58.5538 109.509 43.6708C109.509 29.8301 100.097 18.6947 84.2045 18.6947C69.3144 18.6947 64.689 26.6643 64.689 26.6643V0H53.7784V0ZM81.4492 26.0183C91.6924 26.0183 98.2059 33.5562 98.2059 43.678C98.2059 54.5279 90.6823 61.6267 81.5206 61.6267C70.5886 61.6267 64.689 53.1574 64.689 43.7744C64.689 35.0302 69.9819 26.0183 81.4492 26.0183V26.0183Z" fill="#0064D2"/>
<path d="M136.013 18.5519C113.307 18.5519 111.85 30.883 111.85 32.8531H123.15C123.15 32.8531 123.742 25.6543 135.235 25.6543C142.698 25.6543 148.483 29.0449 148.483 35.5584V37.8783H135.235C117.639 37.8783 108.342 42.982 108.342 53.3394C108.342 63.5326 116.933 69.0789 128.546 69.0789C144.371 69.0789 149.472 60.4061 149.472 60.4061C149.472 63.8538 149.739 67.2551 149.739 67.2551H159.786C159.786 67.2551 159.397 63.0436 159.397 60.3454V37.0467C159.397 21.7676 146.973 18.5519 136.013 18.5519ZM148.483 44.8379V47.9287C148.483 51.9617 145.974 61.9908 131.202 61.9908C123.111 61.9908 119.645 57.9827 119.645 53.3394C119.645 44.8915 131.323 44.8379 148.483 44.8379Z" fill="#F5AF02"/>
<path d="M153.312 20.4863H166.025L184.273 56.7443L202.483 20.4863H214L180.836 85.0361H168.755L178.324 67.041L153.312 20.4863Z" fill="#86B817"/>
</svg>
