<?xml version="1.0" encoding="utf-8"?>
<!-- Generator: Adobe Illustrator 17.0.0, SVG Export Plug-In . SVG Version: 6.00 Build 0)  -->
<!DOCTYPE svg PUBLIC "-//W3C//DTD SVG 1.1//EN" "http://www.w3.org/Graphics/SVG/1.1/DTD/svg11.dtd">
<svg version="1.1" id="Layer_1" xmlns="http://www.w3.org/2000/svg" xmlns:xlink="http://www.w3.org/1999/xlink" x="0px" y="0px"
	 width="52px" height="52px" viewBox="0 0 52 52" enable-background="new 0 0 52 52" xml:space="preserve">
<path fill="#34313F" d="M27.344,29.465h6.306c1.794,0,2.929-0.987,2.929-2.573c0-1.494-1.135-2.571-2.929-2.571h-6.306
	c-0.208,0-0.39,0.179-0.39,0.358v4.427C26.985,29.315,27.133,29.465,27.344,29.465L27.344,29.465z M27.344,39.665h6.517
	c2.002,0,3.198-1.017,3.198-2.812c0-1.554-1.135-2.813-3.198-2.813h-6.517c-0.208,0-0.39,0.181-0.39,0.36v4.875
	C26.985,39.515,27.133,39.665,27.344,39.665z M50.417,1.111L31.765,19.715h3.05c4.752,0,7.563,2.99,7.563,6.25
	c0,2.573-1.733,4.458-3.587,5.294c-0.298,0.121-0.298,0.54,0.029,0.658c2.152,0.838,3.677,3.083,3.677,5.713
	c0,3.708-2.479,6.671-7.292,6.671H21.992c-0.208,0-0.39-0.179-0.39-0.358V29.855L1.129,50.251c-0.271,0.271-0.09,0.748,0.298,0.748
	h49.231c0.087-0.001,0.17-0.036,0.232-0.098s0.097-0.145,0.098-0.232V1.38c0.09-0.329-0.329-0.508-0.569-0.271L50.417,1.111z"/>
</svg>
