<?xml version="1.0" encoding="utf-8"?>
<!-- Generator: Adobe Illustrator 17.0.0, SVG Export Plug-In . SVG Version: 6.00 Build 0)  -->
<!DOCTYPE svg PUBLIC "-//W3C//DTD SVG 1.1//EN" "http://www.w3.org/Graphics/SVG/1.1/DTD/svg11.dtd">
<svg version="1.1" id="Layer_1" xmlns="http://www.w3.org/2000/svg" xmlns:xlink="http://www.w3.org/1999/xlink" x="0px" y="0px"
	 width="52px" height="52px" viewBox="0 0 52 52" enable-background="new 0 0 52 52" xml:space="preserve">
<g>
	<path fill="#7F54B3" d="M43.315,27.243c0.756-0.673,1.267-1.672,1.554-3.017c0.082-0.469,0.143-0.979,0.143-1.509
		c0-0.591-0.123-1.223-0.368-1.856c-0.307-0.795-0.715-1.223-1.206-1.325c-0.736-0.143-1.451,0.265-2.126,1.264
		c-0.552,0.775-0.9,1.59-1.084,2.426c-0.102,0.469-0.143,0.979-0.143,1.488c0,0.591,0.123,1.223,0.368,1.856
		c0.307,0.795,0.715,1.223,1.206,1.325C42.17,27.997,42.722,27.773,43.315,27.243z"/>
	<path fill="#7F54B3" d="M46.34,11.156H5.64c-2.576,0-4.661,2.1-4.64,4.649v15.496c0,2.569,2.086,4.649,4.661,4.649h19.276
		l8.811,4.893l-2.004-4.893h14.595c2.576,0,4.661-2.08,4.661-4.649V15.803C51.001,13.234,48.916,11.156,46.34,11.156z
		 M21.463,31.565c0.04,0.51-0.041,0.959-0.245,1.345c-0.245,0.449-0.613,0.693-1.084,0.734c-0.532,0.04-1.084-0.204-1.614-0.754
		c-1.901-1.938-3.414-4.833-4.517-8.687c-1.329,2.61-2.31,4.567-2.943,5.872c-1.206,2.304-2.228,3.487-3.087,3.548
		c-0.552,0.04-1.022-0.429-1.431-1.407c-1.044-2.67-2.168-7.829-3.374-15.475c-0.062-0.53,0.04-0.999,0.327-1.366
		c0.287-0.388,0.715-0.591,1.288-0.632c1.042-0.082,1.636,0.408,1.779,1.468c0.634,4.262,1.329,7.87,2.064,10.827l4.477-8.502
		c0.409-0.775,0.92-1.183,1.533-1.223c0.899-0.062,1.452,0.51,1.676,1.713c0.512,2.712,1.165,5.015,1.942,6.973
		c0.532-5.179,1.431-8.911,2.698-11.215c0.307-0.571,0.757-0.856,1.349-0.897c0.47-0.04,0.899,0.102,1.288,0.408
		c0.388,0.306,0.592,0.693,0.634,1.163c0.02,0.367-0.041,0.673-0.205,0.979c-0.797,1.468-1.451,3.936-1.983,7.361
		C21.525,27.121,21.34,29.709,21.463,31.565z M34.014,28.364c-1.227,2.039-2.821,3.059-4.804,3.059c-0.348,0-0.715-0.04-1.104-0.122
		c-1.451-0.306-2.535-1.081-3.27-2.365c-0.654-1.121-0.981-2.467-0.981-4.038c0-2.1,0.532-4.016,1.594-5.75
		c1.247-2.039,2.841-3.059,4.804-3.059c0.348,0,0.715,0.04,1.104,0.122c1.431,0.306,2.535,1.081,3.271,2.365l0,0
		c0.654,1.101,0.981,2.426,0.981,4.016C35.608,24.694,35.077,26.611,34.014,28.364z M46.831,28.364
		c-1.227,2.039-2.821,3.059-4.804,3.059c-0.348,0-0.715-0.041-1.104-0.123c-1.451-0.306-2.535-1.081-3.271-2.365
		c-0.654-1.121-0.981-2.467-0.981-4.038c0-2.1,0.532-4.016,1.594-5.75c1.247-2.039,2.841-3.059,4.804-3.059
		c0.347,0,0.715,0.041,1.104,0.122c1.451,0.306,2.535,1.081,3.27,2.365c0.654,1.101,0.981,2.426,0.981,4.017
		C48.425,24.694,47.894,26.611,46.831,28.364z"/>
	<path fill="#7F54B3" d="M32.052,24.225c-0.287,1.346-0.797,2.345-1.554,3.018c-0.592,0.53-1.144,0.754-1.656,0.653
		c-0.49-0.102-0.9-0.531-1.206-1.326c-0.245-0.632-0.368-1.264-0.368-1.856c0-0.51,0.041-1.019,0.143-1.488
		c0.184-0.836,0.531-1.652,1.083-2.426c0.675-0.999,1.39-1.407,2.126-1.264c0.49,0.102,0.9,0.531,1.206,1.325
		c0.245,0.632,0.368,1.264,0.368,1.856C32.195,23.246,32.154,23.757,32.052,24.225L32.052,24.225z"/>
</g>
</svg>
