<svg width="214" height="29" viewBox="0 0 214 29" fill="none" xmlns="http://www.w3.org/2000/svg">
<path d="M76.7869 13.6256C76.7869 9.60825 73.7178 6.17116 69.0905 6.17116C64.4632 6.17116 61.2997 9.65289 61.2997 13.6256C61.2997 17.5538 64.3688 20.9909 68.9961 20.9909C70.932 20.9909 72.4429 20.4552 73.8122 19.4285L75.8426 21.1694L76.9758 19.9642L74.9454 18.4019C76.1259 17.0628 76.7869 15.3665 76.7869 13.6256ZM73.7178 17.3306L70.932 14.9648L69.7988 16.17L72.5846 18.4465C71.6402 19.0715 70.4598 19.5178 69.1377 19.5178C65.6909 19.5178 63.1884 16.8842 63.1884 13.581C63.1884 10.3225 65.6909 7.6442 69.1377 7.6442C72.5846 7.6442 75.0871 10.2778 75.0871 13.581C75.0871 15.054 74.6149 16.3486 73.7178 17.3306V17.3306ZM91.1409 14.6969C91.1409 17.7769 89.3939 19.4285 86.5137 19.4285C83.6334 19.4285 81.8864 17.6877 81.8864 14.6077V6.30507H80.1393V14.6969C80.1393 18.8036 82.7363 20.9016 86.5137 20.9016C90.291 20.9016 92.888 18.7143 92.888 14.5184V6.30507H91.1409V14.6969ZM193.838 19.5178C190.486 19.5178 187.983 16.8842 187.983 13.581C187.983 10.3225 190.486 7.6442 193.838 7.6442C195.869 7.6442 197.285 8.44768 198.654 9.65289L199.788 8.44767C198.229 7.0639 196.624 6.17116 193.838 6.17116C189.4 6.17116 186.142 9.51898 186.142 13.6256C186.142 17.7323 189.4 20.9909 193.744 20.9909C196.53 20.9909 198.277 20.0088 199.835 18.4465L198.702 17.4645C197.332 18.7143 195.963 19.5178 193.838 19.5178V19.5178ZM204.651 19.25V14.2506H212.914V12.7775H204.651V7.86739H213.906V6.39435H202.904V20.8123H214V19.25H204.651V19.25ZM163.289 6.43897H157.623V20.8123H159.37V15.7236H163.053C166.311 15.7236 169.002 14.072 169.002 10.992C169.002 8.13521 166.783 6.43897 163.289 6.43897ZM167.255 11.0813C167.255 13.0007 165.602 14.2506 163.1 14.2506H159.323V7.95667H163.194C165.602 7.86739 167.255 8.98333 167.255 11.0813ZM53.6033 12.7775C50.2509 12.1526 49.4482 11.3045 49.4482 9.96536C49.4482 8.67087 50.723 7.68884 52.7062 7.68884C54.2643 7.68884 55.6808 8.13522 57.1446 9.25116L58.0889 7.95667C56.5308 6.75145 55.0198 6.21579 52.8006 6.21579C49.9204 6.21579 47.7956 7.86739 47.7956 10.1439C47.7956 12.5097 49.4482 13.6256 52.895 14.3399C56.0586 14.9648 56.8613 15.7236 56.8613 17.0628C56.8613 18.5358 55.492 19.5178 53.5089 19.5178C51.3841 19.5178 49.8259 18.8929 48.315 17.5091L47.2762 18.7143C49.1177 20.2767 51.0536 20.9909 53.4616 20.9909C56.4363 20.9909 58.6555 19.3393 58.6555 16.8842C58.5139 14.6077 56.9557 13.5364 53.6033 12.7775V12.7775ZM130.945 14.2506H139.208V12.7775H130.945V7.86739H140.2V6.39435H129.198V20.8123H140.294V19.25H130.945V14.2506ZM149.265 12.7775C145.913 12.1526 145.11 11.3045 145.11 9.96536C145.11 8.67087 146.385 7.68884 148.368 7.68884C149.926 7.68884 151.343 8.13522 152.807 9.25116L153.751 7.95667C152.193 6.75145 150.682 6.21579 148.463 6.21579C145.582 6.21579 143.458 7.86739 143.458 10.1439C143.458 12.5097 145.11 13.6256 148.557 14.3399C151.721 14.9648 152.523 15.7236 152.523 17.0628C152.523 18.5358 151.154 19.5178 149.171 19.5178C147.046 19.5178 145.488 18.8929 143.977 17.5091L142.938 18.7143C144.78 20.2767 146.716 20.9909 149.124 20.9909C152.098 20.9909 154.317 19.3393 154.317 16.8842C154.176 14.6077 152.618 13.5364 149.265 12.7775V12.7775ZM102.048 6.34971L95.1072 20.8123H96.8542L98.6957 16.9735H106.959L108.706 20.8123H110.547L103.606 6.34971H102.048V6.34971ZM99.3567 15.5451L102.804 8.26912L106.25 15.5451H99.3567ZM176.226 6.34971L169.285 20.8123H171.032L172.874 16.9735H181.137L182.884 20.8123H184.725L177.784 6.34971H176.226V6.34971ZM173.535 15.5451L176.982 8.26912L180.429 15.5451H173.535V15.5451ZM125.562 10.7242C125.562 9.51898 125.09 8.53695 124.429 7.82275C123.485 6.92999 122.021 6.34971 120.085 6.34971H113.522V20.723H115.269V15.188H119.613L124.051 20.723H126.176L121.549 14.8755C123.815 14.4291 125.562 13.09 125.562 10.7242V10.7242ZM115.222 13.7149V7.86739H119.943C122.351 7.86739 123.815 8.93869 123.815 10.6796C123.815 12.5097 122.163 13.581 119.849 13.581H115.222V13.7149ZM5.91395 15.3665C6.57499 15.9914 7.75542 15.9914 8.51089 15.3665L19.9847 4.51956C21.4484 3.13579 23.6676 3.13579 25.0841 4.51956C25.7452 5.14449 26.9256 5.14449 27.6811 4.51956C28.3421 3.89463 28.3421 2.77869 27.6811 2.06449C24.8953 -0.569136 20.268 -0.569136 17.4822 2.06449L5.91395 12.8668C5.15847 13.6257 5.15847 14.6077 5.91395 15.3665ZM23.7148 8.04593C24.3759 7.42101 24.3759 6.30506 23.7148 5.59086C23.0538 4.96593 21.8733 4.96593 21.1179 5.59086L9.69132 16.5271C8.22759 17.9109 6.00838 17.9109 4.59187 16.5271C3.12814 15.1433 3.12814 13.0454 4.59187 11.7062L15.8768 1.03783C14.413 -0.345942 12.1938 -0.345942 10.7773 1.03783L2.08936 9.25116C-0.696453 11.8848 -0.696453 16.2593 2.08936 18.8929C4.87517 21.5265 9.50245 21.5265 12.2883 18.8929L23.7148 8.04593V8.04593ZM25.0841 9.25116L13.5159 20.1874C12.8549 20.8123 12.8549 21.9283 13.5159 22.6425C14.177 23.2674 15.3574 23.2674 16.1129 22.6425L27.5866 11.7955C29.0504 10.4117 31.2696 10.4117 32.6861 11.7955C34.1026 13.1793 34.1498 15.2772 32.6861 16.6164L21.4012 27.1955C22.8649 28.5793 25.0841 28.5793 26.5006 27.1955L35.283 18.8929C38.0688 16.2593 38.0688 11.8848 35.283 9.25116C32.4028 6.61753 27.8699 6.61753 25.0841 9.25116V9.25116ZM31.4584 12.8668C30.7974 12.2419 29.617 12.2419 28.8615 12.8668L17.3877 23.803C15.924 25.1868 13.7048 25.1868 12.2883 23.803C11.6272 23.1781 10.4468 23.1781 9.69132 23.803C9.03028 24.428 9.03028 25.5439 9.69132 26.2581C12.4771 28.8917 17.1044 28.8917 19.8902 26.2581L31.364 15.4112C32.1195 14.6077 32.1195 13.6257 31.4584 12.8668Z" fill="black"/>
</svg>
