<?xml version="1.0" encoding="utf-8"?>
<!-- Generator: Adobe Illustrator 17.0.0, SVG Export Plug-In . SVG Version: 6.00 Build 0)  -->
<!DOCTYPE svg PUBLIC "-//W3C//DTD SVG 1.1//EN" "http://www.w3.org/Graphics/SVG/1.1/DTD/svg11.dtd">
<svg version="1.1" id="Layer_1" xmlns="http://www.w3.org/2000/svg" xmlns:xlink="http://www.w3.org/1999/xlink" x="0px" y="0px"
	 width="52px" height="52px" viewBox="0 0 52 52" enable-background="new 0 0 52 52" xml:space="preserve">
<path d="M48.199,19.019c-3.752-3.827-9.845-3.827-13.677,0L19.208,34.662c-0.452,0.468-0.705,1.099-0.705,1.757
	c0,0.657,0.253,1.288,0.705,1.757c0.459,0.46,1.076,0.718,1.719,0.718s1.26-0.258,1.719-0.718l15.313-15.643
	c0.447-0.456,0.977-0.818,1.56-1.065c0.584-0.247,1.209-0.374,1.84-0.373c0.632,0,1.257,0.127,1.84,0.374s1.114,0.609,1.56,1.065
	c0.447,0.456,0.801,0.998,1.042,1.594c0.242,0.596,0.366,1.235,0.366,1.88s-0.125,1.284-0.366,1.88
	c-0.242,0.596-0.596,1.137-1.043,1.593l-15.08,15.396c1.876,1.914,4.924,1.914,6.802,0l11.641-11.889
	C51.946,29.074,51.946,22.852,48.199,19.019L48.199,19.019z M43.043,24.206c-0.459-0.46-1.076-0.718-1.719-0.718
	c-0.643,0-1.26,0.258-1.719,0.718L24.282,39.928c-1.876,1.914-4.921,1.914-6.795,0c-0.939-0.957-2.503-0.957-3.44,0
	c-0.937,0.957-0.937,2.557,0,3.508c3.752,3.832,9.848,3.832,13.677,0L43.04,27.799C43.977,26.763,43.977,25.163,43.043,24.206
	L43.043,24.206z M37.959,8.569c-3.75-3.832-9.845-3.832-13.677,0L8.966,24.206c-0.451,0.468-0.704,1.098-0.704,1.754
	c0,0.656,0.253,1.286,0.704,1.754c0.458,0.462,1.076,0.721,1.72,0.721s1.262-0.259,1.72-0.721l15.408-15.637
	c0.905-0.919,2.13-1.435,3.406-1.435c1.276,0,2.501,0.516,3.406,1.435c0.459,0.46,1.076,0.718,1.719,0.718
	c0.643,0,1.26-0.258,1.719-0.718c0.879-1.036,0.879-2.551-0.06-3.508C38.004,8.569,37.959,8.569,37.959,8.569z M32.806,13.751
	c-0.457-0.462-1.075-0.722-1.719-0.722s-1.261,0.259-1.719,0.722L14.052,29.477c-0.904,0.917-2.127,1.431-3.401,1.431
	s-2.497-0.514-3.401-1.431c-0.901-0.922-1.407-2.171-1.407-3.474c0-1.303,0.506-2.552,1.407-3.474L22.331,7.122
	c-0.903-0.919-2.125-1.435-3.4-1.435c-1.275,0-2.497,0.516-3.4,1.435L3.812,19.019c-3.75,3.832-3.75,10.055,0,13.969
	c3.75,3.832,9.843,3.832,13.677,0l15.312-15.642c0.942-1.041,0.942-2.636,0-3.592h0.005V13.751z"/>
</svg>
