<?xml version="1.0" encoding="utf-8"?>
<!-- Generator: Adobe Illustrator 17.0.0, SVG Export Plug-In . SVG Version: 6.00 Build 0)  -->
<!DOCTYPE svg PUBLIC "-//W3C//DTD SVG 1.1//EN" "http://www.w3.org/Graphics/SVG/1.1/DTD/svg11.dtd">
<svg version="1.1" id="Layer_1" xmlns="http://www.w3.org/2000/svg" xmlns:xlink="http://www.w3.org/1999/xlink" x="0px" y="0px"
	 width="52px" height="52px" viewBox="0 0 52 52" enable-background="new 0 0 52 52" xml:space="preserve">
<g>
	<path fill="#95BF46" d="M42.582,10.735c-0.035-0.251-0.256-0.39-0.438-0.406c-0.182-0.015-4.038-0.3-4.038-0.3
		s-2.678-2.65-2.972-2.943c-0.294-0.293-0.868-0.204-1.091-0.139c-0.033,0.01-0.585,0.18-1.499,0.461
		c-0.895-2.566-2.474-4.923-5.251-4.923c-0.077,0-0.156,0.003-0.235,0.008C26.267,1.452,25.288,1,24.443,1
		c-6.47,0-9.562,8.061-10.531,12.158c-2.514,0.776-4.3,1.328-4.529,1.4c-1.403,0.438-1.447,0.482-1.631,1.8
		c-0.139,0.998-3.811,29.299-3.811,29.299L32.555,51l15.504-3.342C48.058,47.658,42.616,10.986,42.582,10.735L42.582,10.735z
		 M30.961,7.897L28.54,8.644c0.001-0.17,0.002-0.337,0.002-0.52c0-1.595-0.222-2.878-0.578-3.896
		C29.395,4.406,30.348,6.029,30.961,7.897z M26.188,4.543c0.398,0.994,0.657,2.42,0.657,4.344c0,0.098-0.001,0.188-0.002,0.28
		c-1.575,0.486-3.286,1.014-5,1.543C22.805,7.007,24.61,5.218,26.188,4.543L26.188,4.543z M24.266,2.73
		c0.279,0,0.561,0.095,0.83,0.279c-2.074,0.972-4.297,3.421-5.236,8.313l-3.953,1.22C17.007,8.811,19.618,2.73,24.266,2.73
		L24.266,2.73z"/>
	<path fill="#5E8E3E" d="M41.886,10.316c-0.19-0.015-4.214-0.3-4.214-0.3s-2.795-2.651-3.101-2.944
		c-0.115-0.109-0.27-0.165-0.431-0.189L31.882,51l16.176-3.343c0,0-5.679-36.684-5.715-36.935
		C42.307,10.47,42.077,10.331,41.886,10.316"/>
	<path fill="#FFFFFF" d="M27.47,19.383l-1.865,5.586c0,0-1.634-0.878-3.637-0.878c-2.936,0-3.084,1.855-3.084,2.323
		c0,2.551,6.604,3.529,6.604,9.504c0,4.702-2.961,7.729-6.954,7.729c-4.791,0-7.241-3.003-7.241-3.003l1.283-4.268
		c0,0,2.519,2.177,4.644,2.177c1.389,0,1.954-1.101,1.954-1.906c0-3.328-5.418-3.476-5.418-8.945c0-4.602,3.28-9.056,9.902-9.056
		C26.21,18.647,27.47,19.383,27.47,19.383"/>
</g>
</svg>
