<svg width="150" height="28" viewBox="0 0 150 28" fill="none" xmlns="http://www.w3.org/2000/svg">
<path d="M38.8839 19.3065V13.2548H37.3499V10.1613H38.8839V6.90968H42.4633V10.1613H45.4424V13.2548H42.4633V18.7645C42.4633 19.6226 42.8413 20.0065 43.6194 20.0065C44.3086 20.0065 44.8422 19.8484 45.3757 19.5323V22.4903C44.6198 22.9645 43.775 23.2581 42.5522 23.2581C40.3957 23.1903 38.8839 22.3323 38.8839 19.3065ZM53.4682 23.2806C55.6914 23.2806 57.4478 22.3548 58.5816 20.8871L56.514 19.0355C55.5136 19.9613 54.691 20.3452 53.4682 20.3452C51.8675 20.3452 50.8004 19.4871 50.4224 17.8613H59.2041C59.2708 17.5452 59.2708 17.2516 59.2708 16.9355C59.2708 13.3 57.3588 9.95806 53.157 9.95806C49.4887 9.95806 46.8875 12.9839 46.8875 16.7097C46.8875 20.5484 49.6443 23.2806 53.4682 23.2806ZM50.3335 15.5806C50.6447 13.9548 51.6229 12.871 53.0903 12.871C54.6243 12.871 55.5358 13.9548 55.7581 15.5806H50.3335ZM67.6745 23.2806C69.8977 23.2806 71.6541 22.3548 72.7879 20.8871L70.7203 19.0355C69.7199 19.9613 68.8973 20.3452 67.6745 20.3452C66.0738 20.3452 65.0067 19.4871 64.6287 17.8613H73.4104C73.4771 17.5452 73.4771 17.2516 73.4771 16.9355C73.4771 13.3 71.5651 9.95806 67.3633 9.95806C63.695 9.95806 61.0938 12.9839 61.0938 16.7097C61.0938 20.5484 63.8506 23.2806 67.6745 23.2806ZM64.5398 15.5806C64.851 13.9548 65.8293 12.871 67.2966 12.871C68.8306 12.871 69.7421 13.9548 69.9644 15.5806H64.5398ZM76.0783 22.9645H79.6576V5.50968H76.0783V22.9645ZM86.305 23.2806C88.0614 23.2806 89.2841 22.671 90.1289 21.6548V23.0548H93.5749V15.5806C93.5749 13.7968 93.1081 12.3968 92.1965 11.471C91.285 10.6129 89.9066 10.071 87.928 10.071C85.7937 10.071 84.4153 10.4548 83.0369 11.0871L83.9484 13.8871C85.1712 13.4129 86.0827 13.1871 87.4611 13.1871C89.2174 13.1871 90.1289 14.0452 90.1289 15.5129V15.7387C89.2841 15.4226 88.3726 15.1968 87.0832 15.1968C84.0374 15.1968 81.9698 16.4387 81.9698 19.3065C81.9475 21.7903 83.9262 23.1903 86.305 23.2806ZM87.4389 20.7064C86.2161 20.7064 85.4602 20.1645 85.4602 19.1484C85.4602 17.9742 86.3717 17.3645 87.9057 17.3645C88.8173 17.3645 89.5954 17.5226 90.1956 17.8387V18.4484C90.1956 19.7806 89.0618 20.7064 87.4389 20.7064ZM100.578 23.1903C102.334 23.1903 103.402 22.2645 104.246 21.1806V22.9645H107.826V10.1613H104.246V17.2968C104.246 19.0806 103.402 19.9387 102.023 19.9387C100.645 19.9387 99.8888 19.0129 99.8888 17.2968V10.1613H96.3095V18.471C96.3095 21.4065 97.9102 23.1903 100.578 23.1903ZM110.827 10.1613V22.9645H114.406V15.829C114.406 14.0452 115.251 13.1871 116.63 13.1871C118.008 13.1871 118.764 14.1129 118.764 15.829V22.9645H122.343V14.6548C122.343 11.6968 120.743 9.9129 118.075 9.9129C116.318 9.9129 115.251 10.8387 114.406 11.9226V10.1613H110.827ZM131.214 23.3484C133.726 23.3484 135.104 22.4226 136.327 21.0226L134.26 18.8548C133.348 19.7129 132.57 20.2548 131.347 20.2548C129.369 20.2548 128.146 18.629 128.146 16.6871V16.6194C128.146 14.7677 129.435 13.1194 131.192 13.1194C132.481 13.1194 133.326 13.6613 134.104 14.5194L136.327 12.1258C135.171 10.7258 133.659 9.95806 131.281 9.95806C127.39 9.95806 124.633 12.9839 124.633 16.7097C124.633 20.3226 127.457 23.2806 131.214 23.3484ZM138.462 5.50968V22.9645H142.063V15.829C142.063 14.0452 142.908 13.1871 144.286 13.1871C145.665 13.1871 146.421 14.1129 146.421 15.829V22.9645H150V14.6548C150 11.6968 148.399 9.9129 145.731 9.9129C143.975 9.9129 142.908 10.8387 142.063 11.9226V5.50968H138.462ZM0 2.00968H1.97866V0H0V2.00968ZM0 12.2613H1.97866V10.2516H0V12.2613ZM24.1441 2.00968H26.1227V0H24.1441V2.00968ZM24.1441 12.2613H26.1227V10.2516H24.1441V12.2613ZM4.26856 28H6.24722V25.9903H4.26856V28ZM19.6976 28H21.6763V25.9903H19.6976V28ZM3.35705 12.0129H4.66874V24.5903H6.04713V10.6355H3.37928V12.0129H3.35705ZM0.311249 8.85161H1.68964V3.43226H0.311249V8.85161ZM24.3664 8.85161H25.7448V3.43226H24.3664V8.85161ZM13.0502 3.25161C14.6732 3.25161 16.2739 2.70968 17.5634 1.71613H22.7657V0.316129H17.0965L16.8742 0.474194C15.7181 1.4 14.4286 1.87419 13.0502 1.87419C11.6719 1.87419 10.3824 1.4 9.22632 0.474194L9.004 0.316129H3.35705V1.71613H8.55936C9.84882 2.70968 11.3828 3.25161 13.0502 3.25161ZM7.64784 27.6839H18.2748V26.2839H7.64784V27.6839ZM21.454 24.5903V12.0129H22.6767V10.6129H20.0089V24.5677H21.454V24.5903Z" fill="white"/>
</svg>
